<?xml version="1.0" encoding="UTF-8" standalone="no"?>
<svg
   version="1.1"
   viewBox="0 0 1633.7559 563.61932"
   fill="none"
   stroke="none"
   stroke-linecap="square"
   stroke-miterlimit="10"
   id="svg100"
   sodipodi:docname="esquema_montaje_placas_00.svg"
   inkscape:version="1.3.2 (091e20e, 2023-11-25)"
   width="1633.7559"
   height="563.61932"
   xmlns:inkscape="http://www.inkscape.org/namespaces/inkscape"
   xmlns:sodipodi="http://sodipodi.sourceforge.net/DTD/sodipodi-0.dtd"
   xmlns="http://www.w3.org/2000/svg"
   xmlns:svg="http://www.w3.org/2000/svg">
  <defs
     id="defs100" />
  <sodipodi:namedview
     id="namedview100"
     pagecolor="#505050"
     bordercolor="#ffffff"
     borderopacity="1"
     inkscape:showpageshadow="0"
     inkscape:pageopacity="0"
     inkscape:pagecheckerboard="1"
     inkscape:deskcolor="#505050"
     inkscape:zoom="0.74685485"
     inkscape:cx="881.02796"
     inkscape:cy="451.22556"
     inkscape:window-width="1920"
     inkscape:window-height="1009"
     inkscape:window-x="1440"
     inkscape:window-y="23"
     inkscape:window-maximized="0"
     inkscape:current-layer="svg100"
     showguides="true" />
  <clipPath
     id="p.0">
    <path
       d="M 0,0 H 1662.9921 V 226.77165 H 0 Z"
       clip-rule="nonzero"
       id="path1" />
  </clipPath>
  <g
     id="g1"
     inkscape:label="regla">
    <path
       stroke="#000000"
       stroke-width="1"
       stroke-linejoin="round"
       stroke-linecap="butt"
       d="M 1179.7126,24.464095 H 1361.13 V 175.64519 h -181.4174 z"
       fill-rule="evenodd"
       id="path4"
       inkscape:label="recuadro_dia_6" />
    <path
       fill="#08ff40"
       d="M 248.05862,62.260391 H 1567.1136 V 137.85094 H 248.05862 Z"
       fill-rule="evenodd"
       id="path5"
       inkscape:label="cinta_melinex"
       style="fill:#009e73;fill-opacity:1" />
    <path
       stroke="#000000"
       stroke-width="1"
       stroke-linejoin="round"
       stroke-linecap="butt"
       d="m 1542.5473,24.464095 h 90.7086 V 175.64519 h -90.7086 z"
       fill-rule="evenodd"
       id="path8"
       inkscape:label="recuadro_regla_fin" />
    <path
       stroke="#000000"
       stroke-width="1"
       stroke-linejoin="round"
       stroke-linecap="butt"
       d="M 91.208659,24.464095 H 272.62596 V 175.64519 H 91.208659 Z"
       fill-rule="evenodd"
       id="path10"
       inkscape:label="recuadro_regla_milimetros" />
    <g
       id="g100"
       inkscape:label="milimetros"
       transform="translate(-14.618111,-14.629079)">
      <path
         stroke="#000000"
         stroke-width="1"
         stroke-linejoin="round"
         stroke-linecap="butt"
         d="m 113.38583,39.093174 h 0.37795 v 18.89764 h -0.37795 z"
         fill-rule="evenodd"
         id="path12" />
      <path
         stroke="#000000"
         stroke-width="1"
         stroke-linejoin="round"
         stroke-linecap="butt"
         d="m 120.94489,39.093174 h 0.37795 v 18.89764 h -0.37795 z"
         fill-rule="evenodd"
         id="path14" />
      <path
         stroke="#000000"
         stroke-width="1"
         stroke-linejoin="round"
         stroke-linecap="butt"
         d="m 128.50394,39.093174 h 0.37796 v 18.89764 h -0.37796 z"
         fill-rule="evenodd"
         id="path16" />
      <path
         stroke="#000000"
         stroke-width="1"
         stroke-linejoin="round"
         stroke-linecap="butt"
         d="m 136.06299,39.093174 h 0.37796 v 18.89764 h -0.37796 z"
         fill-rule="evenodd"
         id="path18" />
      <path
         stroke="#000000"
         stroke-width="1"
         stroke-linejoin="round"
         stroke-linecap="butt"
         d="M 143.62204,39.093174 H 144 v 18.89764 h -0.37796 z"
         fill-rule="evenodd"
         id="path20" />
      <path
         stroke="#000000"
         stroke-width="1"
         stroke-linejoin="round"
         stroke-linecap="butt"
         d="m 151.1811,39.093174 h 0.37794 v 18.89764 h -0.37794 z"
         fill-rule="evenodd"
         id="path22" />
      <path
         stroke="#000000"
         stroke-width="1"
         stroke-linejoin="round"
         stroke-linecap="butt"
         d="m 158.74016,39.093174 h 0.37794 v 18.89764 h -0.37794 z"
         fill-rule="evenodd"
         id="path24" />
      <path
         stroke="#000000"
         stroke-width="1"
         stroke-linejoin="round"
         stroke-linecap="butt"
         d="m 166.29921,39.093174 h 0.37796 v 18.89764 h -0.37796 z"
         fill-rule="evenodd"
         id="path26" />
      <path
         stroke="#000000"
         stroke-width="1"
         stroke-linejoin="round"
         stroke-linecap="butt"
         d="m 173.85826,39.093174 h 0.37796 v 18.89764 h -0.37796 z"
         fill-rule="evenodd"
         id="path28" />
      <path
         stroke="#000000"
         stroke-width="1"
         stroke-linejoin="round"
         stroke-linecap="butt"
         d="m 181.41733,39.093174 h 0.37794 v 18.89764 h -0.37794 z"
         fill-rule="evenodd"
         id="path30" />
      <path
         stroke="#000000"
         stroke-width="1"
         stroke-linejoin="round"
         stroke-linecap="butt"
         d="m 188.97638,39.093174 h 0.37794 v 18.89764 h -0.37794 z"
         fill-rule="evenodd"
         id="path32" />
      <path
         stroke="#000000"
         stroke-width="1"
         stroke-linejoin="round"
         stroke-linecap="butt"
         d="m 196.53543,39.093174 h 0.37796 v 18.89764 h -0.37796 z"
         fill-rule="evenodd"
         id="path34" />
      <path
         stroke="#000000"
         stroke-width="1"
         stroke-linejoin="round"
         stroke-linecap="butt"
         d="m 204.09448,39.093174 h 0.37796 v 18.89764 h -0.37796 z"
         fill-rule="evenodd"
         id="path36" />
      <path
         stroke="#000000"
         stroke-width="1"
         stroke-linejoin="round"
         stroke-linecap="butt"
         d="m 211.65355,39.093174 h 0.37794 v 18.89764 h -0.37794 z"
         fill-rule="evenodd"
         id="path38" />
      <path
         stroke="#000000"
         stroke-width="1"
         stroke-linejoin="round"
         stroke-linecap="butt"
         d="m 219.2126,39.093174 h 0.37794 v 18.89764 h -0.37794 z"
         fill-rule="evenodd"
         id="path40" />
      <path
         stroke="#000000"
         stroke-width="1"
         stroke-linejoin="round"
         stroke-linecap="butt"
         d="m 226.77165,39.093174 h 0.37796 v 18.89764 h -0.37796 z"
         fill-rule="evenodd"
         id="path42" />
      <path
         stroke="#000000"
         stroke-width="1"
         stroke-linejoin="round"
         stroke-linecap="butt"
         d="m 234.3307,39.093174 h 0.37796 v 18.89764 h -0.37796 z"
         fill-rule="evenodd"
         id="path44" />
      <path
         stroke="#000000"
         stroke-width="1"
         stroke-linejoin="round"
         stroke-linecap="butt"
         d="m 241.88977,39.093174 h 0.37794 v 18.89764 h -0.37794 z"
         fill-rule="evenodd"
         id="path46" />
      <path
         stroke="#000000"
         stroke-width="1"
         stroke-linejoin="round"
         stroke-linecap="butt"
         d="m 249.44882,39.093174 h 0.37794 v 18.89764 h -0.37794 z"
         fill-rule="evenodd"
         id="path48" />
      <path
         stroke="#000000"
         stroke-width="1"
         stroke-linejoin="round"
         stroke-linecap="butt"
         d="m 257.00787,39.093174 h 0.37796 v 18.89764 h -0.37796 z"
         fill-rule="evenodd"
         id="path50" />
      <path
         stroke="#000000"
         stroke-width="1"
         stroke-linejoin="round"
         stroke-linecap="butt"
         d="m 264.56693,39.093174 h 0.37796 v 18.89764 h -0.37796 z"
         fill-rule="evenodd"
         id="path52" />
      <path
         stroke="#000000"
         stroke-width="1"
         stroke-linejoin="round"
         stroke-linecap="butt"
         d="m 272.12598,39.093174 h 0.37796 v 18.89764 h -0.37796 z"
         fill-rule="evenodd"
         id="path54" />
      <path
         stroke="#000000"
         stroke-width="1"
         stroke-linejoin="round"
         stroke-linecap="butt"
         d="m 279.68503,39.093174 h 0.37796 v 18.89764 h -0.37796 z"
         fill-rule="evenodd"
         id="path56" />
    </g>
    <path
       stroke="#000000"
       stroke-width="1"
       stroke-linejoin="round"
       stroke-linecap="butt"
       d="M 0.5,24.464095 H 91.208659 V 175.64519 H 0.5 Z"
       fill-rule="evenodd"
       id="path58"
       inkscape:label="recuadro_regla_inicio" />
    <path
       stroke="#000000"
       stroke-width="1"
       stroke-linejoin="round"
       stroke-linecap="butt"
       d="M 816.87792,24.464095 H 998.29529 V 175.64519 H 816.87792 Z"
       fill-rule="evenodd"
       id="path60"
       inkscape:label="recuadro_dia_4" />
    <path
       fill="#000000"
       d="m 886.66863,102.32152 h 1.84375 v 1.375 h -1.84375 v 3.07812 h -1.70313 v -3.07812 h -6.03125 v -1 l 5.9375,-9.187499 h 1.79688 z m -5.82813,0 h 4.125 v -6.499999 l -0.1875,0.35937 z m 17.22596,-5.343749 q 0,0.98437 -0.53125,1.76562 -0.51563,0.76563 -1.40625,1.20313 1.04687,0.453119 1.64062,1.312499 0.60938,0.84375 0.60938,1.9375 0,1.71875 -1.17188,2.75 -1.15625,1.01562 -3.04687,1.01562 -1.90625,0 -3.0625,-1.03125 -1.15625,-1.03125 -1.15625,-2.73437 0,-1.07813 0.59375,-1.9375 0.59375,-0.875 1.625,-1.312499 -0.89063,-0.4375 -1.40625,-1.20313 -0.5,-0.78125 -0.5,-1.76562 0,-1.6875 1.07812,-2.67188 1.07813,-0.98437 2.82813,-0.98437 1.75,0 2.82812,0.98437 1.07813,0.98438 1.07813,2.67188 z m -1.375,6.187499 q 0,-1.125 -0.70313,-1.8125 -0.70312,-0.70313 -1.84375,-0.70313 -1.14062,0 -1.82812,0.6875 -0.6875,0.6875 -0.6875,1.82813 0,1.125 0.67187,1.78125 0.67188,0.64062 1.85938,0.64062 1.1875,0 1.85937,-0.65625 0.67188,-0.65625 0.67188,-1.76562 z m -2.53125,-8.453129 q -0.98438,0 -1.60938,0.625 -0.60937,0.60938 -0.60937,1.65625 0,1.01563 0.60937,1.64063 0.60938,0.625 1.60938,0.625 1.01562,0 1.60937,-0.625 0.60938,-0.625 0.60938,-1.625 0,-1.01563 -0.625,-1.65625 -0.625,-0.64063 -1.59375,-0.64063 z m 12.71942,2.20313 0.0469,1.09375 q 1.07813,-1.26563 2.92188,-1.26563 2.0625,0 2.8125,1.57813 0.5,-0.71875 1.28125,-1.14063 0.79687,-0.4375 1.85937,-0.4375 3.25,0 3.29688,3.421879 v 6.60937 h -1.67188 v -6.5 q 0,-1.062499 -0.48437,-1.578119 -0.48438,-0.53125 -1.625,-0.53125 -0.9375,0 -1.5625,0.5625 -0.60938,0.5625 -0.71875,1.499999 v 6.54687 h -1.6875 v -6.45312 q 0,-2.156249 -2.10938,-2.156249 -1.65625,0 -2.26562,1.40625 v 7.203119 h -1.6875 v -9.859369 z m 16.35156,0 0.0469,1.09375 q 1.07812,-1.26563 2.92187,-1.26563 2.0625,0 2.8125,1.57813 0.5,-0.71875 1.28125,-1.14063 0.79688,-0.4375 1.85938,-0.4375 3.25,0 3.29687,3.421879 v 6.60937 h -1.67187 v -6.5 q 0,-1.062499 -0.48438,-1.578119 -0.48437,-0.53125 -1.625,-0.53125 -0.9375,0 -1.5625,0.5625 -0.60937,0.5625 -0.71875,1.499999 v 6.54687 h -1.6875 v -6.45312 q 0,-2.156249 -2.10937,-2.156249 -1.65625,0 -2.26563,1.40625 v 7.203119 h -1.6875 v -9.859369 z"
       fill-rule="nonzero"
       id="path62"
       inkscape:label="48_mm" />
    <g
       id="g101"
       inkscape:label="felcha"
       transform="translate(-14.618111,-14.629079)">
      <path
         stroke="#000000"
         stroke-width="1"
         stroke-linejoin="round"
         stroke-linecap="butt"
         d="M 888.18896,114.68372 H 837.49603"
         fill-rule="evenodd"
         id="path64" />
      <path
         fill="#000000"
         stroke="#000000"
         stroke-width="1"
         stroke-linecap="butt"
         d="m 837.49603,113.032 -4.53809,1.65173 4.53809,1.65173 z"
         fill-rule="evenodd"
         id="path65" />
    </g>
    <g
       id="g102"
       inkscape:label="flecha"
       transform="translate(-14.618111,-14.629079)">
      <path
         stroke="#000000"
         stroke-width="1"
         stroke-linejoin="round"
         stroke-linecap="butt"
         d="m 956.22046,114.68372 h 50.69294"
         fill-rule="evenodd"
         id="path67" />
      <path
         fill="#000000"
         stroke="#000000"
         stroke-width="1"
         stroke-linecap="butt"
         d="m 1006.9134,116.33546 4.5381,-1.65173 -4.5381,-1.65173 z"
         fill-rule="evenodd"
         id="path68" />
    </g>
    <path
       stroke="#000000"
       stroke-width="1"
       stroke-linejoin="round"
       stroke-linecap="butt"
       d="M 272.62597,24.464095 H 454.0433 V 175.64519 H 272.62597 Z"
       fill-rule="evenodd"
       id="path70"
       inkscape:label="recuadro_dia_1" />
    <path
       fill="#000000"
       d="m 343.83859,197.49774 v -13.26563 h 3.73437 q 1.73438,0 3.0625,0.76563 1.32813,0.76562 2.04688,2.1875 0.73437,1.40625 0.73437,3.23437 v 0.84375 q 0,1.875 -0.71875,3.29688 -0.71875,1.40625 -2.0625,2.17187 -1.34375,0.75 -3.14062,0.76563 z m 1.73437,-11.82813 v 10.39063 h 1.84375 q 2.03125,0 3.15625,-1.25 1.125,-1.25 1.125,-3.57813 v -0.78125 q 0,-2.25 -1.0625,-3.5 -1.0625,-1.26562 -3.01562,-1.28125 z m 12.06217,11.82813 H 355.932 v -9.85938 h 1.70313 z m 0.0156,-13.98438 h 2.04688 l -2.4375,2.6875 h -1.35938 z m 8.84378,13.98438 q -0.14062,-0.29688 -0.23437,-1.03125 -1.17188,1.21875 -2.8125,1.21875 -1.45313,0 -2.39063,-0.82813 -0.92187,-0.82812 -0.92187,-2.09375 0,-1.53125 1.15625,-2.375 1.17187,-0.85937 3.29687,-0.85937 h 1.64063 v -0.78125 q 0,-0.89063 -0.53125,-1.40625 -0.51563,-0.53125 -1.54688,-0.53125 -0.90625,0 -1.51562,0.46875 -0.60938,0.45312 -0.60938,1.09375 h -1.70312 q 0,-0.73438 0.51562,-1.42188 0.53125,-0.6875 1.42188,-1.07812 0.90625,-0.40625 1.98437,-0.40625 1.70313,0 2.67188,0.85937 0.96875,0.84375 1,2.32813 v 4.53125 q 0,1.35937 0.34375,2.17187 v 0.14063 z m -2.79687,-1.28125 q 0.79687,0 1.5,-0.40625 0.71875,-0.42188 1.03125,-1.07813 v -2.01562 h -1.3125 q -3.10938,0 -3.10938,1.8125 0,0.79687 0.53125,1.25 0.53125,0.4375 1.35938,0.4375 z m 16.84463,1.28125 h -1.6875 v -11.23438 l -3.40625,1.25 v -1.53125 l 4.82813,-1.8125 h 0.26562 z"
       fill-rule="nonzero"
       id="path72"
       inkscape:label="dia_1" />
    <path
       stroke="#000000"
       stroke-width="1"
       stroke-linejoin="round"
       stroke-linecap="butt"
       d="M 454.04329,24.464095 H 635.46062 V 175.64519 H 454.04329 Z"
       fill-rule="evenodd"
       id="path74"
       inkscape:label="recuadro_dia_2" />
    <path
       fill="#000000"
       d="m 525.25589,197.49774 v -13.26563 h 3.73438 q 1.73437,0 3.0625,0.76563 1.32812,0.76562 2.04687,2.1875 0.73438,1.40625 0.73438,3.23437 v 0.84375 q 0,1.875 -0.71875,3.29688 -0.71875,1.40625 -2.0625,2.17187 -1.34375,0.75 -3.14063,0.76563 z m 1.73438,-11.82813 v 10.39063 h 1.84375 q 2.03125,0 3.15625,-1.25 1.125,-1.25 1.125,-3.57813 v -0.78125 q 0,-2.25 -1.0625,-3.5 -1.0625,-1.26562 -3.01563,-1.28125 z m 12.06219,11.82813 h -1.70313 v -9.85938 h 1.70313 z m 0.0156,-13.98438 h 2.04688 l -2.4375,2.6875 h -1.35938 z m 8.84375,13.98438 q -0.14062,-0.29688 -0.23437,-1.03125 -1.17188,1.21875 -2.8125,1.21875 -1.45313,0 -2.39063,-0.82813 -0.92187,-0.82812 -0.92187,-2.09375 0,-1.53125 1.15625,-2.375 1.17187,-0.85937 3.29687,-0.85937 h 1.64063 v -0.78125 q 0,-0.89063 -0.53125,-1.40625 -0.51563,-0.53125 -1.54688,-0.53125 -0.90625,0 -1.51562,0.46875 -0.60938,0.45312 -0.60938,1.09375 h -1.70312 q 0,-0.73438 0.51562,-1.42188 0.53125,-0.6875 1.42188,-1.07812 0.90625,-0.40625 1.98437,-0.40625 1.70313,0 2.67188,0.85937 0.96875,0.84375 1,2.32813 v 4.53125 q 0,1.35937 0.34375,2.17187 v 0.14063 z m -2.79687,-1.28125 q 0.79687,0 1.5,-0.40625 0.71875,-0.42188 1.03125,-1.07813 v -2.01562 h -1.3125 q -3.10938,0 -3.10938,1.8125 0,0.79687 0.53125,1.25 0.53125,0.4375 1.35938,0.4375 z m 20.00085,1.28125 h -8.6875 v -1.21875 l 4.57813,-5.09375 q 1.03125,-1.15625 1.40625,-1.875 0.39062,-0.73438 0.39062,-1.5 0,-1.04688 -0.625,-1.70313 -0.625,-0.67187 -1.67187,-0.67187 -1.26563,0 -1.96875,0.71875 -0.6875,0.71875 -0.6875,1.98437 h -1.6875 q 0,-1.82812 1.17187,-2.95312 1.1875,-1.14063 3.17188,-1.14063 1.84375,0 2.92187,0.98438 1.07813,0.96875 1.07813,2.57812 0,1.95313 -2.5,4.65625 l -3.54688,3.85938 h 6.65625 z"
       fill-rule="nonzero"
       id="path76"
       inkscape:label="dia_2" />
    <path
       stroke="#000000"
       stroke-width="1"
       stroke-linejoin="round"
       stroke-linecap="butt"
       d="m 635.46063,24.464095 h 181.4173 V 175.64519 h -181.4173 z"
       fill-rule="evenodd"
       id="path78"
       inkscape:label="recuadro_dia_3" />
    <path
       fill="#000000"
       d="m 706.67319,197.49774 v -13.26563 h 3.73437 q 1.73438,0 3.0625,0.76563 1.32813,0.76562 2.04688,2.1875 0.73437,1.40625 0.73437,3.23437 v 0.84375 q 0,1.875 -0.71875,3.29688 -0.71875,1.40625 -2.0625,2.17187 -1.34375,0.75 -3.14062,0.76563 z m 1.73437,-11.82813 v 10.39063 h 1.84375 q 2.03125,0 3.15625,-1.25 1.125,-1.25 1.125,-3.57813 v -0.78125 q 0,-2.25 -1.0625,-3.5 -1.0625,-1.26562 -3.01562,-1.28125 z m 12.0622,11.82813 h -1.70313 v -9.85938 h 1.70313 z m 0.0156,-13.98438 h 2.04688 l -2.4375,2.6875 h -1.35938 z m 8.84382,13.98438 q -0.14063,-0.29688 -0.23438,-1.03125 -1.17187,1.21875 -2.8125,1.21875 -1.45312,0 -2.39062,-0.82813 -0.92188,-0.82812 -0.92188,-2.09375 0,-1.53125 1.15625,-2.375 1.17188,-0.85937 3.29688,-0.85937 h 1.64062 v -0.78125 q 0,-0.89063 -0.53125,-1.40625 -0.51562,-0.53125 -1.54687,-0.53125 -0.90625,0 -1.51563,0.46875 -0.60937,0.45312 -0.60937,1.09375 h -1.70313 q 0,-0.73438 0.51563,-1.42188 0.53125,-0.6875 1.42187,-1.07812 0.90625,-0.40625 1.98438,-0.40625 1.70312,0 2.67187,0.85937 0.96875,0.84375 1,2.32813 v 4.53125 q 0,1.35937 0.34375,2.17187 v 0.14063 z m -2.79688,-1.28125 q 0.79688,0 1.5,-0.40625 0.71875,-0.42188 1.03125,-1.07813 v -2.01562 h -1.3125 q -3.10937,0 -3.10937,1.8125 0,0.79687 0.53125,1.25 0.53125,0.4375 1.35937,0.4375 z m 13.75086,-6.17188 h 1.26562 q 1.20313,-0.0156 1.875,-0.625 0.6875,-0.60937 0.6875,-1.65625 0,-2.32812 -2.3125,-2.32812 -1.09375,0 -1.75,0.625 -0.65625,0.625 -0.65625,1.65625 h -1.6875 q 0,-1.57813 1.15625,-2.625 1.15625,-1.04688 2.9375,-1.04688 1.875,0 2.9375,1 1.0625,1 1.0625,2.76563 0,0.85937 -0.5625,1.67187 -0.5625,0.8125 -1.51562,1.20313 1.09375,0.35937 1.6875,1.15625 0.59375,0.79687 0.59375,1.95312 0,1.79688 -1.17188,2.84375 -1.15625,1.04688 -3.03125,1.04688 -1.85937,0 -3.03125,-1.01563 -1.17187,-1.01562 -1.17187,-2.67187 h 1.6875 q 0,1.04687 0.6875,1.6875 0.6875,0.625 1.82812,0.625 1.21875,0 1.85938,-0.64063 0.65625,-0.64062 0.65625,-1.82812 0,-1.15625 -0.71875,-1.78125 -0.70313,-0.625 -2.04688,-0.64063 h -1.26562 z"
       fill-rule="nonzero"
       id="path80"
       inkscape:label="dia_3" />
    <path
       stroke="#000000"
       stroke-width="1"
       stroke-linejoin="round"
       stroke-linecap="butt"
       d="M 998.29529,24.464095 H 1179.7126 V 175.64519 H 998.29529 Z"
       fill-rule="evenodd"
       id="path82"
       inkscape:label="recuadro_dia_5" />
    <path
       fill="#000000"
       d="m 1069.5079,197.49774 v -13.26563 h 3.7344 q 1.7344,0 3.0625,0.76563 1.3281,0.76562 2.0469,2.1875 0.7343,1.40625 0.7343,3.23437 v 0.84375 q 0,1.875 -0.7187,3.29688 -0.7188,1.40625 -2.0625,2.17187 -1.3438,0.75 -3.1406,0.76563 z m 1.7344,-11.82813 v 10.39063 h 1.8437 q 2.0313,0 3.1563,-1.25 1.125,-1.25 1.125,-3.57813 v -0.78125 q 0,-2.25 -1.0625,-3.5 -1.0625,-1.26562 -3.0156,-1.28125 z m 12.0621,11.82813 h -1.7031 v -9.85938 h 1.7031 z m 0.016,-13.98438 h 2.0469 l -2.4375,2.6875 h -1.3594 z m 8.8439,13.98438 q -0.1406,-0.29688 -0.2344,-1.03125 -1.1718,1.21875 -2.8125,1.21875 -1.4531,0 -2.3906,-0.82813 -0.9219,-0.82812 -0.9219,-2.09375 0,-1.53125 1.1563,-2.375 1.1719,-0.85937 3.2969,-0.85937 h 1.6406 v -0.78125 q 0,-0.89063 -0.5313,-1.40625 -0.5156,-0.53125 -1.5468,-0.53125 -0.9063,0 -1.5157,0.46875 -0.6093,0.45312 -0.6093,1.09375 h -1.7032 q 0,-0.73438 0.5157,-1.42188 0.5312,-0.6875 1.4218,-1.07812 0.9063,-0.40625 1.9844,-0.40625 1.7031,0 2.6719,0.85937 0.9687,0.84375 1,2.32813 v 4.53125 q 0,1.35937 0.3437,2.17187 v 0.14063 z m -2.7969,-1.28125 q 0.7969,0 1.5,-0.40625 0.7188,-0.42188 1.0313,-1.07813 v -2.01562 h -1.3125 q -3.1094,0 -3.1094,1.8125 0,0.79687 0.5313,1.25 0.5312,0.4375 1.3593,0.4375 z m 12.079,-5.375 0.6719,-6.60938 h 6.7969 v 1.5625 h -5.3594 l -0.4063,3.60938 q 0.9844,-0.5625 2.2188,-0.5625 1.8125,0 2.875,1.20312 1.0625,1.1875 1.0625,3.21875 0,2.0625 -1.1094,3.25 -1.0937,1.17188 -3.0937,1.17188 -1.75,0 -2.8594,-0.96875 -1.1094,-0.98438 -1.2656,-2.70313 h 1.5937 q 0.1563,1.14063 0.8125,1.71875 0.6563,0.57813 1.7188,0.57813 1.1875,0 1.8437,-0.79688 0.6719,-0.8125 0.6719,-2.21875 0,-1.32812 -0.7188,-2.14062 -0.7187,-0.8125 -1.9218,-0.8125 -1.1094,0 -1.7344,0.48437 l -0.4531,0.375 z"
       fill-rule="nonzero"
       id="path84"
       inkscape:label="dia_5" />
    <path
       fill="#000000"
       d="m 1250.9252,197.49774 v -13.26563 h 3.7344 q 1.7344,0 3.0625,0.76563 1.3281,0.76562 2.0469,2.1875 0.7343,1.40625 0.7343,3.23437 v 0.84375 q 0,1.875 -0.7187,3.29688 -0.7188,1.40625 -2.0625,2.17187 -1.3438,0.75 -3.1406,0.76563 z m 1.7344,-11.82813 v 10.39063 h 1.8437 q 2.0313,0 3.1563,-1.25 1.125,-1.25 1.125,-3.57813 v -0.78125 q 0,-2.25 -1.0625,-3.5 -1.0625,-1.26562 -3.0156,-1.28125 z m 12.0621,11.82813 h -1.7031 v -9.85938 h 1.7031 z m 0.016,-13.98438 h 2.0469 l -2.4375,2.6875 h -1.3594 z m 8.8438,13.98438 q -0.1406,-0.29688 -0.2344,-1.03125 -1.1719,1.21875 -2.8125,1.21875 -1.4531,0 -2.3906,-0.82813 -0.9219,-0.82812 -0.9219,-2.09375 0,-1.53125 1.1563,-2.375 1.1718,-0.85937 3.2968,-0.85937 h 1.6407 v -0.78125 q 0,-0.89063 -0.5313,-1.40625 -0.5156,-0.53125 -1.5469,-0.53125 -0.9062,0 -1.5156,0.46875 -0.6094,0.45312 -0.6094,1.09375 h -1.7031 q 0,-0.73438 0.5156,-1.42188 0.5313,-0.6875 1.4219,-1.07812 0.9063,-0.40625 1.9844,-0.40625 1.7031,0 2.6719,0.85937 0.9687,0.84375 1,2.32813 v 4.53125 q 0,1.35937 0.3437,2.17187 v 0.14063 z m -2.7969,-1.28125 q 0.7969,0 1.5,-0.40625 0.7188,-0.42188 1.0313,-1.07813 v -2.01562 h -1.3125 q -3.1094,0 -3.1094,1.8125 0,0.79687 0.5312,1.25 0.5313,0.4375 1.3594,0.4375 z m 17.9229,-11.98438 v 1.42188 h -0.3125 q -1.9688,0.0312 -3.1407,1.17187 -1.1562,1.125 -1.3437,3.17188 1.0469,-1.20313 2.8594,-1.20313 1.7343,0 2.7656,1.21875 1.0312,1.21875 1.0312,3.15625 0,2.04688 -1.125,3.28125 -1.1093,1.23438 -2.9843,1.23438 -1.8907,0 -3.0782,-1.45313 -1.1875,-1.46875 -1.1875,-3.78125 v -0.64062 q 0,-3.67188 1.5625,-5.60938 1.5625,-1.9375 4.6563,-1.96875 z m -2.2188,5.96875 q -0.8594,0 -1.5937,0.51563 -0.7344,0.51562 -1.0157,1.3125 v 0.60937 q 0,1.64063 0.7344,2.64063 0.75,1 1.8438,1 1.1406,0 1.7968,-0.82813 0.6563,-0.84375 0.6563,-2.20312 0,-1.35938 -0.6719,-2.20313 -0.6562,-0.84375 -1.75,-0.84375 z"
       fill-rule="nonzero"
       id="path86"
       inkscape:label="dia_6" />
    <path
       stroke="#000000"
       stroke-width="1"
       stroke-linejoin="round"
       stroke-linecap="butt"
       d="m 1361.1299,24.464095 h 181.4174 V 175.64519 h -181.4174 z"
       fill-rule="evenodd"
       id="path88"
       inkscape:label="recuadro_dia_7" />
    <path
       fill="#000000"
       d="m 1432.3425,197.49774 v -13.26563 h 3.7344 q 1.7344,0 3.0625,0.76563 1.3281,0.76562 2.0469,2.1875 0.7343,1.40625 0.7343,3.23437 v 0.84375 q 0,1.875 -0.7187,3.29688 -0.7188,1.40625 -2.0625,2.17187 -1.3438,0.75 -3.1406,0.76563 z m 1.7344,-11.82813 v 10.39063 h 1.8437 q 2.0313,0 3.1563,-1.25 1.125,-1.25 1.125,-3.57813 v -0.78125 q 0,-2.25 -1.0625,-3.5 -1.0625,-1.26562 -3.0156,-1.28125 z m 12.0622,11.82813 h -1.7031 v -9.85938 h 1.7031 z m 0.016,-13.98438 h 2.0468 l -2.4375,2.6875 h -1.3593 z m 8.8437,13.98438 q -0.1406,-0.29688 -0.2344,-1.03125 -1.1718,1.21875 -2.8125,1.21875 -1.4531,0 -2.3906,-0.82813 -0.9219,-0.82812 -0.9219,-2.09375 0,-1.53125 1.1563,-2.375 1.1719,-0.85937 3.2969,-0.85937 h 1.6406 v -0.78125 q 0,-0.89063 -0.5313,-1.40625 -0.5156,-0.53125 -1.5468,-0.53125 -0.9063,0 -1.5157,0.46875 -0.6093,0.45312 -0.6093,1.09375 h -1.7032 q 0,-0.73438 0.5157,-1.42188 0.5312,-0.6875 1.4218,-1.07812 0.9063,-0.40625 1.9844,-0.40625 1.7031,0 2.6719,0.85937 0.9687,0.84375 1,2.32813 v 4.53125 q 0,1.35937 0.3437,2.17187 v 0.14063 z m -2.7969,-1.28125 q 0.7969,0 1.5,-0.40625 0.7188,-0.42188 1.0313,-1.07813 v -2.01562 h -1.3125 q -3.1094,0 -3.1094,1.8125 0,0.79687 0.5313,1.25 0.5312,0.4375 1.3593,0.4375 z m 19.8759,-11.03125 -5.5,12.3125 h -1.7656 l 5.4687,-11.875 h -7.1719 v -1.39063 h 8.9688 z"
       fill-rule="nonzero"
       id="path90"
       inkscape:label="dia_7" />
    <path
       fill="#000000"
       d="m 888.09059,197.49774 v -13.26563 h 3.73438 q 1.73437,0 3.0625,0.76563 1.32812,0.76562 2.04687,2.1875 0.73438,1.40625 0.73438,3.23437 v 0.84375 q 0,1.875 -0.71875,3.29688 -0.71875,1.40625 -2.0625,2.17187 -1.34375,0.75 -3.14063,0.76563 z m 1.73438,-11.82813 v 10.39063 h 1.84375 q 2.03125,0 3.15625,-1.25 1.125,-1.25 1.125,-3.57813 v -0.78125 q 0,-2.25 -1.0625,-3.5 -1.0625,-1.26562 -3.01563,-1.28125 z m 12.06213,11.82813 h -1.70313 v -9.85938 h 1.70313 z m 0.0156,-13.98438 h 2.04688 l -2.4375,2.6875 h -1.35938 z m 8.84381,13.98438 q -0.14062,-0.29688 -0.23437,-1.03125 -1.17188,1.21875 -2.8125,1.21875 -1.45313,0 -2.39063,-0.82813 -0.92187,-0.82812 -0.92187,-2.09375 0,-1.53125 1.15625,-2.375 1.17187,-0.85937 3.29687,-0.85937 h 1.64063 v -0.78125 q 0,-0.89063 -0.53125,-1.40625 -0.51563,-0.53125 -1.54688,-0.53125 -0.90625,0 -1.51562,0.46875 -0.60938,0.45312 -0.60938,1.09375 h -1.70312 q 0,-0.73438 0.51562,-1.42188 0.53125,-0.6875 1.42188,-1.07812 0.90625,-0.40625 1.98437,-0.40625 1.70313,0 2.67188,0.85937 0.96875,0.84375 1,2.32813 v 4.53125 q 0,1.35937 0.34375,2.17187 v 0.14063 z m -2.79687,-1.28125 q 0.79687,0 1.5,-0.40625 0.71875,-0.42188 1.03125,-1.07813 v -2.01562 h -1.3125 q -3.10938,0 -3.10938,1.8125 0,0.79687 0.53125,1.25 0.53125,0.4375 1.35938,0.4375 z m 18.42273,-3.17188 h 1.84375 v 1.375 h -1.84375 v 3.07813 h -1.70313 v -3.07813 h -6.03125 v -1 l 5.9375,-9.1875 h 1.79688 z m -5.82813,0 h 4.125 v -6.5 l -0.1875,0.35938 z"
       fill-rule="nonzero"
       id="path92"
       inkscape:label="dia_4" />
    <path
       fill="#000000"
       d="m 876.94779,5.999999 h 1.26563 q 1.20312,-0.01563 1.875,-0.625 0.6875,-0.609375 0.6875,-1.65625 0,-2.328125 -2.3125,-2.328125 -1.09375,0 -1.75,0.625 -0.65625,0.625 -0.65625,1.65625 h -1.6875 q 0,-1.578125 1.15625,-2.624999 Q 876.68217,0 878.46342,0 q 1.875,0 2.9375,1 1.0625,0.999999 1.0625,2.765624 0,0.859375 -0.5625,1.671875 -0.5625,0.8125 -1.51563,1.203125 1.09375,0.359375 1.6875,1.15625 0.59375,0.796875 0.59375,1.953125 0,1.796875 -1.17187,2.84375 -1.15625,1.046875 -3.03125,1.046875 -1.85938,0 -3.03125,-1.015625 -1.17188,-1.015625 -1.17188,-2.671875 h 1.6875 q 0,1.046875 0.6875,1.6875 0.6875,0.625 1.82813,0.625 1.21875,0 1.85937,-0.640625 0.65625,-0.640625 0.65625,-1.828125 0,-1.15625 -0.71875,-1.78125 -0.70312,-0.625 -2.04687,-0.640625 h -1.26563 z m 10.47589,0 h 1.26563 q 1.20312,-0.01563 1.875,-0.625 0.6875,-0.609375 0.6875,-1.65625 0,-2.328125 -2.3125,-2.328125 -1.09375,0 -1.75,0.625 -0.65625,0.625 -0.65625,1.65625 h -1.6875 q 0,-1.578125 1.15625,-2.624999 Q 887.15806,0 888.93931,0 q 1.875,0 2.9375,1 1.0625,0.999999 1.0625,2.765624 0,0.859375 -0.5625,1.671875 -0.5625,0.8125 -1.51563,1.203125 1.09375,0.359375 1.6875,1.15625 0.59375,0.796875 0.59375,1.953125 0,1.796875 -1.17187,2.84375 -1.15625,1.046875 -3.03125,1.046875 -1.85938,0 -3.03125,-1.015625 -1.17188,-1.015625 -1.17188,-2.671875 h 1.6875 q 0,1.046875 0.6875,1.6875 0.6875,0.625 1.82813,0.625 1.21875,0 1.85937,-0.640625 0.65625,-0.640625 0.65625,-1.828125 0,-1.15625 -0.71875,-1.78125 -0.70312,-0.625 -2.04687,-0.640625 h -1.26563 z M 902.07151,0.1875 v 1.421874 h -0.3125 q -1.96875,0.03125 -3.14063,1.171875 -1.15625,1.125 -1.34375,3.171875 1.04688,-1.203125 2.85938,-1.203125 1.73437,0 2.76562,1.21875 1.03125,1.21875 1.03125,3.15625 0,2.046875 -1.125,3.28125 -1.10937,1.234375 -2.98437,1.234375 -1.89063,0 -3.07813,-1.453125 -1.1875,-1.46875 -1.1875,-3.78125 V 7.765624 q 0,-3.671875 1.5625,-5.609375 1.5625,-1.937499 4.65625,-1.968749 z m -2.21875,5.968749 q -0.85938,0 -1.59375,0.515625 -0.73438,0.515625 -1.01563,1.3125 v 0.609375 q 0,1.640625 0.73438,2.640625 0.75,1 1.84375,1 1.14062,0 1.79687,-0.828125 0.65625,-0.84375 0.65625,-2.203125 0,-1.359375 -0.67187,-2.203125 -0.65625,-0.84375 -1.75,-0.84375 z m 12.45379,-2.5625 0.0469,1.09375 q 1.07812,-1.265625 2.92187,-1.265625 2.0625,0 2.8125,1.578125 0.5,-0.71875 1.28125,-1.140625 0.79688,-0.4375 1.85938,-0.4375 3.25,0 3.29687,3.421875 v 6.609375 h -1.67187 v -6.5 q 0,-1.0625 -0.48438,-1.578125 -0.48437,-0.53125 -1.625,-0.53125 -0.9375,0 -1.5625,0.5625 -0.60937,0.5625 -0.71875,1.5 v 6.546875 h -1.6875 V 6.999999 q 0,-2.15625 -2.10937,-2.15625 -1.65625,0 -2.26563,1.40625 v 7.203125 h -1.6875 V 3.593749 Z m 16.35157,0 0.0469,1.09375 q 1.07813,-1.265625 2.92188,-1.265625 2.0625,0 2.8125,1.578125 0.5,-0.71875 1.28125,-1.140625 0.79687,-0.4375 1.85937,-0.4375 3.25,0 3.29688,3.421875 v 6.609375 h -1.67188 v -6.5 q 0,-1.0625 -0.48437,-1.578125 -0.48438,-0.53125 -1.625,-0.53125 -0.9375,0 -1.5625,0.5625 -0.60938,0.5625 -0.71875,1.5 v 6.546875 h -1.6875 V 6.999999 q 0,-2.15625 -2.10938,-2.15625 -1.65625,0 -2.26562,1.40625 v 7.203125 h -1.6875 V 3.593749 Z"
       fill-rule="nonzero"
       id="path94"
       inkscape:label="336_mm" />
    <g
       id="g103"
       inkscape:label="flecha"
       transform="translate(-14.618111,-14.629079)">
      <path
         stroke="#000000"
         stroke-width="1"
         stroke-linejoin="round"
         stroke-linecap="butt"
         d="M 880.8189,21.362206 293.43304,20.208634"
         fill-rule="evenodd"
         id="path96" />
      <path
         fill="#000000"
         stroke="#000000"
         stroke-width="1"
         stroke-linecap="butt"
         d="m 293.4363,18.556904 -4.54135,1.642818 4.53485,1.660641 z"
         fill-rule="evenodd"
         id="path97" />
    </g>
    <g
       id="g104"
       inkscape:label="flecha"
       transform="translate(-14.618111,-14.629079)">
      <path
         stroke="#000000"
         stroke-width="1"
         stroke-linejoin="round"
         stroke-linecap="butt"
         d="m 963.9685,21.360893 587.3859,-1.153572"
         fill-rule="evenodd"
         id="path99" />
      <path
         fill="#000000"
         stroke="#000000"
         stroke-width="1"
         stroke-linecap="butt"
         d="m 1551.3575,21.85905 4.5349,-1.660641 -4.5414,-1.642818 z"
         fill-rule="evenodd"
         id="path100" />
    </g>
  </g>
  <g
     id="g42"
     inkscape:label="portaobjetos_izquierda"
     transform="translate(-18.397638,209.22142)">
    <path
       stroke="#000000"
       stroke-width="1"
       stroke-linejoin="round"
       stroke-linecap="butt"
       d="M 18.897638,94.48819 H 585.82678 V 283.46457 H 18.897638 Z"
       fill-rule="evenodd"
       id="path4-0"
       inkscape:label="portaobjetos" />
    <path
       fill="#000000"
       d="m 37.426693,270.169 18.5625,-7.4375 -18.5625,-7.4375 v -3.89063 h 22.75 v 3 h -8.859375 l -9.5625,-0.28125 18.421875,7.46875 v 2.29688 l -18.375,7.45312 9.515625,-0.29687 h 8.859375 v 3 h -22.75 z m 12.234375,-36.92188 v 9.85938 h 8.0625 v -11.45313 h 2.453125 v 14.45313 h -22.75 v -14.29688 h 2.46875 v 11.29688 h 7.3125 v -9.85938 z M 60.176693,227.919 h -22.75 v -6.42188 q 0,-2.96875 1.3125,-5.25 1.3125,-2.28125 3.734375,-3.51562 2.421875,-1.25 5.5625,-1.26563 h 1.453125 q 3.21875,0 5.640625,1.25 2.421875,1.23438 3.71875,3.54688 1.296875,2.29687 1.328125,5.35937 z m -20.28125,-3 h 17.828125 v -3.15625 q 0,-3.46875 -2.15625,-5.39063 -2.15625,-1.9375 -6.140625,-1.9375 h -1.328125 q -3.875,0 -6.015625,1.82813 -2.15625,1.8125 -2.1875,5.15625 z m 10.140625,-32.60938 q -1.109375,3.85938 -2.71875,5.625 -1.625,1.75 -4,1.75 -2.6875,0 -4.4375,-2.14062 -1.765625,-2.15625 -1.765625,-5.59375 0,-2.34375 0.90625,-4.17188 0.90625,-1.84375 2.5,-2.84375 1.59375,-1.01562 3.484375,-1.01562 v 3.01562 q -2.0625,0 -3.234375,1.3125 -1.1875,1.3125 -1.1875,3.70313 0,2.21875 0.984375,3.46875 0.96875,1.23437 2.703125,1.23437 1.390625,0 2.359375,-1.17187 0.953125,-1.1875 1.75,-4.01563 0.796875,-2.84375 1.765625,-4.4375 0.953125,-1.60937 2.234375,-2.375 1.28125,-0.78125 3.015625,-0.78125 2.765625,0 4.4375,2.15625 1.65625,2.15625 1.65625,5.76563 0,2.34375 -0.890625,4.375 -0.90625,2.03125 -2.46875,3.14062 -1.5625,1.09375 -3.546875,1.09375 v -3.01562 q 2.0625,0 3.265625,-1.51563 1.1875,-1.53125 1.1875,-4.07812 0,-2.375 -0.96875,-3.64063 -0.96875,-1.26562 -2.640625,-1.26562 -1.671875,0 -2.578125,1.17187 -0.921875,1.17188 -1.8125,4.25 z m 0.4375,-25.79687 q 5.078125,0 7.546875,1.73437 2.46875,1.73438 2.46875,5.42188 0,3.64062 -2.40625,5.39062 -2.421875,1.75 -7.21875,1.8125 h -3.859375 q -5.015625,0 -7.453125,-1.73437 -2.4375,-1.73438 -2.4375,-5.4375 0,-3.67188 2.359375,-5.40625 2.34375,-1.73438 7.25,-1.78125 z m -3.953125,2.89062 q -3.671875,0 -5.34375,1.03125 -1.6875,1.03125 -1.6875,3.26563 0,2.21875 1.671875,3.23437 1.671875,1.01563 5.140625,1.04688 h 4.625 q 3.6875,0 5.453125,-1.0625 1.75,-1.07813 1.75,-3.25 0,-2.14063 -1.65625,-3.17188 -1.65625,-1.04687 -5.21875,-1.09375 z M 50.473568,148.544 q 5.078125,0 7.546875,1.73437 2.46875,1.73438 2.46875,5.42188 0,3.64062 -2.40625,5.39062 -2.421875,1.75 -7.21875,1.8125 h -3.859375 q -5.015625,0 -7.453125,-1.73437 -2.4375,-1.73438 -2.4375,-5.4375 0,-3.67188 2.359375,-5.40625 2.34375,-1.73438 7.25,-1.78125 z m -3.953125,2.89062 q -3.671875,0 -5.34375,1.03125 -1.6875,1.03125 -1.6875,3.26563 0,2.21875 1.671875,3.23437 1.671875,1.01563 5.140625,1.04688 h 4.625 q 3.6875,0 5.453125,-1.0625 1.75,-1.07813 1.75,-3.25 0,-2.14063 -1.65625,-3.17188 -1.65625,-1.04687 -5.21875,-1.09375 z m 13.65625,-16.09375 v 2.90625 H 40.911068 l 2.140625,5.82813 h -2.625 L 37.317318,135.794 v -0.45313 z"
       fill-rule="nonzero"
       id="path6"
       inkscape:label="etiqueta" />
    <path
       fill="#000000"
       d="m 98.5767,259.88776 v 14.90625 h -2.078125 l -8.75,-7.875 q -1.984375,-1.75 -3.21875,-2.40625 -1.25,-0.67187 -2.578125,-0.67187 -1.78125,0 -2.921875,1.07812 -1.140625,1.07813 -1.140625,2.875 0,2.15625 1.234375,3.35938 1.21875,1.1875 3.40625,1.1875 v 2.89062 q -3.140625,0 -5.078125,-2.01562 -1.9375,-2.03125 -1.9375,-5.42188 0,-3.17187 1.671875,-5.01562 1.65625,-1.84375 4.421875,-1.84375 3.359375,0 8,4.28125 l 6.609375,6.09375 v -11.42188 z m -9.703125,-17.32812 q 5.078125,0 7.546875,1.73437 2.46875,1.73438 2.46875,5.42188 0,3.64062 -2.40625,5.39062 -2.421875,1.75 -7.21875,1.8125 h -3.859375 q -5.015625,0 -7.453125,-1.73437 -2.4375,-1.73438 -2.4375,-5.4375 0,-3.67188 2.359375,-5.40625 2.34375,-1.73438 7.25,-1.78125 z m -3.953125,2.89062 q -3.671875,0 -5.34375,1.03125 -1.6875,1.03125 -1.6875,3.26563 0,2.21875 1.671875,3.23437 1.671875,1.01563 5.140625,1.04688 h 4.625 q 3.6875,0 5.453125,-1.0625 1.75,-1.07813 1.75,-3.25 0,-2.14063 -1.65625,-3.17188 -1.65625,-1.04687 -5.21875,-1.09375 z M 98.5767,229.35651 v 2.90625 H 79.311075 l 2.140625,5.82813 h -2.625 l -3.109375,-8.28125 v -0.45313 z m -10,-19.54687 q 1.078125,0.90625 1.734375,2.17187 0.65625,1.25 0.65625,2.75 0,1.96875 -0.96875,3.4375 -0.96875,1.45313 -2.71875,2.25 -1.765625,0.79688 -3.890625,0.79688 -2.28125,0 -4.109375,-0.85938 -1.828125,-0.875 -2.796875,-2.46875 -0.96875,-1.59375 -0.96875,-3.71875 0,-3.375 2.53125,-5.3125 2.515625,-1.95312 6.875,-1.95312 h 0.84375 q 6.640625,0 9.703125,2.625 3.046875,2.625 3.125,7.92187 v 0.5625 h -2.4375 v -0.60937 q -0.0625,-3.57813 -1.859375,-5.5 -1.8125,-1.92188 -5.71875,-2.09375 z m 0,4.45312 q 0,-1.45312 -0.890625,-2.67187 -0.890625,-1.23438 -2.203125,-1.79688 H 84.3267 q -2.84375,0 -4.625,1.23438 -1.78125,1.23437 -1.78125,3.125 0,1.90625 1.46875,3.0625 1.453125,1.15625 3.84375,1.15625 2.328125,0 3.84375,-1.10938 1.5,-1.125 1.5,-3 z m 1.515625,-17.65625 v 7.625 H 87.73295 v -7.625 z m -1.21875,-16.78125 q 5.078125,0 7.546875,1.73438 2.46875,1.73437 2.46875,5.42187 0,3.64063 -2.40625,5.39063 -2.421875,1.75 -7.21875,1.8125 h -3.859375 q -5.015625,0 -7.453125,-1.73438 -2.4375,-1.73437 -2.4375,-5.4375 0,-3.67187 2.359375,-5.40625 2.34375,-1.73437 7.25,-1.78125 z m -3.953125,2.89063 q -3.671875,0 -5.34375,1.03125 -1.6875,1.03125 -1.6875,3.26562 0,2.21875 1.671875,3.23438 1.671875,1.01562 5.140625,1.04687 h 4.625 q 3.6875,0 5.453125,-1.0625 1.75,-1.07812 1.75,-3.25 0,-2.14062 -1.65625,-3.17187 -1.65625,-1.04688 -5.21875,-1.09375 z m -9.109375,-17.9375 H 78.2642 v 0.53125 q 0.0625,3.375 2,5.375 1.9375,2 5.453125,2.3125 -2.0625,-1.79688 -2.0625,-4.90625 0,-2.96875 2.09375,-4.73438 2.09375,-1.78125 5.40625,-1.78125 3.515625,0 5.625,1.92188 2.109375,1.90625 2.109375,5.125 0,3.26562 -2.5,5.29687 -2.515625,2.03125 -6.46875,2.03125 h -1.109375 q -6.28125,0 -9.59375,-2.67187 -3.328125,-2.6875 -3.40625,-7.98438 z m 10.25,3.79687 q 0,1.48438 0.890625,2.73438 0.890625,1.25 2.234375,1.73437 h 1.0625 q 2.8125,0 4.53125,-1.26562 1.71875,-1.26563 1.71875,-3.15625 0,-1.95313 -1.4375,-3.0625 -1.4375,-1.125 -3.765625,-1.125 -2.34375,0 -3.78125,1.14062 -1.453125,1.125 -1.453125,3 z m 4.03125,-16.73437 v 7.625 H 87.73295 v -7.625 z M 98.5767,134.41901 v 14.90625 h -2.078125 l -8.75,-7.875 q -1.984375,-1.75 -3.21875,-2.40625 -1.25,-0.67187 -2.578125,-0.67187 -1.78125,0 -2.921875,1.07812 -1.140625,1.07813 -1.140625,2.875 0,2.15625 1.234375,3.35938 1.21875,1.1875 3.40625,1.1875 v 2.89062 q -3.140625,0 -5.078125,-2.01562 -1.9375,-2.03125 -1.9375,-5.42188 0,-3.17187 1.671875,-5.01562 1.65625,-1.84375 4.421875,-1.84375 3.359375,0 8,4.28125 l 6.609375,6.09375 v -11.42188 z m -9.703125,-17.32812 q 5.078125,0 7.546875,1.73438 2.46875,1.73437 2.46875,5.42187 0,3.64063 -2.40625,5.39062 -2.421875,1.75 -7.21875,1.8125 h -3.859375 q -5.015625,0 -7.453125,-1.73437 -2.4375,-1.73437 -2.4375,-5.4375 0,-3.67187 2.359375,-5.40625 2.34375,-1.73437 7.25,-1.78125 z m -3.953125,2.89063 q -3.671875,0 -5.34375,1.03125 -1.6875,1.03125 -1.6875,3.26562 0,2.21875 1.671875,3.23438 1.671875,1.01562 5.140625,1.04687 h 4.625 q 3.6875,0 5.453125,-1.0625 1.75,-1.07812 1.75,-3.25 0,-2.14062 -1.65625,-3.17187 -1.65625,-1.04688 -5.21875,-1.09375 z"
       fill-rule="nonzero"
       id="path7"
       inkscape:label="fecha" />
    <path
       fill="#08ff40"
       d="M 173.85826,113.38546 H 536.69292 V 264.56655 H 173.85826 Z"
       fill-rule="evenodd"
       id="path8-4"
       inkscape:label="cinta_melinex"
       style="fill:#009e73;fill-opacity:1" />
    <path
       fill="#000000"
       d="m 44.490074,50.356705 q -0.484375,4.21875 -3.109375,6.5 -2.609375,2.28125 -6.9375,2.28125 -4.703123,0 -7.546873,-3.359375 -2.828125,-3.375 -2.828125,-9.03125 v -2.546875 q 0,-3.703125 1.3125,-6.5 1.328125,-2.8125 3.75,-4.3125 2.421875,-1.515623 5.609373,-1.515623 4.234375,0 6.78125,2.359373 2.5625,2.359375 2.96875,6.53125 h -3.515625 q -0.453125,-3.15625 -1.984375,-4.578125 -1.515625,-1.421875 -4.25,-1.421875 -3.343748,0 -5.249998,2.484375 -1.90625,2.46875 -1.90625,7.046875 v 2.5625 q 0,4.328125 1.796875,6.875 1.8125,2.546875 5.062498,2.546875 2.90625,0 4.46875,-1.3125 1.5625,-1.328125 2.0625,-4.609375 z m 7.921097,8.421875 h -3.375 V 39.05983 h 3.375 z m -3.65625,-24.953125 q 0,-0.8125 0.5,-1.375 0.515625,-0.578123 1.5,-0.578123 0.984375,0 1.484375,0.578123 0.515625,0.5625 0.515625,1.390625 0,0.8125 -0.515625,1.359375 -0.5,0.546875 -1.484375,0.546875 -0.984375,0 -1.5,-0.546875 -0.5,-0.546875 -0.5,-1.375 z m 12.230515,5.234375 0.109375,2.46875 q 2.265625,-2.828125 5.90625,-2.828125 6.265625,0 6.3125,7.046875 v 13.03125 h -3.375 V 45.731705 q -0.01563,-2.140625 -0.96875,-3.15625 -0.953125,-1.015625 -2.984375,-1.015625 -1.640625,0 -2.890625,0.875 -1.234375,0.875 -1.921875,2.296875 V 58.77858 h -3.375 V 39.05983 Z m 21.98671,-4.78125 v 4.78125 h 3.6875 v 2.609375 h -3.6875 v 12.21875 q 0,1.1875 0.484375,1.78125 0.5,0.59375 1.6875,0.59375 0.578125,0 1.609375,-0.21875 v 2.734375 q -1.34375,0.359375 -2.59375,0.359375 -2.265625,0 -3.421875,-1.359375 -1.140625,-1.375 -1.140625,-3.890625 v -12.21875 h -3.59375 V 39.05983 h 3.59375 v -4.78125 z m 19.802994,24.5 q -0.29688,-0.578125 -0.48438,-2.078125 -2.343745,2.4375 -5.60937,2.4375 -2.921875,0 -4.796875,-1.640625 -1.859375,-1.65625 -1.859375,-4.1875 0,-3.078125 2.34375,-4.78125 2.34375,-1.703125 6.59375,-1.703125 h 3.28125 V 45.27858 q 0,-1.78125 -1.0625,-2.828125 -1.0625,-1.046875 -3.109375,-1.046875 -1.8125,0 -3.03125,0.921875 -1.21875,0.90625 -1.21875,2.203125 H 90.43139 q 0,-1.484375 1.046875,-2.859375 1.046875,-1.375 2.84375,-2.171875 1.796875,-0.796875 3.9375,-0.796875 3.421875,0 5.343745,1.703125 1.9375,1.703125 2.01563,4.6875 v 9.078125 q 0,2.71875 0.6875,4.3125 v 0.296875 z m -5.609375,-2.5625 q 1.59375,0 3.015625,-0.8125 1.42187,-0.828125 2.0625,-2.140625 V 49.21608 h -2.640625 q -6.203125,0 -6.203125,3.625 0,1.578125 1.046875,2.484375 1.0625,0.890625 2.71875,0.890625 z m 26.139115,-17.15625 0.0937,2.1875 q 2.17187,-2.546875 5.85938,-2.546875 4.125,0 5.625,3.15625 0.98438,-1.421875 2.5625,-2.28125 1.57813,-0.875 3.71875,-0.875 6.5,0 6.60938,6.859375 v 13.21875 h -3.375 V 45.762955 q 0,-2.109375 -0.96875,-3.15625 -0.96875,-1.046875 -3.25,-1.046875 -1.875,0 -3.10938,1.125 -1.23437,1.109375 -1.4375,3 v 13.09375 h -3.39062 V 45.856705 q 0,-4.296875 -4.21875,-4.296875 -3.31251,0 -4.53126,2.8125 v 14.40625 h -3.375 V 39.05983 Z m 37.73243,20.078125 q -4.01563,0 -6.53125,-2.625 -2.51563,-2.640625 -2.51563,-7.046875 v -0.625 q 0,-2.9375 1.125,-5.234375 1.125,-2.3125 3.14063,-3.609375 2.01562,-1.296875 4.35937,-1.296875 3.84375,0 5.96875,2.53125 2.14063,2.53125 2.14063,7.25 v 1.40625 h -13.35938 q 0.0781,2.90625 1.70313,4.703125 1.64062,1.796875 4.15625,1.796875 1.78125,0 3.01562,-0.71875 1.25,-0.734375 2.17188,-1.9375 l 2.0625,1.609375 q -2.48438,3.796875 -7.4375,3.796875 z M 160.61543,41.46608 q -2.03125,0 -3.42187,1.484375 -1.39063,1.484375 -1.71875,4.15625 h 9.89062 v -0.25 q -0.15625,-2.5625 -1.39062,-3.96875 -1.23438,-1.421875 -3.35938,-1.421875 z m 15.68215,17.3125 h -3.375 V 30.778582 h 3.375 z m 9.05864,0 h -3.375 V 39.05983 h 3.375 z m -3.65625,-24.953125 q 0,-0.8125 0.5,-1.375 0.51562,-0.578123 1.5,-0.578123 0.98437,0 1.48437,0.578123 0.51563,0.5625 0.51563,1.390625 0,0.8125 -0.51563,1.359375 -0.5,0.546875 -1.48437,0.546875 -0.98438,0 -1.5,-0.546875 -0.5,-0.546875 -0.5,-1.375 z m 12.23051,5.234375 0.10938,2.46875 q 2.26562,-2.828125 5.90625,-2.828125 6.26562,0 6.3125,7.046875 v 13.03125 h -3.375 V 45.731705 q -0.0156,-2.140625 -0.96875,-3.15625 -0.95313,-1.015625 -2.98438,-1.015625 -1.64062,0 -2.89062,0.875 -1.23438,0.875 -1.92188,2.296875 V 58.77858 h -3.375 V 39.05983 Z m 25.59609,20.078125 q -4.01563,0 -6.53125,-2.625 -2.51563,-2.640625 -2.51563,-7.046875 v -0.625 q 0,-2.9375 1.125,-5.234375 1.125,-2.3125 3.14063,-3.609375 2.01562,-1.296875 4.35937,-1.296875 3.84375,0 5.96875,2.53125 2.14063,2.53125 2.14063,7.25 v 1.40625 h -13.35938 q 0.0781,2.90625 1.70313,4.703125 1.64062,1.796875 4.15625,1.796875 1.78125,0 3.01562,-0.71875 1.25,-0.734375 2.17188,-1.9375 l 2.0625,1.609375 q -2.48438,3.796875 -7.4375,3.796875 z M 219.10469,41.46608 q -2.03125,0 -3.42187,1.484375 -1.39063,1.484375 -1.71875,4.15625 h 9.89062 v -0.25 q -0.15625,-2.5625 -1.39062,-3.96875 -1.23438,-1.421875 -3.35938,-1.421875 z m 18.63527,4.796875 4.375,-7.203125 h 3.9375 l -6.45312,9.75 6.65625,9.96875 h -3.90625 l -4.5625,-7.375 -4.54688,7.375 h -3.92187 l 6.65625,-9.96875 -6.45313,-9.75 h 3.89063 z"
       fill-rule="nonzero"
       id="path24-6"
       inkscape:label="texto_cinta_melinex" />
    <path
       fill="#000000"
       d="m 375.47763,335.63205 v 10.39062 h -3.5 v -26.53125 h 9.79687 q 4.34375,0 6.8125,2.21875 2.46875,2.21875 2.46875,5.89063 0,3.85937 -2.42187,5.95312 -2.40625,2.07813 -6.90625,2.07813 z m 0,-2.85938 h 6.29687 q 2.79688,0 4.29688,-1.3125 1.5,-1.32812 1.5,-3.82812 0,-2.375 -1.5,-3.79688 -1.5,-1.42187 -4.10938,-1.46875 h -6.48437 z m 18.38992,3.20313 q 0,-2.89063 1.14063,-5.20313 1.14062,-2.32812 3.17187,-3.57812 2.03125,-1.25 4.64063,-1.25 4.03125,0 6.51562,2.78125 2.48438,2.78125 2.48438,7.42187 v 0.23438 q 0,2.875 -1.10938,5.17187 -1.09375,2.28125 -3.14062,3.5625 -2.04688,1.26563 -4.71875,1.26563 -4,0 -6.5,-2.78125 -2.48438,-2.79688 -2.48438,-7.39063 z m 3.39063,0.40625 q 0,3.28125 1.51562,5.26562 1.53125,1.98438 4.07813,1.98438 2.57812,0 4.07812,-2.01563 1.51563,-2.01562 1.51563,-5.64062 0,-3.23438 -1.54688,-5.25 -1.53125,-2.01563 -4.07812,-2.01563 -2.5,0 -4.03125,1.98438 -1.53125,1.98437 -1.53125,5.6875 z m 28.31994,-7.0625 q -0.76562,-0.125 -1.65625,-0.125 -3.3125,0 -4.5,2.82812 v 14 h -3.375 v -19.71875 h 3.28125 l 0.0625,2.28125 q 1.65625,-2.64062 4.70313,-2.64062 0.98437,0 1.48437,0.25 z m 8.58939,-7.79688 v 4.78125 h 3.6875 v 2.60938 h -3.6875 v 12.21875 q 0,1.1875 0.48437,1.78125 0.5,0.59375 1.6875,0.59375 0.57813,0 1.60938,-0.21875 v 2.73437 q -1.34375,0.35938 -2.59375,0.35938 -2.26563,0 -3.42188,-1.35938 -1.14062,-1.375 -1.14062,-3.89062 V 328.9133 h -3.59375 v -2.60938 h 3.59375 v -4.78125 z m 19.80301,24.5 q -0.29688,-0.57812 -0.48438,-2.07812 -2.34375,2.4375 -5.60937,2.4375 -2.92188,0 -4.79688,-1.64063 -1.85937,-1.65625 -1.85937,-4.1875 0,-3.07812 2.34375,-4.78125 2.34375,-1.70312 6.59375,-1.70312 h 3.28125 v -1.54688 q 0,-1.78125 -1.0625,-2.82812 -1.0625,-1.04688 -3.10938,-1.04688 -1.8125,0 -3.03125,0.92188 -1.21875,0.90625 -1.21875,2.20312 h -3.39062 q 0,-1.48437 1.04687,-2.85937 1.04688,-1.375 2.84375,-2.17188 1.79688,-0.79687 3.9375,-0.79687 3.42188,0 5.34375,1.70312 1.9375,1.70313 2.01563,4.6875 v 9.07813 q 0,2.71875 0.6875,4.3125 v 0.29687 z m -5.60938,-2.5625 q 1.59375,0 3.01563,-0.8125 1.42187,-0.82812 2.0625,-2.14062 v -4.04688 h -2.64063 q -6.20312,0 -6.20312,3.625 0,1.57813 1.04687,2.48438 1.0625,0.89062 2.71875,0.89062 z m 12.8357,-7.48437 q 0,-2.89063 1.14062,-5.20313 1.14063,-2.32812 3.17188,-3.57812 2.03125,-1.25 4.64062,-1.25 4.03125,0 6.51563,2.78125 2.48437,2.78125 2.48437,7.42187 v 0.23438 q 0,2.875 -1.10937,5.17187 -1.09375,2.28125 -3.14063,3.5625 -2.04687,1.26563 -4.71875,1.26563 -4,0 -6.5,-2.78125 -2.48437,-2.79688 -2.48437,-7.39063 z m 3.39062,0.40625 q 0,3.28125 1.51563,5.26562 1.53125,1.98438 4.07812,1.98438 2.57813,0 4.07813,-2.01563 1.51562,-2.01562 1.51562,-5.64062 0,-3.23438 -1.54687,-5.25 -1.53125,-2.01563 -4.07813,-2.01563 -2.5,0 -4.03125,1.98438 -1.53125,1.98437 -1.53125,5.6875 z m 35.49182,0 q 0,4.51562 -2.07812,7.26562 -2.07813,2.73438 -5.57813,2.73438 -3.73437,0 -5.78125,-2.64063 l -0.15625,2.28125 h -3.10937 v -28 h 3.375 v 10.45313 q 2.04687,-2.53125 5.625,-2.53125 3.59375,0 5.64062,2.71875 2.0625,2.70312 2.0625,7.42187 z m -3.375,-0.39063 q 0,-3.4375 -1.32812,-5.3125 -1.32813,-1.875 -3.82813,-1.875 -3.34375,0 -4.79687,3.09375 v 8.53125 q 1.54687,3.09375 4.82812,3.09375 2.42188,0 3.76563,-1.875 1.35937,-1.875 1.35937,-5.65625 z m 11.09866,-9.6875 v 22 q 0,5.6875 -5.15625,5.6875 -1.10937,0 -2.0625,-0.32812 v -2.70313 q 0.59375,0.14063 1.53125,0.14063 1.125,0 1.71875,-0.60938 0.59375,-0.60937 0.59375,-2.125 v -22.0625 z m -3.71875,-5.23437 q 0,-0.79688 0.5,-1.375 0.5,-0.57813 1.46875,-0.57813 0.98438,0 1.48438,0.57813 0.51562,0.5625 0.51562,1.39062 0,0.8125 -0.51562,1.35938 -0.5,0.54687 -1.48438,0.54687 -0.98437,0 -1.48437,-0.54687 -0.48438,-0.54688 -0.48438,-1.375 z m 17.33469,25.3125 q -4.01562,0 -6.53125,-2.625 -2.51562,-2.64063 -2.51562,-7.04688 v -0.625 q 0,-2.9375 1.125,-5.23437 1.125,-2.3125 3.14062,-3.60938 2.01563,-1.29687 4.35938,-1.29687 3.84375,0 5.96875,2.53125 2.14062,2.53125 2.14062,7.25 v 1.40625 h -13.35937 q 0.0781,2.90625 1.70312,4.70312 1.64063,1.79688 4.15625,1.79688 1.78125,0 3.01563,-0.71875 1.25,-0.73438 2.17187,-1.9375 l 2.0625,1.60937 q -2.48437,3.79688 -7.4375,3.79688 z m -0.42187,-17.67188 q -2.03125,0 -3.42188,1.48438 -1.39062,1.48437 -1.71875,4.15625 h 9.89063 v -0.25 q -0.15625,-2.5625 -1.39063,-3.96875 -1.23437,-1.42188 -3.35937,-1.42188 z m 16.58837,-7.1875 v 4.78125 h 3.6875 v 2.60938 h -3.6875 v 12.21875 q 0,1.1875 0.48438,1.78125 0.5,0.59375 1.6875,0.59375 0.57812,0 1.60937,-0.21875 v 2.73437 q -1.34375,0.35938 -2.59375,0.35938 -2.26562,0 -3.42187,-1.35938 -1.14063,-1.375 -1.14063,-3.89062 V 328.9133 h -3.59375 v -2.60938 h 3.59375 v -4.78125 z m 6.3603,14.45313 q 0,-2.89063 1.14062,-5.20313 1.14063,-2.32812 3.17188,-3.57812 2.03125,-1.25 4.64062,-1.25 4.03125,0 6.51563,2.78125 2.48437,2.78125 2.48437,7.42187 v 0.23438 q 0,2.875 -1.10937,5.17187 -1.09375,2.28125 -3.14063,3.5625 -2.04687,1.26563 -4.71875,1.26563 -4,0 -6.5,-2.78125 -2.48437,-2.79688 -2.48437,-7.39063 z m 3.39062,0.40625 q 0,3.28125 1.51563,5.26562 1.53125,1.98438 4.07812,1.98438 2.57813,0 4.07813,-2.01563 1.51562,-2.01562 1.51562,-5.64062 0,-3.23438 -1.54687,-5.25 -1.53125,-2.01563 -4.07813,-2.01563 -2.5,0 -4.03125,1.98438 -1.53125,1.98437 -1.53125,5.6875 z m 30.27307,4.40625 q 0,-1.35938 -1.03125,-2.10938 -1.03125,-0.76562 -3.59375,-1.3125 -2.54687,-0.54687 -4.0625,-1.3125 -1.5,-0.76562 -2.21875,-1.8125 -0.71875,-1.0625 -0.71875,-2.53125 0,-2.42187 2.04688,-4.09375 2.04687,-1.67187 5.25,-1.67187 3.34375,0 5.42187,1.73437 2.09375,1.71875 2.09375,4.42188 h -3.39062 q 0,-1.39063 -1.17188,-2.39063 -1.17187,-1 -2.95312,-1 -1.84375,0 -2.89063,0.79688 -1.03125,0.79687 -1.03125,2.09375 0,1.21875 0.95313,1.84375 0.96875,0.625 3.5,1.1875 2.53125,0.5625 4.09375,1.34375 1.5625,0.78125 2.3125,1.89062 0.76562,1.10938 0.76562,2.6875 0,2.64063 -2.125,4.23438 -2.10937,1.59375 -5.46875,1.59375 -2.375,0 -4.20312,-0.82813 -1.8125,-0.84375 -2.84375,-2.34375 -1.03125,-1.5 -1.03125,-3.25 h 3.375 q 0.0781,1.6875 1.34375,2.6875 1.28125,0.98438 3.35937,0.98438 1.90625,0 3.0625,-0.76563 1.15625,-0.78125 1.15625,-2.07812 z"
       fill-rule="nonzero"
       id="path26-0"
       inkscape:label="texto_portaobjetos" />
    <g
       id="g44"
       inkscape:label="flecha">
      <path
         stroke="#000000"
         stroke-width="2"
         stroke-linejoin="round"
         stroke-linecap="butt"
         d="m 264.5656,45.33858 c 22.67715,0 45.35434,8.503937 62.36221,21.259846 8.50394,6.377953 15.59055,13.818893 20.55118,21.791336 2.48032,3.986221 4.42914,8.105316 5.75787,12.290848 0.33219,1.04638 0.62561,2.09692 0.87891,3.15057 0.12662,0.52682 0.24326,1.05442 0.34964,1.58268 0.0532,0.26413 0.10388,0.52841 0.15195,0.79284 l 0.0576,0.33544"
         fill-rule="evenodd"
         id="path32-3" />
      <path
         fill="#000000"
         stroke="#000000"
         stroke-width="2"
         stroke-linecap="butt"
         d="m 354.67505,106.54215 -2.43719,-2.04392 2.78082,5.95923 1.70028,-6.3525 z"
         fill-rule="evenodd"
         id="path33" />
    </g>
    <g
       id="g45"
       inkscape:label="flecha">
      <path
         stroke="#000000"
         stroke-width="2"
         stroke-linejoin="round"
         stroke-linecap="butt"
         d="m 359.0538,332.58267 c -14.17322,0 -28.34647,-6.13779 -38.97638,-15.34448 -5.31494,-4.60333 -9.74408,-9.97391 -12.84448,-15.72809 -1.5502,-2.87711 -2.76822,-5.8501 -3.59867,-8.87103 -0.20761,-0.75525 -0.39102,-1.51349 -0.54931,-2.27399 l -0.0135,-0.0675"
         fill-rule="evenodd"
         id="path35" />
      <path
         fill="#000000"
         stroke="#000000"
         stroke-width="2"
         stroke-linecap="butt"
         d="m 303.07147,290.29755 2.47021,2.00388 -2.87768,-5.91306 -1.59644,6.37939 z"
         fill-rule="evenodd"
         id="path36-2" />
    </g>
  </g>
  <g
     id="g43"
     inkscape:label="portaobjetos_derecha"
     transform="translate(-313.20081,209.22142)">
    <path
       stroke="#000000"
       stroke-width="1"
       stroke-linejoin="round"
       stroke-linecap="butt"
       d="m 1379.5276,94.48819 h 566.9291 v 188.97638 h -566.9291 z"
       fill-rule="evenodd"
       id="path13"
       inkscape:label="portaobjetos" />
    <path
       stroke="#000000"
       stroke-width="1"
       stroke-linejoin="round"
       stroke-linecap="butt"
       d="m 1489.1339,98.26897 h 453.5432 v 181.41731 h -453.5432 z"
       fill-rule="evenodd"
       id="path15"
       inkscape:label="cubreobjetos" />
    <path
       fill="#000000"
       d="m 1398.0566,270.169 18.5625,-7.4375 -18.5625,-7.4375 v -3.89063 h 22.75 v 3 h -8.8594 l -9.5625,-0.28125 18.4219,7.46875 v 2.29688 l -18.375,7.45312 9.5156,-0.29687 h 8.8594 v 3 h -22.75 z m 12.2344,-36.92188 v 9.85938 h 8.0625 v -11.45313 h 2.4531 v 14.45313 h -22.75 v -14.29688 h 2.4687 v 11.29688 h 7.3125 v -9.85938 z m 10.5156,-5.32812 h -22.75 v -6.42188 q 0,-2.96875 1.3125,-5.25 1.3125,-2.28125 3.7344,-3.51562 2.4218,-1.25 5.5625,-1.26563 h 1.4531 q 3.2187,0 5.6406,1.25 2.4219,1.23438 3.7188,3.54688 1.2968,2.29687 1.3281,5.35937 z m -20.2813,-3 h 17.8282 v -3.15625 q 0,-3.46875 -2.1563,-5.39063 -2.1562,-1.9375 -6.1406,-1.9375 h -1.3281 q -3.875,0 -6.0157,1.82813 -2.1562,1.8125 -2.1875,5.15625 z m 10.1407,-32.60938 q -1.1094,3.85938 -2.7188,5.625 -1.625,1.75 -4,1.75 -2.6875,0 -4.4375,-2.14062 -1.7656,-2.15625 -1.7656,-5.59375 0,-2.34375 0.9062,-4.17188 0.9063,-1.84375 2.5,-2.84375 1.5938,-1.01562 3.4844,-1.01562 v 3.01562 q -2.0625,0 -3.2344,1.3125 -1.1875,1.3125 -1.1875,3.70313 0,2.21875 0.9844,3.46875 0.9688,1.23437 2.7031,1.23437 1.3907,0 2.3594,-1.17187 0.9531,-1.1875 1.75,-4.01563 0.7969,-2.84375 1.7656,-4.4375 0.9532,-1.60937 2.2344,-2.375 1.2813,-0.78125 3.0156,-0.78125 2.7657,0 4.4375,2.15625 1.6563,2.15625 1.6563,5.76563 0,2.34375 -0.8906,4.375 -0.9063,2.03125 -2.4688,3.14062 -1.5625,1.09375 -3.5469,1.09375 v -3.01562 q 2.0625,0 3.2657,-1.51563 1.1875,-1.53125 1.1875,-4.07812 0,-2.375 -0.9688,-3.64063 -0.9687,-1.26562 -2.6406,-1.26562 -1.6719,0 -2.5781,1.17187 -0.9219,1.17188 -1.8125,4.25 z m 0.4375,-25.79687 q 5.0781,0 7.5468,1.73437 2.4688,1.73438 2.4688,5.42188 0,3.64062 -2.4063,5.39062 -2.4218,1.75 -7.2187,1.8125 h -3.8594 q -5.0156,0 -7.4531,-1.73437 -2.4375,-1.73438 -2.4375,-5.4375 0,-3.67188 2.3594,-5.40625 2.3437,-1.73438 7.25,-1.78125 z m -3.9532,2.89062 q -3.6718,0 -5.3437,1.03125 -1.6875,1.03125 -1.6875,3.26563 0,2.21875 1.6719,3.23437 1.6718,1.01563 5.1406,1.04688 h 4.625 q 3.6875,0 5.4531,-1.0625 1.75,-1.07813 1.75,-3.25 0,-2.14063 -1.6562,-3.17188 -1.6563,-1.04687 -5.2188,-1.09375 z m 3.9532,-20.85937 q 5.0781,0 7.5468,1.73437 2.4688,1.73438 2.4688,5.42188 0,3.64062 -2.4063,5.39062 -2.4218,1.75 -7.2187,1.8125 h -3.8594 q -5.0156,0 -7.4531,-1.73437 -2.4375,-1.73438 -2.4375,-5.4375 0,-3.67188 2.3594,-5.40625 2.3437,-1.73438 7.25,-1.78125 z m -3.9532,2.89062 q -3.6718,0 -5.3437,1.03125 -1.6875,1.03125 -1.6875,3.26563 0,2.21875 1.6719,3.23437 1.6718,1.01563 5.1406,1.04688 h 4.625 q 3.6875,0 5.4531,-1.0625 1.75,-1.07813 1.75,-3.25 0,-2.14063 -1.6562,-3.17188 -1.6563,-1.04687 -5.2188,-1.09375 z m 13.6563,-16.09375 v 2.90625 h -19.2656 l 2.1406,5.82813 h -2.625 l -3.1094,-8.28125 v -0.45313 z"
       fill-rule="nonzero"
       id="path17"
       inkscape:label="etiqueta" />
    <path
       fill="#000000"
       d="m 1459.2067,259.88776 v 14.90625 h -2.0781 l -8.75,-7.875 q -1.9844,-1.75 -3.2188,-2.40625 -1.25,-0.67187 -2.5781,-0.67187 -1.7812,0 -2.9219,1.07812 -1.1406,1.07813 -1.1406,2.875 0,2.15625 1.2344,3.35938 1.2187,1.1875 3.4062,1.1875 v 2.89062 q -3.1406,0 -5.0781,-2.01562 -1.9375,-2.03125 -1.9375,-5.42188 0,-3.17187 1.6719,-5.01562 1.6562,-1.84375 4.4219,-1.84375 3.3593,0 8,4.28125 l 6.6093,6.09375 v -11.42188 z m -9.7031,-17.32812 q 5.0781,0 7.5469,1.73437 2.4687,1.73438 2.4687,5.42188 0,3.64062 -2.4062,5.39062 -2.4219,1.75 -7.2188,1.8125 h -3.8594 q -5.0156,0 -7.4531,-1.73437 -2.4375,-1.73438 -2.4375,-5.4375 0,-3.67188 2.3594,-5.40625 2.3437,-1.73438 7.25,-1.78125 z m -3.9531,2.89062 q -3.6719,0 -5.3438,1.03125 -1.6875,1.03125 -1.6875,3.26563 0,2.21875 1.6719,3.23437 1.6719,1.01563 5.1406,1.04688 h 4.625 q 3.6875,0 5.4531,-1.0625 1.75,-1.07813 1.75,-3.25 0,-2.14063 -1.6562,-3.17188 -1.6563,-1.04687 -5.2188,-1.09375 z m 13.6562,-16.09375 v 2.90625 h -19.2656 l 2.1406,5.82813 h -2.625 l -3.1094,-8.28125 v -0.45313 z m -10,-19.54687 q 1.0781,0.90625 1.7344,2.17187 0.6562,1.25 0.6562,2.75 0,1.96875 -0.9687,3.4375 -0.9688,1.45313 -2.7188,2.25 -1.7656,0.79688 -3.8906,0.79688 -2.2812,0 -4.1094,-0.85938 -1.8281,-0.875 -2.7968,-2.46875 -0.9688,-1.59375 -0.9688,-3.71875 0,-3.375 2.5313,-5.3125 2.5156,-1.95312 6.875,-1.95312 h 0.8437 q 6.6406,0 9.7031,2.625 3.0469,2.625 3.125,7.92187 v 0.5625 h -2.4375 v -0.60937 q -0.062,-3.57813 -1.8593,-5.5 -1.8125,-1.92188 -5.7188,-2.09375 z m 0,4.45312 q 0,-1.45312 -0.8906,-2.67187 -0.8906,-1.23438 -2.2031,-1.79688 h -1.1563 q -2.8437,0 -4.625,1.23438 -1.7812,1.23437 -1.7812,3.125 0,1.90625 1.4687,3.0625 1.4531,1.15625 3.8438,1.15625 2.3281,0 3.8437,-1.10938 1.5,-1.125 1.5,-3 z m 1.5156,-17.65625 v 7.625 h -2.3593 v -7.625 z m -1.2187,-16.78125 q 5.0781,0 7.5469,1.73438 2.4687,1.73437 2.4687,5.42187 0,3.64063 -2.4062,5.39063 -2.4219,1.75 -7.2188,1.8125 h -3.8594 q -5.0156,0 -7.4531,-1.73438 -2.4375,-1.73437 -2.4375,-5.4375 0,-3.67187 2.3594,-5.40625 2.3437,-1.73437 7.25,-1.78125 z m -3.9531,2.89063 q -3.6719,0 -5.3438,1.03125 -1.6875,1.03125 -1.6875,3.26562 0,2.21875 1.6719,3.23438 1.6719,1.01562 5.1406,1.04687 h 4.625 q 3.6875,0 5.4531,-1.0625 1.75,-1.07812 1.75,-3.25 0,-2.14062 -1.6562,-3.17187 -1.6563,-1.04688 -5.2188,-1.09375 z m -9.1094,-17.9375 h 2.4531 v 0.53125 q 0.062,3.375 2,5.375 1.9375,2 5.4531,2.3125 -2.0625,-1.79688 -2.0625,-4.90625 0,-2.96875 2.0938,-4.73438 2.0937,-1.78125 5.4062,-1.78125 3.5157,0 5.625,1.92188 2.1094,1.90625 2.1094,5.125 0,3.26562 -2.5,5.29687 -2.5156,2.03125 -6.4687,2.03125 h -1.1094 q -6.2813,0 -9.5938,-2.67187 -3.3281,-2.6875 -3.4062,-7.98438 z m 10.25,3.79687 q 0,1.48438 0.8906,2.73438 0.8906,1.25 2.2344,1.73437 h 1.0625 q 2.8125,0 4.5312,-1.26562 1.7188,-1.26563 1.7188,-3.15625 0,-1.95313 -1.4375,-3.0625 -1.4375,-1.125 -3.7656,-1.125 -2.3438,0 -3.7813,1.14062 -1.4531,1.125 -1.4531,3 z m 4.0312,-16.73437 v 7.625 h -2.3593 v -7.625 z m 8.4844,-17.42188 v 14.90625 h -2.0781 l -8.75,-7.875 q -1.9844,-1.75 -3.2188,-2.40625 -1.25,-0.67187 -2.5781,-0.67187 -1.7812,0 -2.9219,1.07812 -1.1406,1.07813 -1.1406,2.875 0,2.15625 1.2344,3.35938 1.2187,1.1875 3.4062,1.1875 v 2.89062 q -3.1406,0 -5.0781,-2.01562 -1.9375,-2.03125 -1.9375,-5.42188 0,-3.17187 1.6719,-5.01562 1.6562,-1.84375 4.4219,-1.84375 3.3593,0 8,4.28125 l 6.6093,6.09375 v -11.42188 z m -9.7031,-17.32812 q 5.0781,0 7.5469,1.73438 2.4687,1.73437 2.4687,5.42187 0,3.64063 -2.4062,5.39062 -2.4219,1.75 -7.2188,1.8125 h -3.8594 q -5.0156,0 -7.4531,-1.73437 -2.4375,-1.73437 -2.4375,-5.4375 0,-3.67187 2.3594,-5.40625 2.3437,-1.73437 7.25,-1.78125 z m -3.9531,2.89063 q -3.6719,0 -5.3438,1.03125 -1.6875,1.03125 -1.6875,3.26562 0,2.21875 1.6719,3.23438 1.6719,1.01562 5.1406,1.04687 h 4.625 q 3.6875,0 5.4531,-1.0625 1.75,-1.07812 1.75,-3.25 0,-2.14062 -1.6562,-3.17187 -1.6563,-1.04688 -5.2188,-1.09375 z"
       fill-rule="nonzero"
       id="path18-6"
       inkscape:label="fecha" />
    <path
       fill="#e64dff"
       d="m 1534.4882,113.38546 h 362.8347 v 151.18109 h -362.8347 z"
       fill-rule="evenodd"
       id="path19"
       inkscape:label="cinta_melinex_coloreada"
       style="fill:#cc79a7;fill-opacity:1" />
  </g>
  <g
     id="g48"
     inkscape:label="cubreobjetos"
     transform="translate(-213.24296,209.59642)">
    <path
       stroke="#000000"
       stroke-width="1"
       stroke-linejoin="round"
       stroke-linecap="butt"
       d="M 786.1417,98.26834 H 1239.685 V 279.68567 H 786.1417 Z"
       fill-rule="evenodd"
       id="path11"
       inkscape:label="cubreobjetos" />
    <path
       fill="#e64dff"
       d="m 831.49603,188.97575 v 0 c 0,-20.87375 81.22333,-37.79527 181.41737,-37.79527 v 0 c 100.194,0 181.4173,16.92152 181.4173,37.79527 v 0 c 0,20.87375 -81.2233,37.79527 -181.4173,37.79527 v 0 c -100.19404,0 -181.41737,-16.92152 -181.41737,-37.79527 z"
       fill-rule="evenodd"
       id="path21"
       style="fill:#cc79a7;fill-opacity:1"
       inkscape:label="fuscina_basica" />
    <path
       fill="#000000"
       d="m 811.8136,55.294205 q -1.34375,1.9375 -3.76563,2.890625 -2.40625,0.953125 -5.625,0.953125 -3.23437,0 -5.75,-1.515625 -2.51562,-1.515625 -3.89062,-4.328125 -1.375,-2.8125 -1.42188,-6.515625 v -2.3125 q 0,-5.984375 2.79688,-9.28125 2.79687,-3.312498 7.875,-3.312498 4.15625,0 6.6875,2.124998 2.53125,2.125 3.09375,6.03125 h -3.5 q -0.98438,-5.265625 -6.26563,-5.265625 -3.51562,0 -5.32812,2.46875 -1.8125,2.46875 -1.84375,7.140625 v 2.171875 q 0,4.46875 2.04687,7.109375 2.04688,2.625 5.53125,2.625 1.96875,0 3.4375,-0.4375 1.48438,-0.4375 2.4375,-1.46875 v -5.96875 h -6.14062 v -2.84375 h 9.625 z m 8.97302,3.484375 h -3.375 V 30.778582 h 3.375 z m 9.05866,0 h -3.375 V 39.05983 h 3.375 z m -3.65625,-24.953125 q 0,-0.8125 0.5,-1.375 0.51562,-0.578123 1.5,-0.578123 0.98437,0 1.48437,0.578123 0.51563,0.5625 0.51563,1.390625 0,0.8125 -0.51563,1.359375 -0.5,0.546875 -1.48437,0.546875 -0.98438,0 -1.5,-0.546875 -0.5,-0.546875 -0.5,-1.375 z m 16.9649,22.5625 q 1.79688,0 3.14063,-1.09375 1.35937,-1.09375 1.5,-2.734375 h 3.1875 q -0.0937,1.703125 -1.17188,3.234375 -1.0625,1.53125 -2.85937,2.4375 -1.79688,0.90625 -3.79688,0.90625 -4.03125,0 -6.42187,-2.6875 -2.375,-2.6875 -2.375,-7.34375 V 48.52858 q 0,-2.875 1.0625,-5.109375 1.0625,-2.25 3.03125,-3.484375 1.98437,-1.234375 4.67187,-1.234375 3.32813,0 5.51563,1.984375 2.20312,1.984375 2.34375,5.15625 h -3.1875 q -0.14063,-1.921875 -1.45313,-3.140625 -1.29687,-1.234375 -3.21875,-1.234375 -2.5625,0 -3.98437,1.859375 -1.40625,1.84375 -1.40625,5.34375 v 0.625 q 0,3.421875 1.40625,5.265625 1.40625,1.828125 4.01562,1.828125 z m 19.80457,2.75 q -4.01563,0 -6.53125,-2.625 -2.51563,-2.640625 -2.51563,-7.046875 v -0.625 q 0,-2.9375 1.125,-5.234375 1.125,-2.3125 3.14063,-3.609375 2.01562,-1.296875 4.35937,-1.296875 3.84375,0 5.96875,2.53125 2.14063,2.53125 2.14063,7.25 v 1.40625 h -13.35938 q 0.0781,2.90625 1.70313,4.703125 1.64062,1.796875 4.15625,1.796875 1.78125,0 3.01562,-0.71875 1.25,-0.734375 2.17188,-1.9375 l 2.0625,1.609375 q -2.48438,3.796875 -7.4375,3.796875 z M 862.53662,41.46608 q -2.03125,0 -3.42187,1.484375 -1.39063,1.484375 -1.71875,4.15625 h 9.89062 v -0.25 q -0.15625,-2.5625 -1.39062,-3.96875 -1.23438,-1.421875 -3.35938,-1.421875 z m 21.54151,0.609375 q -0.76563,-0.125 -1.65625,-0.125 -3.3125,0 -4.5,2.828125 v 14 h -3.375 V 39.05983 h 3.28125 l 0.0625,2.28125 q 1.65625,-2.640625 4.70312,-2.640625 0.98438,0 1.48438,0.25 z m 1.8446,6.65625 q 0,-2.890625 1.14063,-5.203125 1.14062,-2.328125 3.17187,-3.578125 2.03125,-1.25 4.64063,-1.25 4.03125,0 6.51562,2.78125 2.48438,2.78125 2.48438,7.421875 v 0.234375 q 0,2.875 -1.10938,5.171875 -1.09375,2.28125 -3.14062,3.5625 -2.04688,1.265625 -4.71875,1.265625 -4,0 -6.5,-2.78125 -2.48438,-2.796875 -2.48438,-7.390625 z m 3.39063,0.40625 q 0,3.28125 1.51562,5.265625 1.53125,1.984375 4.07813,1.984375 2.57812,0 4.07812,-2.015625 1.51563,-2.015625 1.51563,-5.640625 0,-3.234375 -1.54688,-5.25 -1.53125,-2.015625 -4.07812,-2.015625 -2.5,0 -4.03125,1.984375 -1.53125,1.984375 -1.53125,5.6875 z m 17.99182,-0.390625 q 0,-4.609375 2.125,-7.328125 2.14062,-2.71875 5.65625,-2.71875 3.60937,0 5.64062,2.546875 l 0.15625,-2.1875 h 3.07813 v 19.25 q 0,3.828125 -2.26563,6.03125 -2.26562,2.203125 -6.09375,2.203125 -2.14062,0 -4.1875,-0.921875 -2.03125,-0.90625 -3.10937,-2.484375 l 1.75,-2.03125 q 2.17187,2.6875 5.3125,2.6875 2.45312,0 3.82812,-1.390625 1.375,-1.390625 1.375,-3.890625 V 56.80983 q -2.01562,2.328125 -5.51562,2.328125 -3.46875,0 -5.60938,-2.78125 -2.14062,-2.796875 -2.14062,-7.609375 z m 3.39062,0.390625 q 0,3.328125 1.35938,5.234375 1.375,1.90625 3.82812,1.90625 3.20313,0 4.6875,-2.890625 V 44.37233 q -1.54687,-2.8125 -4.64062,-2.8125 -2.46875,0 -3.85938,1.921875 -1.375,1.90625 -1.375,5.65625 z m 26.53613,10 q -4.01562,0 -6.53125,-2.625 -2.51562,-2.640625 -2.51562,-7.046875 v -0.625 q 0,-2.9375 1.125,-5.234375 1.125,-2.3125 3.14062,-3.609375 2.01563,-1.296875 4.35938,-1.296875 3.84375,0 5.96875,2.53125 2.14062,2.53125 2.14062,7.25 v 1.40625 h -13.35937 q 0.0781,2.90625 1.70312,4.703125 1.64063,1.796875 4.15625,1.796875 1.78125,0 3.01563,-0.71875 1.25,-0.734375 2.17187,-1.9375 l 2.0625,1.609375 q -2.48437,3.796875 -7.4375,3.796875 z M 936.81006,41.46608 q -2.03125,0 -3.42188,1.484375 -1.39062,1.484375 -1.71875,4.15625 h 9.89063 v -0.25 q -0.15625,-2.5625 -1.39063,-3.96875 -1.23437,-1.421875 -3.35937,-1.421875 z m 15.68213,17.3125 h -3.375 V 30.778582 h 3.375 z m 17.57428,0 q -0.29688,-0.578125 -0.48438,-2.078125 -2.34375,2.4375 -5.60937,2.4375 -2.92188,0 -4.79688,-1.640625 -1.85937,-1.65625 -1.85937,-4.1875 0,-3.078125 2.34375,-4.78125 2.34375,-1.703125 6.59375,-1.703125 h 3.28125 V 45.27858 q 0,-1.78125 -1.0625,-2.828125 -1.0625,-1.046875 -3.10938,-1.046875 -1.8125,0 -3.03125,0.921875 -1.21875,0.90625 -1.21875,2.203125 h -3.39062 q 0,-1.484375 1.04687,-2.859375 1.04688,-1.375 2.84375,-2.171875 1.79688,-0.796875 3.9375,-0.796875 3.42188,0 5.34375,1.703125 1.9375,1.703125 2.01563,4.6875 v 9.078125 q 0,2.71875 0.6875,4.3125 v 0.296875 z m -5.60938,-2.5625 q 1.59375,0 3.01563,-0.8125 1.42187,-0.828125 2.0625,-2.140625 V 49.21608 h -2.64063 q -6.20312,0 -6.20312,3.625 0,1.578125 1.04687,2.484375 1.0625,0.890625 2.71875,0.890625 z m 18.30445,-21.9375 v 4.78125 h 3.6875 v 2.609375 h -3.6875 v 12.21875 q 0,1.1875 0.48437,1.78125 0.5,0.59375 1.6875,0.59375 0.57813,0 1.60938,-0.21875 v 2.734375 q -1.34375,0.359375 -2.59375,0.359375 -2.26563,0 -3.42188,-1.359375 -1.14062,-1.375 -1.14062,-3.890625 v -12.21875 h -3.59375 V 39.05983 h 3.59375 v -4.78125 z m 11.28741,24.5 h -3.375 V 39.05983 h 3.375 z M 990.3927,33.825455 q 0,-0.8125 0.5,-1.375 0.51563,-0.578123 1.5,-0.578123 0.98438,0 1.48438,0.578123 0.51562,0.5625 0.51562,1.390625 0,0.8125 -0.51562,1.359375 -0.5,0.546875 -1.48438,0.546875 -0.98437,0 -1.5,-0.546875 -0.5,-0.546875 -0.5,-1.375 z m 12.2305,5.234375 0.1093,2.46875 q 2.2657,-2.828125 5.9063,-2.828125 6.2656,0 6.3125,7.046875 v 13.03125 h -3.375 V 45.731705 q -0.016,-2.140625 -0.9688,-3.15625 -0.9531,-1.015625 -2.9843,-1.015625 -1.6407,0 -2.8907,0.875 -1.2343,0.875 -1.9218,2.296875 V 58.77858 h -3.37503 V 39.05983 Z m 29.596,19.71875 q -0.2968,-0.578125 -0.4843,-2.078125 -2.3438,2.4375 -5.6094,2.4375 -2.9218,0 -4.7968,-1.640625 -1.8594,-1.65625 -1.8594,-4.1875 0,-3.078125 2.3438,-4.78125 2.3436,-1.703125 6.5936,-1.703125 h 3.2813 V 45.27858 q 0,-1.78125 -1.0625,-2.828125 -1.0625,-1.046875 -3.1094,-1.046875 -1.8125,0 -3.0312,0.921875 -1.2187,0.90625 -1.2187,2.203125 h -3.3906 q 0,-1.484375 1.0468,-2.859375 1.0469,-1.375 2.8438,-2.171875 1.7968,-0.796875 3.9374,-0.796875 3.4219,0 5.3438,1.703125 1.9375,1.703125 2.0156,4.6875 v 9.078125 q 0,2.71875 0.6875,4.3125 v 0.296875 z m -5.6093,-2.5625 q 1.5937,0 3.0156,-0.8125 1.4219,-0.828125 2.0625,-2.140625 V 49.21608 h -2.6406 q -6.2031,0 -6.2031,3.625 0,1.578125 1.0469,2.484375 1.0624,0.890625 2.7187,0.890625 z m 30.8891,0.171875 q 1.7969,0 3.1407,-1.09375 1.3593,-1.09375 1.5,-2.734375 h 3.1875 q -0.094,1.703125 -1.1719,3.234375 -1.0625,1.53125 -2.8594,2.4375 -1.7969,0.90625 -3.7969,0.90625 -4.0312,0 -6.4218,-2.6875 -2.375,-2.6875 -2.375,-7.34375 V 48.52858 q 0,-2.875 1.0625,-5.109375 1.0625,-2.25 3.0312,-3.484375 1.9844,-1.234375 4.6719,-1.234375 3.3281,0 5.5156,1.984375 2.2031,1.984375 2.3438,5.15625 h -3.1875 q -0.1407,-1.921875 -1.4532,-3.140625 -1.2968,-1.234375 -3.2187,-1.234375 -2.5625,0 -3.9844,1.859375 -1.4062,1.84375 -1.4062,5.34375 v 0.625 q 0,3.421875 1.4062,5.265625 1.4063,1.828125 4.0156,1.828125 z m 10.7265,-7.65625 q 0,-2.890625 1.1406,-5.203125 1.1406,-2.328125 3.1719,-3.578125 2.0312,-1.25 4.6406,-1.25 4.0312,0 6.5156,2.78125 2.4844,2.78125 2.4844,7.421875 v 0.234375 q 0,2.875 -1.1094,5.171875 -1.0937,2.28125 -3.1406,3.5625 -2.0469,1.265625 -4.7188,1.265625 -4,0 -6.5,-2.78125 -2.4843,-2.796875 -2.4843,-7.390625 z m 3.3906,0.40625 q 0,3.28125 1.5156,5.265625 1.5313,1.984375 4.0781,1.984375 2.5782,0 4.0782,-2.015625 1.5156,-2.015625 1.5156,-5.640625 0,-3.234375 -1.5469,-5.25 -1.5312,-2.015625 -4.0781,-2.015625 -2.5,0 -4.0313,1.984375 -1.5312,1.984375 -1.5312,5.6875 z m 21.9762,-10.078125 0.1094,2.46875 q 2.2656,-2.828125 5.9062,-2.828125 6.2656,0 6.3125,7.046875 v 13.03125 h -3.375 V 45.731705 q -0.016,-2.140625 -0.9687,-3.15625 -0.9532,-1.015625 -2.9844,-1.015625 -1.6406,0 -2.8906,0.875 -1.2344,0.875 -1.9219,2.296875 V 58.77858 h -3.375 V 39.05983 Z m 28.3058,19.71875 V 41.669205 h -3.1094 V 39.05983 h 3.1094 v -2.03125 q 0,-3.171875 1.6875,-4.890625 1.7031,-1.734373 4.8125,-1.734373 1.1562,0 2.3125,0.3125 l -0.1875,2.734373 q -0.8594,-0.171875 -1.8125,-0.171875 -1.6407,0 -2.5469,0.96875 -0.8906,0.953125 -0.8906,2.734375 v 2.078125 h 4.2187 v 2.609375 h -4.2187 V 58.77858 Z m 23.4903,-1.953125 q -1.9687,2.3125 -5.7812,2.3125 -3.1563,0 -4.8125,-1.828125 -1.6406,-1.828125 -1.6563,-5.421875 V 39.05983 h 3.3594 v 12.734375 q 0,4.484375 3.6563,4.484375 3.8593,0 5.1406,-2.875 V 39.05983 h 3.375 v 19.71875 h -3.2188 z m 16.3123,-0.4375 q 1.7969,0 3.1406,-1.09375 1.3594,-1.09375 1.5,-2.734375 h 3.1875 q -0.094,1.703125 -1.1719,3.234375 -1.0625,1.53125 -2.8593,2.4375 -1.7969,0.90625 -3.7969,0.90625 -4.0313,0 -6.4219,-2.6875 -2.375,-2.6875 -2.375,-7.34375 V 48.52858 q 0,-2.875 1.0625,-5.109375 1.0625,-2.25 3.0313,-3.484375 1.9843,-1.234375 4.6718,-1.234375 3.3282,0 5.5157,1.984375 2.2031,1.984375 2.3437,5.15625 h -3.1875 q -0.1406,-1.921875 -1.4531,-3.140625 -1.2969,-1.234375 -3.2188,-1.234375 -2.5625,0 -3.9843,1.859375 -1.4063,1.84375 -1.4063,5.34375 v 0.625 q 0,3.421875 1.4063,5.265625 1.4062,1.828125 4.0156,1.828125 z m 23.1014,-2.84375 q 0,-1.359375 -1.0312,-2.109375 -1.0313,-0.765625 -3.5938,-1.3125 -2.5469,-0.546875 -4.0625,-1.3125 -1.5,-0.765625 -2.2187,-1.8125 -0.7188,-1.0625 -0.7188,-2.53125 0,-2.421875 2.0469,-4.09375 2.0469,-1.671875 5.25,-1.671875 3.3437,0 5.4219,1.734375 2.0937,1.71875 2.0937,4.421875 h -3.3906 q 0,-1.390625 -1.1719,-2.390625 -1.1719,-1 -2.9531,-1 -1.8438,0 -2.8906,0.796875 -1.0313,0.796875 -1.0313,2.09375 0,1.21875 0.9531,1.84375 0.9688,0.625 3.5,1.1875 2.5313,0.5625 4.0938,1.34375 1.5625,0.78125 2.3125,1.890625 0.7656,1.109375 0.7656,2.6875 0,2.640625 -2.125,4.234375 -2.1094,1.59375 -5.4687,1.59375 -2.375,0 -4.2032,-0.828125 -1.8125,-0.84375 -2.8437,-2.34375 -1.0313,-1.5 -1.0313,-3.25 h 3.375 q 0.078,1.6875 1.3438,2.6875 1.2812,0.984375 3.3594,0.984375 1.9062,0 3.0625,-0.765625 1.1562,-0.78125 1.1562,-2.078125 z m 11.4348,5.234375 h -3.375 V 39.05983 h 3.375 z m -3.6562,-24.953125 q 0,-0.8125 0.5,-1.375 0.5156,-0.578123 1.5,-0.578123 0.9844,0 1.4844,0.578123 0.5156,0.5625 0.5156,1.390625 0,0.8125 -0.5156,1.359375 -0.5,0.546875 -1.4844,0.546875 -0.9844,0 -1.5,-0.546875 -0.5,-0.546875 -0.5,-1.375 z m 12.2305,5.234375 0.1093,2.46875 q 2.2657,-2.828125 5.9063,-2.828125 6.2656,0 6.3125,7.046875 v 13.03125 h -3.375 V 45.731705 q -0.016,-2.140625 -0.9688,-3.15625 -0.9531,-1.015625 -2.9843,-1.015625 -1.6407,0 -2.8907,0.875 -1.2343,0.875 -1.9218,2.296875 V 58.77858 h -3.375 V 39.05983 Z m 29.596,19.71875 q -0.2968,-0.578125 -0.4843,-2.078125 -2.3438,2.4375 -5.6094,2.4375 -2.9219,0 -4.7969,-1.640625 -1.8594,-1.65625 -1.8594,-4.1875 0,-3.078125 2.3438,-4.78125 2.3437,-1.703125 6.5937,-1.703125 h 3.2813 V 45.27858 q 0,-1.78125 -1.0625,-2.828125 -1.0625,-1.046875 -3.1094,-1.046875 -1.8125,0 -3.0312,0.921875 -1.2188,0.90625 -1.2188,2.203125 h -3.3906 q 0,-1.484375 1.0469,-2.859375 1.0468,-1.375 2.8437,-2.171875 1.7969,-0.796875 3.9375,-0.796875 3.4219,0 5.3438,1.703125 1.9375,1.703125 2.0156,4.6875 v 9.078125 q 0,2.71875 0.6875,4.3125 v 0.296875 z m -5.6093,-2.5625 q 1.5937,0 3.0156,-0.8125 1.4219,-0.828125 2.0625,-2.140625 V 49.21608 h -2.6406 q -6.2032,0 -6.2032,3.625 0,1.578125 1.0469,2.484375 1.0625,0.890625 2.7188,0.890625 z"
       fill-rule="nonzero"
       id="path28-9"
       inkscape:label="texto_glicerogelatina_fuscina" />
    <path
       fill="#000000"
       d="m 1038.1177,337.6323 q -0.4844,4.21875 -3.1094,6.5 -2.6093,2.28125 -6.9375,2.28125 -4.7032,0 -7.5469,-3.35938 -2.8281,-3.375 -2.8281,-9.03125 v -2.54687 q 0,-3.70313 1.3125,-6.5 1.3281,-2.8125 3.75,-4.3125 2.4219,-1.51563 5.6094,-1.51563 4.2344,0 6.7813,2.35938 2.5625,2.35937 2.9687,6.53125 h -3.5156 q -0.4531,-3.15625 -1.9844,-4.57813 -1.5156,-1.42187 -4.25,-1.42187 -3.3437,0 -5.2501,2.48437 -1.9062,2.46875 -1.9062,7.04688 v 2.5625 q 0,4.32812 1.7969,6.875 1.8125,2.54687 5.0625,2.54687 2.9063,0 4.4688,-1.3125 1.5625,-1.32812 2.0625,-4.60937 z m 16.4366,6.46875 q -1.9687,2.3125 -5.7812,2.3125 -3.1563,0 -4.8125,-1.82813 -1.6406,-1.82812 -1.6563,-5.42187 v -12.82813 h 3.3594 v 12.73438 q 0,4.48437 3.6563,4.48437 3.8593,0 5.1406,-2.875 v -14.34375 h 3.375 v 19.71875 h -3.2188 z m 25.0936,-7.6875 q 0,4.51562 -2.0782,7.26562 -2.0781,2.73438 -5.5781,2.73438 -3.7344,0 -5.7812,-2.64063 l -0.1563,2.28125 h -3.1094 v -28 h 3.375 v 10.45313 q 2.0469,-2.53125 5.625,-2.53125 3.5938,0 5.6407,2.71875 2.0625,2.70312 2.0625,7.42187 z m -3.375,-0.39063 q 0,-3.4375 -1.3282,-5.3125 -1.3281,-1.875 -3.8281,-1.875 -3.3437,0 -4.7969,3.09375 v 8.53125 q 1.5469,3.09375 4.8282,3.09375 2.4218,0 3.7656,-1.875 1.3594,-1.875 1.3594,-5.65625 z m 17.1455,-6.67187 q -0.7657,-0.125 -1.6563,-0.125 -3.3125,0 -4.5,2.82812 v 14 h -3.375 v -19.71875 h 3.2813 l 0.062,2.28125 q 1.6562,-2.64062 4.7031,-2.64062 0.9844,0 1.4844,0.25 z m 10.9409,17.0625 q -4.0156,0 -6.5313,-2.625 -2.5156,-2.64063 -2.5156,-7.04688 v -0.625 q 0,-2.9375 1.125,-5.23437 1.125,-2.3125 3.1406,-3.60938 2.0157,-1.29687 4.3594,-1.29687 3.8438,0 5.9688,2.53125 2.1406,2.53125 2.1406,7.25 v 1.40625 h -13.3594 q 0.078,2.90625 1.7031,4.70312 1.6407,1.79688 4.1563,1.79688 1.7812,0 3.0156,-0.71875 1.25,-0.73438 2.1719,-1.9375 l 2.0625,1.60937 q -2.4844,3.79688 -7.4375,3.79688 z m -0.4219,-17.67188 q -2.0312,0 -3.4219,1.48438 -1.3906,1.48437 -1.7187,4.15625 h 9.8906 v -0.25 q -0.1562,-2.5625 -1.3906,-3.96875 -1.2344,-1.42188 -3.3594,-1.42188 z m 11.1198,7.26563 q 0,-2.89063 1.1406,-5.20313 1.1406,-2.32812 3.1719,-3.57812 2.0312,-1.25 4.6406,-1.25 4.0312,0 6.5156,2.78125 2.4844,2.78125 2.4844,7.42187 v 0.23438 q 0,2.875 -1.1094,5.17187 -1.0937,2.28125 -3.1406,3.5625 -2.0469,1.26563 -4.7188,1.26563 -4,0 -6.5,-2.78125 -2.4843,-2.79688 -2.4843,-7.39063 z m 3.3906,0.40625 q 0,3.28125 1.5156,5.26562 1.5313,1.98438 4.0781,1.98438 2.5782,0 4.0782,-2.01563 1.5156,-2.01562 1.5156,-5.64062 0,-3.23438 -1.5469,-5.25 -1.5312,-2.01563 -4.0781,-2.01563 -2.5,0 -4.0313,1.98438 -1.5312,1.98437 -1.5312,5.6875 z m 35.4918,0 q 0,4.51562 -2.0781,7.26562 -2.0782,2.73438 -5.5782,2.73438 -3.7343,0 -5.7812,-2.64063 l -0.1563,2.28125 h -3.1093 v -28 h 3.375 v 10.45313 q 2.0468,-2.53125 5.625,-2.53125 3.5937,0 5.6406,2.71875 2.0625,2.70312 2.0625,7.42187 z m -3.375,-0.39063 q 0,-3.4375 -1.3281,-5.3125 -1.3282,-1.875 -3.8282,-1.875 -3.3437,0 -4.7968,3.09375 v 8.53125 q 1.5468,3.09375 4.8281,3.09375 2.4219,0 3.7656,-1.875 1.3594,-1.875 1.3594,-5.65625 z m 11.0986,-9.6875 v 22 q 0,5.6875 -5.1562,5.6875 -1.1094,0 -2.0625,-0.32812 v -2.70313 q 0.5937,0.14063 1.5312,0.14063 1.125,0 1.7188,-0.60938 0.5937,-0.60937 0.5937,-2.125 v -22.0625 z m -3.7187,-5.23437 q 0,-0.79688 0.5,-1.375 0.5,-0.57813 1.4687,-0.57813 0.9844,0 1.4844,0.57813 0.5156,0.5625 0.5156,1.39062 0,0.8125 -0.5156,1.35938 -0.5,0.54687 -1.4844,0.54687 -0.9843,0 -1.4843,-0.54687 -0.4844,-0.54688 -0.4844,-1.375 z m 17.3347,25.3125 q -4.0156,0 -6.5313,-2.625 -2.5156,-2.64063 -2.5156,-7.04688 v -0.625 q 0,-2.9375 1.125,-5.23437 1.125,-2.3125 3.1406,-3.60938 2.0157,-1.29687 4.3594,-1.29687 3.8438,0 5.9688,2.53125 2.1406,2.53125 2.1406,7.25 v 1.40625 h -13.3594 q 0.078,2.90625 1.7031,4.70312 1.6407,1.79688 4.1563,1.79688 1.7812,0 3.0156,-0.71875 1.25,-0.73438 2.1719,-1.9375 l 2.0625,1.60937 q -2.4844,3.79688 -7.4375,3.79688 z m -0.4219,-17.67188 q -2.0312,0 -3.4219,1.48438 -1.3906,1.48437 -1.7187,4.15625 h 9.8906 v -0.25 q -0.1562,-2.5625 -1.3906,-3.96875 -1.2344,-1.42188 -3.3594,-1.42188 z m 16.5884,-7.1875 v 4.78125 h 3.6875 v 2.60938 h -3.6875 v 12.21875 q 0,1.1875 0.4844,1.78125 0.5,0.59375 1.6875,0.59375 0.5781,0 1.6094,-0.21875 v 2.73437 q -1.3438,0.35938 -2.5938,0.35938 -2.2656,0 -3.4219,-1.35938 -1.1406,-1.375 -1.1406,-3.89062 V 328.9448 h -3.5937 v -2.60938 h 3.5937 v -4.78125 z m 6.3602,14.45313 q 0,-2.89063 1.1407,-5.20313 1.1406,-2.32812 3.1718,-3.57812 2.0313,-1.25 4.6407,-1.25 4.0312,0 6.5156,2.78125 2.4844,2.78125 2.4844,7.42187 v 0.23438 q 0,2.875 -1.1094,5.17187 -1.0938,2.28125 -3.1406,3.5625 -2.0469,1.26563 -4.7188,1.26563 -4,0 -6.5,-2.78125 -2.4844,-2.79688 -2.4844,-7.39063 z m 3.3907,0.40625 q 0,3.28125 1.5156,5.26562 1.5312,1.98438 4.0781,1.98438 2.5781,0 4.0781,-2.01563 1.5157,-2.01562 1.5157,-5.64062 0,-3.23438 -1.5469,-5.25 -1.5313,-2.01563 -4.0781,-2.01563 -2.5,0 -4.0313,1.98438 -1.5312,1.98437 -1.5312,5.6875 z m 30.273,4.40625 q 0,-1.35938 -1.0312,-2.10938 -1.0313,-0.76562 -3.5938,-1.3125 -2.5468,-0.54687 -4.0625,-1.3125 -1.5,-0.76562 -2.2187,-1.8125 -0.7188,-1.0625 -0.7188,-2.53125 0,-2.42187 2.0469,-4.09375 2.0469,-1.67187 5.25,-1.67187 3.3438,0 5.4219,1.73437 2.0937,1.71875 2.0937,4.42188 h -3.3906 q 0,-1.39063 -1.1719,-2.39063 -1.1718,-1 -2.9531,-1 -1.8437,0 -2.8906,0.79688 -1.0313,0.79687 -1.0313,2.09375 0,1.21875 0.9532,1.84375 0.9687,0.625 3.5,1.1875 2.5312,0.5625 4.0937,1.34375 1.5625,0.78125 2.3125,1.89062 0.7656,1.10938 0.7656,2.6875 0,2.64063 -2.125,4.23438 -2.1093,1.59375 -5.4687,1.59375 -2.375,0 -4.2031,-0.82813 -1.8125,-0.84375 -2.8438,-2.34375 -1.0312,-1.5 -1.0312,-3.25 h 3.375 q 0.078,1.6875 1.3437,2.6875 1.2813,0.98438 3.3594,0.98438 1.9062,0 3.0625,-0.76563 1.1562,-0.78125 1.1562,-2.07812 z"
       fill-rule="nonzero"
       id="path30-4"
       inkscape:label="texto_cubreobjetos" />
    <g
       id="g46"
       inkscape:label="flecha">
      <path
         stroke="#000000"
         stroke-width="2"
         stroke-linejoin="round"
         stroke-linecap="butt"
         d="m 1247.2441,45.33858 c 12.5,0 31.6141,35.905514 25,71.81102 -3.3071,17.95275 -13.0463,35.90551 -26.8282,49.37008 -6.891,6.73228 -14.7928,12.34251 -23.4065,16.26968 -4.3069,1.9636 -8.7918,3.5064 -13.4173,4.55832 -2.3128,0.52596 -4.6607,0.9292 -7.0393,1.20096 l -0.378,0.0405"
         fill-rule="evenodd"
         id="path38-1" />
      <path
         fill="#000000"
         stroke="#000000"
         stroke-width="2"
         stroke-linecap="butt"
         d="m 1201.1748,188.58914 2.1239,-2.36777 -6.0485,2.5808 6.2924,1.91093 z"
         fill-rule="evenodd"
         id="path39" />
    </g>
    <g
       id="g47"
       inkscape:label="fecha">
      <path
         stroke="#000000"
         stroke-width="2"
         stroke-linejoin="round"
         stroke-linecap="butt"
         d="m 1009.1345,332.61417 c -12.5,0 -23.58533,-11.0235 -25,-19.84226 -1.41473,-8.81875 6.84119,-15.43277 14.38977,-19.84225 3.77433,-2.20474 7.37173,-3.85837 10.02553,-5.7876 0.3318,-0.24115 0.6487,-0.4866 0.9495,-0.73797 0.1503,-0.12571 0.2967,-0.25287 0.4387,-0.38175 l 0.1053,-0.0975"
         fill-rule="evenodd"
         id="path41"
         inkscape:label="path41" />
      <path
         fill="#000000"
         stroke="#000000"
         stroke-width="2"
         stroke-linecap="butt"
         d="m 1010.0433,285.9248 1.1004,2.98441 0.5457,-6.55344 -4.6305,4.6694 z"
         fill-rule="evenodd"
         id="path42-3"
         inkscape:label="path42" />
    </g>
  </g>
</svg>
