<?xml version="1.0" encoding="UTF-8" standalone="no"?>
<svg
   version="1.1"
   viewBox="0 0 567.92912 189.97637"
   fill="none"
   stroke="none"
   stroke-linecap="square"
   stroke-miterlimit="10"
   id="svg303"
   sodipodi:docname="metodo_lecturas_1.svg"
   inkscape:version="1.3.2 (091e20e, 2023-11-25)"
   width="567.92914"
   height="189.97636"
   xmlns:inkscape="http://www.inkscape.org/namespaces/inkscape"
   xmlns:sodipodi="http://sodipodi.sourceforge.net/DTD/sodipodi-0.dtd"
   xmlns="http://www.w3.org/2000/svg"
   xmlns:svg="http://www.w3.org/2000/svg">
  <defs
     id="defs303" />
  <sodipodi:namedview
     id="namedview303"
     pagecolor="#505050"
     bordercolor="#ffffff"
     borderopacity="1"
     inkscape:showpageshadow="0"
     inkscape:pageopacity="0"
     inkscape:pagecheckerboard="1"
     inkscape:deskcolor="#505050"
     inkscape:zoom="1.0621079"
     inkscape:cx="96.035441"
     inkscape:cy="173.71117"
     inkscape:window-width="1920"
     inkscape:window-height="1054"
     inkscape:window-x="1440"
     inkscape:window-y="26"
     inkscape:window-maximized="0"
     inkscape:current-layer="svg303" />
  <clipPath
     id="p.0">
    <path
       d="M 0,0 H 604.7244 V 226.77165 H 0 Z"
       clip-rule="nonzero"
       id="path1" />
  </clipPath>
  <path
     stroke="#000000"
     stroke-width="1"
     stroke-linejoin="round"
     stroke-linecap="butt"
     d="M 0.5,0.5 H 567.42914 V 189.47636 H 0.5 Z"
     fill-rule="evenodd"
     id="path4"
     inkscape:label="portaobjetos" />
  <path
     stroke="#000000"
     stroke-width="1"
     stroke-linejoin="round"
     stroke-linecap="butt"
     d="M 110.1063,4.280779 H 563.6496 V 185.69809 H 110.1063 Z"
     fill-rule="evenodd"
     id="path6"
     inkscape:label="cubreobjetos" />
  <path
     fill="#000000"
     d="m 19.029055,176.18082 18.5625,-7.4375 -18.5625,-7.4375 v -3.89063 h 22.75 v 3 H 32.91968 l -9.5625,-0.28125 18.421875,7.46875 v 2.29688 l -18.375,7.45312 9.515625,-0.29687 h 8.859375 v 3 h -22.75 z M 31.26343,139.25894 v 9.85938 h 8.0625 v -11.45313 h 2.453125 v 14.45313 h -22.75 v -14.29688 h 2.46875 v 11.29688 h 7.3125 v -9.85938 z m 10.515625,-5.32812 h -22.75 v -6.42188 q 0,-2.96875 1.3125,-5.25 1.3125,-2.28125 3.734375,-3.51562 2.421875,-1.25 5.5625,-1.26563 h 1.453125 q 3.21875,0 5.640625,1.25 2.421875,1.23438 3.71875,3.54688 1.296875,2.29687 1.328125,5.35937 z m -20.28125,-3 H 39.32593 v -3.15625 q 0,-3.46875 -2.15625,-5.39063 -2.15625,-1.9375 -6.140625,-1.9375 H 29.70093 q -3.875,0 -6.015625,1.82813 -2.15625,1.8125 -2.1875,5.15625 z M 31.63843,98.321452 q -1.109375,3.859368 -2.71875,5.624998 -1.625,1.75 -4,1.75 -2.6875,0 -4.4375,-2.14063 -1.765625,-2.15625 -1.765625,-5.593748 0,-2.34375 0.90625,-4.17187 0.90625,-1.84375 2.5,-2.84375 1.59375,-1.01563 3.484375,-1.01563 v 3.01563 q -2.0625,0 -3.234375,1.3125 -1.1875,1.3125 -1.1875,3.70312 0,2.218748 0.984375,3.468748 0.96875,1.23438 2.703125,1.23438 1.390625,0 2.359375,-1.17188 0.953125,-1.1875 1.75,-4.015618 0.796875,-2.84375 1.765625,-4.4375 0.953125,-1.60938 2.234375,-2.375 1.28125,-0.78125 3.015625,-0.78125 2.765625,0 4.4375,2.15625 1.65625,2.15625 1.65625,5.76562 0,2.343748 -0.890625,4.374998 -0.90625,2.03125 -2.46875,3.14063 -1.5625,1.09375 -3.546875,1.09375 v -3.01563 q 2.0625,0 3.265625,-1.51562 1.1875,-1.53125 1.1875,-4.078128 0,-2.375 -0.96875,-3.64062 -0.96875,-1.26563 -2.640625,-1.26563 -1.671875,0 -2.578125,1.17188 -0.921875,1.17187 -1.8125,4.25 z m 0.4375,-25.79688 q 5.078125,0 7.546875,1.734375 2.46875,1.734375 2.46875,5.421875 0,3.64063 -2.40625,5.39063 -2.421875,1.75 -7.21875,1.8125 H 28.60718 q -5.015625,0 -7.453125,-1.73438 -2.4375,-1.73437 -2.4375,-5.4375 0,-3.671875 2.359375,-5.40625 2.34375,-1.734375 7.25,-1.78125 z m -3.953125,2.890625 q -3.671875,0 -5.34375,1.03125 -1.6875,1.03125 -1.6875,3.265625 0,2.21875 1.671875,3.23438 1.671875,1.01562 5.140625,1.04687 h 4.625 q 3.6875,0 5.453125,-1.0625 1.75,-1.07812 1.75,-3.25 0,-2.140625 -1.65625,-3.171875 -1.65625,-1.046875 -5.21875,-1.09375 z M 32.07593,54.555822 q 5.078125,0 7.546875,1.734375 2.46875,1.734375 2.46875,5.421875 0,3.640625 -2.40625,5.390625 -2.421875,1.75 -7.21875,1.8125 H 28.60718 q -5.015625,0 -7.453125,-1.734375 -2.4375,-1.734375 -2.4375,-5.4375 0,-3.671875 2.359375,-5.40625 2.34375,-1.734375 7.25,-1.78125 z m -3.953125,2.890625 q -3.671875,0 -5.34375,1.03125 -1.6875,1.03125 -1.6875,3.265625 0,2.21875 1.671875,3.234375 1.671875,1.015625 5.140625,1.046875 h 4.625 q 3.6875,0 5.453125,-1.0625 1.75,-1.078125 1.75,-3.25 0,-2.140625 -1.65625,-3.171875 -1.65625,-1.046875 -5.21875,-1.09375 z m 13.65625,-16.09375 v 2.90625 H 22.51343 l 2.140625,5.828125 h -2.625 l -3.109375,-8.28125 v -0.453125 z"
     fill-rule="nonzero"
     id="path8"
     inkscape:label="etiqueta" />
  <path
     fill="#000000"
     d="m 80.179062,165.89957 v 14.90625 h -2.078125 l -8.75,-7.875 q -1.984375,-1.75 -3.21875,-2.40625 -1.25,-0.67188 -2.578125,-0.67188 -1.78125,0 -2.921875,1.07813 -1.140625,1.07812 -1.140625,2.875 0,2.15625 1.234375,3.35937 1.21875,1.1875 3.40625,1.1875 v 2.89063 q -3.140625,0 -5.078125,-2.01563 -1.9375,-2.03125 -1.9375,-5.42187 0,-3.17188 1.671875,-5.01563 1.65625,-1.84375 4.421875,-1.84375 3.359375,0 8,4.28125 l 6.609375,6.09375 v -11.42187 z m -9.703125,-17.32813 q 5.078125,0 7.546875,1.73438 2.46875,1.73437 2.46875,5.42187 0,3.64063 -2.40625,5.39063 -2.421875,1.75 -7.21875,1.8125 h -3.859375 q -5.015625,0 -7.453125,-1.73438 -2.4375,-1.73437 -2.4375,-5.4375 0,-3.67187 2.359375,-5.40625 2.34375,-1.73437 7.25,-1.78125 z m -3.953125,2.89063 q -3.671875,0 -5.34375,1.03125 -1.6875,1.03125 -1.6875,3.26562 0,2.21875 1.671875,3.23438 1.671875,1.01562 5.140625,1.04687 h 4.625 q 3.6875,0 5.453125,-1.0625 1.75,-1.07812 1.75,-3.25 0,-2.14062 -1.65625,-3.17187 -1.65625,-1.04688 -5.21875,-1.09375 z m 13.65625,-16.09375 v 2.90625 H 60.913437 l 2.140625,5.82812 h -2.625 l -3.109375,-8.28125 v -0.45312 z m -10,-19.54688 q 1.078125,0.90625 1.734375,2.17188 0.65625,1.25 0.65625,2.75 0,1.96875 -0.96875,3.4375 -0.96875,1.45312 -2.71875,2.25 -1.765625,0.79687 -3.890625,0.79687 -2.28125,0 -4.109375,-0.85937 -1.828125,-0.875 -2.796875,-2.46875 -0.96875,-1.59375 -0.96875,-3.71875 0,-3.375 2.53125,-5.3125 2.515625,-1.95313 6.875,-1.95313 h 0.84375 q 6.640625,0 9.703125,2.625 3.046875,2.625 3.125,7.92188 v 0.5625 h -2.4375 v -0.60938 q -0.0625,-3.57812 -1.859375,-5.5 -1.8125,-1.92187 -5.71875,-2.09375 z m 0,4.45313 q 0,-1.45313 -0.890625,-2.67188 -0.890625,-1.23437 -2.203125,-1.79687 h -1.15625 q -2.84375,0 -4.625,1.23437 -1.78125,1.23438 -1.78125,3.125 0,1.90625 1.46875,3.0625 1.453125,1.15625 3.84375,1.15625 2.328125,0 3.84375,-1.10937 1.5,-1.125 1.5,-3 z m 1.515625,-17.65625 v 7.625 h -2.359375 v -7.625 z m -1.21875,-16.781248 q 5.078125,0 7.546875,1.73438 2.46875,1.73437 2.46875,5.42187 0,3.64063 -2.40625,5.39063 -2.421875,1.749998 -7.21875,1.812498 h -3.859375 q -5.015625,0 -7.453125,-1.734378 -2.4375,-1.73437 -2.4375,-5.4375 0,-3.67187 2.359375,-5.40625 2.34375,-1.73437 7.25,-1.78125 z m -3.953125,2.89063 q -3.671875,0 -5.34375,1.03125 -1.6875,1.03125 -1.6875,3.26562 0,2.21875 1.671875,3.23438 1.671875,1.01562 5.140625,1.04687 h 4.625 q 3.6875,0 5.453125,-1.0625 1.75,-1.07812 1.75,-3.25 0,-2.14062 -1.65625,-3.17187 -1.65625,-1.04688 -5.21875,-1.09375 z M 57.413437,70.790197 h 2.453125 v 0.53125 q 0.0625,3.375 2,5.375 1.9375,2 5.453125,2.3125 -2.0625,-1.796875 -2.0625,-4.90625 0,-2.96875 2.09375,-4.734375 2.09375,-1.78125 5.40625,-1.78125 3.515625,0 5.625,1.921875 2.109375,1.90625 2.109375,5.125 0,3.265625 -2.5,5.296875 -2.515625,2.03125 -6.46875,2.03125 h -1.109375 q -6.28125,0 -9.59375,-2.671875 -3.328125,-2.6875 -3.40625,-7.984375 z m 10.25,3.796875 q 0,1.484375 0.890625,2.734375 0.890625,1.25 2.234375,1.734375 h 1.0625 q 2.8125,0 4.53125,-1.265625 1.71875,-1.265625 1.71875,-3.15625 0,-1.953125 -1.4375,-3.0625 -1.4375,-1.125 -3.765625,-1.125 -2.34375,0 -3.78125,1.140625 -1.453125,1.125 -1.453125,3 z m 4.03125,-16.734375 v 7.625 h -2.359375 v -7.625 z m 8.484375,-17.421875 v 14.90625 h -2.078125 l -8.75,-7.875 q -1.984375,-1.75 -3.21875,-2.40625 -1.25,-0.671875 -2.578125,-0.671875 -1.78125,0 -2.921875,1.078125 -1.140625,1.078125 -1.140625,2.875 0,2.15625 1.234375,3.359375 1.21875,1.1875 3.40625,1.1875 v 2.890625 q -3.140625,0 -5.078125,-2.015625 -1.9375,-2.03125 -1.9375,-5.421875 0,-3.171875 1.671875,-5.015625 1.65625,-1.84375 4.421875,-1.84375 3.359375,0 8,4.28125 l 6.609375,6.09375 V 40.430822 Z M 70.475937,23.102697 q 5.078125,0 7.546875,1.734375 2.46875,1.734375 2.46875,5.421875 0,3.640625 -2.40625,5.390625 -2.421875,1.75 -7.21875,1.8125 h -3.859375 q -5.015625,0 -7.453125,-1.734375 -2.4375,-1.734375 -2.4375,-5.4375 0,-3.671875 2.359375,-5.40625 2.34375,-1.734375 7.25,-1.78125 z m -3.953125,2.890625 q -3.671875,0 -5.34375,1.03125 -1.6875,1.03125 -1.6875,3.265625 0,2.21875 1.671875,3.234375 1.671875,1.015625 5.140625,1.046875 h 4.625 q 3.6875,0 5.453125,-1.0625 1.75,-1.078125 1.75,-3.25 0,-2.140625 -1.65625,-3.171875 -1.65625,-1.046875 -5.21875,-1.09375 z"
     fill-rule="nonzero"
     id="path9"
     inkscape:label="fecha" />
  <path
     fill="#e64dff"
     d="M 155.46062,19.397272 H 518.29528 V 170.57837 H 155.46062 Z"
     fill-rule="evenodd"
     id="path10"
     inkscape:label="cinta_melinex"
     style="fill:#cc79a7;fill-opacity:1" />
  <g
     id="g303"
     inkscape:label="circulos"
     transform="translate(-18.397638,-18.397638)">
    <path
       stroke="#000000"
       stroke-width="1"
       stroke-linejoin="round"
       stroke-linecap="butt"
       d="m 177.6378,90.708664 v 0 c 0,-2.087379 1.69214,-3.779533 3.77953,-3.779533 v 0 c 1.00238,0 1.96373,0.398201 2.67253,1.107002 0.70878,0.708801 1.10699,1.670135 1.10699,2.672531 v 0 c 0,2.087372 -1.69215,3.779526 -3.77952,3.779526 v 0 c -2.08739,0 -3.77953,-1.692154 -3.77953,-3.779526 z"
       fill-rule="evenodd"
       id="path13" />
    <path
       stroke="#000000"
       stroke-width="1"
       stroke-linejoin="round"
       stroke-linecap="butt"
       d="m 185.19685,90.708664 v 0 c 0,-2.087379 1.69215,-3.779533 3.77953,-3.779533 v 0 c 1.00239,0 1.96373,0.398201 2.67253,1.107002 0.7088,0.708801 1.10699,1.670135 1.10699,2.672531 v 0 c 0,2.087372 -1.69215,3.779526 -3.77952,3.779526 v 0 c -2.08738,0 -3.77953,-1.692154 -3.77953,-3.779526 z"
       fill-rule="evenodd"
       id="path15" />
    <path
       stroke="#000000"
       stroke-width="1"
       stroke-linejoin="round"
       stroke-linecap="butt"
       d="m 192.7559,90.708664 v 0 c 0,-2.087379 1.69215,-3.779533 3.77953,-3.779533 v 0 c 1.00239,0 1.96373,0.398201 2.67253,1.107002 0.7088,0.708801 1.10699,1.670135 1.10699,2.672531 v 0 c 0,2.087372 -1.69215,3.779526 -3.77952,3.779526 v 0 c -2.08738,0 -3.77953,-1.692154 -3.77953,-3.779526 z"
       fill-rule="evenodd"
       id="path17" />
    <path
       stroke="#000000"
       stroke-width="1"
       stroke-linejoin="round"
       stroke-linecap="butt"
       d="m 200.31496,90.708664 v 0 c 0,-2.087379 1.69215,-3.779533 3.77953,-3.779533 v 0 c 1.00239,0 1.96373,0.398201 2.67253,1.107002 0.7088,0.708801 1.10699,1.670135 1.10699,2.672531 v 0 c 0,2.087372 -1.69214,3.779526 -3.77952,3.779526 v 0 c -2.08738,0 -3.77953,-1.692154 -3.77953,-3.779526 z"
       fill-rule="evenodd"
       id="path19" />
    <path
       stroke="#000000"
       stroke-width="1"
       stroke-linejoin="round"
       stroke-linecap="butt"
       d="m 207.87401,90.708664 v 0 c 0,-2.087379 1.69215,-3.779533 3.77954,-3.779533 v 0 c 1.00238,0 1.96373,0.398201 2.67253,1.107002 0.70879,0.708801 1.107,1.670135 1.107,2.672531 v 0 c 0,2.087372 -1.69216,3.779526 -3.77953,3.779526 v 0 c -2.08739,0 -3.77954,-1.692154 -3.77954,-3.779526 z"
       fill-rule="evenodd"
       id="path21" />
    <path
       stroke="#000000"
       stroke-width="1"
       stroke-linejoin="round"
       stroke-linecap="butt"
       d="m 215.43307,90.708664 v 0 c 0,-2.087379 1.69215,-3.779533 3.77953,-3.779533 v 0 c 1.00239,0 1.96373,0.398201 2.67253,1.107002 0.7088,0.708801 1.10699,1.670135 1.10699,2.672531 v 0 c 0,2.087372 -1.69215,3.779526 -3.77952,3.779526 v 0 c -2.08738,0 -3.77953,-1.692154 -3.77953,-3.779526 z"
       fill-rule="evenodd"
       id="path23" />
    <path
       stroke="#000000"
       stroke-width="1"
       stroke-linejoin="round"
       stroke-linecap="butt"
       d="m 222.99213,90.708664 v 0 c 0,-2.087379 1.69215,-3.779533 3.77953,-3.779533 v 0 c 1.00239,0 1.96373,0.398201 2.67253,1.107002 0.7088,0.708801 1.10699,1.670135 1.10699,2.672531 v 0 c 0,2.087372 -1.69215,3.779526 -3.77952,3.779526 v 0 c -2.08738,0 -3.77953,-1.692154 -3.77953,-3.779526 z"
       fill-rule="evenodd"
       id="path25" />
    <path
       stroke="#000000"
       stroke-width="1"
       stroke-linejoin="round"
       stroke-linecap="butt"
       d="m 230.55118,90.708664 v 0 c 0,-2.087379 1.69215,-3.779533 3.77953,-3.779533 v 0 c 1.00239,0 1.96373,0.398201 2.67253,1.107002 0.7088,0.708801 1.10699,1.670135 1.10699,2.672531 v 0 c 0,2.087372 -1.69214,3.779526 -3.77952,3.779526 v 0 c -2.08738,0 -3.77953,-1.692154 -3.77953,-3.779526 z"
       fill-rule="evenodd"
       id="path27" />
    <path
       stroke="#000000"
       stroke-width="1"
       stroke-linejoin="round"
       stroke-linecap="butt"
       d="m 238.11023,90.708664 v 0 c 0,-2.087379 1.69215,-3.779533 3.77954,-3.779533 v 0 c 1.00238,0 1.96373,0.398201 2.67252,1.107002 0.7088,0.708801 1.10701,1.670135 1.10701,2.672531 v 0 c 0,2.087372 -1.69216,3.779526 -3.77953,3.779526 v 0 c -2.08739,0 -3.77954,-1.692154 -3.77954,-3.779526 z"
       fill-rule="evenodd"
       id="path29" />
    <path
       stroke="#000000"
       stroke-width="1"
       stroke-linejoin="round"
       stroke-linecap="butt"
       d="m 245.6693,90.708664 v 0 c 0,-2.087379 1.69215,-3.779533 3.77953,-3.779533 v 0 c 1.00239,0 1.96373,0.398201 2.67253,1.107002 0.7088,0.708801 1.10699,1.670135 1.10699,2.672531 v 0 c 0,2.087372 -1.69215,3.779526 -3.77952,3.779526 v 0 c -2.08738,0 -3.77953,-1.692154 -3.77953,-3.779526 z"
       fill-rule="evenodd"
       id="path31" />
    <path
       stroke="#000000"
       stroke-width="1"
       stroke-linejoin="round"
       stroke-linecap="butt"
       d="m 177.6378,105.82677 v 0 c 0,-2.08737 1.69214,-3.77953 3.77953,-3.77953 v 0 c 1.00238,0 1.96373,0.3982 2.67253,1.107 0.70878,0.70881 1.10699,1.67014 1.10699,2.67253 v 0 c 0,2.08738 -1.69215,3.77953 -3.77952,3.77953 v 0 c -2.08739,0 -3.77953,-1.69215 -3.77953,-3.77953 z"
       fill-rule="evenodd"
       id="path33" />
    <path
       stroke="#000000"
       stroke-width="1"
       stroke-linejoin="round"
       stroke-linecap="butt"
       d="m 177.6378,120.94489 v 0 c 0,-2.08738 1.69214,-3.77954 3.77953,-3.77954 v 0 c 1.00238,0 1.96373,0.3982 2.67253,1.107 0.70878,0.7088 1.10699,1.67014 1.10699,2.67254 v 0 c 0,2.08737 -1.69215,3.77952 -3.77952,3.77952 v 0 c -2.08739,0 -3.77953,-1.69215 -3.77953,-3.77952 z"
       fill-rule="evenodd"
       id="path35" />
    <path
       stroke="#000000"
       stroke-width="1"
       stroke-linejoin="round"
       stroke-linecap="butt"
       d="m 177.6378,136.06299 v 0 c 0,-2.08737 1.69214,-3.77953 3.77953,-3.77953 v 0 c 1.00238,0 1.96373,0.39821 2.67253,1.107 0.70878,0.7088 1.10699,1.67013 1.10699,2.67253 v 0 c 0,2.08737 -1.69215,3.77953 -3.77952,3.77953 v 0 c -2.08739,0 -3.77953,-1.69216 -3.77953,-3.77953 z"
       fill-rule="evenodd"
       id="path37" />
    <path
       stroke="#000000"
       stroke-width="1"
       stroke-linejoin="round"
       stroke-linecap="butt"
       d="m 181.41733,136.06299 v 0 c 0,-2.08737 1.69215,-3.77953 3.77953,-3.77953 v 0 c 1.00239,0 1.96373,0.39821 2.67253,1.107 0.7088,0.7088 1.10699,1.67013 1.10699,2.67253 v 0 c 0,2.08737 -1.69215,3.77953 -3.77952,3.77953 v 0 c -2.08738,0 -3.77953,-1.69216 -3.77953,-3.77953 z"
       fill-rule="evenodd"
       id="path39" />
    <path
       stroke="#000000"
       stroke-width="1"
       stroke-linejoin="round"
       stroke-linecap="butt"
       d="m 185.19685,136.06299 v 0 c 0,-2.08737 1.69215,-3.77953 3.77953,-3.77953 v 0 c 1.00239,0 1.96373,0.39821 2.67253,1.107 0.7088,0.7088 1.10699,1.67013 1.10699,2.67253 v 0 c 0,2.08737 -1.69215,3.77953 -3.77952,3.77953 v 0 c -2.08738,0 -3.77953,-1.69216 -3.77953,-3.77953 z"
       fill-rule="evenodd"
       id="path41"
       inkscape:label="path41" />
    <path
       stroke="#000000"
       stroke-width="1"
       stroke-linejoin="round"
       stroke-linecap="butt"
       d="m 188.97638,136.06299 v 0 c 0,-2.08737 1.69215,-3.77953 3.77953,-3.77953 v 0 c 1.00239,0 1.96373,0.39821 2.67253,1.107 0.7088,0.7088 1.10699,1.67013 1.10699,2.67253 v 0 c 0,2.08737 -1.69215,3.77953 -3.77952,3.77953 v 0 c -2.08738,0 -3.77953,-1.69216 -3.77953,-3.77953 z"
       fill-rule="evenodd"
       id="path43" />
    <path
       stroke="#000000"
       stroke-width="1"
       stroke-linejoin="round"
       stroke-linecap="butt"
       d="m 192.7559,136.06299 v 0 c 0,-2.08737 1.69215,-3.77953 3.77953,-3.77953 v 0 c 1.00239,0 1.96373,0.39821 2.67253,1.107 0.7088,0.7088 1.10699,1.67013 1.10699,2.67253 v 0 c 0,2.08737 -1.69215,3.77953 -3.77952,3.77953 v 0 c -2.08738,0 -3.77953,-1.69216 -3.77953,-3.77953 z"
       fill-rule="evenodd"
       id="path45" />
    <path
       stroke="#000000"
       stroke-width="1"
       stroke-linejoin="round"
       stroke-linecap="butt"
       d="m 196.53543,136.06299 v 0 c 0,-2.08737 1.69215,-3.77953 3.77953,-3.77953 v 0 c 1.00239,0 1.96373,0.39821 2.67253,1.107 0.7088,0.7088 1.10699,1.67013 1.10699,2.67253 v 0 c 0,2.08737 -1.69215,3.77953 -3.77952,3.77953 v 0 c -2.08738,0 -3.77953,-1.69216 -3.77953,-3.77953 z"
       fill-rule="evenodd"
       id="path47" />
    <path
       stroke="#000000"
       stroke-width="1"
       stroke-linejoin="round"
       stroke-linecap="butt"
       d="m 200.31496,136.06299 v 0 c 0,-2.08737 1.69215,-3.77953 3.77953,-3.77953 v 0 c 1.00239,0 1.96373,0.39821 2.67253,1.107 0.7088,0.7088 1.10699,1.67013 1.10699,2.67253 v 0 c 0,2.08737 -1.69214,3.77953 -3.77952,3.77953 v 0 c -2.08738,0 -3.77953,-1.69216 -3.77953,-3.77953 z"
       fill-rule="evenodd"
       id="path49" />
    <path
       stroke="#000000"
       stroke-width="1"
       stroke-linejoin="round"
       stroke-linecap="butt"
       d="m 204.09448,136.06299 v 0 c 0,-2.08737 1.69215,-3.77953 3.77953,-3.77953 v 0 c 1.00239,0 1.96374,0.39821 2.67253,1.107 0.7088,0.7088 1.10701,1.67013 1.10701,2.67253 v 0 c 0,2.08737 -1.69216,3.77953 -3.77954,3.77953 v 0 c -2.08738,0 -3.77953,-1.69216 -3.77953,-3.77953 z"
       fill-rule="evenodd"
       id="path51" />
    <path
       stroke="#000000"
       stroke-width="1"
       stroke-linejoin="round"
       stroke-linecap="butt"
       d="m 253.22835,90.708664 v 0 c 0,-2.087379 1.69215,-3.779533 3.77953,-3.779533 v 0 c 1.00238,0 1.96374,0.398201 2.67251,1.107002 0.7088,0.708801 1.10703,1.670135 1.10703,2.672531 v 0 c 0,2.087372 -1.69217,3.779526 -3.77954,3.779526 v 0 c -2.08738,0 -3.77953,-1.692154 -3.77953,-3.779526 z"
       fill-rule="evenodd"
       id="path53" />
    <path
       stroke="#000000"
       stroke-width="1"
       stroke-linejoin="round"
       stroke-linecap="butt"
       d="m 260.7874,90.708664 v 0 c 0,-2.087379 1.69214,-3.779533 3.77951,-3.779533 v 0 c 1.00241,0 1.96375,0.398201 2.67255,1.107002 0.7088,0.708801 1.10699,1.670135 1.10699,2.672531 v 0 c 0,2.087372 -1.69217,3.779526 -3.77954,3.779526 v 0 c -2.08737,0 -3.77951,-1.692154 -3.77951,-3.779526 z"
       fill-rule="evenodd"
       id="path55" />
    <path
       stroke="#000000"
       stroke-width="1"
       stroke-linejoin="round"
       stroke-linecap="butt"
       d="m 268.34647,90.708664 v 0 c 0,-2.087379 1.69214,-3.779533 3.77951,-3.779533 v 0 c 1.00241,0 1.96375,0.398201 2.67255,1.107002 0.7088,0.708801 1.10699,1.670135 1.10699,2.672531 v 0 c 0,2.087372 -1.69217,3.779526 -3.77954,3.779526 v 0 c -2.08737,0 -3.77951,-1.692154 -3.77951,-3.779526 z"
       fill-rule="evenodd"
       id="path57" />
    <path
       stroke="#000000"
       stroke-width="1"
       stroke-linejoin="round"
       stroke-linecap="butt"
       d="m 275.90552,90.708664 v 0 c 0,-2.087379 1.69214,-3.779533 3.77951,-3.779533 v 0 c 1.00241,0 1.96375,0.398201 2.67255,1.107002 0.7088,0.708801 1.10699,1.670135 1.10699,2.672531 v 0 c 0,2.087372 -1.69217,3.779526 -3.77954,3.779526 v 0 c -2.08737,0 -3.77951,-1.692154 -3.77951,-3.779526 z"
       fill-rule="evenodd"
       id="path59" />
    <path
       stroke="#000000"
       stroke-width="1"
       stroke-linejoin="round"
       stroke-linecap="butt"
       d="m 283.46457,90.708664 v 0 c 0,-2.087379 1.69214,-3.779533 3.77951,-3.779533 v 0 c 1.00241,0 1.96375,0.398201 2.67255,1.107002 0.7088,0.708801 1.10699,1.670135 1.10699,2.672531 v 0 c 0,2.087372 -1.69214,3.779526 -3.77954,3.779526 v 0 c -2.08737,0 -3.77951,-1.692154 -3.77951,-3.779526 z"
       fill-rule="evenodd"
       id="path61" />
    <path
       stroke="#000000"
       stroke-width="1"
       stroke-linejoin="round"
       stroke-linecap="butt"
       d="m 291.02362,90.708664 v 0 c 0,-2.087379 1.69214,-3.779533 3.77954,-3.779533 v 0 c 1.00238,0 1.96372,0.398201 2.67252,1.107002 0.7088,0.708801 1.10699,1.670135 1.10699,2.672531 v 0 c 0,2.087372 -1.69214,3.779526 -3.77951,3.779526 v 0 c -2.0874,0 -3.77954,-1.692154 -3.77954,-3.779526 z"
       fill-rule="evenodd"
       id="path63" />
    <path
       stroke="#000000"
       stroke-width="1"
       stroke-linejoin="round"
       stroke-linecap="butt"
       d="m 298.58267,90.708664 v 0 c 0,-2.087379 1.69217,-3.779533 3.77954,-3.779533 v 0 c 1.00238,0 1.96372,0.398201 2.67252,1.107002 0.7088,0.708801 1.10699,1.670135 1.10699,2.672531 v 0 c 0,2.087372 -1.69214,3.779526 -3.77951,3.779526 v 0 c -2.08737,0 -3.77954,-1.692154 -3.77954,-3.779526 z"
       fill-rule="evenodd"
       id="path65" />
    <path
       stroke="#000000"
       stroke-width="1"
       stroke-linejoin="round"
       stroke-linecap="butt"
       d="m 306.14172,90.708664 v 0 c 0,-2.087379 1.69217,-3.779533 3.77954,-3.779533 v 0 c 1.00238,0 1.96372,0.398201 2.67252,1.107002 0.7088,0.708801 1.10699,1.670135 1.10699,2.672531 v 0 c 0,2.087372 -1.69214,3.779526 -3.77951,3.779526 v 0 c -2.08737,0 -3.77954,-1.692154 -3.77954,-3.779526 z"
       fill-rule="evenodd"
       id="path67" />
    <path
       stroke="#000000"
       stroke-width="1"
       stroke-linejoin="round"
       stroke-linecap="butt"
       d="m 313.70078,90.708664 v 0 c 0,-2.087379 1.69217,-3.779533 3.77954,-3.779533 v 0 c 1.00238,0 1.96372,0.398201 2.67252,1.107002 0.7088,0.708801 1.10702,1.670135 1.10702,2.672531 v 0 c 0,2.087372 -1.69217,3.779526 -3.77954,3.779526 v 0 c -2.08737,0 -3.77954,-1.692154 -3.77954,-3.779526 z"
       fill-rule="evenodd"
       id="path69" />
    <path
       stroke="#000000"
       stroke-width="1"
       stroke-linejoin="round"
       stroke-linecap="butt"
       d="m 321.25986,90.708664 v 0 c 0,-2.087379 1.69214,-3.779533 3.77951,-3.779533 v 0 c 1.00238,0 1.96375,0.398201 2.67255,1.107002 0.70877,0.708801 1.10699,1.670135 1.10699,2.672531 v 0 c 0,2.087372 -1.69217,3.779526 -3.77954,3.779526 v 0 c -2.08737,0 -3.77951,-1.692154 -3.77951,-3.779526 z"
       fill-rule="evenodd"
       id="path71" />
    <path
       stroke="#000000"
       stroke-width="1"
       stroke-linejoin="round"
       stroke-linecap="butt"
       d="m 328.8189,90.708664 v 0 c 0,-2.087379 1.69214,-3.779533 3.77951,-3.779533 v 0 c 1.00241,0 1.96375,0.398201 2.67255,1.107002 0.7088,0.708801 1.10699,1.670135 1.10699,2.672531 v 0 c 0,2.087372 -1.69217,3.779526 -3.77954,3.779526 v 0 c -2.08737,0 -3.77951,-1.692154 -3.77951,-3.779526 z"
       fill-rule="evenodd"
       id="path73" />
    <path
       stroke="#000000"
       stroke-width="1"
       stroke-linejoin="round"
       stroke-linecap="butt"
       d="m 336.37796,90.708664 v 0 c 0,-2.087379 1.69214,-3.779533 3.77951,-3.779533 v 0 c 1.00241,0 1.96375,0.398201 2.67255,1.107002 0.7088,0.708801 1.10699,1.670135 1.10699,2.672531 v 0 c 0,2.087372 -1.69217,3.779526 -3.77954,3.779526 v 0 c -2.08737,0 -3.77951,-1.692154 -3.77951,-3.779526 z"
       fill-rule="evenodd"
       id="path75" />
    <path
       stroke="#000000"
       stroke-width="1"
       stroke-linejoin="round"
       stroke-linecap="butt"
       d="m 343.937,90.708664 v 0 c 0,-2.087379 1.69214,-3.779533 3.77951,-3.779533 v 0 c 1.00241,0 1.96375,0.398201 2.67255,1.107002 0.7088,0.708801 1.10699,1.670135 1.10699,2.672531 v 0 c 0,2.087372 -1.69214,3.779526 -3.77954,3.779526 v 0 c -2.08737,0 -3.77951,-1.692154 -3.77951,-3.779526 z"
       fill-rule="evenodd"
       id="path77" />
    <path
       stroke="#000000"
       stroke-width="1"
       stroke-linejoin="round"
       stroke-linecap="butt"
       d="m 351.49606,90.708664 v 0 c 0,-2.087379 1.69214,-3.779533 3.77954,-3.779533 v 0 c 1.00238,0 1.96372,0.398201 2.67252,1.107002 0.7088,0.708801 1.10699,1.670135 1.10699,2.672531 v 0 c 0,2.087372 -1.69214,3.779526 -3.77951,3.779526 v 0 c -2.0874,0 -3.77954,-1.692154 -3.77954,-3.779526 z"
       fill-rule="evenodd"
       id="path79" />
    <path
       stroke="#000000"
       stroke-width="1"
       stroke-linejoin="round"
       stroke-linecap="butt"
       d="m 359.0551,90.708664 v 0 c 0,-2.087379 1.69217,-3.779533 3.77954,-3.779533 v 0 c 1.00238,0 1.96372,0.398201 2.67252,1.107002 0.7088,0.708801 1.10699,1.670135 1.10699,2.672531 v 0 c 0,2.087372 -1.69214,3.779526 -3.77951,3.779526 v 0 c -2.08737,0 -3.77954,-1.692154 -3.77954,-3.779526 z"
       fill-rule="evenodd"
       id="path81" />
    <path
       stroke="#000000"
       stroke-width="1"
       stroke-linejoin="round"
       stroke-linecap="butt"
       d="m 366.61417,90.708664 v 0 c 0,-2.087379 1.69217,-3.779533 3.77954,-3.779533 v 0 c 1.00238,0 1.96372,0.398201 2.67252,1.107002 0.7088,0.708801 1.10699,1.670135 1.10699,2.672531 v 0 c 0,2.087372 -1.69214,3.779526 -3.77951,3.779526 v 0 c -2.08737,0 -3.77954,-1.692154 -3.77954,-3.779526 z"
       fill-rule="evenodd"
       id="path83" />
    <path
       stroke="#000000"
       stroke-width="1"
       stroke-linejoin="round"
       stroke-linecap="butt"
       d="m 374.17322,90.708664 v 0 c 0,-2.087379 1.69217,-3.779533 3.77954,-3.779533 v 0 c 1.00238,0 1.96372,0.398201 2.67252,1.107002 0.7088,0.708801 1.10699,1.670135 1.10699,2.672531 v 0 c 0,2.087372 -1.69214,3.779526 -3.77951,3.779526 v 0 c -2.08737,0 -3.77954,-1.692154 -3.77954,-3.779526 z"
       fill-rule="evenodd"
       id="path85" />
    <path
       stroke="#000000"
       stroke-width="1"
       stroke-linejoin="round"
       stroke-linecap="butt"
       d="m 381.73227,90.708664 v 0 c 0,-2.087379 1.69217,-3.779533 3.77954,-3.779533 v 0 c 1.00238,0 1.96375,0.398201 2.67252,1.107002 0.7088,0.708801 1.10702,1.670135 1.10702,2.672531 v 0 c 0,2.087372 -1.69217,3.779526 -3.77954,3.779526 v 0 c -2.08737,0 -3.77954,-1.692154 -3.77954,-3.779526 z"
       fill-rule="evenodd"
       id="path87" />
    <path
       stroke="#000000"
       stroke-width="1"
       stroke-linejoin="round"
       stroke-linecap="butt"
       d="m 389.29135,90.708664 v 0 c 0,-2.087379 1.69214,-3.779533 3.77951,-3.779533 v 0 c 1.00241,0 1.96375,0.398201 2.67255,1.107002 0.7088,0.708801 1.10699,1.670135 1.10699,2.672531 v 0 c 0,2.087372 -1.69217,3.779526 -3.77954,3.779526 v 0 c -2.08737,0 -3.77951,-1.692154 -3.77951,-3.779526 z"
       fill-rule="evenodd"
       id="path89" />
    <path
       stroke="#000000"
       stroke-width="1"
       stroke-linejoin="round"
       stroke-linecap="butt"
       d="m 396.8504,90.708664 v 0 c 0,-2.087379 1.69214,-3.779533 3.77951,-3.779533 v 0 c 1.00241,0 1.96375,0.398201 2.67255,1.107002 0.7088,0.708801 1.10699,1.670135 1.10699,2.672531 v 0 c 0,2.087372 -1.69217,3.779526 -3.77954,3.779526 v 0 c -2.08737,0 -3.77951,-1.692154 -3.77951,-3.779526 z"
       fill-rule="evenodd"
       id="path91" />
    <path
       stroke="#000000"
       stroke-width="1"
       stroke-linejoin="round"
       stroke-linecap="butt"
       d="m 404.40945,90.708664 v 0 c 0,-2.087379 1.69214,-3.779533 3.77951,-3.779533 v 0 c 1.00241,0 1.96375,0.398201 2.67255,1.107002 0.7088,0.708801 1.10699,1.670135 1.10699,2.672531 v 0 c 0,2.087372 -1.69217,3.779526 -3.77954,3.779526 v 0 c -2.08737,0 -3.77951,-1.692154 -3.77951,-3.779526 z"
       fill-rule="evenodd"
       id="path93" />
    <path
       stroke="#000000"
       stroke-width="1"
       stroke-linejoin="round"
       stroke-linecap="butt"
       d="m 411.9685,90.708664 v 0 c 0,-2.087379 1.69214,-3.779533 3.77951,-3.779533 v 0 c 1.00241,0 1.96375,0.398201 2.67255,1.107002 0.7088,0.708801 1.10699,1.670135 1.10699,2.672531 v 0 c 0,2.087372 -1.69214,3.779526 -3.77954,3.779526 v 0 c -2.08737,0 -3.77951,-1.692154 -3.77951,-3.779526 z"
       fill-rule="evenodd"
       id="path95" />
    <path
       stroke="#000000"
       stroke-width="1"
       stroke-linejoin="round"
       stroke-linecap="butt"
       d="m 419.52756,90.708664 v 0 c 0,-2.087379 1.69214,-3.779533 3.77954,-3.779533 v 0 c 1.00238,0 1.96372,0.398201 2.67252,1.107002 0.7088,0.708801 1.10699,1.670135 1.10699,2.672531 v 0 c 0,2.087372 -1.69214,3.779526 -3.77951,3.779526 v 0 c -2.0874,0 -3.77954,-1.692154 -3.77954,-3.779526 z"
       fill-rule="evenodd"
       id="path97" />
    <path
       stroke="#000000"
       stroke-width="1"
       stroke-linejoin="round"
       stroke-linecap="butt"
       d="m 427.0866,90.708664 v 0 c 0,-2.087379 1.69217,-3.779533 3.77954,-3.779533 v 0 c 1.00238,0 1.96372,0.398201 2.67252,1.107002 0.7088,0.708801 1.10699,1.670135 1.10699,2.672531 v 0 c 0,2.087372 -1.69214,3.779526 -3.77951,3.779526 v 0 c -2.08737,0 -3.77954,-1.692154 -3.77954,-3.779526 z"
       fill-rule="evenodd"
       id="path99" />
    <path
       stroke="#000000"
       stroke-width="1"
       stroke-linejoin="round"
       stroke-linecap="butt"
       d="m 434.64566,90.708664 v 0 c 0,-2.087379 1.69217,-3.779533 3.77954,-3.779533 v 0 c 1.00238,0 1.96372,0.398201 2.67252,1.107002 0.7088,0.708801 1.10699,1.670135 1.10699,2.672531 v 0 c 0,2.087372 -1.69214,3.779526 -3.77951,3.779526 v 0 c -2.08737,0 -3.77954,-1.692154 -3.77954,-3.779526 z"
       fill-rule="evenodd"
       id="path101" />
    <path
       stroke="#000000"
       stroke-width="1"
       stroke-linejoin="round"
       stroke-linecap="butt"
       d="m 442.2047,90.708664 v 0 c 0,-2.087379 1.69217,-3.779533 3.77954,-3.779533 v 0 c 1.00238,0 1.96372,0.398201 2.67252,1.107002 0.7088,0.708801 1.10702,1.670135 1.10702,2.672531 v 0 c 0,2.087372 -1.69217,3.779526 -3.77954,3.779526 v 0 c -2.08737,0 -3.77954,-1.692154 -3.77954,-3.779526 z"
       fill-rule="evenodd"
       id="path103" />
    <path
       stroke="#000000"
       stroke-width="1"
       stroke-linejoin="round"
       stroke-linecap="butt"
       d="m 449.7638,90.708664 v 0 c 0,-2.087379 1.69214,-3.779533 3.77951,-3.779533 v 0 c 1.00241,0 1.96375,0.398201 2.67255,1.107002 0.70877,0.708801 1.10699,1.670135 1.10699,2.672531 v 0 c 0,2.087372 -1.69217,3.779526 -3.77954,3.779526 v 0 c -2.08737,0 -3.77951,-1.692154 -3.77951,-3.779526 z"
       fill-rule="evenodd"
       id="path105" />
    <path
       stroke="#000000"
       stroke-width="1"
       stroke-linejoin="round"
       stroke-linecap="butt"
       d="m 457.32285,90.708664 v 0 c 0,-2.087379 1.69214,-3.779533 3.77951,-3.779533 v 0 c 1.00241,0 1.96375,0.398201 2.67255,1.107002 0.7088,0.708801 1.10699,1.670135 1.10699,2.672531 v 0 c 0,2.087372 -1.69217,3.779526 -3.77954,3.779526 v 0 c -2.08737,0 -3.77951,-1.692154 -3.77951,-3.779526 z"
       fill-rule="evenodd"
       id="path107" />
    <path
       stroke="#000000"
       stroke-width="1"
       stroke-linejoin="round"
       stroke-linecap="butt"
       d="m 464.8819,90.708664 v 0 c 0,-2.087379 1.69214,-3.779533 3.77951,-3.779533 v 0 c 1.00241,0 1.96375,0.398201 2.67255,1.107002 0.7088,0.708801 1.10699,1.670135 1.10699,2.672531 v 0 c 0,2.087372 -1.69217,3.779526 -3.77954,3.779526 v 0 c -2.08737,0 -3.77951,-1.692154 -3.77951,-3.779526 z"
       fill-rule="evenodd"
       id="path109" />
    <path
       stroke="#000000"
       stroke-width="1"
       stroke-linejoin="round"
       stroke-linecap="butt"
       d="m 472.44095,90.708664 v 0 c 0,-2.087379 1.69214,-3.779533 3.77951,-3.779533 v 0 c 1.00241,0 1.96375,0.398201 2.67255,1.107002 0.7088,0.708801 1.10699,1.670135 1.10699,2.672531 v 0 c 0,2.087372 -1.69214,3.779526 -3.77954,3.779526 v 0 c -2.08737,0 -3.77951,-1.692154 -3.77951,-3.779526 z"
       fill-rule="evenodd"
       id="path111" />
    <path
       stroke="#000000"
       stroke-width="1"
       stroke-linejoin="round"
       stroke-linecap="butt"
       d="m 207.87401,136.06299 v 0 c 0,-2.08737 1.69215,-3.77953 3.77954,-3.77953 v 0 c 1.00238,0 1.96373,0.39821 2.67253,1.107 0.70879,0.7088 1.107,1.67013 1.107,2.67253 v 0 c 0,2.08737 -1.69216,3.77953 -3.77953,3.77953 v 0 c -2.08739,0 -3.77954,-1.69216 -3.77954,-3.77953 z"
       fill-rule="evenodd"
       id="path113" />
    <path
       stroke="#000000"
       stroke-width="1"
       stroke-linejoin="round"
       stroke-linecap="butt"
       d="m 211.65355,136.06299 v 0 c 0,-2.08737 1.69214,-3.77953 3.77953,-3.77953 v 0 c 1.00239,0 1.96373,0.39821 2.67253,1.107 0.70878,0.7088 1.10699,1.67013 1.10699,2.67253 v 0 c 0,2.08737 -1.69215,3.77953 -3.77952,3.77953 v 0 c -2.08739,0 -3.77953,-1.69216 -3.77953,-3.77953 z"
       fill-rule="evenodd"
       id="path115" />
    <path
       stroke="#000000"
       stroke-width="1"
       stroke-linejoin="round"
       stroke-linecap="butt"
       d="m 215.43307,136.06299 v 0 c 0,-2.08737 1.69215,-3.77953 3.77953,-3.77953 v 0 c 1.00239,0 1.96373,0.39821 2.67253,1.107 0.7088,0.7088 1.10699,1.67013 1.10699,2.67253 v 0 c 0,2.08737 -1.69215,3.77953 -3.77952,3.77953 v 0 c -2.08738,0 -3.77953,-1.69216 -3.77953,-3.77953 z"
       fill-rule="evenodd"
       id="path117" />
    <path
       stroke="#000000"
       stroke-width="1"
       stroke-linejoin="round"
       stroke-linecap="butt"
       d="m 219.2126,136.06299 v 0 c 0,-2.08737 1.69215,-3.77953 3.77953,-3.77953 v 0 c 1.00239,0 1.96373,0.39821 2.67253,1.107 0.7088,0.7088 1.10699,1.67013 1.10699,2.67253 v 0 c 0,2.08737 -1.69215,3.77953 -3.77952,3.77953 v 0 c -2.08738,0 -3.77953,-1.69216 -3.77953,-3.77953 z"
       fill-rule="evenodd"
       id="path119" />
    <path
       stroke="#000000"
       stroke-width="1"
       stroke-linejoin="round"
       stroke-linecap="butt"
       d="m 222.99213,136.06299 v 0 c 0,-2.08737 1.69215,-3.77953 3.77953,-3.77953 v 0 c 1.00239,0 1.96373,0.39821 2.67253,1.107 0.7088,0.7088 1.10699,1.67013 1.10699,2.67253 v 0 c 0,2.08737 -1.69215,3.77953 -3.77952,3.77953 v 0 c -2.08738,0 -3.77953,-1.69216 -3.77953,-3.77953 z"
       fill-rule="evenodd"
       id="path121" />
    <path
       stroke="#000000"
       stroke-width="1"
       stroke-linejoin="round"
       stroke-linecap="butt"
       d="m 226.77165,136.06299 v 0 c 0,-2.08737 1.69215,-3.77953 3.77953,-3.77953 v 0 c 1.00239,0 1.96373,0.39821 2.67253,1.107 0.7088,0.7088 1.10699,1.67013 1.10699,2.67253 v 0 c 0,2.08737 -1.69215,3.77953 -3.77952,3.77953 v 0 c -2.08738,0 -3.77953,-1.69216 -3.77953,-3.77953 z"
       fill-rule="evenodd"
       id="path123" />
    <path
       stroke="#000000"
       stroke-width="1"
       stroke-linejoin="round"
       stroke-linecap="butt"
       d="m 230.55118,136.06299 v 0 c 0,-2.08737 1.69215,-3.77953 3.77953,-3.77953 v 0 c 1.00239,0 1.96373,0.39821 2.67253,1.107 0.7088,0.7088 1.10699,1.67013 1.10699,2.67253 v 0 c 0,2.08737 -1.69214,3.77953 -3.77952,3.77953 v 0 c -2.08738,0 -3.77953,-1.69216 -3.77953,-3.77953 z"
       fill-rule="evenodd"
       id="path125" />
    <path
       stroke="#000000"
       stroke-width="1"
       stroke-linejoin="round"
       stroke-linecap="butt"
       d="m 234.3307,136.06299 v 0 c 0,-2.08737 1.69215,-3.77953 3.77953,-3.77953 v 0 c 1.00239,0 1.96373,0.39821 2.67253,1.107 0.7088,0.7088 1.10701,1.67013 1.10701,2.67253 v 0 c 0,2.08737 -1.69216,3.77953 -3.77954,3.77953 v 0 c -2.08738,0 -3.77953,-1.69216 -3.77953,-3.77953 z"
       fill-rule="evenodd"
       id="path127" />
    <path
       stroke="#000000"
       stroke-width="1"
       stroke-linejoin="round"
       stroke-linecap="butt"
       d="m 238.11023,136.06299 v 0 c 0,-2.08737 1.69215,-3.77953 3.77954,-3.77953 v 0 c 1.00238,0 1.96373,0.39821 2.67252,1.107 0.7088,0.7088 1.10701,1.67013 1.10701,2.67253 v 0 c 0,2.08737 -1.69216,3.77953 -3.77953,3.77953 v 0 c -2.08739,0 -3.77954,-1.69216 -3.77954,-3.77953 z"
       fill-rule="evenodd"
       id="path129" />
    <path
       stroke="#000000"
       stroke-width="1"
       stroke-linejoin="round"
       stroke-linecap="butt"
       d="m 241.88977,136.06299 v 0 c 0,-2.08737 1.69214,-3.77953 3.77953,-3.77953 v 0 c 1.00239,0 1.96373,0.39821 2.67253,1.107 0.70878,0.7088 1.10699,1.67013 1.10699,2.67253 v 0 c 0,2.08737 -1.69215,3.77953 -3.77952,3.77953 v 0 c -2.08739,0 -3.77953,-1.69216 -3.77953,-3.77953 z"
       fill-rule="evenodd"
       id="path131" />
    <path
       stroke="#000000"
       stroke-width="1"
       stroke-linejoin="round"
       stroke-linecap="butt"
       d="m 245.6693,136.06299 v 0 c 0,-2.08737 1.69215,-3.77953 3.77953,-3.77953 v 0 c 1.00239,0 1.96373,0.39821 2.67253,1.107 0.7088,0.7088 1.10699,1.67013 1.10699,2.67253 v 0 c 0,2.08737 -1.69215,3.77953 -3.77952,3.77953 v 0 c -2.08738,0 -3.77953,-1.69216 -3.77953,-3.77953 z"
       fill-rule="evenodd"
       id="path133" />
    <path
       stroke="#000000"
       stroke-width="1"
       stroke-linejoin="round"
       stroke-linecap="butt"
       d="m 249.44882,136.06299 v 0 c 0,-2.08737 1.69215,-3.77953 3.77953,-3.77953 v 0 c 1.00239,0 1.96373,0.39821 2.67253,1.107 0.7088,0.7088 1.10699,1.67013 1.10699,2.67253 v 0 c 0,2.08737 -1.69215,3.77953 -3.77952,3.77953 v 0 c -2.08738,0 -3.77953,-1.69216 -3.77953,-3.77953 z"
       fill-rule="evenodd"
       id="path135" />
    <path
       stroke="#000000"
       stroke-width="1"
       stroke-linejoin="round"
       stroke-linecap="butt"
       d="m 253.22835,136.06299 v 0 c 0,-2.08737 1.69215,-3.77953 3.77953,-3.77953 v 0 c 1.00238,0 1.96374,0.39821 2.67251,1.107 0.7088,0.7088 1.10703,1.67013 1.10703,2.67253 v 0 c 0,2.08737 -1.69217,3.77953 -3.77954,3.77953 v 0 c -2.08738,0 -3.77953,-1.69216 -3.77953,-3.77953 z"
       fill-rule="evenodd"
       id="path137" />
    <path
       stroke="#000000"
       stroke-width="1"
       stroke-linejoin="round"
       stroke-linecap="butt"
       d="m 257.00787,136.06299 v 0 c 0,-2.08737 1.69214,-3.77953 3.77954,-3.77953 v 0 c 1.00238,0 1.96372,0.39821 2.67252,1.107 0.7088,0.7088 1.10699,1.67013 1.10699,2.67253 v 0 c 0,2.08737 -1.69214,3.77953 -3.77951,3.77953 v 0 c -2.0874,0 -3.77954,-1.69216 -3.77954,-3.77953 z"
       fill-rule="evenodd"
       id="path139" />
    <path
       stroke="#000000"
       stroke-width="1"
       stroke-linejoin="round"
       stroke-linecap="butt"
       d="m 260.7874,136.06299 v 0 c 0,-2.08737 1.69214,-3.77953 3.77951,-3.77953 v 0 c 1.00241,0 1.96375,0.39821 2.67255,1.107 0.7088,0.7088 1.10699,1.67013 1.10699,2.67253 v 0 c 0,2.08737 -1.69217,3.77953 -3.77954,3.77953 v 0 c -2.08737,0 -3.77951,-1.69216 -3.77951,-3.77953 z"
       fill-rule="evenodd"
       id="path141" />
    <path
       stroke="#000000"
       stroke-width="1"
       stroke-linejoin="round"
       stroke-linecap="butt"
       d="m 264.56693,136.06299 v 0 c 0,-2.08737 1.69217,-3.77953 3.77954,-3.77953 v 0 c 1.00238,0 1.96372,0.39821 2.67252,1.107 0.7088,0.7088 1.10699,1.67013 1.10699,2.67253 v 0 c 0,2.08737 -1.69214,3.77953 -3.77951,3.77953 v 0 c -2.08737,0 -3.77954,-1.69216 -3.77954,-3.77953 z"
       fill-rule="evenodd"
       id="path143" />
    <path
       stroke="#000000"
       stroke-width="1"
       stroke-linejoin="round"
       stroke-linecap="butt"
       d="m 268.34647,136.06299 v 0 c 0,-2.08737 1.69214,-3.77953 3.77951,-3.77953 v 0 c 1.00241,0 1.96375,0.39821 2.67255,1.107 0.7088,0.7088 1.10699,1.67013 1.10699,2.67253 v 0 c 0,2.08737 -1.69217,3.77953 -3.77954,3.77953 v 0 c -2.08737,0 -3.77951,-1.69216 -3.77951,-3.77953 z"
       fill-rule="evenodd"
       id="path145" />
    <path
       stroke="#000000"
       stroke-width="1"
       stroke-linejoin="round"
       stroke-linecap="butt"
       d="m 272.12598,136.06299 v 0 c 0,-2.08737 1.69217,-3.77953 3.77954,-3.77953 v 0 c 1.00238,0 1.96372,0.39821 2.67252,1.107 0.7088,0.7088 1.10699,1.67013 1.10699,2.67253 v 0 c 0,2.08737 -1.69214,3.77953 -3.77951,3.77953 v 0 c -2.08737,0 -3.77954,-1.69216 -3.77954,-3.77953 z"
       fill-rule="evenodd"
       id="path147" />
    <path
       stroke="#000000"
       stroke-width="1"
       stroke-linejoin="round"
       stroke-linecap="butt"
       d="m 275.90552,136.06299 v 0 c 0,-2.08737 1.69214,-3.77953 3.77951,-3.77953 v 0 c 1.00241,0 1.96375,0.39821 2.67255,1.107 0.7088,0.7088 1.10699,1.67013 1.10699,2.67253 v 0 c 0,2.08737 -1.69217,3.77953 -3.77954,3.77953 v 0 c -2.08737,0 -3.77951,-1.69216 -3.77951,-3.77953 z"
       fill-rule="evenodd"
       id="path149" />
    <path
       stroke="#000000"
       stroke-width="1"
       stroke-linejoin="round"
       stroke-linecap="butt"
       d="m 279.68503,136.06299 v 0 c 0,-2.08737 1.69217,-3.77953 3.77954,-3.77953 v 0 c 1.00238,0 1.96372,0.39821 2.67252,1.107 0.7088,0.7088 1.10699,1.67013 1.10699,2.67253 v 0 c 0,2.08737 -1.69214,3.77953 -3.77951,3.77953 v 0 c -2.08737,0 -3.77954,-1.69216 -3.77954,-3.77953 z"
       fill-rule="evenodd"
       id="path151" />
    <path
       stroke="#000000"
       stroke-width="1"
       stroke-linejoin="round"
       stroke-linecap="butt"
       d="m 283.46457,136.06299 v 0 c 0,-2.08737 1.69214,-3.77953 3.77951,-3.77953 v 0 c 1.00241,0 1.96375,0.39821 2.67255,1.107 0.7088,0.7088 1.10699,1.67013 1.10699,2.67253 v 0 c 0,2.08737 -1.69214,3.77953 -3.77954,3.77953 v 0 c -2.08737,0 -3.77951,-1.69216 -3.77951,-3.77953 z"
       fill-rule="evenodd"
       id="path153" />
    <path
       stroke="#000000"
       stroke-width="1"
       stroke-linejoin="round"
       stroke-linecap="butt"
       d="m 287.24408,136.06299 v 0 c 0,-2.08737 1.69217,-3.77953 3.77954,-3.77953 v 0 c 1.00238,0 1.96375,0.39821 2.67252,1.107 0.7088,0.7088 1.10702,1.67013 1.10702,2.67253 v 0 c 0,2.08737 -1.69217,3.77953 -3.77954,3.77953 v 0 c -2.08737,0 -3.77954,-1.69216 -3.77954,-3.77953 z"
       fill-rule="evenodd"
       id="path155" />
    <path
       stroke="#000000"
       stroke-width="1"
       stroke-linejoin="round"
       stroke-linecap="butt"
       d="m 291.02362,136.06299 v 0 c 0,-2.08737 1.69214,-3.77953 3.77954,-3.77953 v 0 c 1.00238,0 1.96372,0.39821 2.67252,1.107 0.7088,0.7088 1.10699,1.67013 1.10699,2.67253 v 0 c 0,2.08737 -1.69214,3.77953 -3.77951,3.77953 v 0 c -2.0874,0 -3.77954,-1.69216 -3.77954,-3.77953 z"
       fill-rule="evenodd"
       id="path157" />
    <path
       stroke="#000000"
       stroke-width="1"
       stroke-linejoin="round"
       stroke-linecap="butt"
       d="m 294.80316,136.06299 v 0 c 0,-2.08737 1.69214,-3.77953 3.77951,-3.77953 v 0 c 1.00241,0 1.96375,0.39821 2.67255,1.107 0.7088,0.7088 1.10699,1.67013 1.10699,2.67253 v 0 c 0,2.08737 -1.69217,3.77953 -3.77954,3.77953 v 0 c -2.08737,0 -3.77951,-1.69216 -3.77951,-3.77953 z"
       fill-rule="evenodd"
       id="path159" />
    <path
       stroke="#000000"
       stroke-width="1"
       stroke-linejoin="round"
       stroke-linecap="butt"
       d="m 291.02362,136.06299 v 0 c 0,-2.08737 1.69214,-3.77953 3.77954,-3.77953 v 0 c 1.00238,0 1.96372,0.39821 2.67252,1.107 0.7088,0.7088 1.10699,1.67013 1.10699,2.67253 v 0 c 0,2.08737 -1.69214,3.77953 -3.77951,3.77953 v 0 c -2.0874,0 -3.77954,-1.69216 -3.77954,-3.77953 z"
       fill-rule="evenodd"
       id="path161" />
    <path
       stroke="#000000"
       stroke-width="1"
       stroke-linejoin="round"
       stroke-linecap="butt"
       d="m 294.80316,136.06299 v 0 c 0,-2.08737 1.69214,-3.77953 3.77951,-3.77953 v 0 c 1.00241,0 1.96375,0.39821 2.67255,1.107 0.7088,0.7088 1.10699,1.67013 1.10699,2.67253 v 0 c 0,2.08737 -1.69217,3.77953 -3.77954,3.77953 v 0 c -2.08737,0 -3.77951,-1.69216 -3.77951,-3.77953 z"
       fill-rule="evenodd"
       id="path163" />
    <path
       stroke="#000000"
       stroke-width="1"
       stroke-linejoin="round"
       stroke-linecap="butt"
       d="m 298.58267,136.06299 v 0 c 0,-2.08737 1.69217,-3.77953 3.77954,-3.77953 v 0 c 1.00238,0 1.96372,0.39821 2.67252,1.107 0.7088,0.7088 1.10699,1.67013 1.10699,2.67253 v 0 c 0,2.08737 -1.69214,3.77953 -3.77951,3.77953 v 0 c -2.08737,0 -3.77954,-1.69216 -3.77954,-3.77953 z"
       fill-rule="evenodd"
       id="path165" />
    <path
       stroke="#000000"
       stroke-width="1"
       stroke-linejoin="round"
       stroke-linecap="butt"
       d="m 302.3622,136.06299 v 0 c 0,-2.08737 1.69214,-3.77953 3.77951,-3.77953 v 0 c 1.00241,0 1.96375,0.39821 2.67255,1.107 0.7088,0.7088 1.10699,1.67013 1.10699,2.67253 v 0 c 0,2.08737 -1.69217,3.77953 -3.77954,3.77953 v 0 c -2.08737,0 -3.77951,-1.69216 -3.77951,-3.77953 z"
       fill-rule="evenodd"
       id="path167" />
    <path
       stroke="#000000"
       stroke-width="1"
       stroke-linejoin="round"
       stroke-linecap="butt"
       d="m 306.14172,136.06299 v 0 c 0,-2.08737 1.69217,-3.77953 3.77954,-3.77953 v 0 c 1.00238,0 1.96372,0.39821 2.67252,1.107 0.7088,0.7088 1.10699,1.67013 1.10699,2.67253 v 0 c 0,2.08737 -1.69214,3.77953 -3.77951,3.77953 v 0 c -2.08737,0 -3.77954,-1.69216 -3.77954,-3.77953 z"
       fill-rule="evenodd"
       id="path169" />
    <path
       stroke="#000000"
       stroke-width="1"
       stroke-linejoin="round"
       stroke-linecap="butt"
       d="m 309.92126,136.06299 v 0 c 0,-2.08737 1.69214,-3.77953 3.77951,-3.77953 v 0 c 1.00241,0 1.96375,0.39821 2.67255,1.107 0.7088,0.7088 1.10699,1.67013 1.10699,2.67253 v 0 c 0,2.08737 -1.69214,3.77953 -3.77954,3.77953 v 0 c -2.08737,0 -3.77951,-1.69216 -3.77951,-3.77953 z"
       fill-rule="evenodd"
       id="path171" />
    <path
       stroke="#000000"
       stroke-width="1"
       stroke-linejoin="round"
       stroke-linecap="butt"
       d="m 313.70078,136.06299 v 0 c 0,-2.08737 1.69217,-3.77953 3.77954,-3.77953 v 0 c 1.00238,0 1.96372,0.39821 2.67252,1.107 0.7088,0.7088 1.10702,1.67013 1.10702,2.67253 v 0 c 0,2.08737 -1.69217,3.77953 -3.77954,3.77953 v 0 c -2.08737,0 -3.77954,-1.69216 -3.77954,-3.77953 z"
       fill-rule="evenodd"
       id="path173" />
    <path
       stroke="#000000"
       stroke-width="1"
       stroke-linejoin="round"
       stroke-linecap="butt"
       d="m 317.48032,136.06299 v 0 c 0,-2.08737 1.69214,-3.77953 3.77954,-3.77953 v 0 c 1.00238,0 1.96372,0.39821 2.67252,1.107 0.7088,0.7088 1.10699,1.67013 1.10699,2.67253 v 0 c 0,2.08737 -1.69214,3.77953 -3.77951,3.77953 v 0 c -2.0874,0 -3.77954,-1.69216 -3.77954,-3.77953 z"
       fill-rule="evenodd"
       id="path175" />
    <path
       stroke="#000000"
       stroke-width="1"
       stroke-linejoin="round"
       stroke-linecap="butt"
       d="m 321.25986,136.06299 v 0 c 0,-2.08737 1.69214,-3.77953 3.77951,-3.77953 v 0 c 1.00238,0 1.96375,0.39821 2.67255,1.107 0.70877,0.7088 1.10699,1.67013 1.10699,2.67253 v 0 c 0,2.08737 -1.69217,3.77953 -3.77954,3.77953 v 0 c -2.08737,0 -3.77951,-1.69216 -3.77951,-3.77953 z"
       fill-rule="evenodd"
       id="path177" />
    <path
       stroke="#000000"
       stroke-width="1"
       stroke-linejoin="round"
       stroke-linecap="butt"
       d="m 325.03937,136.06299 v 0 c 0,-2.08737 1.69217,-3.77953 3.77954,-3.77953 v 0 c 1.00238,0 1.96372,0.39821 2.67252,1.107 0.7088,0.7088 1.10699,1.67013 1.10699,2.67253 v 0 c 0,2.08737 -1.69214,3.77953 -3.77951,3.77953 v 0 c -2.08737,0 -3.77954,-1.69216 -3.77954,-3.77953 z"
       fill-rule="evenodd"
       id="path179" />
    <path
       stroke="#000000"
       stroke-width="1"
       stroke-linejoin="round"
       stroke-linecap="butt"
       d="m 328.8189,136.06299 v 0 c 0,-2.08737 1.69214,-3.77953 3.77951,-3.77953 v 0 c 1.00241,0 1.96375,0.39821 2.67255,1.107 0.7088,0.7088 1.10699,1.67013 1.10699,2.67253 v 0 c 0,2.08737 -1.69217,3.77953 -3.77954,3.77953 v 0 c -2.08737,0 -3.77951,-1.69216 -3.77951,-3.77953 z"
       fill-rule="evenodd"
       id="path181" />
    <path
       stroke="#000000"
       stroke-width="1"
       stroke-linejoin="round"
       stroke-linecap="butt"
       d="m 332.59842,136.06299 v 0 c 0,-2.08737 1.69217,-3.77953 3.77954,-3.77953 v 0 c 1.00238,0 1.96372,0.39821 2.67252,1.107 0.7088,0.7088 1.10699,1.67013 1.10699,2.67253 v 0 c 0,2.08737 -1.69214,3.77953 -3.77951,3.77953 v 0 c -2.08737,0 -3.77954,-1.69216 -3.77954,-3.77953 z"
       fill-rule="evenodd"
       id="path183" />
    <path
       stroke="#000000"
       stroke-width="1"
       stroke-linejoin="round"
       stroke-linecap="butt"
       d="m 336.37796,136.06299 v 0 c 0,-2.08737 1.69214,-3.77953 3.77951,-3.77953 v 0 c 1.00241,0 1.96375,0.39821 2.67255,1.107 0.7088,0.7088 1.10699,1.67013 1.10699,2.67253 v 0 c 0,2.08737 -1.69217,3.77953 -3.77954,3.77953 v 0 c -2.08737,0 -3.77951,-1.69216 -3.77951,-3.77953 z"
       fill-rule="evenodd"
       id="path185" />
    <path
       stroke="#000000"
       stroke-width="1"
       stroke-linejoin="round"
       stroke-linecap="butt"
       d="m 340.15747,136.06299 v 0 c 0,-2.08737 1.69217,-3.77953 3.77954,-3.77953 v 0 c 1.00238,0 1.96372,0.39821 2.67252,1.107 0.7088,0.7088 1.10699,1.67013 1.10699,2.67253 v 0 c 0,2.08737 -1.69214,3.77953 -3.77951,3.77953 v 0 c -2.08737,0 -3.77954,-1.69216 -3.77954,-3.77953 z"
       fill-rule="evenodd"
       id="path187" />
    <path
       stroke="#000000"
       stroke-width="1"
       stroke-linejoin="round"
       stroke-linecap="butt"
       d="m 343.937,136.06299 v 0 c 0,-2.08737 1.69214,-3.77953 3.77951,-3.77953 v 0 c 1.00241,0 1.96375,0.39821 2.67255,1.107 0.7088,0.7088 1.10699,1.67013 1.10699,2.67253 v 0 c 0,2.08737 -1.69214,3.77953 -3.77954,3.77953 v 0 c -2.08737,0 -3.77951,-1.69216 -3.77951,-3.77953 z"
       fill-rule="evenodd"
       id="path189" />
    <path
       stroke="#000000"
       stroke-width="1"
       stroke-linejoin="round"
       stroke-linecap="butt"
       d="m 347.71652,136.06299 v 0 c 0,-2.08737 1.69217,-3.77953 3.77954,-3.77953 v 0 c 1.00238,0 1.96375,0.39821 2.67252,1.107 0.7088,0.7088 1.10702,1.67013 1.10702,2.67253 v 0 c 0,2.08737 -1.69217,3.77953 -3.77954,3.77953 v 0 c -2.08737,0 -3.77954,-1.69216 -3.77954,-3.77953 z"
       fill-rule="evenodd"
       id="path191" />
    <path
       stroke="#000000"
       stroke-width="1"
       stroke-linejoin="round"
       stroke-linecap="butt"
       d="m 351.49606,136.06299 v 0 c 0,-2.08737 1.69214,-3.77953 3.77954,-3.77953 v 0 c 1.00238,0 1.96372,0.39821 2.67252,1.107 0.7088,0.7088 1.10699,1.67013 1.10699,2.67253 v 0 c 0,2.08737 -1.69214,3.77953 -3.77951,3.77953 v 0 c -2.0874,0 -3.77954,-1.69216 -3.77954,-3.77953 z"
       fill-rule="evenodd"
       id="path193" />
    <path
       stroke="#000000"
       stroke-width="1"
       stroke-linejoin="round"
       stroke-linecap="butt"
       d="m 355.2756,136.06299 v 0 c 0,-2.08737 1.69214,-3.77953 3.77951,-3.77953 v 0 c 1.00241,0 1.96375,0.39821 2.67255,1.107 0.70877,0.7088 1.10699,1.67013 1.10699,2.67253 v 0 c 0,2.08737 -1.69217,3.77953 -3.77954,3.77953 v 0 c -2.08737,0 -3.77951,-1.69216 -3.77951,-3.77953 z"
       fill-rule="evenodd"
       id="path195" />
    <path
       stroke="#000000"
       stroke-width="1"
       stroke-linejoin="round"
       stroke-linecap="butt"
       d="m 359.0551,136.06299 v 0 c 0,-2.08737 1.69217,-3.77953 3.77954,-3.77953 v 0 c 1.00238,0 1.96372,0.39821 2.67252,1.107 0.7088,0.7088 1.10699,1.67013 1.10699,2.67253 v 0 c 0,2.08737 -1.69214,3.77953 -3.77951,3.77953 v 0 c -2.08737,0 -3.77954,-1.69216 -3.77954,-3.77953 z"
       fill-rule="evenodd"
       id="path197" />
    <path
       stroke="#000000"
       stroke-width="1"
       stroke-linejoin="round"
       stroke-linecap="butt"
       d="m 362.83466,136.06299 v 0 c 0,-2.08737 1.69214,-3.77953 3.77951,-3.77953 v 0 c 1.00241,0 1.96375,0.39821 2.67255,1.107 0.7088,0.7088 1.10699,1.67013 1.10699,2.67253 v 0 c 0,2.08737 -1.69217,3.77953 -3.77954,3.77953 v 0 c -2.08737,0 -3.77951,-1.69216 -3.77951,-3.77953 z"
       fill-rule="evenodd"
       id="path199" />
    <path
       stroke="#000000"
       stroke-width="1"
       stroke-linejoin="round"
       stroke-linecap="butt"
       d="m 366.61417,136.06299 v 0 c 0,-2.08737 1.69217,-3.77953 3.77954,-3.77953 v 0 c 1.00238,0 1.96372,0.39821 2.67252,1.107 0.7088,0.7088 1.10699,1.67013 1.10699,2.67253 v 0 c 0,2.08737 -1.69214,3.77953 -3.77951,3.77953 v 0 c -2.08737,0 -3.77954,-1.69216 -3.77954,-3.77953 z"
       fill-rule="evenodd"
       id="path201" />
    <path
       stroke="#000000"
       stroke-width="1"
       stroke-linejoin="round"
       stroke-linecap="butt"
       d="m 370.3937,136.06299 v 0 c 0,-2.08737 1.69214,-3.77953 3.77951,-3.77953 v 0 c 1.00241,0 1.96375,0.39821 2.67255,1.107 0.7088,0.7088 1.10699,1.67013 1.10699,2.67253 v 0 c 0,2.08737 -1.69217,3.77953 -3.77954,3.77953 v 0 c -2.08737,0 -3.77951,-1.69216 -3.77951,-3.77953 z"
       fill-rule="evenodd"
       id="path203" />
    <path
       stroke="#000000"
       stroke-width="1"
       stroke-linejoin="round"
       stroke-linecap="butt"
       d="m 374.17322,136.06299 v 0 c 0,-2.08737 1.69217,-3.77953 3.77954,-3.77953 v 0 c 1.00238,0 1.96372,0.39821 2.67252,1.107 0.7088,0.7088 1.10699,1.67013 1.10699,2.67253 v 0 c 0,2.08737 -1.69214,3.77953 -3.77951,3.77953 v 0 c -2.08737,0 -3.77954,-1.69216 -3.77954,-3.77953 z"
       fill-rule="evenodd"
       id="path205" />
    <path
       stroke="#000000"
       stroke-width="1"
       stroke-linejoin="round"
       stroke-linecap="butt"
       d="m 377.95276,136.06299 v 0 c 0,-2.08737 1.69214,-3.77953 3.77951,-3.77953 v 0 c 1.00241,0 1.96375,0.39821 2.67255,1.107 0.7088,0.7088 1.10699,1.67013 1.10699,2.67253 v 0 c 0,2.08737 -1.69214,3.77953 -3.77954,3.77953 v 0 c -2.08737,0 -3.77951,-1.69216 -3.77951,-3.77953 z"
       fill-rule="evenodd"
       id="path207" />
    <path
       stroke="#000000"
       stroke-width="1"
       stroke-linejoin="round"
       stroke-linecap="butt"
       d="m 381.73227,136.06299 v 0 c 0,-2.08737 1.69217,-3.77953 3.77954,-3.77953 v 0 c 1.00238,0 1.96375,0.39821 2.67252,1.107 0.7088,0.7088 1.10702,1.67013 1.10702,2.67253 v 0 c 0,2.08737 -1.69217,3.77953 -3.77954,3.77953 v 0 c -2.08737,0 -3.77954,-1.69216 -3.77954,-3.77953 z"
       fill-rule="evenodd"
       id="path209" />
    <path
       stroke="#000000"
       stroke-width="1"
       stroke-linejoin="round"
       stroke-linecap="butt"
       d="m 385.5118,136.06299 v 0 c 0,-2.08737 1.69214,-3.77953 3.77954,-3.77953 v 0 c 1.00238,0 1.96372,0.39821 2.67252,1.107 0.7088,0.7088 1.10699,1.67013 1.10699,2.67253 v 0 c 0,2.08737 -1.69214,3.77953 -3.77951,3.77953 v 0 c -2.0874,0 -3.77954,-1.69216 -3.77954,-3.77953 z"
       fill-rule="evenodd"
       id="path211" />
    <path
       stroke="#000000"
       stroke-width="1"
       stroke-linejoin="round"
       stroke-linecap="butt"
       d="m 389.29135,136.06299 v 0 c 0,-2.08737 1.69214,-3.77953 3.77951,-3.77953 v 0 c 1.00241,0 1.96375,0.39821 2.67255,1.107 0.7088,0.7088 1.10699,1.67013 1.10699,2.67253 v 0 c 0,2.08737 -1.69217,3.77953 -3.77954,3.77953 v 0 c -2.08737,0 -3.77951,-1.69216 -3.77951,-3.77953 z"
       fill-rule="evenodd"
       id="path213" />
    <path
       stroke="#000000"
       stroke-width="1"
       stroke-linejoin="round"
       stroke-linecap="butt"
       d="m 393.07086,136.06299 v 0 c 0,-2.08737 1.69217,-3.77953 3.77954,-3.77953 v 0 c 1.00238,0 1.96372,0.39821 2.67252,1.107 0.7088,0.7088 1.10699,1.67013 1.10699,2.67253 v 0 c 0,2.08737 -1.69214,3.77953 -3.77951,3.77953 v 0 c -2.08737,0 -3.77954,-1.69216 -3.77954,-3.77953 z"
       fill-rule="evenodd"
       id="path215" />
    <path
       stroke="#000000"
       stroke-width="1"
       stroke-linejoin="round"
       stroke-linecap="butt"
       d="m 396.8504,136.06299 v 0 c 0,-2.08737 1.69214,-3.77953 3.77951,-3.77953 v 0 c 1.00241,0 1.96375,0.39821 2.67255,1.107 0.7088,0.7088 1.10699,1.67013 1.10699,2.67253 v 0 c 0,2.08737 -1.69217,3.77953 -3.77954,3.77953 v 0 c -2.08737,0 -3.77951,-1.69216 -3.77951,-3.77953 z"
       fill-rule="evenodd"
       id="path217" />
    <path
       stroke="#000000"
       stroke-width="1"
       stroke-linejoin="round"
       stroke-linecap="butt"
       d="m 400.6299,136.06299 v 0 c 0,-2.08737 1.69217,-3.77953 3.77954,-3.77953 v 0 c 1.00238,0 1.96372,0.39821 2.67252,1.107 0.7088,0.7088 1.10699,1.67013 1.10699,2.67253 v 0 c 0,2.08737 -1.69214,3.77953 -3.77951,3.77953 v 0 c -2.08737,0 -3.77954,-1.69216 -3.77954,-3.77953 z"
       fill-rule="evenodd"
       id="path219" />
    <path
       stroke="#000000"
       stroke-width="1"
       stroke-linejoin="round"
       stroke-linecap="butt"
       d="m 404.40945,136.06299 v 0 c 0,-2.08737 1.69214,-3.77953 3.77951,-3.77953 v 0 c 1.00241,0 1.96375,0.39821 2.67255,1.107 0.7088,0.7088 1.10699,1.67013 1.10699,2.67253 v 0 c 0,2.08737 -1.69217,3.77953 -3.77954,3.77953 v 0 c -2.08737,0 -3.77951,-1.69216 -3.77951,-3.77953 z"
       fill-rule="evenodd"
       id="path221" />
    <path
       stroke="#000000"
       stroke-width="1"
       stroke-linejoin="round"
       stroke-linecap="butt"
       d="m 408.18896,136.06299 v 0 c 0,-2.08737 1.69217,-3.77953 3.77954,-3.77953 v 0 c 1.00238,0 1.96372,0.39821 2.67252,1.107 0.7088,0.7088 1.10699,1.67013 1.10699,2.67253 v 0 c 0,2.08737 -1.69214,3.77953 -3.77951,3.77953 v 0 c -2.08737,0 -3.77954,-1.69216 -3.77954,-3.77953 z"
       fill-rule="evenodd"
       id="path223" />
    <path
       stroke="#000000"
       stroke-width="1"
       stroke-linejoin="round"
       stroke-linecap="butt"
       d="m 404.40945,136.06299 v 0 c 0,-2.08737 1.69214,-3.77953 3.77951,-3.77953 v 0 c 1.00241,0 1.96375,0.39821 2.67255,1.107 0.7088,0.7088 1.10699,1.67013 1.10699,2.67253 v 0 c 0,2.08737 -1.69217,3.77953 -3.77954,3.77953 v 0 c -2.08737,0 -3.77951,-1.69216 -3.77951,-3.77953 z"
       fill-rule="evenodd"
       id="path225" />
    <path
       stroke="#000000"
       stroke-width="1"
       stroke-linejoin="round"
       stroke-linecap="butt"
       d="m 408.18896,136.06299 v 0 c 0,-2.08737 1.69217,-3.77953 3.77954,-3.77953 v 0 c 1.00238,0 1.96372,0.39821 2.67252,1.107 0.7088,0.7088 1.10699,1.67013 1.10699,2.67253 v 0 c 0,2.08737 -1.69214,3.77953 -3.77951,3.77953 v 0 c -2.08737,0 -3.77954,-1.69216 -3.77954,-3.77953 z"
       fill-rule="evenodd"
       id="path227" />
    <path
       stroke="#000000"
       stroke-width="1"
       stroke-linejoin="round"
       stroke-linecap="butt"
       d="m 411.9685,136.06299 v 0 c 0,-2.08737 1.69214,-3.77953 3.77951,-3.77953 v 0 c 1.00241,0 1.96375,0.39821 2.67255,1.107 0.7088,0.7088 1.10699,1.67013 1.10699,2.67253 v 0 c 0,2.08737 -1.69214,3.77953 -3.77954,3.77953 v 0 c -2.08737,0 -3.77951,-1.69216 -3.77951,-3.77953 z"
       fill-rule="evenodd"
       id="path229" />
    <path
       stroke="#000000"
       stroke-width="1"
       stroke-linejoin="round"
       stroke-linecap="butt"
       d="m 415.74802,136.06299 v 0 c 0,-2.08737 1.69217,-3.77953 3.77954,-3.77953 v 0 c 1.00238,0 1.96375,0.39821 2.67255,1.107 0.70877,0.7088 1.10699,1.67013 1.10699,2.67253 v 0 c 0,2.08737 -1.69217,3.77953 -3.77954,3.77953 v 0 c -2.08737,0 -3.77954,-1.69216 -3.77954,-3.77953 z"
       fill-rule="evenodd"
       id="path231" />
    <path
       stroke="#000000"
       stroke-width="1"
       stroke-linejoin="round"
       stroke-linecap="butt"
       d="m 419.52756,136.06299 v 0 c 0,-2.08737 1.69214,-3.77953 3.77954,-3.77953 v 0 c 1.00238,0 1.96372,0.39821 2.67252,1.107 0.7088,0.7088 1.10699,1.67013 1.10699,2.67253 v 0 c 0,2.08737 -1.69214,3.77953 -3.77951,3.77953 v 0 c -2.0874,0 -3.77954,-1.69216 -3.77954,-3.77953 z"
       fill-rule="evenodd"
       id="path233" />
    <path
       stroke="#000000"
       stroke-width="1"
       stroke-linejoin="round"
       stroke-linecap="butt"
       d="m 423.3071,136.06299 v 0 c 0,-2.08737 1.69214,-3.77953 3.77951,-3.77953 v 0 c 1.00241,0 1.96375,0.39821 2.67255,1.107 0.7088,0.7088 1.10699,1.67013 1.10699,2.67253 v 0 c 0,2.08737 -1.69217,3.77953 -3.77954,3.77953 v 0 c -2.08737,0 -3.77951,-1.69216 -3.77951,-3.77953 z"
       fill-rule="evenodd"
       id="path235" />
    <path
       stroke="#000000"
       stroke-width="1"
       stroke-linejoin="round"
       stroke-linecap="butt"
       d="m 427.0866,136.06299 v 0 c 0,-2.08737 1.69217,-3.77953 3.77954,-3.77953 v 0 c 1.00238,0 1.96372,0.39821 2.67252,1.107 0.7088,0.7088 1.10699,1.67013 1.10699,2.67253 v 0 c 0,2.08737 -1.69214,3.77953 -3.77951,3.77953 v 0 c -2.08737,0 -3.77954,-1.69216 -3.77954,-3.77953 z"
       fill-rule="evenodd"
       id="path237" />
    <path
       stroke="#000000"
       stroke-width="1"
       stroke-linejoin="round"
       stroke-linecap="butt"
       d="m 430.86615,136.06299 v 0 c 0,-2.08737 1.69214,-3.77953 3.77951,-3.77953 v 0 c 1.00241,0 1.96375,0.39821 2.67255,1.107 0.7088,0.7088 1.10699,1.67013 1.10699,2.67253 v 0 c 0,2.08737 -1.69217,3.77953 -3.77954,3.77953 v 0 c -2.08737,0 -3.77951,-1.69216 -3.77951,-3.77953 z"
       fill-rule="evenodd"
       id="path239" />
    <path
       stroke="#000000"
       stroke-width="1"
       stroke-linejoin="round"
       stroke-linecap="butt"
       d="m 434.64566,136.06299 v 0 c 0,-2.08737 1.69217,-3.77953 3.77954,-3.77953 v 0 c 1.00238,0 1.96372,0.39821 2.67252,1.107 0.7088,0.7088 1.10699,1.67013 1.10699,2.67253 v 0 c 0,2.08737 -1.69214,3.77953 -3.77951,3.77953 v 0 c -2.08737,0 -3.77954,-1.69216 -3.77954,-3.77953 z"
       fill-rule="evenodd"
       id="path241" />
    <path
       stroke="#000000"
       stroke-width="1"
       stroke-linejoin="round"
       stroke-linecap="butt"
       d="m 438.4252,136.06299 v 0 c 0,-2.08737 1.69214,-3.77953 3.77951,-3.77953 v 0 c 1.00241,0 1.96375,0.39821 2.67255,1.107 0.7088,0.7088 1.10699,1.67013 1.10699,2.67253 v 0 c 0,2.08737 -1.69214,3.77953 -3.77954,3.77953 v 0 c -2.08737,0 -3.77951,-1.69216 -3.77951,-3.77953 z"
       fill-rule="evenodd"
       id="path243" />
    <path
       stroke="#000000"
       stroke-width="1"
       stroke-linejoin="round"
       stroke-linecap="butt"
       d="m 442.2047,136.06299 v 0 c 0,-2.08737 1.69217,-3.77953 3.77954,-3.77953 v 0 c 1.00238,0 1.96372,0.39821 2.67252,1.107 0.7088,0.7088 1.10702,1.67013 1.10702,2.67253 v 0 c 0,2.08737 -1.69217,3.77953 -3.77954,3.77953 v 0 c -2.08737,0 -3.77954,-1.69216 -3.77954,-3.77953 z"
       fill-rule="evenodd"
       id="path245" />
    <path
       stroke="#000000"
       stroke-width="1"
       stroke-linejoin="round"
       stroke-linecap="butt"
       d="m 445.98425,136.06299 v 0 c 0,-2.08737 1.69214,-3.77953 3.77954,-3.77953 v 0 c 1.00238,0 1.96372,0.39821 2.67252,1.107 0.7088,0.7088 1.10699,1.67013 1.10699,2.67253 v 0 c 0,2.08737 -1.69214,3.77953 -3.77951,3.77953 v 0 c -2.0874,0 -3.77954,-1.69216 -3.77954,-3.77953 z"
       fill-rule="evenodd"
       id="path247" />
    <path
       stroke="#000000"
       stroke-width="1"
       stroke-linejoin="round"
       stroke-linecap="butt"
       d="m 449.7638,136.06299 v 0 c 0,-2.08737 1.69214,-3.77953 3.77951,-3.77953 v 0 c 1.00241,0 1.96375,0.39821 2.67255,1.107 0.70877,0.7088 1.10699,1.67013 1.10699,2.67253 v 0 c 0,2.08737 -1.69217,3.77953 -3.77954,3.77953 v 0 c -2.08737,0 -3.77951,-1.69216 -3.77951,-3.77953 z"
       fill-rule="evenodd"
       id="path249" />
    <path
       stroke="#000000"
       stroke-width="1"
       stroke-linejoin="round"
       stroke-linecap="butt"
       d="m 453.5433,136.06299 v 0 c 0,-2.08737 1.69217,-3.77953 3.77954,-3.77953 v 0 c 1.00238,0 1.96372,0.39821 2.67252,1.107 0.7088,0.7088 1.10699,1.67013 1.10699,2.67253 v 0 c 0,2.08737 -1.69214,3.77953 -3.77951,3.77953 v 0 c -2.08737,0 -3.77954,-1.69216 -3.77954,-3.77953 z"
       fill-rule="evenodd"
       id="path251" />
    <path
       stroke="#000000"
       stroke-width="1"
       stroke-linejoin="round"
       stroke-linecap="butt"
       d="m 457.32285,136.06299 v 0 c 0,-2.08737 1.69214,-3.77953 3.77951,-3.77953 v 0 c 1.00241,0 1.96375,0.39821 2.67255,1.107 0.7088,0.7088 1.10699,1.67013 1.10699,2.67253 v 0 c 0,2.08737 -1.69217,3.77953 -3.77954,3.77953 v 0 c -2.08737,0 -3.77951,-1.69216 -3.77951,-3.77953 z"
       fill-rule="evenodd"
       id="path253" />
    <path
       stroke="#000000"
       stroke-width="1"
       stroke-linejoin="round"
       stroke-linecap="butt"
       d="m 461.10236,136.06299 v 0 c 0,-2.08737 1.69217,-3.77953 3.77954,-3.77953 v 0 c 1.00238,0 1.96372,0.39821 2.67252,1.107 0.7088,0.7088 1.10699,1.67013 1.10699,2.67253 v 0 c 0,2.08737 -1.69214,3.77953 -3.77951,3.77953 v 0 c -2.08737,0 -3.77954,-1.69216 -3.77954,-3.77953 z"
       fill-rule="evenodd"
       id="path255" />
    <path
       stroke="#000000"
       stroke-width="1"
       stroke-linejoin="round"
       stroke-linecap="butt"
       d="m 464.8819,136.06299 v 0 c 0,-2.08737 1.69214,-3.77953 3.77951,-3.77953 v 0 c 1.00241,0 1.96375,0.39821 2.67255,1.107 0.7088,0.7088 1.10699,1.67013 1.10699,2.67253 v 0 c 0,2.08737 -1.69217,3.77953 -3.77954,3.77953 v 0 c -2.08737,0 -3.77951,-1.69216 -3.77951,-3.77953 z"
       fill-rule="evenodd"
       id="path257" />
    <path
       stroke="#000000"
       stroke-width="1"
       stroke-linejoin="round"
       stroke-linecap="butt"
       d="m 468.6614,136.06299 v 0 c 0,-2.08737 1.69217,-3.77953 3.77954,-3.77953 v 0 c 1.00238,0 1.96372,0.39821 2.67252,1.107 0.7088,0.7088 1.10699,1.67013 1.10699,2.67253 v 0 c 0,2.08737 -1.69214,3.77953 -3.77951,3.77953 v 0 c -2.08737,0 -3.77954,-1.69216 -3.77954,-3.77953 z"
       fill-rule="evenodd"
       id="path259" />
    <path
       stroke="#000000"
       stroke-width="1"
       stroke-linejoin="round"
       stroke-linecap="butt"
       d="m 472.44095,136.06299 v 0 c 0,-2.08737 1.69214,-3.77953 3.77951,-3.77953 v 0 c 1.00241,0 1.96375,0.39821 2.67255,1.107 0.7088,0.7088 1.10699,1.67013 1.10699,2.67253 v 0 c 0,2.08737 -1.69214,3.77953 -3.77954,3.77953 v 0 c -2.08737,0 -3.77951,-1.69216 -3.77951,-3.77953 z"
       fill-rule="evenodd"
       id="path261" />
    <path
       stroke="#000000"
       stroke-width="1"
       stroke-linejoin="round"
       stroke-linecap="butt"
       d="m 476.22046,136.06299 v 0 c 0,-2.08737 1.69217,-3.77953 3.77954,-3.77953 v 0 c 1.00238,0 1.96375,0.39821 2.67252,1.107 0.7088,0.7088 1.10702,1.67013 1.10702,2.67253 v 0 c 0,2.08737 -1.69217,3.77953 -3.77954,3.77953 v 0 c -2.08737,0 -3.77954,-1.69216 -3.77954,-3.77953 z"
       fill-rule="evenodd"
       id="path263" />
    <path
       stroke="#000000"
       stroke-width="1"
       stroke-linejoin="round"
       stroke-linecap="butt"
       d="m 480,136.06299 v 0 c 0,-2.08737 1.69214,-3.77953 3.77954,-3.77953 v 0 c 1.00238,0 1.96372,0.39821 2.67252,1.107 0.7088,0.7088 1.10699,1.67013 1.10699,2.67253 v 0 c 0,2.08737 -1.69214,3.77953 -3.77951,3.77953 v 0 c -2.0874,0 -3.77954,-1.69216 -3.77954,-3.77953 z"
       fill-rule="evenodd"
       id="path265" />
    <path
       stroke="#000000"
       stroke-width="1"
       stroke-linejoin="round"
       stroke-linecap="butt"
       d="m 483.77954,136.06299 v 0 c 0,-2.08737 1.69214,-3.77953 3.77951,-3.77953 v 0 c 1.00241,0 1.96375,0.39821 2.67255,1.107 0.70877,0.7088 1.10699,1.67013 1.10699,2.67253 v 0 c 0,2.08737 -1.69217,3.77953 -3.77954,3.77953 v 0 c -2.08737,0 -3.77951,-1.69216 -3.77951,-3.77953 z"
       fill-rule="evenodd"
       id="path267" />
    <path
       stroke="#000000"
       stroke-width="1"
       stroke-linejoin="round"
       stroke-linecap="butt"
       d="m 487.55905,136.06299 v 0 c 0,-2.08737 1.69217,-3.77953 3.77954,-3.77953 v 0 c 1.00238,0 1.96372,0.39821 2.67252,1.107 0.7088,0.7088 1.10699,1.67013 1.10699,2.67253 v 0 c 0,2.08737 -1.69214,3.77953 -3.77951,3.77953 v 0 c -2.08737,0 -3.77954,-1.69216 -3.77954,-3.77953 z"
       fill-rule="evenodd"
       id="path269" />
    <path
       stroke="#000000"
       stroke-width="1"
       stroke-linejoin="round"
       stroke-linecap="butt"
       d="m 491.3386,136.06299 v 0 c 0,-2.08737 1.69214,-3.77953 3.77951,-3.77953 v 0 c 1.00241,0 1.96375,0.39821 2.67255,1.107 0.7088,0.7088 1.10699,1.67013 1.10699,2.67253 v 0 c 0,2.08737 -1.69217,3.77953 -3.77954,3.77953 v 0 c -2.08737,0 -3.77951,-1.69216 -3.77951,-3.77953 z"
       fill-rule="evenodd"
       id="path271" />
    <path
       stroke="#000000"
       stroke-width="1"
       stroke-linejoin="round"
       stroke-linecap="butt"
       d="m 495.1181,136.06299 v 0 c 0,-2.08737 1.69217,-3.77953 3.77954,-3.77953 v 0 c 1.00238,0 1.96372,0.39821 2.67252,1.107 0.7088,0.7088 1.10699,1.67013 1.10699,2.67253 v 0 c 0,2.08737 -1.69214,3.77953 -3.77951,3.77953 v 0 c -2.08737,0 -3.77954,-1.69216 -3.77954,-3.77953 z"
       fill-rule="evenodd"
       id="path273" />
    <path
       stroke="#000000"
       stroke-width="1"
       stroke-linejoin="round"
       stroke-linecap="butt"
       d="m 498.89764,136.06299 v 0 c 0,-2.08737 1.69214,-3.77953 3.77951,-3.77953 v 0 c 1.00241,0 1.96375,0.39821 2.67255,1.107 0.7088,0.7088 1.10699,1.67013 1.10699,2.67253 v 0 c 0,2.08737 -1.69217,3.77953 -3.77954,3.77953 v 0 c -2.08737,0 -3.77951,-1.69216 -3.77951,-3.77953 z"
       fill-rule="evenodd"
       id="path275" />
    <path
       stroke="#000000"
       stroke-width="1"
       stroke-linejoin="round"
       stroke-linecap="butt"
       d="m 502.67715,136.06299 v 0 c 0,-2.08737 1.69217,-3.77953 3.77954,-3.77953 v 0 c 1.00238,0 1.96372,0.39821 2.67252,1.107 0.7088,0.7088 1.10699,1.67013 1.10699,2.67253 v 0 c 0,2.08737 -1.69214,3.77953 -3.77951,3.77953 v 0 c -2.08737,0 -3.77954,-1.69216 -3.77954,-3.77953 z"
       fill-rule="evenodd"
       id="path277" />
    <path
       stroke="#000000"
       stroke-width="1"
       stroke-linejoin="round"
       stroke-linecap="butt"
       d="m 506.4567,136.06299 v 0 c 0,-2.08737 1.69214,-3.77953 3.77951,-3.77953 v 0 c 1.00241,0 1.96375,0.39821 2.67255,1.107 0.7088,0.7088 1.10699,1.67013 1.10699,2.67253 v 0 c 0,2.08737 -1.69214,3.77953 -3.77954,3.77953 v 0 c -2.08737,0 -3.77951,-1.69216 -3.77951,-3.77953 z"
       fill-rule="evenodd"
       id="path279" />
    <path
       stroke="#000000"
       stroke-width="1"
       stroke-linejoin="round"
       stroke-linecap="butt"
       d="m 510.2362,136.06299 v 0 c 0,-2.08737 1.69217,-3.77953 3.77954,-3.77953 v 0 c 1.00238,0 1.96375,0.39821 2.67255,1.107 0.7088,0.7088 1.10699,1.67013 1.10699,2.67253 v 0 c 0,2.08737 -1.69214,3.77953 -3.77954,3.77953 v 0 c -2.08737,0 -3.77954,-1.69216 -3.77954,-3.77953 z"
       fill-rule="evenodd"
       id="path281" />
    <path
       stroke="#000000"
       stroke-width="1"
       stroke-linejoin="round"
       stroke-linecap="butt"
       d="m 514.01575,136.06299 v 0 c 0,-2.08737 1.69214,-3.77953 3.77954,-3.77953 v 0 c 1.00238,0 1.96375,0.39821 2.67255,1.107 0.70874,0.7088 1.10699,1.67013 1.10699,2.67253 v 0 c 0,2.08737 -1.6922,3.77953 -3.77954,3.77953 v 0 c -2.0874,0 -3.77954,-1.69216 -3.77954,-3.77953 z"
       fill-rule="evenodd"
       id="path283" />
    <path
       stroke="#000000"
       stroke-width="1"
       stroke-linejoin="round"
       stroke-linecap="butt"
       d="m 517.7953,136.06299 v 0 c 0,-2.08737 1.69214,-3.77953 3.77954,-3.77953 v 0 c 1.00238,0 1.96369,0.39821 2.67249,1.107 0.7088,0.7088 1.10699,1.67013 1.10699,2.67253 v 0 c 0,2.08737 -1.69214,3.77953 -3.77948,3.77953 v 0 c -2.0874,0 -3.77954,-1.69216 -3.77954,-3.77953 z"
       fill-rule="evenodd"
       id="path285" />
    <path
       stroke="#000000"
       stroke-width="1"
       stroke-linejoin="round"
       stroke-linecap="butt"
       d="m 480,90.708664 v 0 c 0,-2.087379 1.69214,-3.779533 3.77954,-3.779533 v 0 c 1.00238,0 1.96372,0.398201 2.67252,1.107002 0.7088,0.708801 1.10699,1.670135 1.10699,2.672531 v 0 c 0,2.087372 -1.69214,3.779526 -3.77951,3.779526 v 0 C 481.69214,94.48819 480,92.796036 480,90.708664 Z"
       fill-rule="evenodd"
       id="path287" />
    <path
       stroke="#000000"
       stroke-width="1"
       stroke-linejoin="round"
       stroke-linecap="butt"
       d="m 487.55905,90.708664 v 0 c 0,-2.087379 1.69217,-3.779533 3.77954,-3.779533 v 0 c 1.00238,0 1.96372,0.398201 2.67252,1.107002 0.7088,0.708801 1.10699,1.670135 1.10699,2.672531 v 0 c 0,2.087372 -1.69214,3.779526 -3.77951,3.779526 v 0 c -2.08737,0 -3.77954,-1.692154 -3.77954,-3.779526 z"
       fill-rule="evenodd"
       id="path289" />
    <path
       stroke="#000000"
       stroke-width="1"
       stroke-linejoin="round"
       stroke-linecap="butt"
       d="m 495.1181,90.708664 v 0 c 0,-2.087379 1.69217,-3.779533 3.77954,-3.779533 v 0 c 1.00238,0 1.96372,0.398201 2.67252,1.107002 0.7088,0.708801 1.10699,1.670135 1.10699,2.672531 v 0 c 0,2.087372 -1.69214,3.779526 -3.77951,3.779526 v 0 c -2.08737,0 -3.77954,-1.692154 -3.77954,-3.779526 z"
       fill-rule="evenodd"
       id="path291" />
    <path
       stroke="#000000"
       stroke-width="1"
       stroke-linejoin="round"
       stroke-linecap="butt"
       d="m 502.67715,90.708664 v 0 c 0,-2.087379 1.69217,-3.779533 3.77954,-3.779533 v 0 c 1.00238,0 1.96372,0.398201 2.67252,1.107002 0.7088,0.708801 1.10699,1.670135 1.10699,2.672531 v 0 c 0,2.087372 -1.69214,3.779526 -3.77951,3.779526 v 0 c -2.08737,0 -3.77954,-1.692154 -3.77954,-3.779526 z"
       fill-rule="evenodd"
       id="path293" />
    <path
       stroke="#000000"
       stroke-width="1"
       stroke-linejoin="round"
       stroke-linecap="butt"
       d="m 510.2362,90.708664 v 0 c 0,-2.087379 1.69217,-3.779533 3.77954,-3.779533 v 0 c 1.00238,0 1.96375,0.398201 2.67255,1.107002 0.7088,0.708801 1.10699,1.670135 1.10699,2.672531 v 0 c 0,2.087372 -1.69214,3.779526 -3.77954,3.779526 v 0 c -2.08737,0 -3.77954,-1.692154 -3.77954,-3.779526 z"
       fill-rule="evenodd"
       id="path295" />
    <path
       stroke="#000000"
       stroke-width="1"
       stroke-linejoin="round"
       stroke-linecap="butt"
       d="m 517.7953,90.708664 v 0 c 0,-2.087379 1.69214,-3.779533 3.77954,-3.779533 v 0 c 1.00238,0 1.96369,0.398201 2.67249,1.107002 0.7088,0.708801 1.10699,1.670135 1.10699,2.672531 v 0 c 0,2.087372 -1.69214,3.779526 -3.77948,3.779526 v 0 c -2.0874,0 -3.77954,-1.692154 -3.77954,-3.779526 z"
       fill-rule="evenodd"
       id="path297" />
    <path
       stroke="#000000"
       stroke-width="1"
       stroke-linejoin="round"
       stroke-linecap="butt"
       d="m 525.3543,90.708664 v 0 c 0,-2.087379 1.6922,-3.779533 3.77954,-3.779533 v 0 c 1.00238,0 1.96375,0.398201 2.67255,1.107002 0.7088,0.708801 1.10699,1.670135 1.10699,2.672531 v 0 c 0,2.087372 -1.69214,3.779526 -3.77954,3.779526 v 0 c -2.08734,0 -3.77954,-1.692154 -3.77954,-3.779526 z"
       fill-rule="evenodd"
       id="path299" />
    <path
       stroke="#000000"
       stroke-width="1"
       stroke-linejoin="round"
       stroke-linecap="butt"
       d="m 517.7953,136.06299 v 0 c 0,-2.08737 1.69214,-3.77953 3.77954,-3.77953 v 0 c 1.00238,0 1.96369,0.39821 2.67249,1.107 0.7088,0.7088 1.10699,1.67013 1.10699,2.67253 v 0 c 0,2.08737 -1.69214,3.77953 -3.77948,3.77953 v 0 c -2.0874,0 -3.77954,-1.69216 -3.77954,-3.77953 z"
       fill-rule="evenodd"
       id="path301" />
    <path
       stroke="#000000"
       stroke-width="1"
       stroke-linejoin="round"
       stroke-linecap="butt"
       d="m 521.5748,136.06299 v 0 c 0,-2.08737 1.69214,-3.77953 3.77948,-3.77953 v 0 c 1.00244,0 1.96375,0.39821 2.67255,1.107 0.7088,0.7088 1.10699,1.67013 1.10699,2.67253 v 0 c 0,2.08737 -1.69214,3.77953 -3.77954,3.77953 v 0 c -2.08734,0 -3.77948,-1.69216 -3.77948,-3.77953 z"
       fill-rule="evenodd"
       id="path303" />
    <path
       stroke="#000000"
       stroke-width="1"
       stroke-linejoin="round"
       stroke-linecap="butt"
       d="m 525.35432,136.06299 v 0 c 0,-2.08737 1.69214,-3.77953 3.77948,-3.77953 v 0 c 1.00244,0 1.96375,0.39821 2.67255,1.107 0.7088,0.7088 1.10699,1.67013 1.10699,2.67253 v 0 c 0,2.08737 -1.69214,3.77953 -3.77954,3.77953 v 0 c -2.08734,0 -3.77948,-1.69216 -3.77948,-3.77953 z"
       fill-rule="evenodd"
       id="path303-1"
       inkscape:label="path305" />
  </g>
</svg>
