<?xml version="1.0" encoding="UTF-8" standalone="no"?>
<svg
   version="1.1"
   viewBox="0 0 999.99969 249.99988"
   fill="none"
   stroke="none"
   stroke-linecap="square"
   stroke-miterlimit="10"
   id="svg149"
   sodipodi:docname="esquema_matriz.svg"
   width="999.99969"
   height="249.99988"
   inkscape:version="1.3.2 (091e20e, 2023-11-25)"
   xmlns:inkscape="http://www.inkscape.org/namespaces/inkscape"
   xmlns:sodipodi="http://sodipodi.sourceforge.net/DTD/sodipodi-0.dtd"
   xmlns="http://www.w3.org/2000/svg"
   xmlns:svg="http://www.w3.org/2000/svg">
  <defs
     id="defs149" />
  <sodipodi:namedview
     id="namedview149"
     pagecolor="#505050"
     bordercolor="#ffffff"
     borderopacity="1"
     inkscape:showpageshadow="0"
     inkscape:pageopacity="0"
     inkscape:pagecheckerboard="1"
     inkscape:deskcolor="#505050"
     inkscape:zoom="0.95451734"
     inkscape:cx="653.73354"
     inkscape:cy="-66.001944"
     inkscape:window-width="1920"
     inkscape:window-height="1009"
     inkscape:window-x="1440"
     inkscape:window-y="23"
     inkscape:window-maximized="0"
     inkscape:current-layer="layer2" />
  <clipPath
     id="p.0">
    <path
       d="M 0,0 H 944.8819 V 264.56693 H 0 Z"
       clip-rule="nonzero"
       id="path1" />
  </clipPath>
  <g
     inkscape:groupmode="layer"
     id="layer2"
     inkscape:label="Layer 1">
    <g
       id="g113"
       inkscape:label="lineas"
       transform="translate(-160.83301,359.50909)">
      <path
         stroke="#000000"
         stroke-width="1.09959"
         stroke-linejoin="round"
         stroke-linecap="butt"
         d="m 161.38382,-358.9603 h 166.41315 v 41.48371 H 161.38382 Z"
         fill-rule="evenodd"
         id="path4" />
      <path
         stroke="#000000"
         stroke-width="1.09959"
         stroke-linejoin="round"
         stroke-linecap="butt"
         d="m 327.79123,-358.9603 h 83.24126 v 41.48371 h -83.24126 z"
         fill-rule="evenodd"
         id="path17" />
      <path
         stroke="#000000"
         stroke-width="1.09959"
         stroke-linejoin="round"
         stroke-linecap="butt"
         d="m 410.78692,-358.9603 h 83.24126 v 41.48371 h -83.24126 z"
         fill-rule="evenodd"
         id="path20" />
      <path
         stroke="#000000"
         stroke-width="1.09959"
         stroke-linejoin="round"
         stroke-linecap="butt"
         d="m 493.99063,-358.9603 h 83.24125 v 41.48371 h -83.24125 z"
         fill-rule="evenodd"
         id="path23" />
      <path
         stroke="#000000"
         stroke-width="1.09959"
         stroke-linejoin="round"
         stroke-linecap="butt"
         d="m 577.59011,-358.9603 h 83.24129 v 41.48371 h -83.24129 z"
         fill-rule="evenodd"
         id="path26" />
      <path
         stroke="#000000"
         stroke-width="1.09959"
         stroke-linejoin="round"
         stroke-linecap="butt"
         d="m 660.60605,-358.9603 h 83.24122 v 41.48371 h -83.24122 z"
         fill-rule="evenodd"
         id="path29" />
      <path
         stroke="#000000"
         stroke-width="1.09959"
         stroke-linejoin="round"
         stroke-linecap="butt"
         d="m 744.22576,-358.9603 h 83.24126 v 41.48371 h -83.24126 z"
         fill-rule="evenodd"
         id="path32" />
      <path
         stroke="#000000"
         stroke-width="1.09959"
         stroke-linejoin="round"
         stroke-linecap="butt"
         d="m 827.01346,-358.9603 h 83.24126 v 41.48371 h -83.24126 z"
         fill-rule="evenodd"
         id="path35" />
      <path
         stroke="#000000"
         stroke-width="1.09959"
         stroke-linejoin="round"
         stroke-linecap="butt"
         d="m 910.21716,-358.9603 h 83.24126 v 41.48371 h -83.24126 z"
         fill-rule="evenodd"
         id="path38" />
      <path
         stroke="#000000"
         stroke-width="1.09959"
         stroke-linejoin="round"
         stroke-linecap="butt"
         d="m 993.42087,-358.9603 h 83.24133 v 41.48371 h -83.24133 z"
         fill-rule="evenodd"
         id="path41" />
      <path
         stroke="#000000"
         stroke-width="1.09959"
         stroke-linejoin="round"
         stroke-linecap="butt"
         d="m 1077.0406,-358.9603 h 83.2413 v 41.48371 h -83.2413 z"
         fill-rule="evenodd"
         id="path44" />
      <path
         stroke="#000000"
         stroke-width="1.09959"
         stroke-linejoin="round"
         stroke-linecap="butt"
         d="M 161.38382,-358.9603 H 1160.279 v 248.90229 H 161.38382 Z"
         fill-rule="evenodd"
         id="path147" />
      <path
         stroke="#000000"
         stroke-width="1.09959"
         stroke-linejoin="round"
         stroke-linecap="butt"
         d="m 161.38382,-358.9603 h 166.48252 v 248.90229 H 161.38382 Z"
         fill-rule="evenodd"
         id="path149" />
    </g>
    <g
       id="g112"
       inkscape:label="fechas"
       transform="translate(-160.83301,359.50909)">
      <path
         fill="#000000"
         d="m 174.13826,-290.30285 h -8.58903 v -1.69783 l 4.04493,-4.30461 q 0.84342,-0.90894 1.2393,-1.57779 0.39589,-0.68599 0.39589,-1.30339 0,-0.82319 -0.43031,-1.30338 -0.4131,-0.4802 -1.18766,-0.4802 -0.84341,0 -1.34258,0.58309 -0.48194,0.5831 -0.48194,1.52634 h -2.49581 q 0,-1.14904 0.5508,-2.09228 0.55079,-0.94324 1.54912,-1.47489 0.99832,-0.53164 2.25483,-0.53164 1.94501,0 3.01218,0.92609 1.06718,0.92609 1.06718,2.60678 0,0.92609 -0.48195,1.88648 -0.48195,0.96039 -1.6524,2.24663 l -2.84006,2.98407 h 5.38751 z m 9.95741,-5.1621 q 0,2.58963 -1.08439,3.96161 -1.06717,1.37199 -3.14988,1.37199 -2.04828,0 -3.13267,-1.33769 -1.08438,-1.35483 -1.1016,-3.87586 v -2.29808 q 0,-2.60678 1.08439,-3.96161 1.08439,-1.35484 3.13267,-1.35484 2.04828,0 3.13267,1.33769 1.08439,1.33768 1.11881,3.85871 z m -2.49581,-2.52103 q 0,-1.56063 -0.43031,-2.26378 -0.4131,-0.70314 -1.32536,-0.70314 -0.87784,0 -1.29094,0.66884 -0.41309,0.66885 -0.44752,2.10943 v 3.03553 q 0,1.52633 0.4131,2.26378 0.43031,0.73744 1.34257,0.73744 0.91226,0 1.30815,-0.70314 0.4131,-0.7203 0.43031,-2.17803 z m 10.2156,7.68313 h -2.4958 v -9.55246 l -2.96055,0.90894 v -2.00653 l 5.18095,-1.85218 h 0.2754 z m 9.88857,-4.9906 q -0.98111,0.94324 -2.27205,0.94324 -1.66961,0 -2.66793,-1.13189 -0.99833,-1.13189 -0.99833,-3.06982 0,-1.21764 0.53359,-2.24663 0.5508,-1.02899 1.5147,-1.59494 0.9639,-0.56594 2.16877,-0.56594 1.2393,0 2.2032,0.61739 0.96389,0.6174 1.49748,1.78359 0.53359,1.14904 0.53359,2.64107 v 0.90894 q 0,3.12128 -1.56634,4.90486 -1.54912,1.78358 -4.40639,1.92078 h -0.60244 v -2.07513 h 0.5508 q 3.23595,-0.15435 3.51135,-3.03552 z m -1.66961,-0.94324 q 0.60243,0 1.03275,-0.3087 0.44752,-0.3087 0.67128,-0.75459 v -1.01184 q 0,-1.26909 -0.48195,-1.95509 -0.48195,-0.70314 -1.29093,-0.70314 -0.75735,0 -1.2393,0.68599 -0.48195,0.686 -0.48195,1.71499 0,1.01184 0.46474,1.68068 0.48195,0.6517 1.32536,0.6517 z m 10.9041,1.57778 h -4.85392 v -1.98938 h 4.85392 z m 10.32748,-0.80604 q 0,2.58963 -1.08438,3.96161 -1.06717,1.37199 -3.14988,1.37199 -2.04829,0 -3.13267,-1.33769 -1.08439,-1.35483 -1.1016,-3.87586 v -2.29808 q 0,-2.60678 1.08438,-3.96161 1.08439,-1.35484 3.13267,-1.35484 2.04829,0 3.13267,1.33769 1.08439,1.33768 1.11881,3.85871 z m -2.4958,-2.52103 q 0,-1.56063 -0.43032,-2.26378 -0.41309,-0.70314 -1.32536,-0.70314 -0.87783,0 -1.29093,0.66884 -0.4131,0.66885 -0.44752,2.10943 v 3.03553 q 0,1.52633 0.41309,2.26378 0.43032,0.73744 1.34258,0.73744 0.91226,0 1.30814,-0.70314 0.4131,-0.7203 0.43032,-2.17803 z m 10.92131,-4.93915 v 2.04083 h -0.24098 q -1.68682,0.0343 -2.71957,0.89179 -1.03274,0.84034 -1.23929,2.34953 0.99832,-1.01184 2.53023,-1.01184 1.63518,0 2.59908,1.16619 0.9639,1.16619 0.9639,3.06982 0,1.21764 -0.53359,2.21233 -0.53358,0.97754 -1.49748,1.52634 -0.9639,0.54879 -2.18598,0.54879 -1.97944,0 -3.20152,-1.37199 -1.22209,-1.37198 -1.22209,-3.67006 v -0.89179 q 0,-2.02369 0.77456,-3.58432 0.77456,-1.56064 2.2032,-2.40098 1.44585,-0.85749 3.35643,-0.87464 z m -2.42696,6.25969 q -0.60244,0 -1.1016,0.3087 -0.48195,0.3087 -0.72292,0.82319 v 0.75459 q 0,1.25194 0.48195,1.95509 0.49916,0.68599 1.39421,0.68599 0.79177,0 1.29093,-0.61739 0.49917,-0.63455 0.49917,-1.64639 0,-1.01184 -0.49917,-1.62923 -0.49916,-0.63455 -1.34257,-0.63455 z m 10.73198,2.00653 h -4.85392 v -1.98938 h 4.85392 z m 10.48239,4.35606 h -8.58902 v -1.69783 l 4.04493,-4.30461 q 0.84341,-0.90894 1.2393,-1.57779 0.39588,-0.68599 0.39588,-1.30339 0,-0.82319 -0.43031,-1.30338 -0.4131,-0.4802 -1.18766,-0.4802 -0.84341,0 -1.34257,0.58309 -0.48195,0.5831 -0.48195,1.52634 h -2.49581 q 0,-1.14904 0.5508,-2.09228 0.5508,-0.94324 1.54912,-1.47489 0.99833,-0.53164 2.25484,-0.53164 1.945,0 3.01218,0.92609 1.06717,0.92609 1.06717,2.60678 0,0.92609 -0.48195,1.88648 -0.48195,0.96039 -1.6524,2.24663 l -2.84005,2.98407 h 5.3875 z m 9.95741,-5.1621 q 0,2.58963 -1.08438,3.96161 -1.06717,1.37199 -3.14988,1.37199 -2.04828,0 -3.13267,-1.33769 -1.08439,-1.35483 -1.1016,-3.87586 v -2.29808 q 0,-2.60678 1.08439,-3.96161 1.08438,-1.35484 3.13267,-1.35484 2.04828,0 3.13267,1.33769 1.08438,1.33768 1.1188,3.85871 z m -2.4958,-2.52103 q 0,-1.56063 -0.43032,-2.26378 -0.4131,-0.70314 -1.32535,-0.70314 -0.87784,0 -1.29094,0.66884 -0.4131,0.66885 -0.44753,2.10943 v 3.03553 q 0,1.52633 0.4131,2.26378 0.43032,0.73744 1.34258,0.73744 0.91226,0 1.30814,-0.70314 0.4131,-0.7203 0.43032,-2.17803 z m 14.60478,7.68313 h -2.49581 v -9.55246 l -2.96055,0.90894 v -2.00653 l 5.18096,-1.85218 h 0.2754 z m 12.65976,0 h -8.58901 v -1.69783 l 4.04493,-4.30461 q 0.84341,-0.90894 1.2393,-1.57779 0.39588,-0.68599 0.39588,-1.30339 0,-0.82319 -0.43031,-1.30338 -0.41309,-0.4802 -1.18766,-0.4802 -0.84341,0 -1.34257,0.58309 -0.48195,0.5831 -0.48195,1.52634 h -2.49581 q 0,-1.14904 0.5508,-2.09228 0.5508,-0.94324 1.54913,-1.47489 0.99832,-0.53164 2.25482,-0.53164 1.94502,0 3.01218,0.92609 1.06717,0.92609 1.06717,2.60678 0,0.92609 -0.48195,1.88648 -0.48194,0.96039 -1.65238,2.24663 l -2.84006,2.98407 h 5.38749 z m 1.72985,-1.21764 q 0,-0.60024 0.3959,-0.96039 0.4131,-0.37729 1.01553,-0.37729 0.60244,0 0.99832,0.37729 0.4131,0.36015 0.4131,0.96039 0,0.5831 -0.39588,0.9604 -0.39589,0.36014 -1.01554,0.36014 -0.61965,0 -1.01553,-0.36014 -0.3959,-0.3773 -0.3959,-0.9604 z m 0,-7.03143 q 0,-0.60025 0.3959,-0.96039 0.4131,-0.3773 1.01553,-0.3773 0.60244,0 0.99832,0.3773 0.4131,0.36014 0.4131,0.96039 0,0.58309 -0.39588,0.96039 -0.39589,0.36015 -1.01554,0.36015 -0.61965,0 -1.01553,-0.36015 -0.3959,-0.3773 -0.3959,-0.96039 z m 13.20197,3.08697 q 0,2.58963 -1.08439,3.96161 -1.06717,1.37199 -3.14987,1.37199 -2.04829,0 -3.13267,-1.33769 -1.08439,-1.35483 -1.1016,-3.87586 v -2.29808 q 0,-2.60678 1.08438,-3.96161 1.08439,-1.35484 3.13267,-1.35484 2.04829,0 3.13267,1.33769 1.08439,1.33768 1.11881,3.85871 z m -2.49581,-2.52103 q 0,-1.56063 -0.43031,-2.26378 -0.4131,-0.70314 -1.32536,-0.70314 -0.87783,0 -1.29093,0.66884 -0.4131,0.66885 -0.44753,2.10943 v 3.03553 q 0,1.52633 0.4131,2.26378 0.43031,0.73744 1.34258,0.73744 0.91225,0 1.30814,-0.70314 0.4131,-0.7203 0.43031,-2.17803 z m 12.60813,2.52103 q 0,2.58963 -1.08438,3.96161 -1.06717,1.37199 -3.14989,1.37199 -2.04827,0 -3.13267,-1.33769 -1.08438,-1.35483 -1.10159,-3.87586 v -2.29808 q 0,-2.60678 1.08439,-3.96161 1.08438,-1.35484 3.13267,-1.35484 2.04828,0 3.13267,1.33769 1.08438,1.33768 1.1188,3.85871 z m -2.4958,-2.52103 q 0,-1.56063 -0.43032,-2.26378 -0.4131,-0.70314 -1.32535,-0.70314 -0.87784,0 -1.29094,0.66884 -0.4131,0.66885 -0.44753,2.10943 v 3.03553 q 0,1.52633 0.4131,2.26378 0.43032,0.73744 1.34257,0.73744 0.91227,0 1.30815,-0.70314 0.4131,-0.7203 0.43032,-2.17803 z"
         fill-rule="nonzero"
         id="path7"
         style="stroke-width:1.09959" />
      <path
         fill="#000000"
         d="m 174.13826,-248.81914 h -8.58903 v -1.69783 l 4.04493,-4.30461 q 0.84342,-0.90894 1.2393,-1.57779 0.39589,-0.68599 0.39589,-1.30339 0,-0.82319 -0.43031,-1.30338 -0.4131,-0.4802 -1.18766,-0.4802 -0.84341,0 -1.34258,0.5831 -0.48194,0.58309 -0.48194,1.52634 h -2.49581 q 0,-1.14905 0.5508,-2.09228 0.55079,-0.94325 1.54912,-1.47489 0.99832,-0.53165 2.25483,-0.53165 1.94501,0 3.01218,0.92609 1.06718,0.92609 1.06718,2.60678 0,0.92609 -0.48195,1.88648 -0.48195,0.96039 -1.6524,2.24663 l -2.84006,2.98408 h 5.38751 z m 9.95741,-5.16209 q 0,2.58962 -1.08439,3.9616 -1.06717,1.37199 -3.14988,1.37199 -2.04828,0 -3.13267,-1.33769 -1.08438,-1.35483 -1.1016,-3.87586 v -2.29808 q 0,-2.60678 1.08439,-3.96161 1.08439,-1.35484 3.13267,-1.35484 2.04828,0 3.13267,1.33769 1.08439,1.33768 1.11881,3.85872 z m -2.49581,-2.52104 q 0,-1.56063 -0.43031,-2.26378 -0.4131,-0.70313 -1.32536,-0.70313 -0.87784,0 -1.29094,0.66883 -0.41309,0.66885 -0.44752,2.10944 v 3.03552 q 0,1.52634 0.4131,2.26378 0.43031,0.73745 1.34257,0.73745 0.91226,0 1.30815,-0.70315 0.4131,-0.7203 0.43031,-2.17803 z m 10.2156,7.68313 h -2.4958 v -9.55245 l -2.96055,0.90893 v -2.00652 l 5.18095,-1.85219 h 0.2754 z m 9.88857,-4.9906 q -0.98111,0.94324 -2.27205,0.94324 -1.66961,0 -2.66793,-1.13189 -0.99833,-1.13189 -0.99833,-3.06982 0,-1.21764 0.53359,-2.24663 0.5508,-1.02899 1.5147,-1.59493 0.9639,-0.56595 2.16877,-0.56595 1.2393,0 2.2032,0.61739 0.96389,0.6174 1.49748,1.78359 0.53359,1.14904 0.53359,2.64107 v 0.90895 q 0,3.12127 -1.56634,4.90486 -1.54912,1.78358 -4.40639,1.92078 h -0.60244 v -2.07514 h 0.5508 q 3.23595,-0.15434 3.51135,-3.03552 z m -1.66961,-0.94324 q 0.60243,0 1.03275,-0.3087 0.44752,-0.3087 0.67128,-0.75459 v -1.01184 q 0,-1.26909 -0.48195,-1.95508 -0.48195,-0.70315 -1.29093,-0.70315 -0.75735,0 -1.2393,0.68599 -0.48195,0.686 -0.48195,1.71499 0,1.01185 0.46474,1.68068 0.48195,0.6517 1.32536,0.6517 z m 10.9041,1.57778 h -4.85392 v -1.98938 h 4.85392 z m 10.32748,-0.80603 q 0,2.58962 -1.08438,3.9616 -1.06717,1.37199 -3.14988,1.37199 -2.04829,0 -3.13267,-1.33769 -1.08439,-1.35483 -1.1016,-3.87586 v -2.29808 q 0,-2.60678 1.08438,-3.96161 1.08439,-1.35484 3.13267,-1.35484 2.04829,0 3.13267,1.33769 1.08439,1.33768 1.11881,3.85872 z m -2.4958,-2.52104 q 0,-1.56063 -0.43032,-2.26378 -0.41309,-0.70313 -1.32536,-0.70313 -0.87783,0 -1.29093,0.66883 -0.4131,0.66885 -0.44752,2.10944 v 3.03552 q 0,1.52634 0.41309,2.26378 0.43032,0.73745 1.34258,0.73745 0.91226,0 1.30814,-0.70315 0.4131,-0.7203 0.43032,-2.17803 z m 10.92131,-4.93915 v 2.04084 h -0.24098 q -1.68682,0.0342 -2.71957,0.89179 -1.03274,0.84033 -1.23929,2.34952 0.99832,-1.01183 2.53023,-1.01183 1.63518,0 2.59908,1.16618 0.9639,1.16619 0.9639,3.06982 0,1.21765 -0.53359,2.21234 -0.53358,0.97753 -1.49748,1.52633 -0.9639,0.54879 -2.18598,0.54879 -1.97944,0 -3.20152,-1.37199 -1.22209,-1.37198 -1.22209,-3.67006 v -0.89179 q 0,-2.02369 0.77456,-3.58432 0.77456,-1.56064 2.2032,-2.40097 1.44585,-0.8575 3.35643,-0.87465 z m -2.42696,6.2597 q -0.60244,0 -1.1016,0.30869 -0.48195,0.3087 -0.72292,0.8232 v 0.75459 q 0,1.25193 0.48195,1.95508 0.49916,0.686 1.39421,0.686 0.79177,0 1.29093,-0.6174 0.49917,-0.63455 0.49917,-1.64638 0,-1.01185 -0.49917,-1.62924 -0.49916,-0.63454 -1.34257,-0.63454 z m 10.73198,2.00652 h -4.85392 v -1.98938 h 4.85392 z m 10.48239,4.35606 h -8.58902 v -1.69783 l 4.04493,-4.30461 q 0.84341,-0.90894 1.2393,-1.57779 0.39588,-0.68599 0.39588,-1.30339 0,-0.82319 -0.43031,-1.30338 -0.4131,-0.4802 -1.18766,-0.4802 -0.84341,0 -1.34257,0.5831 -0.48195,0.58309 -0.48195,1.52634 h -2.49581 q 0,-1.14905 0.5508,-2.09228 0.5508,-0.94325 1.54912,-1.47489 0.99833,-0.53165 2.25484,-0.53165 1.945,0 3.01218,0.92609 1.06717,0.92609 1.06717,2.60678 0,0.92609 -0.48195,1.88648 -0.48195,0.96039 -1.6524,2.24663 l -2.84005,2.98408 h 5.3875 z m 9.95741,-5.16209 q 0,2.58962 -1.08438,3.9616 -1.06717,1.37199 -3.14988,1.37199 -2.04828,0 -3.13267,-1.33769 -1.08439,-1.35483 -1.1016,-3.87586 v -2.29808 q 0,-2.60678 1.08439,-3.96161 1.08438,-1.35484 3.13267,-1.35484 2.04828,0 3.13267,1.33769 1.08438,1.33768 1.1188,3.85872 z m -2.4958,-2.52104 q 0,-1.56063 -0.43032,-2.26378 -0.4131,-0.70313 -1.32535,-0.70313 -0.87784,0 -1.29094,0.66883 -0.4131,0.66885 -0.44753,2.10944 v 3.03552 q 0,1.52634 0.4131,2.26378 0.43032,0.73745 1.34258,0.73745 0.91226,0 1.30814,-0.70315 0.4131,-0.7203 0.43032,-2.17803 z m 14.60478,7.68313 h -2.49581 v -9.55245 l -2.96055,0.90893 v -2.00652 l 5.18096,-1.85219 h 0.2754 z m 6.60098,-7.34013 h 1.32536 q 0.94669,0 1.39421,-0.46304 0.46474,-0.4802 0.46474,-1.26909 0,-0.75459 -0.46474,-1.16619 -0.44752,-0.42875 -1.23929,-0.42875 -0.70572,0 -1.18767,0.39445 -0.48195,0.39444 -0.48195,1.01184 h -2.4958 q 0,-0.97754 0.53358,-1.74929 0.53359,-0.77173 1.48027,-1.20049 0.94669,-0.44589 2.09992,-0.44589 1.97944,0 3.09824,0.94325 1.13602,0.94323 1.13602,2.60677 0,0.85749 -0.53358,1.57779 -0.51637,0.72029 -1.35978,1.11473 1.04996,0.3773 1.56633,1.13189 0.53358,0.75459 0.53358,1.78359 0,1.66354 -1.22208,2.67537 -1.22208,0.99469 -3.21873,0.99469 -1.87615,0 -3.08102,-0.97753 -1.18767,-0.99469 -1.18767,-2.62394 h 2.49582 q 0,0.70315 0.51637,1.14905 0.53358,0.4459 1.30815,0.4459 0.89505,0 1.3942,-0.46306 0.49917,-0.46304 0.49917,-1.23478 0,-1.86933 -2.0655,-1.86933 h -1.30815 z m 7.78863,6.1225 q 0,-0.60025 0.3959,-0.96039 0.4131,-0.3773 1.01553,-0.3773 0.60244,0 0.99832,0.3773 0.4131,0.36014 0.4131,0.96039 0,0.58309 -0.39588,0.96039 -0.39589,0.36014 -1.01554,0.36014 -0.61965,0 -1.01553,-0.36014 -0.3959,-0.3773 -0.3959,-0.96039 z m 0,-7.03144 q 0,-0.60025 0.3959,-0.96039 0.4131,-0.37729 1.01553,-0.37729 0.60244,0 0.99832,0.37729 0.4131,0.36014 0.4131,0.96039 0,0.5831 -0.39588,0.9604 -0.39589,0.36014 -1.01554,0.36014 -0.61965,0 -1.01553,-0.36014 -0.3959,-0.3773 -0.3959,-0.9604 z m 13.20197,3.08698 q 0,2.58962 -1.08439,3.9616 -1.06717,1.37199 -3.14987,1.37199 -2.04829,0 -3.13267,-1.33769 -1.08439,-1.35483 -1.1016,-3.87586 v -2.29808 q 0,-2.60678 1.08438,-3.96161 1.08439,-1.35484 3.13267,-1.35484 2.04829,0 3.13267,1.33769 1.08439,1.33768 1.11881,3.85872 z m -2.49581,-2.52104 q 0,-1.56063 -0.43031,-2.26378 -0.4131,-0.70313 -1.32536,-0.70313 -0.87783,0 -1.29093,0.66883 -0.4131,0.66885 -0.44753,2.10944 v 3.03552 q 0,1.52634 0.4131,2.26378 0.43031,0.73745 1.34258,0.73745 0.91225,0 1.30814,-0.70315 0.4131,-0.7203 0.43031,-2.17803 z m 12.60813,2.52104 q 0,2.58962 -1.08438,3.9616 -1.06717,1.37199 -3.14989,1.37199 -2.04827,0 -3.13267,-1.33769 -1.08438,-1.35483 -1.10159,-3.87586 v -2.29808 q 0,-2.60678 1.08439,-3.96161 1.08438,-1.35484 3.13267,-1.35484 2.04828,0 3.13267,1.33769 1.08438,1.33768 1.1188,3.85872 z m -2.4958,-2.52104 q 0,-1.56063 -0.43032,-2.26378 -0.4131,-0.70313 -1.32535,-0.70313 -0.87784,0 -1.29094,0.66883 -0.4131,0.66885 -0.44753,2.10944 v 3.03552 q 0,1.52634 0.4131,2.26378 0.43032,0.73745 1.34257,0.73745 0.91227,0 1.30815,-0.70315 0.4131,-0.7203 0.43032,-2.17803 z"
         fill-rule="nonzero"
         id="path9"
         style="stroke-width:1.09959" />
      <path
         fill="#000000"
         d="m 174.13826,-207.33543 h -8.58903 v -1.69784 l 4.04493,-4.3046 q 0.84342,-0.90895 1.2393,-1.57779 0.39589,-0.68599 0.39589,-1.30339 0,-0.82319 -0.43031,-1.30338 -0.4131,-0.4802 -1.18766,-0.4802 -0.84341,0 -1.34258,0.5831 -0.48194,0.58309 -0.48194,1.52633 h -2.49581 q 0,-1.14904 0.5508,-2.09228 0.55079,-0.94324 1.54912,-1.47489 0.99832,-0.53164 2.25483,-0.53164 1.94501,0 3.01218,0.92609 1.06718,0.92609 1.06718,2.60678 0,0.92609 -0.48195,1.88648 -0.48195,0.96039 -1.6524,2.24662 l -2.84006,2.98408 h 5.38751 z m 9.95741,-5.1621 q 0,2.58963 -1.08439,3.96161 -1.06717,1.37199 -3.14988,1.37199 -2.04828,0 -3.13267,-1.33769 -1.08438,-1.35484 -1.1016,-3.87586 v -2.29808 q 0,-2.60678 1.08439,-3.96162 1.08439,-1.35483 3.13267,-1.35483 2.04828,0 3.13267,1.33769 1.08439,1.33768 1.11881,3.85871 z m -2.49581,-2.52103 q 0,-1.56064 -0.43031,-2.26378 -0.4131,-0.70314 -1.32536,-0.70314 -0.87784,0 -1.29094,0.66884 -0.41309,0.66884 -0.44752,2.10943 v 3.03553 q 0,1.52633 0.4131,2.26378 0.43031,0.73744 1.34257,0.73744 0.91226,0 1.30815,-0.70314 0.4131,-0.7203 0.43031,-2.17804 z m 10.2156,7.68313 h -2.4958 v -9.55246 l -2.96055,0.90894 v -2.00653 l 5.18095,-1.85219 h 0.2754 z m 9.88857,-4.99061 q -0.98111,0.94325 -2.27205,0.94325 -1.66961,0 -2.66793,-1.13189 -0.99833,-1.13189 -0.99833,-3.06983 0,-1.21763 0.53359,-2.24662 0.5508,-1.02899 1.5147,-1.59494 0.9639,-0.56594 2.16877,-0.56594 1.2393,0 2.2032,0.61739 0.96389,0.6174 1.49748,1.78359 0.53359,1.14903 0.53359,2.64107 v 0.90894 q 0,3.12127 -1.56634,4.90485 -1.54912,1.78359 -4.40639,1.92079 h -0.60244 v -2.07513 h 0.5508 q 3.23595,-0.15435 3.51135,-3.03553 z m -1.66961,-0.94323 q 0.60243,0 1.03275,-0.3087 0.44752,-0.3087 0.67128,-0.75459 v -1.01185 q 0,-1.26909 -0.48195,-1.95508 -0.48195,-0.70314 -1.29093,-0.70314 -0.75735,0 -1.2393,0.68599 -0.48195,0.686 -0.48195,1.71499 0,1.01183 0.46474,1.68068 0.48195,0.6517 1.32536,0.6517 z m 10.9041,1.57778 h -4.85392 v -1.98938 h 4.85392 z m 10.32748,-0.80604 q 0,2.58963 -1.08438,3.96161 -1.06717,1.37199 -3.14988,1.37199 -2.04829,0 -3.13267,-1.33769 -1.08439,-1.35484 -1.1016,-3.87586 v -2.29808 q 0,-2.60678 1.08438,-3.96162 1.08439,-1.35483 3.13267,-1.35483 2.04829,0 3.13267,1.33769 1.08439,1.33768 1.11881,3.85871 z m -2.4958,-2.52103 q 0,-1.56064 -0.43032,-2.26378 -0.41309,-0.70314 -1.32536,-0.70314 -0.87783,0 -1.29093,0.66884 -0.4131,0.66884 -0.44752,2.10943 v 3.03553 q 0,1.52633 0.41309,2.26378 0.43032,0.73744 1.34258,0.73744 0.91226,0 1.30814,-0.70314 0.4131,-0.7203 0.43032,-2.17804 z m 10.92131,-4.93915 v 2.04082 h -0.24098 q -1.68682,0.0342 -2.71957,0.8918 -1.03274,0.84034 -1.23929,2.34953 0.99832,-1.01185 2.53023,-1.01185 1.63518,0 2.59908,1.16619 0.9639,1.16619 0.9639,3.06983 0,1.21763 -0.53359,2.21233 -0.53358,0.97754 -1.49748,1.52634 -0.9639,0.54879 -2.18598,0.54879 -1.97944,0 -3.20152,-1.37199 -1.22209,-1.37198 -1.22209,-3.67006 v -0.89179 q 0,-2.02369 0.77456,-3.58433 0.77456,-1.56063 2.2032,-2.40097 1.44585,-0.8575 3.35643,-0.87464 z m -2.42696,6.25969 q -0.60244,0 -1.1016,0.30869 -0.48195,0.3087 -0.72292,0.8232 v 0.75459 q 0,1.25194 0.48195,1.95508 0.49916,0.686 1.39421,0.686 0.79177,0 1.29093,-0.6174 0.49917,-0.63454 0.49917,-1.64638 0,-1.01184 -0.49917,-1.62923 -0.49916,-0.63455 -1.34257,-0.63455 z m 10.73198,2.00653 h -4.85392 v -1.98938 h 4.85392 z m 10.48239,4.35606 h -8.58902 v -1.69784 l 4.04493,-4.3046 q 0.84341,-0.90895 1.2393,-1.57779 0.39588,-0.68599 0.39588,-1.30339 0,-0.82319 -0.43031,-1.30338 -0.4131,-0.4802 -1.18766,-0.4802 -0.84341,0 -1.34257,0.5831 -0.48195,0.58309 -0.48195,1.52633 h -2.49581 q 0,-1.14904 0.5508,-2.09228 0.5508,-0.94324 1.54912,-1.47489 0.99833,-0.53164 2.25484,-0.53164 1.945,0 3.01218,0.92609 1.06717,0.92609 1.06717,2.60678 0,0.92609 -0.48195,1.88648 -0.48195,0.96039 -1.6524,2.24662 l -2.84005,2.98408 h 5.3875 z m 9.95741,-5.1621 q 0,2.58963 -1.08438,3.96161 -1.06717,1.37199 -3.14988,1.37199 -2.04828,0 -3.13267,-1.33769 -1.08439,-1.35484 -1.1016,-3.87586 v -2.29808 q 0,-2.60678 1.08439,-3.96162 1.08438,-1.35483 3.13267,-1.35483 2.04828,0 3.13267,1.33769 1.08438,1.33768 1.1188,3.85871 z m -2.4958,-2.52103 q 0,-1.56064 -0.43032,-2.26378 -0.4131,-0.70314 -1.32535,-0.70314 -0.87784,0 -1.29094,0.66884 -0.4131,0.66884 -0.44753,2.10943 v 3.03553 q 0,1.52633 0.4131,2.26378 0.43032,0.73744 1.34258,0.73744 0.91226,0 1.30814,-0.70314 0.4131,-0.7203 0.43032,-2.17804 z m 14.60478,7.68313 h -2.49581 v -9.55246 l -2.96055,0.90894 v -2.00653 l 5.18096,-1.85219 h 0.2754 z m 11.42047,-4.69905 h 1.42862 v 1.98938 h -1.42862 v 2.70967 h -2.47859 v -2.70967 h -5.14653 l -0.10322,-1.56064 5.21538,-8.21477 h 2.51301 z m -5.2498,0 h 2.77121 v -4.40752 l -0.17212,0.2744 z m 8.21894,3.48141 q 0,-0.60024 0.3959,-0.96039 0.4131,-0.3773 1.01553,-0.3773 0.60244,0 0.99832,0.3773 0.4131,0.36015 0.4131,0.96039 0,0.58309 -0.39588,0.96039 -0.39589,0.36015 -1.01554,0.36015 -0.61965,0 -1.01553,-0.36015 -0.3959,-0.3773 -0.3959,-0.96039 z m 0,-7.03144 q 0,-0.60024 0.3959,-0.96039 0.4131,-0.37729 1.01553,-0.37729 0.60244,0 0.99832,0.37729 0.4131,0.36015 0.4131,0.96039 0,0.5831 -0.39588,0.96039 -0.39589,0.36016 -1.01554,0.36016 -0.61965,0 -1.01553,-0.36016 -0.3959,-0.37729 -0.3959,-0.96039 z m 13.20197,3.08698 q 0,2.58963 -1.08439,3.96161 -1.06717,1.37199 -3.14987,1.37199 -2.04829,0 -3.13267,-1.33769 -1.08439,-1.35484 -1.1016,-3.87586 v -2.29808 q 0,-2.60678 1.08438,-3.96162 1.08439,-1.35483 3.13267,-1.35483 2.04829,0 3.13267,1.33769 1.08439,1.33768 1.11881,3.85871 z m -2.49581,-2.52103 q 0,-1.56064 -0.43031,-2.26378 -0.4131,-0.70314 -1.32536,-0.70314 -0.87783,0 -1.29093,0.66884 -0.4131,0.66884 -0.44753,2.10943 v 3.03553 q 0,1.52633 0.4131,2.26378 0.43031,0.73744 1.34258,0.73744 0.91225,0 1.30814,-0.70314 0.4131,-0.7203 0.43031,-2.17804 z m 12.60813,2.52103 q 0,2.58963 -1.08438,3.96161 -1.06717,1.37199 -3.14989,1.37199 -2.04827,0 -3.13267,-1.33769 -1.08438,-1.35484 -1.10159,-3.87586 v -2.29808 q 0,-2.60678 1.08439,-3.96162 1.08438,-1.35483 3.13267,-1.35483 2.04828,0 3.13267,1.33769 1.08438,1.33768 1.1188,3.85871 z m -2.4958,-2.52103 q 0,-1.56064 -0.43032,-2.26378 -0.4131,-0.70314 -1.32535,-0.70314 -0.87784,0 -1.29094,0.66884 -0.4131,0.66884 -0.44753,2.10943 v 3.03553 q 0,1.52633 0.4131,2.26378 0.43032,0.73744 1.34257,0.73744 0.91227,0 1.30815,-0.70314 0.4131,-0.7203 0.43032,-2.17804 z"
         fill-rule="nonzero"
         id="path11"
         style="stroke-width:1.09959" />
      <path
         fill="#000000"
         d="m 174.13826,-165.8517 h -8.58903 v -1.69784 l 4.04493,-4.30461 q 0.84342,-0.90895 1.2393,-1.57779 0.39589,-0.68599 0.39589,-1.30338 0,-0.8232 -0.43031,-1.30339 -0.4131,-0.4802 -1.18766,-0.4802 -0.84341,0 -1.34258,0.5831 -0.48194,0.58309 -0.48194,1.52633 h -2.49581 q 0,-1.14904 0.5508,-2.09228 0.55079,-0.94324 1.54912,-1.47489 0.99832,-0.53164 2.25483,-0.53164 1.94501,0 3.01218,0.92609 1.06718,0.92609 1.06718,2.60678 0,0.92609 -0.48195,1.88648 -0.48195,0.96039 -1.6524,2.24663 l -2.84006,2.98407 h 5.38751 z m 9.95741,-5.16211 q 0,2.58963 -1.08439,3.96162 -1.06717,1.37198 -3.14988,1.37198 -2.04828,0 -3.13267,-1.33768 -1.08438,-1.35485 -1.1016,-3.87587 v -2.29808 q 0,-2.60677 1.08439,-3.96162 1.08439,-1.35483 3.13267,-1.35483 2.04828,0 3.13267,1.33769 1.08439,1.33769 1.11881,3.85871 z m -2.49581,-2.52102 q 0,-1.56065 -0.43031,-2.26378 -0.4131,-0.70315 -1.32536,-0.70315 -0.87784,0 -1.29094,0.66885 -0.41309,0.66883 -0.44752,2.10942 v 3.03553 q 0,1.52633 0.4131,2.26378 0.43031,0.73744 1.34257,0.73744 0.91226,0 1.30815,-0.70314 0.4131,-0.7203 0.43031,-2.17804 z m 10.2156,7.68313 h -2.4958 v -9.55247 l -2.96055,0.90894 v -2.00653 l 5.18095,-1.85219 h 0.2754 z m 9.88857,-4.99061 q -0.98111,0.94324 -2.27205,0.94324 -1.66961,0 -2.66793,-1.13189 -0.99833,-1.13189 -0.99833,-3.06983 0,-1.21763 0.53359,-2.24662 0.5508,-1.02899 1.5147,-1.59494 0.9639,-0.56594 2.16877,-0.56594 1.2393,0 2.2032,0.61739 0.96389,0.6174 1.49748,1.78359 0.53359,1.14903 0.53359,2.64107 v 0.90894 q 0,3.12127 -1.56634,4.90486 -1.54912,1.78358 -4.40639,1.92078 h -0.60244 v -2.07513 h 0.5508 q 3.23595,-0.15435 3.51135,-3.03552 z m -1.66961,-0.94324 q 0.60243,0 1.03275,-0.3087 0.44752,-0.3087 0.67128,-0.75459 v -1.01185 q 0,-1.26909 -0.48195,-1.95508 -0.48195,-0.70314 -1.29093,-0.70314 -0.75735,0 -1.2393,0.686 -0.48195,0.68599 -0.48195,1.71498 0,1.01184 0.46474,1.68069 0.48195,0.65169 1.32536,0.65169 z m 10.9041,1.57778 h -4.85392 v -1.98938 h 4.85392 z m 10.32748,-0.80604 q 0,2.58963 -1.08438,3.96162 -1.06717,1.37198 -3.14988,1.37198 -2.04829,0 -3.13267,-1.33768 -1.08439,-1.35485 -1.1016,-3.87587 v -2.29808 q 0,-2.60677 1.08438,-3.96162 1.08439,-1.35483 3.13267,-1.35483 2.04829,0 3.13267,1.33769 1.08439,1.33769 1.11881,3.85871 z m -2.4958,-2.52102 q 0,-1.56065 -0.43032,-2.26378 -0.41309,-0.70315 -1.32536,-0.70315 -0.87783,0 -1.29093,0.66885 -0.4131,0.66883 -0.44752,2.10942 v 3.03553 q 0,1.52633 0.41309,2.26378 0.43032,0.73744 1.34258,0.73744 0.91226,0 1.30814,-0.70314 0.4131,-0.7203 0.43032,-2.17804 z m 10.92131,-4.93916 v 2.04083 h -0.24098 q -1.68682,0.0342 -2.71957,0.89179 -1.03274,0.84035 -1.23929,2.34953 0.99832,-1.01184 2.53023,-1.01184 1.63518,0 2.59908,1.16619 0.9639,1.16618 0.9639,3.06982 0,1.21764 -0.53359,2.21233 -0.53358,0.97754 -1.49748,1.52634 -0.9639,0.54879 -2.18598,0.54879 -1.97944,0 -3.20152,-1.37198 -1.22209,-1.37199 -1.22209,-3.67007 v -0.89179 q 0,-2.02368 0.77456,-3.58433 0.77456,-1.56063 2.2032,-2.40097 1.44585,-0.8575 3.35643,-0.87464 z m -2.42696,6.25969 q -0.60244,0 -1.1016,0.30869 -0.48195,0.3087 -0.72292,0.8232 v 0.75459 q 0,1.25194 0.48195,1.95508 0.49916,0.686 1.39421,0.686 0.79177,0 1.29093,-0.6174 0.49917,-0.63454 0.49917,-1.64638 0,-1.01184 -0.49917,-1.62923 -0.49916,-0.63455 -1.34257,-0.63455 z m 10.73198,2.00653 h -4.85392 v -1.98938 h 4.85392 z m 10.48239,4.35607 h -8.58902 v -1.69784 l 4.04493,-4.30461 q 0.84341,-0.90895 1.2393,-1.57779 0.39588,-0.68599 0.39588,-1.30338 0,-0.8232 -0.43031,-1.30339 -0.4131,-0.4802 -1.18766,-0.4802 -0.84341,0 -1.34257,0.5831 -0.48195,0.58309 -0.48195,1.52633 h -2.49581 q 0,-1.14904 0.5508,-2.09228 0.5508,-0.94324 1.54912,-1.47489 0.99833,-0.53164 2.25484,-0.53164 1.945,0 3.01218,0.92609 1.06717,0.92609 1.06717,2.60678 0,0.92609 -0.48195,1.88648 -0.48195,0.96039 -1.6524,2.24663 l -2.84005,2.98407 h 5.3875 z m 9.95741,-5.16211 q 0,2.58963 -1.08438,3.96162 -1.06717,1.37198 -3.14988,1.37198 -2.04828,0 -3.13267,-1.33768 -1.08439,-1.35485 -1.1016,-3.87587 v -2.29808 q 0,-2.60677 1.08439,-3.96162 1.08438,-1.35483 3.13267,-1.35483 2.04828,0 3.13267,1.33769 1.08438,1.33769 1.1188,3.85871 z m -2.4958,-2.52102 q 0,-1.56065 -0.43032,-2.26378 -0.4131,-0.70315 -1.32535,-0.70315 -0.87784,0 -1.29094,0.66885 -0.4131,0.66883 -0.44753,2.10942 v 3.03553 q 0,1.52633 0.4131,2.26378 0.43032,0.73744 1.34258,0.73744 0.91226,0 1.30814,-0.70314 0.4131,-0.7203 0.43032,-2.17804 z m 14.60478,7.68313 h -2.49581 v -9.55247 l -2.96055,0.90894 v -2.00653 l 5.18096,-1.85219 h 0.2754 z m 4.43221,-6.13965 0.72293,-6.34544 h 7.02267 v 2.05798 h -4.97439 l -0.30983,2.69252 q 0.87784,-0.4802 1.87617,-0.4802 1.79009,0 2.80561,1.11475 1.01554,1.09759 1.01554,3.08697 0,1.21764 -0.51637,2.17803 -0.49917,0.94324 -1.46306,1.47488 -0.94668,0.53165 -2.25482,0.53165 -1.13603,0 -2.11714,-0.46305 -0.9639,-0.46304 -1.53191,-1.28623 -0.5508,-0.84035 -0.58522,-1.90364 h 2.46138 q 0.0688,0.78889 0.53359,1.21765 0.48195,0.42874 1.2393,0.42874 0.8434,0 1.29093,-0.60024 0.46474,-0.60025 0.46474,-1.71499 0,-1.06329 -0.53359,-1.62924 -0.51638,-0.56594 -1.48028,-0.56594 -0.89504,0 -1.44584,0.46304 l -0.24098,0.22296 z m 9.9574,4.922 q 0,-0.60024 0.3959,-0.96039 0.4131,-0.3773 1.01553,-0.3773 0.60244,0 0.99832,0.3773 0.4131,0.36015 0.4131,0.96039 0,0.5831 -0.39588,0.96039 -0.39589,0.36015 -1.01554,0.36015 -0.61965,0 -1.01553,-0.36015 -0.3959,-0.37729 -0.3959,-0.96039 z m 0,-7.03144 q 0,-0.60023 0.3959,-0.96039 0.4131,-0.37729 1.01553,-0.37729 0.60244,0 0.99832,0.37729 0.4131,0.36016 0.4131,0.96039 0,0.5831 -0.39588,0.9604 -0.39589,0.36015 -1.01554,0.36015 -0.61965,0 -1.01553,-0.36015 -0.3959,-0.3773 -0.3959,-0.9604 z m 13.20197,3.08698 q 0,2.58963 -1.08439,3.96162 -1.06717,1.37198 -3.14987,1.37198 -2.04829,0 -3.13267,-1.33768 -1.08439,-1.35485 -1.1016,-3.87587 v -2.29808 q 0,-2.60677 1.08438,-3.96162 1.08439,-1.35483 3.13267,-1.35483 2.04829,0 3.13267,1.33769 1.08439,1.33769 1.11881,3.85871 z m -2.49581,-2.52102 q 0,-1.56065 -0.43031,-2.26378 -0.4131,-0.70315 -1.32536,-0.70315 -0.87783,0 -1.29093,0.66885 -0.4131,0.66883 -0.44753,2.10942 v 3.03553 q 0,1.52633 0.4131,2.26378 0.43031,0.73744 1.34258,0.73744 0.91225,0 1.30814,-0.70314 0.4131,-0.7203 0.43031,-2.17804 z m 12.60813,2.52102 q 0,2.58963 -1.08438,3.96162 -1.06717,1.37198 -3.14989,1.37198 -2.04827,0 -3.13267,-1.33768 -1.08438,-1.35485 -1.10159,-3.87587 v -2.29808 q 0,-2.60677 1.08439,-3.96162 1.08438,-1.35483 3.13267,-1.35483 2.04828,0 3.13267,1.33769 1.08438,1.33769 1.1188,3.85871 z m -2.4958,-2.52102 q 0,-1.56065 -0.43032,-2.26378 -0.4131,-0.70315 -1.32535,-0.70315 -0.87784,0 -1.29094,0.66885 -0.4131,0.66883 -0.44753,2.10942 v 3.03553 q 0,1.52633 0.4131,2.26378 0.43032,0.73744 1.34257,0.73744 0.91227,0 1.30815,-0.70314 0.4131,-0.7203 0.43032,-2.17804 z"
         fill-rule="nonzero"
         id="path13"
         style="stroke-width:1.09959" />
      <path
         fill="#000000"
         d="m 174.13826,-124.36798 h -8.58903 v -1.69783 l 4.04493,-4.30462 q 0.84342,-0.90893 1.2393,-1.57778 0.39589,-0.686 0.39589,-1.30339 0,-0.82319 -0.43031,-1.30339 -0.4131,-0.4802 -1.18766,-0.4802 -0.84341,0 -1.34258,0.5831 -0.48194,0.58309 -0.48194,1.52634 h -2.49581 q 0,-1.14904 0.5508,-2.09228 0.55079,-0.94325 1.54912,-1.47489 0.99832,-0.53165 2.25483,-0.53165 1.94501,0 3.01218,0.92609 1.06718,0.9261 1.06718,2.60678 0,0.92609 -0.48195,1.88648 -0.48195,0.96039 -1.6524,2.24664 l -2.84006,2.98407 h 5.38751 z m 9.95741,-5.1621 q 0,2.58962 -1.08439,3.96161 -1.06717,1.37199 -3.14988,1.37199 -2.04828,0 -3.13267,-1.33769 -1.08438,-1.35483 -1.1016,-3.87587 v -2.29808 q 0,-2.60677 1.08439,-3.9616 1.08439,-1.35485 3.13267,-1.35485 2.04828,0 3.13267,1.33769 1.08439,1.33769 1.11881,3.85872 z m -2.49581,-2.52103 q 0,-1.56063 -0.43031,-2.26378 -0.4131,-0.70314 -1.32536,-0.70314 -0.87784,0 -1.29094,0.66884 -0.41309,0.66885 -0.44752,2.10943 v 3.03552 q 0,1.52634 0.4131,2.26378 0.43031,0.73745 1.34257,0.73745 0.91226,0 1.30815,-0.70315 0.4131,-0.72029 0.43031,-2.17802 z m 10.2156,7.68313 h -2.4958 v -9.55246 l -2.96055,0.90894 v -2.00653 l 5.18095,-1.85218 h 0.2754 z m 9.88857,-4.9906 q -0.98111,0.94323 -2.27205,0.94323 -1.66961,0 -2.66793,-1.13189 -0.99833,-1.13189 -0.99833,-3.06981 0,-1.21765 0.53359,-2.24664 0.5508,-1.02899 1.5147,-1.59493 0.9639,-0.56595 2.16877,-0.56595 1.2393,0 2.2032,0.6174 0.96389,0.61739 1.49748,1.78358 0.53359,1.14905 0.53359,2.64108 v 0.90894 q 0,3.12127 -1.56634,4.90486 -1.54912,1.78358 -4.40639,1.92078 h -0.60244 v -2.07514 h 0.5508 q 3.23595,-0.15434 3.51135,-3.03551 z m -1.66961,-0.94325 q 0.60243,0 1.03275,-0.3087 0.44752,-0.30869 0.67128,-0.75459 v -1.01183 q 0,-1.26909 -0.48195,-1.95509 -0.48195,-0.70315 -1.29093,-0.70315 -0.75735,0 -1.2393,0.686 -0.48195,0.68599 -0.48195,1.71498 0,1.01185 0.46474,1.68069 0.48195,0.65169 1.32536,0.65169 z m 10.9041,1.57779 h -4.85392 v -1.98939 h 4.85392 z m 10.32748,-0.80604 q 0,2.58962 -1.08438,3.96161 -1.06717,1.37199 -3.14988,1.37199 -2.04829,0 -3.13267,-1.33769 -1.08439,-1.35483 -1.1016,-3.87587 v -2.29808 q 0,-2.60677 1.08438,-3.9616 1.08439,-1.35485 3.13267,-1.35485 2.04829,0 3.13267,1.33769 1.08439,1.33769 1.11881,3.85872 z m -2.4958,-2.52103 q 0,-1.56063 -0.43032,-2.26378 -0.41309,-0.70314 -1.32536,-0.70314 -0.87783,0 -1.29093,0.66884 -0.4131,0.66885 -0.44752,2.10943 v 3.03552 q 0,1.52634 0.41309,2.26378 0.43032,0.73745 1.34258,0.73745 0.91226,0 1.30814,-0.70315 0.4131,-0.72029 0.43032,-2.17802 z m 10.92131,-4.93916 v 2.04084 h -0.24098 q -1.68682,0.0342 -2.71957,0.89179 -1.03274,0.84034 -1.23929,2.34952 0.99832,-1.01183 2.53023,-1.01183 1.63518,0 2.59908,1.16619 0.9639,1.16619 0.9639,3.06981 0,1.21765 -0.53359,2.21234 -0.53358,0.97754 -1.49748,1.52633 -0.9639,0.5488 -2.18598,0.5488 -1.97944,0 -3.20152,-1.37199 -1.22209,-1.37199 -1.22209,-3.67007 v -0.89179 q 0,-2.02368 0.77456,-3.58431 0.77456,-1.56064 2.2032,-2.40098 1.44585,-0.85749 3.35643,-0.87465 z m -2.42696,6.2597 q -0.60244,0 -1.1016,0.3087 -0.48195,0.30869 -0.72292,0.82319 v 0.75459 q 0,1.25194 0.48195,1.95509 0.49916,0.68599 1.39421,0.68599 0.79177,0 1.29093,-0.6174 0.49917,-0.63455 0.49917,-1.64638 0,-1.01185 -0.49917,-1.62924 -0.49916,-0.63454 -1.34257,-0.63454 z m 10.73198,2.00653 h -4.85392 v -1.98939 h 4.85392 z m 10.48239,4.35606 h -8.58902 v -1.69783 l 4.04493,-4.30462 q 0.84341,-0.90893 1.2393,-1.57778 0.39588,-0.686 0.39588,-1.30339 0,-0.82319 -0.43031,-1.30339 -0.4131,-0.4802 -1.18766,-0.4802 -0.84341,0 -1.34257,0.5831 -0.48195,0.58309 -0.48195,1.52634 h -2.49581 q 0,-1.14904 0.5508,-2.09228 0.5508,-0.94325 1.54912,-1.47489 0.99833,-0.53165 2.25484,-0.53165 1.945,0 3.01218,0.92609 1.06717,0.9261 1.06717,2.60678 0,0.92609 -0.48195,1.88648 -0.48195,0.96039 -1.6524,2.24664 l -2.84005,2.98407 h 5.3875 z m 9.95741,-5.1621 q 0,2.58962 -1.08438,3.96161 -1.06717,1.37199 -3.14988,1.37199 -2.04828,0 -3.13267,-1.33769 -1.08439,-1.35483 -1.1016,-3.87587 v -2.29808 q 0,-2.60677 1.08439,-3.9616 1.08438,-1.35485 3.13267,-1.35485 2.04828,0 3.13267,1.33769 1.08438,1.33769 1.1188,3.85872 z m -2.4958,-2.52103 q 0,-1.56063 -0.43032,-2.26378 -0.4131,-0.70314 -1.32535,-0.70314 -0.87784,0 -1.29094,0.66884 -0.4131,0.66885 -0.44753,2.10943 v 3.03552 q 0,1.52634 0.4131,2.26378 0.43032,0.73745 1.34258,0.73745 0.91226,0 1.30814,-0.70315 0.4131,-0.72029 0.43032,-2.17802 z m 14.60478,7.68313 h -2.49581 v -9.55246 l -2.96055,0.90894 v -2.00653 l 5.18096,-1.85218 h 0.2754 z m 10.81803,-12.62229 v 2.04084 h -0.24097 q -1.68682,0.0342 -2.71957,0.89179 -1.03275,0.84034 -1.2393,2.34952 0.99832,-1.01183 2.53024,-1.01183 1.63518,0 2.59907,1.16619 0.96389,1.16619 0.96389,3.06981 0,1.21765 -0.53358,2.21234 -0.53359,0.97754 -1.49748,1.52633 -0.96389,0.5488 -2.18597,0.5488 -1.97944,0 -3.20152,-1.37199 -1.22209,-1.37199 -1.22209,-3.67007 v -0.89179 q 0,-2.02368 0.77456,-3.58431 0.77456,-1.56064 2.2032,-2.40098 1.44585,-0.85749 3.35642,-0.87465 z m -2.42695,6.2597 q -0.60244,0 -1.1016,0.3087 -0.48195,0.30869 -0.72292,0.82319 v 0.75459 q 0,1.25194 0.48195,1.95509 0.49915,0.68599 1.3942,0.68599 0.79178,0 1.29094,-0.6174 0.49916,-0.63455 0.49916,-1.64638 0,-1.01185 -0.49916,-1.62924 -0.49916,-0.63454 -1.34257,-0.63454 z m 5.99853,5.14495 q 0,-0.60025 0.3959,-0.96039 0.4131,-0.37729 1.01553,-0.37729 0.60244,0 0.99832,0.37729 0.4131,0.36014 0.4131,0.96039 0,0.5831 -0.39588,0.96039 -0.39589,0.36015 -1.01554,0.36015 -0.61965,0 -1.01553,-0.36015 -0.3959,-0.37729 -0.3959,-0.96039 z m 0,-7.03143 q 0,-0.60025 0.3959,-0.96039 0.4131,-0.3773 1.01553,-0.3773 0.60244,0 0.99832,0.3773 0.4131,0.36014 0.4131,0.96039 0,0.58309 -0.39588,0.96039 -0.39589,0.36014 -1.01554,0.36014 -0.61965,0 -1.01553,-0.36014 -0.3959,-0.3773 -0.3959,-0.96039 z m 13.20197,3.08697 q 0,2.58962 -1.08439,3.96161 -1.06717,1.37199 -3.14987,1.37199 -2.04829,0 -3.13267,-1.33769 -1.08439,-1.35483 -1.1016,-3.87587 v -2.29808 q 0,-2.60677 1.08438,-3.9616 1.08439,-1.35485 3.13267,-1.35485 2.04829,0 3.13267,1.33769 1.08439,1.33769 1.11881,3.85872 z m -2.49581,-2.52103 q 0,-1.56063 -0.43031,-2.26378 -0.4131,-0.70314 -1.32536,-0.70314 -0.87783,0 -1.29093,0.66884 -0.4131,0.66885 -0.44753,2.10943 v 3.03552 q 0,1.52634 0.4131,2.26378 0.43031,0.73745 1.34258,0.73745 0.91225,0 1.30814,-0.70315 0.4131,-0.72029 0.43031,-2.17802 z m 12.60813,2.52103 q 0,2.58962 -1.08438,3.96161 -1.06717,1.37199 -3.14989,1.37199 -2.04827,0 -3.13267,-1.33769 -1.08438,-1.35483 -1.10159,-3.87587 v -2.29808 q 0,-2.60677 1.08439,-3.9616 1.08438,-1.35485 3.13267,-1.35485 2.04828,0 3.13267,1.33769 1.08438,1.33769 1.1188,3.85872 z m -2.4958,-2.52103 q 0,-1.56063 -0.43032,-2.26378 -0.4131,-0.70314 -1.32535,-0.70314 -0.87784,0 -1.29094,0.66884 -0.4131,0.66885 -0.44753,2.10943 v 3.03552 q 0,1.52634 0.4131,2.26378 0.43032,0.73745 1.34257,0.73745 0.91227,0 1.30815,-0.70315 0.4131,-0.72029 0.43032,-2.17802 z"
         fill-rule="nonzero"
         id="path15"
         style="stroke-width:1.09959" />
    </g>
    <g
       id="g111"
       inkscape:label="variables"
       transform="translate(-160.83301,359.50909)">
      <path
         fill="#000000"
         d="m 166.3238,-331.78657 v -7.46018 h -1.377 v -1.81788 h 1.377 v -0.7889 q 0,-1.56063 0.89504,-2.41812 0.91226,-0.87465 2.53024,-0.87465 0.51637,0 1.25651,0.1715 l -0.0172,1.92078 q -0.30983,-0.0686 -0.75735,-0.0686 -1.41142,0 -1.41142,1.30338 v 0.7546 h 1.85894 v 1.81788 h -1.85894 v 7.46018 z m 9.72504,0.1715 q -2.04828,0 -3.33922,-1.25194 -1.29093,-1.25194 -1.29093,-3.34422 v -0.2401 q 0,-1.38913 0.53358,-2.48672 0.5508,-1.11474 1.54913,-1.69784 0.99832,-0.60024 2.27204,-0.60024 1.91059,0 2.99497,1.20049 1.1016,1.20049 1.1016,3.39567 v 1.01184 h -5.92109 q 0.12049,0.90894 0.72292,1.45773 0.60244,0.5488 1.53191,0.5488 1.44585,0 2.25484,-1.02899 l 1.22208,1.35484 q -0.56801,0.78889 -1.53191,1.23478 -0.94668,0.4459 -2.09992,0.4459 z m -0.29261,-7.61453 q -0.74014,0 -1.20487,0.49735 -0.44753,0.49734 -0.58523,1.42343 h 3.45971 v -0.2058 q -0.0172,-0.82319 -0.44753,-1.26908 -0.43031,-0.4459 -1.22208,-0.4459 z m 9.40661,5.608 q 0.6885,0 1.11881,-0.3773 0.43032,-0.37729 0.44753,-0.99469 h 2.32368 q 0,0.94324 -0.51637,1.73214 -0.49916,0.77174 -1.39421,1.21763 -0.87784,0.42875 -1.94501,0.42875 -1.99665,0 -3.14988,-1.26909 -1.15324,-1.26909 -1.15324,-3.49857 v -0.15434 q 0,-2.14374 1.13602,-3.41282 1.15324,-1.28624 3.14989,-1.28624 1.75567,0 2.80563,0.99469 1.04996,0.97754 1.06717,2.62392 h -2.32368 q -0.0172,-0.72029 -0.44753,-1.16618 -0.43031,-0.4459 -1.13602,-0.4459 -0.87784,0 -1.32536,0.63454 -0.43031,0.6174 -0.43031,2.04084 v 0.25724 q 0,1.42344 0.43031,2.05798 0.44752,0.6174 1.34257,0.6174 z m 7.74561,-6.43119 q 0.98112,-1.18334 2.4786,-1.18334 3.0294,0 3.08103,3.49857 v 5.95099 h -2.49581 v -5.88239 q 0,-0.7889 -0.34424,-1.16619 -0.34425,-0.39445 -1.13603,-0.39445 -1.1016,0 -1.58355,0.84034 v 6.60269 h -2.4958 v -13.17108 h 2.4958 z m 12.8233,8.26622 q -0.17213,-0.343 -0.24098,-0.84034 -0.91226,1.01184 -2.35811,1.01184 -1.35978,0 -2.27204,-0.78889 -0.89505,-0.7889 -0.89505,-1.98938 0,-1.47489 1.1016,-2.26378 1.10159,-0.7889 3.16709,-0.80605 h 1.15324 v -0.53164 q 0,-0.63455 -0.34425,-1.01184 -0.32704,-0.39445 -1.03275,-0.39445 -0.63686,0 -0.99833,0.3087 -0.34424,0.29155 -0.34424,0.80604 h -2.49581 q 0,-0.80604 0.49916,-1.49204 0.49916,-0.68599 1.41142,-1.06329 0.91226,-0.39444 2.04829,-0.39444 1.72124,0 2.73678,0.85749 1.01553,0.85749 1.01553,2.41813 v 4.03021 q 0,1.32054 0.36147,1.98938 v 0.15435 z m -2.04829,-1.73213 q 0.5508,0 1.01554,-0.2401 0.46473,-0.2401 0.6885,-0.65169 v -1.59494 h -0.92948 q -1.87616,0 -1.99664,1.28624 v 0.1372 q 0,0.46304 0.32703,0.77174 0.32704,0.29155 0.89505,0.29155 z"
         fill-rule="nonzero"
         id="path5"
         style="stroke-width:1.09959" />
      <path
         fill="#000000"
         d="m 355.42243,-334.35904 h -4.52689 l -0.86062,2.57247 h -2.73678 l 4.66458,-12.48508 h 2.39254 l 4.68179,12.48508 h -2.73679 z m -3.82117,-2.09229 h 3.13267 l -1.58355,-4.66475 z m 12.32413,2.82973 q 0.6885,0 1.1188,-0.3773 0.43032,-0.37729 0.44753,-0.99469 h 2.32369 q 0,0.94324 -0.51638,1.73214 -0.49916,0.77174 -1.39421,1.21763 -0.87783,0.42875 -1.94501,0.42875 -1.99664,0 -3.14988,-1.26909 -1.15323,-1.26909 -1.15323,-3.49857 v -0.15434 q 0,-2.14374 1.13602,-3.41282 1.15323,-1.28624 3.14988,-1.28624 1.75567,0 2.80564,0.99469 1.04995,0.97754 1.06717,2.62392 h -2.32369 q -0.0172,-0.72029 -0.44753,-1.16618 -0.4303,-0.4459 -1.13602,-0.4459 -0.87783,0 -1.32535,0.63454 -0.43032,0.6174 -0.43032,2.04084 v 0.25724 q 0,1.42344 0.43032,2.05798 0.44752,0.6174 1.34257,0.6174 z m 10.70616,1.83503 q -0.17213,-0.343 -0.24098,-0.84034 -0.91226,1.01184 -2.35811,1.01184 -1.35978,0 -2.27205,-0.78889 -0.89505,-0.7889 -0.89505,-1.98938 0,-1.47489 1.1016,-2.26378 1.1016,-0.7889 3.1671,-0.80605 h 1.15324 v -0.53164 q 0,-0.63455 -0.34425,-1.01184 -0.32704,-0.39445 -1.03275,-0.39445 -0.63687,0 -0.99832,0.3087 -0.34425,0.29155 -0.34425,0.80604 h -2.49582 q 0,-0.80604 0.49917,-1.49204 0.49916,-0.68599 1.41142,-1.06329 0.91226,-0.39444 2.04828,-0.39444 1.72125,0 2.73679,0.85749 1.01553,0.85749 1.01553,2.41813 v 4.03021 q 0,1.32054 0.36147,1.98938 v 0.15435 z m -2.04829,-1.73213 q 0.5508,0 1.01554,-0.2401 0.46473,-0.2401 0.6885,-0.65169 v -1.59494 h -0.92948 q -1.87616,0 -1.99664,1.28624 v 0.1372 q 0,0.46304 0.32703,0.77174 0.32704,0.29155 0.89505,0.29155 z m 9.98323,-0.1029 q 0.6885,0 1.11882,-0.3773 0.4303,-0.37729 0.44752,-0.99469 h 2.32368 q 0,0.94324 -0.51638,1.73214 -0.49915,0.77174 -1.3942,1.21763 -0.87784,0.42875 -1.94502,0.42875 -1.99664,0 -3.14987,-1.26909 -1.15324,-1.26909 -1.15324,-3.49857 v -0.15434 q 0,-2.14374 1.13602,-3.41282 1.15324,-1.28624 3.14989,-1.28624 1.75567,0 2.80562,0.99469 1.04997,0.97754 1.06718,2.62392 h -2.32368 q -0.0172,-0.72029 -0.44752,-1.16618 -0.43032,-0.4459 -1.13603,-0.4459 -0.87784,0 -1.32536,0.63454 -0.43031,0.6174 -0.43031,2.04084 v 0.25724 q 0,1.42344 0.43031,2.05798 0.44752,0.6174 1.34257,0.6174 z m 7.93495,1.83503 h -2.49581 v -9.27806 h 2.49581 z m -2.63351,-11.67904 q 0,-0.56595 0.36147,-0.92609 0.37867,-0.36015 1.03275,-0.36015 0.63685,0 1.01553,0.36015 0.37867,0.36014 0.37867,0.92609 0,0.56594 -0.39588,0.92609 -0.37867,0.36015 -1.01554,0.36015 -0.61965,0 -0.99833,-0.36015 -0.37867,-0.36015 -0.37867,-0.92609 z"
         fill-rule="nonzero"
         id="path18"
         style="stroke-width:1.09959" />
      <path
         fill="#000000"
         d="m 437.93617,-334.35904 h -4.52689 l -0.86062,2.57247 h -2.73678 l 4.66458,-12.48508 h 2.39254 l 4.68179,12.48508 H 438.814 Z m -3.82117,-2.09229 h 3.13267 l -1.58355,-4.66475 z m 11.06761,4.66476 h -2.4958 v -13.17108 h 2.4958 z m 4.34616,-9.27806 0.0688,1.06329 q 0.99832,-1.23479 2.68515,-1.23479 1.48027,0 2.20319,0.87464 0.72293,0.85749 0.74013,2.57248 v 6.00244 h -2.4958 v -5.93384 q 0,-0.7889 -0.34425,-1.14904 -0.34425,-0.36015 -1.13602,-0.36015 -1.04997,0 -1.58355,0.89179 v 6.55124 h -2.47859 v -9.27806 z m 13.15893,8.33482 q -0.92947,1.11474 -2.54744,1.11474 -1.49749,0 -2.28927,-0.85749 -0.79177,-0.85749 -0.80898,-2.52103 v -6.07104 h 2.4958 v 5.98529 q 0,1.45774 1.32537,1.45774 1.25651,0 1.73845,-0.87464 v -6.56839 h 2.49582 v 9.27806 h -2.3409 z m 9.32916,-1.62923 q 0,-0.4459 -0.46474,-0.70315 -0.44753,-0.2744 -1.44585,-0.48019 -3.322,-0.686 -3.322,-2.81258 0,-1.23479 1.03275,-2.05798 1.03275,-0.82319 2.68514,-0.82319 1.77288,0 2.84006,0.84034 1.06717,0.82319 1.06717,2.14373 h -2.4958 q 0,-0.53164 -0.34425,-0.87464 -0.34425,-0.343 -1.06718,-0.343 -0.63686,0 -0.98111,0.29155 -0.34425,0.2744 -0.34425,0.70314 0,0.4116 0.39589,0.66885 0.39588,0.25724 1.32536,0.44589 0.92947,0.1715 1.56634,0.4116 1.96222,0.72029 1.96222,2.48673 0,1.26908 -1.1016,2.05798 -1.08439,0.78889 -2.80564,0.78889 -1.17045,0 -2.0827,-0.4116 -0.91227,-0.42874 -1.42864,-1.14904 -0.51638,-0.72029 -0.51638,-1.56063 h 2.35812 q 0.0344,0.65169 0.48195,1.01184 0.46473,0.343 1.23929,0.343 0.70571,0 1.06718,-0.25725 0.37867,-0.2744 0.37867,-0.72029 z"
         fill-rule="nonzero"
         id="path21"
         style="stroke-width:1.09959" />
      <path
         fill="#000000"
         d="m 524.58237,-334.35904 h -4.52689 l -0.86062,2.57247 h -2.73678 l 4.66458,-12.48508 h 2.39254 l 4.68179,12.48508 h -2.73679 z m -3.82117,-2.09229 h 3.13267 l -1.58355,-4.66475 z m 11.06761,4.66476 h -2.4958 v -13.17108 h 2.4958 z m 5.03466,-11.55899 v 2.28093 h 1.58355 v 1.81788 h -1.58355 v 4.63046 q 0,0.51449 0.18933,0.73744 0.20655,0.22295 0.75735,0.22295 0.4131,0 0.74014,-0.0686 v 1.88648 q -0.74014,0.22295 -1.5147,0.22295 -2.61629,0 -2.66793,-2.64108 v -4.9906 h -1.35978 v -1.81788 h 1.35978 v -2.28093 z m 7.26366,11.73049 q -2.04829,0 -3.33922,-1.25194 -1.29094,-1.25194 -1.29094,-3.34422 v -0.2401 q 0,-1.38913 0.53359,-2.48672 0.5508,-1.11474 1.54913,-1.69784 0.99832,-0.60024 2.27204,-0.60024 1.91058,0 2.99497,1.20049 1.1016,1.20049 1.1016,3.39567 v 1.01184 h -5.92109 q 0.12048,0.90894 0.72292,1.45773 0.60243,0.5488 1.53191,0.5488 1.44585,0 2.25484,-1.02899 l 1.22208,1.35484 q -0.56801,0.78889 -1.53191,1.23478 -0.94669,0.4459 -2.09992,0.4459 z m -0.29262,-7.61453 q -0.74013,0 -1.20487,0.49735 -0.44752,0.49734 -0.58522,1.42343 h 3.45971 v -0.2058 q -0.0172,-0.82319 -0.44753,-1.26908 -0.43031,-0.4459 -1.22209,-0.4459 z m 10.76641,0.4802 q -0.51638,-0.0686 -0.89505,-0.0686 -1.41142,0 -1.85895,0.96039 v 6.07104 h -2.47859 v -9.27806 h 2.34089 l 0.0688,1.09759 q 0.75735,-1.26909 2.08271,-1.26909 0.41309,0 0.77456,0.1029 z"
         fill-rule="nonzero"
         id="path24"
         style="stroke-width:1.09959" />
      <path
         fill="#000000"
         d="m 601.51633,-334.35904 h -4.52689 l -0.86062,2.57247 h -2.73678 l 4.66458,-12.48508 h 2.39253 l 4.6818,12.48508 h -2.73679 z m -3.82117,-2.09229 h 3.13267 l -1.58355,-4.66475 z m 10.36191,-4.6133 0.086,1.02899 q 0.98112,-1.20049 2.66794,-1.20049 1.8073,0 2.4786,1.40629 0.9811,-1.40629 2.78842,-1.40629 1.51469,0 2.25482,0.87464 0.74015,0.87464 0.74015,2.64108 v 5.93384 h -2.49582 v -5.91669 q 0,-0.7889 -0.30982,-1.14904 -0.30983,-0.3773 -1.08438,-0.3773 -1.11882,0 -1.54913,1.06329 v 6.37974 h -2.47859 v -5.91669 q 0,-0.80605 -0.32704,-1.16619 -0.30983,-0.36015 -1.08438,-0.36015 -1.04997,0 -1.53192,0.87464 v 6.56839 h -2.47859 v -9.27806 z m 18.32267,9.27806 q -0.17213,-0.343 -0.24098,-0.84034 -0.91225,1.01184 -2.3581,1.01184 -1.35979,0 -2.27205,-0.78889 -0.89504,-0.7889 -0.89504,-1.98938 0,-1.47489 1.10159,-2.26378 1.1016,-0.7889 3.1671,-0.80605 h 1.15323 v -0.53164 q 0,-0.63455 -0.34425,-1.01184 -0.32703,-0.39445 -1.03275,-0.39445 -0.63685,0 -0.99832,0.3087 -0.34425,0.29155 -0.34425,0.80604 h -2.4958 q 0,-0.80604 0.49915,-1.49204 0.49917,-0.68599 1.41142,-1.06329 0.91227,-0.39444 2.04829,-0.39444 1.72125,0 2.73678,0.85749 1.01554,0.85749 1.01554,2.41813 v 4.03021 q 0,1.32054 0.36146,1.98938 v 0.15435 z m -2.04828,-1.73213 q 0.5508,0 1.01553,-0.2401 0.46474,-0.2401 0.6885,-0.65169 v -1.59494 h -0.92947 q -1.87616,0 -1.99665,1.28624 v 0.1372 q 0,0.46304 0.32704,0.77174 0.32703,0.29155 0.89505,0.29155 z m 11.34301,-5.2307 q -0.51637,-0.0686 -0.89505,-0.0686 -1.41142,0 -1.85894,0.96039 v 6.07104 h -2.4786 v -9.27806 h 2.3409 l 0.0688,1.09759 q 0.75735,-1.26909 2.08271,-1.26909 0.4131,0 0.77456,0.1029 z m 6.32559,6.96283 q -0.17213,-0.343 -0.24098,-0.84034 -0.91226,1.01184 -2.35811,1.01184 -1.35978,0 -2.27205,-0.78889 -0.89505,-0.7889 -0.89505,-1.98938 0,-1.47489 1.1016,-2.26378 1.1016,-0.7889 3.1671,-0.80605 h 1.15324 v -0.53164 q 0,-0.63455 -0.34425,-1.01184 -0.32704,-0.39445 -1.03275,-0.39445 -0.63687,0 -0.99832,0.3087 -0.34425,0.29155 -0.34425,0.80604 h -2.49582 q 0,-0.80604 0.49917,-1.49204 0.49916,-0.68599 1.41142,-1.06329 0.91226,-0.39444 2.04828,-0.39444 1.72125,0 2.73679,0.85749 1.01553,0.85749 1.01553,2.41813 v 4.03021 q 0,1.32054 0.36147,1.98938 v 0.15435 z m -2.04829,-1.73213 q 0.5508,0 1.01554,-0.2401 0.46473,-0.2401 0.6885,-0.65169 v -1.59494 h -0.92948 q -1.87616,0 -1.99664,1.28624 v 0.1372 q 0,0.46304 0.32703,0.77174 0.32704,0.29155 0.89505,0.29155 z"
         fill-rule="nonzero"
         id="path27"
         style="stroke-width:1.09959" />
      <path
         fill="#000000"
         d="m 684.06324,-334.35904 h -4.52689 l -0.86062,2.57247 h -2.73678 l 4.66458,-12.48508 h 2.39253 l 4.6818,12.48508 h -2.73679 z m -3.82117,-2.09229 h 3.13267 l -1.58355,-4.66475 z m 10.36191,-4.6133 0.086,1.02899 q 0.98112,-1.20049 2.66794,-1.20049 1.8073,0 2.47859,1.40629 0.98111,-1.40629 2.78843,-1.40629 1.51469,0 2.25482,0.87464 0.74014,0.87464 0.74014,2.64108 v 5.93384 h -2.49581 v -5.91669 q 0,-0.7889 -0.30982,-1.14904 -0.30983,-0.3773 -1.08438,-0.3773 -1.11882,0 -1.54913,1.06329 v 6.37974 h -2.47859 v -5.91669 q 0,-0.80605 -0.32704,-1.16619 -0.30983,-0.36015 -1.08438,-0.36015 -1.04997,0 -1.53192,0.87464 v 6.56839 h -2.4786 v -9.27806 z m 21.3176,4.7162 q 0,2.22948 -0.96389,3.48142 -0.94668,1.25194 -2.65072,1.25194 -1.5147,0 -2.42696,-1.16619 l -0.10322,0.99469 h -2.23758 v -13.17108 h 2.47856 v 4.71621 q 0.86062,-0.99469 2.27204,-0.99469 1.70403,0 2.66793,1.25194 0.9639,1.23479 0.9639,3.49856 z m -2.47859,-0.1715 q 0,-1.40628 -0.44753,-2.05798 -0.44752,-0.65169 -1.34257,-0.65169 -1.18765,0 -1.63518,0.97754 v 3.65292 q 0.46473,0.97754 1.6524,0.97754 1.20487,0 1.58355,-1.18334 0.18933,-0.56595 0.18933,-1.71499 z m 9.2517,-2.22947 q -0.51637,-0.0686 -0.89504,-0.0686 -1.41143,0 -1.85895,0.96039 v 6.07104 h -2.4786 v -9.27806 h 2.3409 l 0.0688,1.09759 q 0.75735,-1.26909 2.0827,-1.26909 0.4131,0 0.77457,0.1029 z m 0.49056,2.22947 q 0,-1.37198 0.53359,-2.45242 0.53358,-1.08044 1.5319,-1.66354 1.01554,-0.60024 2.3409,-0.60024 1.87616,0 3.06382,1.14904 1.20487,1.14904 1.34257,3.12127 l 0.0172,0.63454 q 0,2.12658 -1.20488,3.42997 -1.18766,1.28624 -3.20152,1.28624 -2.01386,0 -3.21873,-1.28624 -1.20488,-1.28624 -1.20488,-3.49857 z m 2.49581,0.18865 q 0,1.32054 0.49916,2.02368 0.49916,0.686 1.42864,0.686 0.89505,0 1.3942,-0.686 0.51638,-0.68599 0.51638,-2.21233 0,-1.28623 -0.51638,-1.98938 -0.49915,-0.72029 -1.41142,-0.72029 -0.91226,0 -1.41142,0.70314 -0.49916,0.70315 -0.49916,2.19518 z"
         fill-rule="nonzero"
         id="path30"
         style="stroke-width:1.09959" />
      <path
         fill="#000000"
         d="m 772.62293,-334.35904 h -4.52688 l -0.86062,2.57247 h -2.73678 l 4.66457,-12.48508 h 2.39254 l 4.68179,12.48508 h -2.73679 z m -3.82116,-2.09229 h 3.13266 l -1.58354,-4.66475 z m 13.49457,2.09229 q 0,-0.4459 -0.46474,-0.70315 -0.44752,-0.2744 -1.44585,-0.48019 -3.322,-0.686 -3.322,-2.81258 0,-1.23479 1.03275,-2.05798 1.03275,-0.82319 2.68514,-0.82319 1.77288,0 2.84006,0.84034 1.06717,0.82319 1.06717,2.14373 h -2.4958 q 0,-0.53164 -0.34425,-0.87464 -0.34425,-0.343 -1.06718,-0.343 -0.63686,0 -0.98111,0.29155 -0.34425,0.2744 -0.34425,0.70314 0,0.4116 0.39589,0.66885 0.39588,0.25724 1.32536,0.44589 0.92947,0.1715 1.56634,0.4116 1.96222,0.72029 1.96222,2.48673 0,1.26908 -1.1016,2.05798 -1.08439,0.78889 -2.80564,0.78889 -1.17045,0 -2.0827,-0.4116 -0.91227,-0.42874 -1.42864,-1.14904 -0.51638,-0.72029 -0.51638,-1.56063 h 2.35812 q 0.0344,0.65169 0.48195,1.01184 0.46473,0.343 1.23929,0.343 0.70571,0 1.06718,-0.25725 0.37867,-0.2744 0.37867,-0.72029 z m 6.99687,-8.98652 v 2.28093 h 1.58355 v 1.81788 h -1.58355 v 4.63046 q 0,0.51449 0.18934,0.73744 0.20655,0.22295 0.75735,0.22295 0.4131,0 0.74013,-0.0686 v 1.88648 q -0.74013,0.22295 -1.5147,0.22295 -2.61629,0 -2.66792,-2.64108 v -4.9906 h -1.35979 v -1.81788 h 1.35979 v -2.28093 z m 7.26366,11.73049 q -2.04828,0 -3.33922,-1.25194 -1.29093,-1.25194 -1.29093,-3.34422 v -0.2401 q 0,-1.38913 0.53358,-2.48672 0.5508,-1.11474 1.54913,-1.69784 0.99832,-0.60024 2.27204,-0.60024 1.91059,0 2.99497,1.20049 1.1016,1.20049 1.1016,3.39567 v 1.01184 h -5.92109 q 0.12049,0.90894 0.72292,1.45773 0.60245,0.5488 1.53192,0.5488 1.44585,0 2.25483,-1.02899 l 1.22209,1.35484 q -0.56802,0.78889 -1.53192,1.23478 -0.94668,0.4459 -2.09992,0.4459 z m -0.29261,-7.61453 q -0.74014,0 -1.20487,0.49735 -0.44752,0.49734 -0.58522,1.42343 h 3.4597 v -0.2058 q -0.0172,-0.82319 -0.44753,-1.26908 -0.4303,-0.4459 -1.22208,-0.4459 z m 10.7664,0.4802 q -0.51638,-0.0686 -0.89505,-0.0686 -1.41142,0 -1.85895,0.96039 v 6.07104 h -2.47859 v -9.27806 h 2.34089 l 0.0688,1.09759 q 0.75735,-1.26909 2.08272,-1.26909 0.41309,0 0.77455,0.1029 z"
         fill-rule="nonzero"
         id="path33"
         style="stroke-width:1.09959" />
      <path
         fill="#000000"
         d="m 854.92002,-335.95398 q -0.15491,2.02368 -1.49749,3.18987 -1.34257,1.14904 -3.54577,1.14904 -2.40974,0 -3.80395,-1.61208 -1.37699,-1.62924 -1.37699,-4.44181 v -0.77175 q 0,-1.80073 0.63685,-3.17272 0.63687,-1.37199 1.82452,-2.09228 1.18767,-0.73744 2.754,-0.73744 2.16877,0 3.49414,1.16619 1.32535,1.14904 1.5319,3.24132 h -2.58187 q -0.10322,-1.21764 -0.6885,-1.74929 -0.56801,-0.54879 -1.75567,-0.54879 -1.29093,0 -1.94501,0.92609 -0.63686,0.90894 -0.65407,2.84687 v 0.94325 q 0,2.02368 0.61965,2.96692 0.61965,0.92609 1.945,0.92609 1.18767,0 1.77289,-0.53164 0.60243,-0.5488 0.6885,-1.69784 z m 6.91942,4.16741 q -0.17213,-0.34299 -0.24098,-0.84034 -0.91226,1.01184 -2.35811,1.01184 -1.35978,0 -2.27205,-0.78889 -0.89505,-0.78889 -0.89505,-1.98938 0,-1.47489 1.1016,-2.26378 1.1016,-0.7889 3.1671,-0.80605 h 1.15324 v -0.53164 q 0,-0.63454 -0.34425,-1.01184 -0.32705,-0.39445 -1.03275,-0.39445 -0.63687,0 -0.99832,0.3087 -0.34425,0.29155 -0.34425,0.80604 h -2.49582 q 0,-0.80604 0.49917,-1.49203 0.49916,-0.686 1.41142,-1.06329 0.91226,-0.39445 2.04828,-0.39445 1.72125,0 2.73679,0.85749 1.01553,0.85749 1.01553,2.41813 v 4.03021 q 0,1.32054 0.36147,1.98938 v 0.15435 z m -2.04829,-1.73213 q 0.5508,0 1.01554,-0.2401 0.46473,-0.2401 0.6885,-0.65169 v -1.59494 h -0.92948 q -1.87616,0 -1.99664,1.28624 v 0.1372 q 0,0.46304 0.32703,0.77174 0.32704,0.29155 0.89505,0.29155 z m 11.15368,-0.84034 q 0,-0.4459 -0.46473,-0.70315 -0.44753,-0.27439 -1.44585,-0.48019 -3.32201,-0.686 -3.32201,-2.81258 0,-1.23479 1.03274,-2.05798 1.03275,-0.82319 2.68515,-0.82319 1.77289,0 2.84006,0.84034 1.06718,0.82319 1.06718,2.14373 h -2.49582 q 0,-0.53164 -0.34425,-0.87464 -0.34425,-0.343 -1.06717,-0.343 -0.63686,0 -0.98111,0.29155 -0.34424,0.2744 -0.34424,0.70314 0,0.4116 0.39588,0.66885 0.39589,0.25725 1.32536,0.44589 0.92948,0.1715 1.56633,0.4116 1.96222,0.72029 1.96222,2.48673 0,1.26909 -1.10159,2.05798 -1.08439,0.78889 -2.80563,0.78889 -1.17045,0 -2.08272,-0.41159 -0.91225,-0.42875 -1.42863,-1.14904 -0.51637,-0.7203 -0.51637,-1.56064 h 2.3581 q 0.0344,0.65169 0.48195,1.01184 0.46474,0.343 1.2393,0.343 0.70572,0 1.06717,-0.25725 0.37868,-0.2744 0.37868,-0.72029 z m 9.59595,1.62923 q -0.92947,1.11474 -2.54744,1.11474 -1.49748,0 -2.28926,-0.85749 -0.79177,-0.85749 -0.80899,-2.52103 v -6.07104 h 2.49582 v 5.98529 q 0,1.45774 1.32535,1.45774 1.25652,0 1.73847,-0.87464 v -6.56839 h 2.4958 v 9.27806 h -2.3409 z m 9.67341,0.94324 q -0.17212,-0.34299 -0.24097,-0.84034 -0.91226,1.01184 -2.35811,1.01184 -1.35979,0 -2.27204,-0.78889 -0.89505,-0.78889 -0.89505,-1.98938 0,-1.47489 1.1016,-2.26378 1.10159,-0.7889 3.16709,-0.80605 h 1.15323 v -0.53164 q 0,-0.63454 -0.34425,-1.01184 -0.32703,-0.39445 -1.03275,-0.39445 -0.63685,0 -0.99832,0.3087 -0.34425,0.29155 -0.34425,0.80604 h -2.4958 q 0,-0.80604 0.49915,-1.49203 0.49917,-0.686 1.41143,-1.06329 0.91226,-0.39445 2.04829,-0.39445 1.72124,0 2.73677,0.85749 1.01554,0.85749 1.01554,2.41813 v 4.03021 q 0,1.32054 0.36146,1.98938 v 0.15435 z m -2.04828,-1.73213 q 0.5508,0 1.01553,-0.2401 0.46474,-0.2401 0.6885,-0.65169 v -1.59494 h -0.92947 q -1.87616,0 -1.99665,1.28624 v 0.1372 q 0,0.46304 0.32704,0.77174 0.32704,0.29155 0.89505,0.29155 z"
         fill-rule="nonzero"
         id="path36"
         style="stroke-width:1.09959" />
      <path
         fill="#000000"
         d="m 939.63413,-335.95398 q -0.15492,2.02368 -1.49749,3.18987 -1.34257,1.14904 -3.54577,1.14904 -2.40975,0 -3.80395,-1.61208 -1.377,-1.62924 -1.377,-4.44181 v -0.77175 q 0,-1.80073 0.63686,-3.17272 0.63686,-1.37199 1.82452,-2.09228 1.18766,-0.73744 2.75399,-0.73744 2.16878,0 3.49414,1.16619 1.32536,1.14904 1.53191,3.24132 h -2.58187 q -0.10322,-1.21764 -0.6885,-1.74929 -0.56801,-0.54879 -1.75568,-0.54879 -1.29093,0 -1.945,0.92609 -0.63687,0.90894 -0.65407,2.84687 v 0.94325 q 0,2.02368 0.61965,2.96692 0.61964,0.92609 1.945,0.92609 1.18767,0 1.77289,-0.53164 0.60243,-0.5488 0.6885,-1.69784 z m 5.81781,4.33891 q -2.04829,0 -3.33922,-1.25194 -1.29094,-1.25194 -1.29094,-3.34422 v -0.24009 q 0,-1.38914 0.5336,-2.48673 0.55079,-1.11474 1.54912,-1.69784 0.99832,-0.60024 2.27204,-0.60024 1.91058,0 2.99497,1.20049 1.1016,1.20049 1.1016,3.39567 v 1.01184 h -5.92109 q 0.12048,0.90894 0.72293,1.45773 0.60243,0.5488 1.5319,0.5488 1.44585,0 2.25484,-1.02899 l 1.22208,1.35484 q -0.56801,0.78889 -1.53191,1.23479 -0.94669,0.44589 -2.09992,0.44589 z m -0.29261,-7.61453 q -0.74013,0 -1.20488,0.49735 -0.44752,0.49734 -0.58522,1.42343 h 3.45971 v -0.20579 q -0.0172,-0.8232 -0.44752,-1.26909 -0.43032,-0.4459 -1.22209,-0.4459 z m 9.40662,5.608 q 0.6885,0 1.1188,-0.3773 0.43032,-0.37729 0.44753,-0.99469 h 2.32369 q 0,0.94324 -0.51638,1.73214 -0.49916,0.77174 -1.39421,1.21764 -0.87783,0.42874 -1.94501,0.42874 -1.99664,0 -3.14988,-1.26909 -1.15323,-1.26909 -1.15323,-3.49857 v -0.15434 q 0,-2.14373 1.13602,-3.41282 1.15323,-1.28624 3.14988,-1.28624 1.75567,0 2.80563,0.99469 1.04996,0.97754 1.06718,2.62393 h -2.32369 q -0.0172,-0.7203 -0.44753,-1.16619 -0.4303,-0.4459 -1.13602,-0.4459 -0.87783,0 -1.32535,0.63454 -0.43032,0.6174 -0.43032,2.04084 v 0.25724 q 0,1.42344 0.43032,2.05799 0.44752,0.61739 1.34257,0.61739 z m 10.55124,-5.1278 q -0.51638,-0.0686 -0.89505,-0.0686 -1.41142,0 -1.85895,0.96039 v 6.07104 h -2.47859 v -9.27806 h 2.34089 l 0.0688,1.09759 q 0.75735,-1.26909 2.08272,-1.26909 0.4131,0 0.77455,0.1029 z m 0.49055,2.22948 q 0,-1.37199 0.53359,-2.45243 0.53358,-1.08044 1.53191,-1.66354 1.01554,-0.60024 2.34089,-0.60024 1.87617,0 3.06382,1.14904 1.20488,1.14904 1.34258,3.12127 l 0.0172,0.63454 q 0,2.12658 -1.20487,3.42997 -1.18767,1.28624 -3.20152,1.28624 -2.01387,0 -3.21874,-1.28624 -1.20487,-1.28624 -1.20487,-3.49857 z m 2.49581,0.18864 q 0,1.32054 0.49916,2.02369 0.49917,0.68599 1.42864,0.68599 0.89505,0 1.39421,-0.68599 0.51637,-0.686 0.51637,-2.21233 0,-1.28624 -0.51637,-1.98939 -0.49916,-0.72029 -1.41143,-0.72029 -0.91225,0 -1.41142,0.70314 -0.49916,0.70315 -0.49916,2.19518 z"
         fill-rule="nonzero"
         id="path39"
         style="stroke-width:1.09959" />
      <path
         fill="#000000"
         d="m 1022.4506,-335.95398 q -0.1549,2.02368 -1.4975,3.18987 -1.3425,1.14904 -3.5457,1.14904 -2.4098,0 -3.804,-1.61208 -1.377,-1.62924 -1.377,-4.44181 v -0.77175 q 0,-1.80073 0.6369,-3.17272 0.6368,-1.37199 1.8245,-2.09228 1.1877,-0.73744 2.754,-0.73744 2.1688,0 3.4941,1.16619 1.3254,1.14904 1.5319,3.24132 h -2.5818 q -0.1033,-1.21764 -0.6885,-1.74929 -0.568,-0.54879 -1.7557,-0.54879 -1.2909,0 -1.945,0.92609 -0.6369,0.90894 -0.6541,2.84687 v 0.94325 q 0,2.02368 0.6197,2.96692 0.6196,0.92609 1.945,0.92609 1.1876,0 1.7729,-0.53164 0.6024,-0.5488 0.6885,-1.69784 z m 7.1088,3.22417 q -0.9295,1.11474 -2.5475,1.11474 -1.4975,0 -2.2892,-0.85749 -0.7918,-0.85749 -0.809,-2.52103 v -6.07104 h 2.4958 v 5.98529 q 0,1.45774 1.3253,1.45774 1.2566,0 1.7385,-0.87464 v -6.56839 h 2.4958 v 9.27806 h -2.3409 z m 12.6683,-3.61862 q 0,2.14373 -0.9811,3.44712 -0.9811,1.28624 -2.6335,1.28624 -1.4114,0 -2.2892,-0.97754 v 4.37321 h -2.4786 v -12.84523 h 2.3064 l 0.086,0.90894 q 0.895,-1.08044 2.3581,-1.08044 1.7212,0 2.6679,1.26909 0.9639,1.26909 0.9639,3.49857 z m -2.4958,-0.17149 q 0,-1.30339 -0.4647,-2.00654 -0.4475,-0.70314 -1.3254,-0.70314 -1.1704,0 -1.6179,0.89179 v 3.80727 q 0.4647,0.90894 1.6352,0.90894 1.7728,0 1.7728,-2.89832 z m 9.269,-2.22948 q -0.5164,-0.0686 -0.8951,-0.0686 -1.4114,0 -1.8589,0.96039 v 6.07104 h -2.4786 v -9.27806 h 2.3409 l 0.069,1.09759 q 0.7574,-1.26909 2.0827,-1.26909 0.4131,0 0.7746,0.1029 z m 5.3186,7.13433 q -2.0483,0 -3.3392,-1.25194 -1.2909,-1.25194 -1.2909,-3.34422 v -0.24009 q 0,-1.38914 0.5335,-2.48673 0.5508,-1.11474 1.5492,-1.69784 0.9983,-0.60024 2.272,-0.60024 1.9106,0 2.995,1.20049 1.1016,1.20049 1.1016,3.39567 v 1.01184 h -5.9211 q 0.1205,0.90894 0.7229,1.45773 0.6024,0.5488 1.5319,0.5488 1.4459,0 2.2549,-1.02899 l 1.222,1.35484 q -0.568,0.78889 -1.5319,1.23479 -0.9467,0.44589 -2.0999,0.44589 z m -0.2926,-7.61453 q -0.7401,0 -1.2049,0.49735 -0.4475,0.49734 -0.5852,1.42343 h 3.4597 v -0.20579 q -0.017,-0.8232 -0.4475,-1.26909 -0.4303,-0.4459 -1.2221,-0.4459 z"
         fill-rule="nonzero"
         id="path42"
         style="stroke-width:1.09959" />
      <path
         fill="#000000"
         d="m 1106.4963,-335.95398 q -0.1549,2.02368 -1.4975,3.18987 -1.3426,1.14904 -3.5458,1.14904 -2.4097,0 -3.8039,-1.61208 -1.377,-1.62924 -1.377,-4.44181 v -0.77175 q 0,-1.80073 0.6368,-3.17272 0.6369,-1.37199 1.8245,-2.09228 1.1877,-0.73744 2.754,-0.73744 2.1688,0 3.4942,1.16619 1.3253,1.14904 1.5319,3.24132 h -2.5819 q -0.1032,-1.21764 -0.6885,-1.74929 -0.568,-0.54879 -1.7557,-0.54879 -1.2909,0 -1.945,0.92609 -0.6368,0.90894 -0.654,2.84687 v 0.94325 q 0,2.02368 0.6196,2.96692 0.6197,0.92609 1.945,0.92609 1.1877,0 1.7729,-0.53164 0.6024,-0.5488 0.6885,-1.69784 z m 5.0088,0.65169 1.7212,-5.76234 h 2.668 l -3.7523,10.71865 -0.2066,0.49735 q -0.8262,1.81788 -2.754,1.81788 -0.5336,0 -1.1016,-0.1715 v -1.86933 h 0.3787 q 0.7057,0 1.05,-0.22295 0.3614,-0.2058 0.5508,-0.70314 l 0.2926,-0.7546 -3.2532,-9.31236 h 2.6679 z m 13.7528,-1.04614 q 0,2.14373 -0.9811,3.44712 -0.9812,1.28624 -2.6335,1.28624 -1.4115,0 -2.2893,-0.97754 v 4.37321 h -2.4786 v -12.84523 h 2.3065 l 0.086,0.90894 q 0.895,-1.08044 2.3581,-1.08044 1.7212,0 2.6679,1.26909 0.9639,1.26909 0.9639,3.49857 z m -2.4958,-0.17149 q 0,-1.30339 -0.4648,-2.00654 -0.4475,-0.70314 -1.3253,-0.70314 -1.1705,0 -1.618,0.89179 v 3.80727 q 0.4647,0.90894 1.6352,0.90894 1.7729,0 1.7729,-2.89832 z m 8.3222,4.90485 q -2.0483,0 -3.3392,-1.25194 -1.291,-1.25194 -1.291,-3.34422 v -0.24009 q 0,-1.38914 0.5336,-2.48673 0.5508,-1.11474 1.5491,-1.69784 0.9984,-0.60024 2.2721,-0.60024 1.9106,0 2.995,1.20049 1.1016,1.20049 1.1016,3.39567 v 1.01184 h -5.9211 q 0.1205,0.90894 0.7229,1.45773 0.6024,0.5488 1.5319,0.5488 1.4459,0 2.2548,-1.02899 l 1.2221,1.35484 q -0.568,0.78889 -1.5319,1.23479 -0.9467,0.44589 -2.0999,0.44589 z m -0.2926,-7.61453 q -0.7402,0 -1.2049,0.49735 -0.4475,0.49734 -0.5852,1.42343 h 3.4597 v -0.20579 q -0.017,-0.8232 -0.4475,-1.26909 -0.4303,-0.4459 -1.2221,-0.4459 z m 10.7664,0.4802 q -0.5164,-0.0686 -0.8951,-0.0686 -1.4114,0 -1.8589,0.96039 v 6.07104 h -2.4786 v -9.27806 h 2.3409 l 0.069,1.09759 q 0.7574,-1.26909 2.0827,-1.26909 0.4131,0 0.7746,0.1029 z"
         fill-rule="nonzero"
         id="path45"
         style="stroke-width:1.09959" />
    </g>
    <g
       id="g110"
       inkscape:label="numeros"
       transform="translate(-160.83301,359.50909)">
      <path
         fill="#000000"
         d="m 373.43723,-295.63645 q 0,2.79542 -0.9639,4.15026 -0.94669,1.35484 -2.97776,1.35484 -1.99665,0 -2.96055,-1.32054 -0.9639,-1.33769 -0.99832,-3.96162 v -2.12658 q 0,-2.74397 0.94669,-4.08166 0.9639,-1.33769 2.99497,-1.33769 2.03107,0 2.97775,1.28624 0.9639,1.28624 0.98112,3.97876 z m -1.58355,-2.16088 q 0,-2.02369 -0.56802,-2.93263 -0.568,-0.92609 -1.8073,-0.92609 -1.22209,0 -1.7901,0.92609 -0.5508,0.90894 -0.56802,2.81258 v 2.53817 q 0,2.02369 0.58523,2.98408 0.60244,0.96039 1.7901,0.96039 1.18766,0 1.75567,-0.90894 0.56801,-0.90895 0.60244,-2.86403 z"
         fill-rule="nonzero"
         id="path47"
         style="stroke-width:1.09959" />
      <path
         fill="#000000"
         d="m 373.43723,-254.15273 q 0,2.79542 -0.9639,4.15026 -0.94669,1.35483 -2.97776,1.35483 -1.99665,0 -2.96055,-1.32053 -0.9639,-1.33769 -0.99832,-3.96162 v -2.12658 q 0,-2.74398 0.94669,-4.08166 0.9639,-1.33769 2.99497,-1.33769 2.03107,0 2.97775,1.28624 0.9639,1.28624 0.98112,3.97877 z m -1.58355,-2.16088 q 0,-2.02368 -0.56802,-2.93263 -0.568,-0.92609 -1.8073,-0.92609 -1.22209,0 -1.7901,0.92609 -0.5508,0.90895 -0.56802,2.81257 v 2.53818 q 0,2.02368 0.58523,2.98407 0.60244,0.96039 1.7901,0.96039 1.18766,0 1.75567,-0.90893 0.56801,-0.90895 0.60244,-2.86403 z"
         fill-rule="nonzero"
         id="path49"
         style="stroke-width:1.09959" />
      <path
         fill="#000000"
         d="m 373.36209,-212.66902 q 0,2.79542 -0.9639,4.15026 -0.94669,1.35483 -2.97776,1.35483 -1.99665,0 -2.96055,-1.32053 -0.9639,-1.33769 -0.99832,-3.96162 v -2.12658 q 0,-2.74398 0.94669,-4.08166 0.9639,-1.33769 2.99497,-1.33769 2.03107,0 2.97775,1.28624 0.9639,1.28624 0.98112,3.97877 z m -1.58355,-2.16088 q 0,-2.02368 -0.56802,-2.93263 -0.568,-0.92609 -1.8073,-0.92609 -1.22209,0 -1.7901,0.92609 -0.5508,0.90895 -0.56802,2.81257 v 2.53818 q 0,2.02368 0.58523,2.98407 0.60244,0.96039 1.7901,0.96039 1.18766,0 1.75567,-0.90893 0.56801,-0.90895 0.60244,-2.86403 z"
         fill-rule="nonzero"
         id="path51"
         style="stroke-width:1.09959" />
      <path
         fill="#000000"
         d="m 373.36209,-171.18531 q 0,2.79542 -0.9639,4.15026 -0.94669,1.35483 -2.97776,1.35483 -1.99665,0 -2.96055,-1.32053 -0.9639,-1.33769 -0.99832,-3.96162 v -2.12658 q 0,-2.74397 0.94669,-4.08166 0.9639,-1.33769 2.99497,-1.33769 2.03107,0 2.97775,1.28624 0.9639,1.28624 0.98112,3.97877 z m -1.58355,-2.16088 q 0,-2.02368 -0.56802,-2.93263 -0.568,-0.92609 -1.8073,-0.92609 -1.22209,0 -1.7901,0.92609 -0.5508,0.90895 -0.56802,2.81257 v 2.53818 q 0,2.02368 0.58523,2.98407 0.60244,0.96039 1.7901,0.96039 1.18766,0 1.75567,-0.90893 0.56801,-0.90895 0.60244,-2.86403 z"
         fill-rule="nonzero"
         id="path53"
         style="stroke-width:1.09959" />
      <path
         fill="#000000"
         d="m 373.36209,-129.70158 q 0,2.79542 -0.9639,4.15026 -0.94669,1.35484 -2.97776,1.35484 -1.99665,0 -2.96055,-1.32054 -0.9639,-1.33769 -0.99832,-3.96162 v -2.12658 q 0,-2.74397 0.94669,-4.08166 0.9639,-1.33769 2.99497,-1.33769 2.03107,0 2.97775,1.28625 0.9639,1.28623 0.98112,3.97876 z m -1.58355,-2.16088 q 0,-2.02368 -0.56802,-2.93263 -0.568,-0.92609 -1.8073,-0.92609 -1.22209,0 -1.7901,0.92609 -0.5508,0.90895 -0.56802,2.81258 v 2.53817 q 0,2.02368 0.58523,2.98408 0.60244,0.96039 1.7901,0.96039 1.18766,0 1.75567,-0.90894 0.56801,-0.90895 0.60244,-2.86403 z"
         fill-rule="nonzero"
         id="path55"
         style="stroke-width:1.09959" />
      <path
         fill="#000000"
         d="m 456.82303,-295.63645 q 0,2.79542 -0.9639,4.15026 -0.94669,1.35484 -2.97777,1.35484 -1.99664,0 -2.96054,-1.32054 -0.9639,-1.33769 -0.99832,-3.96162 v -2.12658 q 0,-2.74397 0.94669,-4.08166 0.9639,-1.33769 2.99497,-1.33769 2.03107,0 2.97775,1.28624 0.9639,1.28624 0.98112,3.97876 z m -1.58355,-2.16088 q 0,-2.02369 -0.56802,-2.93263 -0.568,-0.92609 -1.8073,-0.92609 -1.22209,0 -1.7901,0.92609 -0.5508,0.90894 -0.56802,2.81258 v 2.53817 q 0,2.02369 0.58523,2.98408 0.60244,0.96039 1.79009,0.96039 1.18767,0 1.75568,-0.90894 0.56801,-0.90895 0.60244,-2.86403 z"
         fill-rule="nonzero"
         id="path57"
         style="stroke-width:1.09959" />
      <path
         fill="#000000"
         d="m 456.82303,-254.15273 q 0,2.79542 -0.9639,4.15026 -0.94669,1.35483 -2.97777,1.35483 -1.99664,0 -2.96054,-1.32053 -0.9639,-1.33769 -0.99832,-3.96162 v -2.12658 q 0,-2.74398 0.94669,-4.08166 0.9639,-1.33769 2.99497,-1.33769 2.03107,0 2.97775,1.28624 0.9639,1.28624 0.98112,3.97877 z m -1.58355,-2.16088 q 0,-2.02368 -0.56802,-2.93263 -0.568,-0.92609 -1.8073,-0.92609 -1.22209,0 -1.7901,0.92609 -0.5508,0.90895 -0.56802,2.81257 v 2.53818 q 0,2.02368 0.58523,2.98407 0.60244,0.96039 1.79009,0.96039 1.18767,0 1.75568,-0.90893 0.56801,-0.90895 0.60244,-2.86403 z"
         fill-rule="nonzero"
         id="path59"
         style="stroke-width:1.09959" />
      <path
         fill="#000000"
         d="m 456.74785,-212.66902 q 0,2.79542 -0.9639,4.15026 -0.94669,1.35483 -2.97776,1.35483 -1.99665,0 -2.96054,-1.32053 -0.9639,-1.33769 -0.99833,-3.96162 v -2.12658 q 0,-2.74398 0.94669,-4.08166 0.9639,-1.33769 2.99497,-1.33769 2.03108,0 2.97776,1.28624 0.96389,1.28624 0.98111,3.97877 z m -1.58354,-2.16088 q 0,-2.02368 -0.56802,-2.93263 -0.56801,-0.92609 -1.80731,-0.92609 -1.22209,0 -1.79009,0.92609 -0.5508,0.90895 -0.56802,2.81257 v 2.53818 q 0,2.02368 0.58522,2.98407 0.60245,0.96039 1.7901,0.96039 1.18767,0 1.75567,-0.90893 0.56802,-0.90895 0.60245,-2.86403 z"
         fill-rule="nonzero"
         id="path61"
         style="stroke-width:1.09959" />
      <path
         fill="#000000"
         d="m 456.74785,-171.18531 q 0,2.79542 -0.9639,4.15026 -0.94669,1.35483 -2.97776,1.35483 -1.99665,0 -2.96054,-1.32053 -0.9639,-1.33769 -0.99833,-3.96162 v -2.12658 q 0,-2.74397 0.94669,-4.08166 0.9639,-1.33769 2.99497,-1.33769 2.03108,0 2.97776,1.28624 0.96389,1.28624 0.98111,3.97877 z m -1.58354,-2.16088 q 0,-2.02368 -0.56802,-2.93263 -0.56801,-0.92609 -1.80731,-0.92609 -1.22209,0 -1.79009,0.92609 -0.5508,0.90895 -0.56802,2.81257 v 2.53818 q 0,2.02368 0.58522,2.98407 0.60245,0.96039 1.7901,0.96039 1.18767,0 1.75567,-0.90893 0.56802,-0.90895 0.60245,-2.86403 z"
         fill-rule="nonzero"
         id="path63"
         style="stroke-width:1.09959" />
      <path
         fill="#000000"
         d="m 456.74785,-129.70158 q 0,2.79542 -0.9639,4.15026 -0.94669,1.35484 -2.97776,1.35484 -1.99665,0 -2.96054,-1.32054 -0.9639,-1.33769 -0.99833,-3.96162 v -2.12658 q 0,-2.74397 0.94669,-4.08166 0.9639,-1.33769 2.99497,-1.33769 2.03108,0 2.97776,1.28625 0.96389,1.28623 0.98111,3.97876 z m -1.58354,-2.16088 q 0,-2.02368 -0.56802,-2.93263 -0.56801,-0.92609 -1.80731,-0.92609 -1.22209,0 -1.79009,0.92609 -0.5508,0.90895 -0.56802,2.81258 v 2.53817 q 0,2.02368 0.58522,2.98408 0.60245,0.96039 1.7901,0.96039 1.18767,0 1.75567,-0.90894 0.56802,-0.90895 0.60245,-2.86403 z"
         fill-rule="nonzero"
         id="path65"
         style="stroke-width:1.09959" />
      <path
         fill="#000000"
         d="m 540.28394,-295.63645 q 0,2.79542 -0.9639,4.15026 -0.94668,1.35484 -2.97775,1.35484 -1.99664,0 -2.96054,-1.32054 -0.9639,-1.33769 -0.99833,-3.96162 v -2.12658 q 0,-2.74397 0.94668,-4.08166 0.9639,-1.33769 2.99497,-1.33769 2.03108,0 2.97777,1.28624 0.9639,1.28624 0.9811,3.97876 z m -1.58355,-2.16088 q 0,-2.02369 -0.568,-2.93263 -0.56802,-0.92609 -1.80732,-0.92609 -1.22208,0 -1.79009,0.92609 -0.5508,0.90894 -0.56801,2.81258 v 2.53817 q 0,2.02369 0.58522,2.98408 0.60244,0.96039 1.7901,0.96039 1.18766,0 1.75567,-0.90894 0.56801,-0.90895 0.60243,-2.86403 z"
         fill-rule="nonzero"
         id="path67"
         style="stroke-width:1.09959" />
      <path
         fill="#000000"
         d="m 540.28394,-254.15273 q 0,2.79542 -0.9639,4.15026 -0.94668,1.35483 -2.97775,1.35483 -1.99664,0 -2.96054,-1.32053 -0.9639,-1.33769 -0.99833,-3.96162 v -2.12658 q 0,-2.74398 0.94668,-4.08166 0.9639,-1.33769 2.99497,-1.33769 2.03108,0 2.97777,1.28624 0.9639,1.28624 0.9811,3.97877 z m -1.58355,-2.16088 q 0,-2.02368 -0.568,-2.93263 -0.56802,-0.92609 -1.80732,-0.92609 -1.22208,0 -1.79009,0.92609 -0.5508,0.90895 -0.56801,2.81257 v 2.53818 q 0,2.02368 0.58522,2.98407 0.60244,0.96039 1.7901,0.96039 1.18766,0 1.75567,-0.90893 0.56801,-0.90895 0.60243,-2.86403 z"
         fill-rule="nonzero"
         id="path69"
         style="stroke-width:1.09959" />
      <path
         fill="#000000"
         d="m 540.2088,-212.66902 q 0,2.79542 -0.9639,4.15026 -0.94669,1.35483 -2.97776,1.35483 -1.99665,0 -2.96054,-1.32053 -0.9639,-1.33769 -0.99833,-3.96162 v -2.12658 q 0,-2.74398 0.94669,-4.08166 0.9639,-1.33769 2.99497,-1.33769 2.03108,0 2.97776,1.28624 0.96389,1.28624 0.98111,3.97877 z m -1.58355,-2.16088 q 0,-2.02368 -0.56801,-2.93263 -0.56801,-0.92609 -1.80731,-0.92609 -1.22209,0 -1.79009,0.92609 -0.5508,0.90895 -0.56802,2.81257 v 2.53818 q 0,2.02368 0.58522,2.98407 0.60245,0.96039 1.7901,0.96039 1.18767,0 1.75567,-0.90893 0.56802,-0.90895 0.60244,-2.86403 z"
         fill-rule="nonzero"
         id="path71"
         style="stroke-width:1.09959" />
      <path
         fill="#000000"
         d="m 540.2088,-171.18531 q 0,2.79542 -0.9639,4.15026 -0.94669,1.35483 -2.97776,1.35483 -1.99665,0 -2.96054,-1.32053 -0.9639,-1.33769 -0.99833,-3.96162 v -2.12658 q 0,-2.74397 0.94669,-4.08166 0.9639,-1.33769 2.99497,-1.33769 2.03108,0 2.97776,1.28624 0.96389,1.28624 0.98111,3.97877 z m -1.58355,-2.16088 q 0,-2.02368 -0.56801,-2.93263 -0.56801,-0.92609 -1.80731,-0.92609 -1.22209,0 -1.79009,0.92609 -0.5508,0.90895 -0.56802,2.81257 v 2.53818 q 0,2.02368 0.58522,2.98407 0.60245,0.96039 1.7901,0.96039 1.18767,0 1.75567,-0.90893 0.56802,-0.90895 0.60244,-2.86403 z"
         fill-rule="nonzero"
         id="path73"
         style="stroke-width:1.09959" />
      <path
         fill="#000000"
         d="m 540.2088,-129.70158 q 0,2.79542 -0.9639,4.15026 -0.94669,1.35484 -2.97776,1.35484 -1.99665,0 -2.96054,-1.32054 -0.9639,-1.33769 -0.99833,-3.96162 v -2.12658 q 0,-2.74397 0.94669,-4.08166 0.9639,-1.33769 2.99497,-1.33769 2.03108,0 2.97776,1.28625 0.96389,1.28623 0.98111,3.97876 z m -1.58355,-2.16088 q 0,-2.02368 -0.56801,-2.93263 -0.56801,-0.92609 -1.80731,-0.92609 -1.22209,0 -1.79009,0.92609 -0.5508,0.90895 -0.56802,2.81258 v 2.53817 q 0,2.02368 0.58522,2.98408 0.60245,0.96039 1.7901,0.96039 1.18767,0 1.75567,-0.90894 0.56802,-0.90895 0.60244,-2.86403 z"
         fill-rule="nonzero"
         id="path75"
         style="stroke-width:1.09959" />
      <path
         fill="#000000"
         d="m 623.66972,-295.63645 q 0,2.79542 -0.9639,4.15026 -0.94669,1.35484 -2.97776,1.35484 -1.99665,0 -2.96055,-1.32054 -0.9639,-1.33769 -0.99832,-3.96162 v -2.12658 q 0,-2.74397 0.94669,-4.08166 0.9639,-1.33769 2.99497,-1.33769 2.03107,0 2.97775,1.28624 0.9639,1.28624 0.98112,3.97876 z m -1.58355,-2.16088 q 0,-2.02369 -0.56802,-2.93263 -0.568,-0.92609 -1.8073,-0.92609 -1.22209,0 -1.7901,0.92609 -0.5508,0.90894 -0.56801,2.81258 v 2.53817 q 0,2.02369 0.58522,2.98408 0.60244,0.96039 1.7901,0.96039 1.18766,0 1.75567,-0.90894 0.56802,-0.90895 0.60244,-2.86403 z"
         fill-rule="nonzero"
         id="path77"
         style="stroke-width:1.09959" />
      <path
         fill="#000000"
         d="m 623.66972,-254.15273 q 0,2.79542 -0.9639,4.15026 -0.94669,1.35483 -2.97776,1.35483 -1.99665,0 -2.96055,-1.32053 -0.9639,-1.33769 -0.99832,-3.96162 v -2.12658 q 0,-2.74398 0.94669,-4.08166 0.9639,-1.33769 2.99497,-1.33769 2.03107,0 2.97775,1.28624 0.9639,1.28624 0.98112,3.97877 z m -1.58355,-2.16088 q 0,-2.02368 -0.56802,-2.93263 -0.568,-0.92609 -1.8073,-0.92609 -1.22209,0 -1.7901,0.92609 -0.5508,0.90895 -0.56801,2.81257 v 2.53818 q 0,2.02368 0.58522,2.98407 0.60244,0.96039 1.7901,0.96039 1.18766,0 1.75567,-0.90893 0.56802,-0.90895 0.60244,-2.86403 z"
         fill-rule="nonzero"
         id="path79"
         style="stroke-width:1.09959" />
      <path
         fill="#000000"
         d="m 623.59458,-212.66902 q 0,2.79542 -0.9639,4.15026 -0.94668,1.35483 -2.97775,1.35483 -1.99665,0 -2.96055,-1.32053 -0.96389,-1.33769 -0.99832,-3.96162 v -2.12658 q 0,-2.74398 0.94668,-4.08166 0.9639,-1.33769 2.99497,-1.33769 2.03107,0 2.97776,1.28624 0.9639,1.28624 0.98111,3.97877 z m -1.58355,-2.16088 q 0,-2.02368 -0.568,-2.93263 -0.56802,-0.92609 -1.80732,-0.92609 -1.22208,0 -1.7901,0.92609 -0.5508,0.90895 -0.568,2.81257 v 2.53818 q 0,2.02368 0.58522,2.98407 0.60243,0.96039 1.7901,0.96039 1.18765,0 1.75567,-0.90893 0.56801,-0.90895 0.60243,-2.86403 z"
         fill-rule="nonzero"
         id="path81"
         style="stroke-width:1.09959" />
      <path
         fill="#000000"
         d="m 623.59458,-171.18531 q 0,2.79542 -0.9639,4.15026 -0.94668,1.35483 -2.97775,1.35483 -1.99665,0 -2.96055,-1.32053 -0.96389,-1.33769 -0.99832,-3.96162 v -2.12658 q 0,-2.74397 0.94668,-4.08166 0.9639,-1.33769 2.99497,-1.33769 2.03107,0 2.97776,1.28624 0.9639,1.28624 0.98111,3.97877 z m -1.58355,-2.16088 q 0,-2.02368 -0.568,-2.93263 -0.56802,-0.92609 -1.80732,-0.92609 -1.22208,0 -1.7901,0.92609 -0.5508,0.90895 -0.568,2.81257 v 2.53818 q 0,2.02368 0.58522,2.98407 0.60243,0.96039 1.7901,0.96039 1.18765,0 1.75567,-0.90893 0.56801,-0.90895 0.60243,-2.86403 z"
         fill-rule="nonzero"
         id="path83"
         style="stroke-width:1.09959" />
      <path
         fill="#000000"
         d="m 623.59458,-129.70158 q 0,2.79542 -0.9639,4.15026 -0.94668,1.35484 -2.97775,1.35484 -1.99665,0 -2.96055,-1.32054 -0.96389,-1.33769 -0.99832,-3.96162 v -2.12658 q 0,-2.74397 0.94668,-4.08166 0.9639,-1.33769 2.99497,-1.33769 2.03107,0 2.97776,1.28625 0.9639,1.28623 0.98111,3.97876 z m -1.58355,-2.16088 q 0,-2.02368 -0.568,-2.93263 -0.56802,-0.92609 -1.80732,-0.92609 -1.22208,0 -1.7901,0.92609 -0.5508,0.90895 -0.568,2.81258 v 2.53817 q 0,2.02368 0.58522,2.98408 0.60243,0.96039 1.7901,0.96039 1.18765,0 1.75567,-0.90894 0.56801,-0.90895 0.60243,-2.86403 z"
         fill-rule="nonzero"
         id="path85"
         style="stroke-width:1.09959" />
      <path
         fill="#000000"
         d="m 706.47748,-295.63645 q 0,2.79542 -0.9639,4.15026 -0.94673,1.35484 -2.9778,1.35484 -1.99665,0 -2.96054,-1.32054 -0.9639,-1.33769 -0.99833,-3.96162 v -2.12658 q 0,-2.74397 0.94669,-4.08166 0.9639,-1.33769 2.99497,-1.33769 2.03108,0 2.97779,1.28624 0.9639,1.28624 0.98112,3.97876 z m -1.58355,-2.16088 q 0,-2.02369 -0.56805,-2.93263 -0.56801,-0.92609 -1.80731,-0.92609 -1.22209,0 -1.79009,0.92609 -0.5508,0.90894 -0.56802,2.81258 v 2.53817 q 0,2.02369 0.58522,2.98408 0.60245,0.96039 1.7901,0.96039 1.18767,0 1.75567,-0.90894 0.56805,-0.90895 0.60248,-2.86403 z"
         fill-rule="nonzero"
         id="path87"
         style="stroke-width:1.09959" />
      <path
         fill="#000000"
         d="m 706.47748,-254.15273 q 0,2.79542 -0.9639,4.15026 -0.94673,1.35483 -2.9778,1.35483 -1.99665,0 -2.96054,-1.32053 -0.9639,-1.33769 -0.99833,-3.96162 v -2.12658 q 0,-2.74398 0.94669,-4.08166 0.9639,-1.33769 2.99497,-1.33769 2.03108,0 2.97779,1.28624 0.9639,1.28624 0.98112,3.97877 z m -1.58355,-2.16088 q 0,-2.02368 -0.56805,-2.93263 -0.56801,-0.92609 -1.80731,-0.92609 -1.22209,0 -1.79009,0.92609 -0.5508,0.90895 -0.56802,2.81257 v 2.53818 q 0,2.02368 0.58522,2.98407 0.60245,0.96039 1.7901,0.96039 1.18767,0 1.75567,-0.90893 0.56805,-0.90895 0.60248,-2.86403 z"
         fill-rule="nonzero"
         id="path89"
         style="stroke-width:1.09959" />
      <path
         fill="#000000"
         d="m 706.40229,-212.66902 q 0,2.79542 -0.9639,4.15026 -0.94669,1.35483 -2.97776,1.35483 -1.99665,0 -2.96054,-1.32053 -0.9639,-1.33769 -0.99833,-3.96162 v -2.12658 q 0,-2.74398 0.94669,-4.08166 0.9639,-1.33769 2.99497,-1.33769 2.03108,0 2.97776,1.28624 0.96389,1.28624 0.98111,3.97877 z m -1.58355,-2.16088 q 0,-2.02368 -0.56801,-2.93263 -0.56801,-0.92609 -1.80731,-0.92609 -1.22209,0 -1.79009,0.92609 -0.5508,0.90895 -0.56802,2.81257 v 2.53818 q 0,2.02368 0.58522,2.98407 0.60245,0.96039 1.7901,0.96039 1.18767,0 1.75567,-0.90893 0.56802,-0.90895 0.60244,-2.86403 z"
         fill-rule="nonzero"
         id="path91"
         style="stroke-width:1.09959" />
      <path
         fill="#000000"
         d="m 706.40229,-171.18531 q 0,2.79542 -0.9639,4.15026 -0.94669,1.35483 -2.97776,1.35483 -1.99665,0 -2.96054,-1.32053 -0.9639,-1.33769 -0.99833,-3.96162 v -2.12658 q 0,-2.74397 0.94669,-4.08166 0.9639,-1.33769 2.99497,-1.33769 2.03108,0 2.97776,1.28624 0.96389,1.28624 0.98111,3.97877 z m -1.58355,-2.16088 q 0,-2.02368 -0.56801,-2.93263 -0.56801,-0.92609 -1.80731,-0.92609 -1.22209,0 -1.79009,0.92609 -0.5508,0.90895 -0.56802,2.81257 v 2.53818 q 0,2.02368 0.58522,2.98407 0.60245,0.96039 1.7901,0.96039 1.18767,0 1.75567,-0.90893 0.56802,-0.90895 0.60244,-2.86403 z"
         fill-rule="nonzero"
         id="path93"
         style="stroke-width:1.09959" />
      <path
         fill="#000000"
         d="m 706.40229,-129.70158 q 0,2.79542 -0.9639,4.15026 -0.94669,1.35484 -2.97776,1.35484 -1.99665,0 -2.96054,-1.32054 -0.9639,-1.33769 -0.99833,-3.96162 v -2.12658 q 0,-2.74397 0.94669,-4.08166 0.9639,-1.33769 2.99497,-1.33769 2.03108,0 2.97776,1.28625 0.96389,1.28623 0.98111,3.97876 z m -1.58355,-2.16088 q 0,-2.02368 -0.56801,-2.93263 -0.56801,-0.92609 -1.80731,-0.92609 -1.22209,0 -1.79009,0.92609 -0.5508,0.90895 -0.56802,2.81258 v 2.53817 q 0,2.02368 0.58522,2.98408 0.60245,0.96039 1.7901,0.96039 1.18767,0 1.75567,-0.90894 0.56802,-0.90895 0.60244,-2.86403 z"
         fill-rule="nonzero"
         id="path95"
         style="stroke-width:1.09959" />
      <path
         fill="#000000"
         d="m 789.86321,-295.63645 q 0,2.79542 -0.9639,4.15026 -0.94669,1.35484 -2.97776,1.35484 -1.99665,0 -2.96055,-1.32054 -0.9639,-1.33769 -0.99832,-3.96162 v -2.12658 q 0,-2.74397 0.94669,-4.08166 0.9639,-1.33769 2.99497,-1.33769 2.03107,0 2.97775,1.28624 0.9639,1.28624 0.98112,3.97876 z m -1.58355,-2.16088 q 0,-2.02369 -0.56802,-2.93263 -0.568,-0.92609 -1.8073,-0.92609 -1.22209,0 -1.7901,0.92609 -0.5508,0.90894 -0.56801,2.81258 v 2.53817 q 0,2.02369 0.58522,2.98408 0.60244,0.96039 1.7901,0.96039 1.18766,0 1.75567,-0.90894 0.56802,-0.90895 0.60244,-2.86403 z"
         fill-rule="nonzero"
         id="path97"
         style="stroke-width:1.09959" />
      <path
         fill="#000000"
         d="m 789.86321,-254.15273 q 0,2.79542 -0.9639,4.15026 -0.94669,1.35483 -2.97776,1.35483 -1.99665,0 -2.96055,-1.32053 -0.9639,-1.33769 -0.99832,-3.96162 v -2.12658 q 0,-2.74398 0.94669,-4.08166 0.9639,-1.33769 2.99497,-1.33769 2.03107,0 2.97775,1.28624 0.9639,1.28624 0.98112,3.97877 z m -1.58355,-2.16088 q 0,-2.02368 -0.56802,-2.93263 -0.568,-0.92609 -1.8073,-0.92609 -1.22209,0 -1.7901,0.92609 -0.5508,0.90895 -0.56801,2.81257 v 2.53818 q 0,2.02368 0.58522,2.98407 0.60244,0.96039 1.7901,0.96039 1.18766,0 1.75567,-0.90893 0.56802,-0.90895 0.60244,-2.86403 z"
         fill-rule="nonzero"
         id="path99"
         style="stroke-width:1.09959" />
      <path
         fill="#000000"
         d="m 789.78804,-212.66902 q 0,2.79542 -0.9639,4.15026 -0.94669,1.35483 -2.97777,1.35483 -1.99664,0 -2.96054,-1.32053 -0.9639,-1.33769 -0.99832,-3.96162 v -2.12658 q 0,-2.74398 0.94669,-4.08166 0.9639,-1.33769 2.99497,-1.33769 2.03107,0 2.97775,1.28624 0.9639,1.28624 0.98112,3.97877 z m -1.58355,-2.16088 q 0,-2.02368 -0.56802,-2.93263 -0.568,-0.92609 -1.8073,-0.92609 -1.22209,0 -1.7901,0.92609 -0.5508,0.90895 -0.56802,2.81257 v 2.53818 q 0,2.02368 0.58523,2.98407 0.60244,0.96039 1.79009,0.96039 1.18767,0 1.75568,-0.90893 0.56801,-0.90895 0.60244,-2.86403 z"
         fill-rule="nonzero"
         id="path101"
         style="stroke-width:1.09959" />
      <path
         fill="#000000"
         d="m 789.78804,-171.18531 q 0,2.79542 -0.9639,4.15026 -0.94669,1.35483 -2.97777,1.35483 -1.99664,0 -2.96054,-1.32053 -0.9639,-1.33769 -0.99832,-3.96162 v -2.12658 q 0,-2.74397 0.94669,-4.08166 0.9639,-1.33769 2.99497,-1.33769 2.03107,0 2.97775,1.28624 0.9639,1.28624 0.98112,3.97877 z m -1.58355,-2.16088 q 0,-2.02368 -0.56802,-2.93263 -0.568,-0.92609 -1.8073,-0.92609 -1.22209,0 -1.7901,0.92609 -0.5508,0.90895 -0.56802,2.81257 v 2.53818 q 0,2.02368 0.58523,2.98407 0.60244,0.96039 1.79009,0.96039 1.18767,0 1.75568,-0.90893 0.56801,-0.90895 0.60244,-2.86403 z"
         fill-rule="nonzero"
         id="path103"
         style="stroke-width:1.09959" />
      <path
         fill="#000000"
         d="m 789.78804,-129.70158 q 0,2.79542 -0.9639,4.15026 -0.94669,1.35484 -2.97777,1.35484 -1.99664,0 -2.96054,-1.32054 -0.9639,-1.33769 -0.99832,-3.96162 v -2.12658 q 0,-2.74397 0.94669,-4.08166 0.9639,-1.33769 2.99497,-1.33769 2.03107,0 2.97775,1.28625 0.9639,1.28623 0.98112,3.97876 z m -1.58355,-2.16088 q 0,-2.02368 -0.56802,-2.93263 -0.568,-0.92609 -1.8073,-0.92609 -1.22209,0 -1.7901,0.92609 -0.5508,0.90895 -0.56802,2.81258 v 2.53817 q 0,2.02368 0.58523,2.98408 0.60244,0.96039 1.79009,0.96039 1.18767,0 1.75568,-0.90894 0.56801,-0.90895 0.60244,-2.86403 z"
         fill-rule="nonzero"
         id="path105"
         style="stroke-width:1.09959" />
      <path
         fill="#000000"
         d="m 872.73742,-295.63645 q 0,2.79542 -0.96389,4.15026 -0.94668,1.35484 -2.97776,1.35484 -1.99664,0 -2.96054,-1.32054 -0.9639,-1.33769 -0.99832,-3.96162 v -2.12658 q 0,-2.74397 0.94668,-4.08166 0.9639,-1.33769 2.99497,-1.33769 2.03107,0 2.97776,1.28624 0.9639,1.28624 0.9811,3.97876 z m -1.58354,-2.16088 q 0,-2.02369 -0.56801,-2.93263 -0.56802,-0.92609 -1.80731,-0.92609 -1.22208,0 -1.7901,0.92609 -0.5508,0.90894 -0.56801,2.81258 v 2.53817 q 0,2.02369 0.58523,2.98408 0.60243,0.96039 1.79009,0.96039 1.18766,0 1.75568,-0.90894 0.568,-0.90895 0.60243,-2.86403 z"
         fill-rule="nonzero"
         id="path107"
         style="stroke-width:1.09959" />
      <path
         fill="#000000"
         d="m 872.73742,-254.15273 q 0,2.79542 -0.96389,4.15026 -0.94668,1.35483 -2.97776,1.35483 -1.99664,0 -2.96054,-1.32053 -0.9639,-1.33769 -0.99832,-3.96162 v -2.12658 q 0,-2.74398 0.94668,-4.08166 0.9639,-1.33769 2.99497,-1.33769 2.03107,0 2.97776,1.28624 0.9639,1.28624 0.9811,3.97877 z m -1.58354,-2.16088 q 0,-2.02368 -0.56801,-2.93263 -0.56802,-0.92609 -1.80731,-0.92609 -1.22208,0 -1.7901,0.92609 -0.5508,0.90895 -0.56801,2.81257 v 2.53818 q 0,2.02368 0.58523,2.98407 0.60243,0.96039 1.79009,0.96039 1.18766,0 1.75568,-0.90893 0.568,-0.90895 0.60243,-2.86403 z"
         fill-rule="nonzero"
         id="path109"
         style="stroke-width:1.09959" />
      <path
         fill="#000000"
         d="m 872.66225,-212.66902 q 0,2.79542 -0.9639,4.15026 -0.94669,1.35483 -2.97776,1.35483 -1.99665,0 -2.96054,-1.32053 -0.9639,-1.33769 -0.99833,-3.96162 v -2.12658 q 0,-2.74398 0.94669,-4.08166 0.9639,-1.33769 2.99497,-1.33769 2.03108,0 2.97776,1.28624 0.96389,1.28624 0.98111,3.97877 z m -1.58355,-2.16088 q 0,-2.02368 -0.56801,-2.93263 -0.56801,-0.92609 -1.80731,-0.92609 -1.22209,0 -1.79009,0.92609 -0.5508,0.90895 -0.56802,2.81257 v 2.53818 q 0,2.02368 0.58522,2.98407 0.60245,0.96039 1.7901,0.96039 1.18767,0 1.75567,-0.90893 0.56802,-0.90895 0.60244,-2.86403 z"
         fill-rule="nonzero"
         id="path111"
         style="stroke-width:1.09959" />
      <path
         fill="#000000"
         d="m 872.66225,-171.18531 q 0,2.79542 -0.9639,4.15026 -0.94669,1.35483 -2.97776,1.35483 -1.99665,0 -2.96054,-1.32053 -0.9639,-1.33769 -0.99833,-3.96162 v -2.12658 q 0,-2.74397 0.94669,-4.08166 0.9639,-1.33769 2.99497,-1.33769 2.03108,0 2.97776,1.28624 0.96389,1.28624 0.98111,3.97877 z m -1.58355,-2.16088 q 0,-2.02368 -0.56801,-2.93263 -0.56801,-0.92609 -1.80731,-0.92609 -1.22209,0 -1.79009,0.92609 -0.5508,0.90895 -0.56802,2.81257 v 2.53818 q 0,2.02368 0.58522,2.98407 0.60245,0.96039 1.7901,0.96039 1.18767,0 1.75567,-0.90893 0.56802,-0.90895 0.60244,-2.86403 z"
         fill-rule="nonzero"
         id="path113"
         style="stroke-width:1.09959" />
      <path
         fill="#000000"
         d="m 872.66225,-129.70158 q 0,2.79542 -0.9639,4.15026 -0.94669,1.35484 -2.97776,1.35484 -1.99665,0 -2.96054,-1.32054 -0.9639,-1.33769 -0.99833,-3.96162 v -2.12658 q 0,-2.74397 0.94669,-4.08166 0.9639,-1.33769 2.99497,-1.33769 2.03108,0 2.97776,1.28625 0.96389,1.28623 0.98111,3.97876 z m -1.58355,-2.16088 q 0,-2.02368 -0.56801,-2.93263 -0.56801,-0.92609 -1.80731,-0.92609 -1.22209,0 -1.79009,0.92609 -0.5508,0.90895 -0.56802,2.81258 v 2.53817 q 0,2.02368 0.58522,2.98408 0.60245,0.96039 1.7901,0.96039 1.18767,0 1.75567,-0.90894 0.56802,-0.90895 0.60244,-2.86403 z"
         fill-rule="nonzero"
         id="path115"
         style="stroke-width:1.09959" />
      <path
         fill="#000000"
         d="m 956.12318,-295.63645 q 0,2.79542 -0.9639,4.15026 -0.94669,1.35484 -2.97776,1.35484 -1.99665,0 -2.96055,-1.32054 -0.96389,-1.33769 -0.99832,-3.96162 v -2.12658 q 0,-2.74397 0.94669,-4.08166 0.9639,-1.33769 2.99497,-1.33769 2.03107,0 2.97775,1.28624 0.9639,1.28624 0.98112,3.97876 z m -1.58355,-2.16088 q 0,-2.02369 -0.56801,-2.93263 -0.56801,-0.92609 -1.80731,-0.92609 -1.22209,0 -1.7901,0.92609 -0.55079,0.90894 -0.56801,2.81258 v 2.53817 q 0,2.02369 0.58522,2.98408 0.60244,0.96039 1.7901,0.96039 1.18766,0 1.75567,-0.90894 0.56802,-0.90895 0.60244,-2.86403 z"
         fill-rule="nonzero"
         id="path117"
         style="stroke-width:1.09959" />
      <path
         fill="#000000"
         d="m 956.12318,-254.15273 q 0,2.79542 -0.9639,4.15026 -0.94669,1.35483 -2.97776,1.35483 -1.99665,0 -2.96055,-1.32053 -0.96389,-1.33769 -0.99832,-3.96162 v -2.12658 q 0,-2.74398 0.94669,-4.08166 0.9639,-1.33769 2.99497,-1.33769 2.03107,0 2.97775,1.28624 0.9639,1.28624 0.98112,3.97877 z m -1.58355,-2.16088 q 0,-2.02368 -0.56801,-2.93263 -0.56801,-0.92609 -1.80731,-0.92609 -1.22209,0 -1.7901,0.92609 -0.55079,0.90895 -0.56801,2.81257 v 2.53818 q 0,2.02368 0.58522,2.98407 0.60244,0.96039 1.7901,0.96039 1.18766,0 1.75567,-0.90893 0.56802,-0.90895 0.60244,-2.86403 z"
         fill-rule="nonzero"
         id="path119"
         style="stroke-width:1.09959" />
      <path
         fill="#000000"
         d="m 956.04805,-212.66902 q 0,2.79542 -0.9639,4.15026 -0.94668,1.35483 -2.97775,1.35483 -1.99665,0 -2.96054,-1.32053 -0.9639,-1.33769 -0.99833,-3.96162 v -2.12658 q 0,-2.74398 0.94668,-4.08166 0.9639,-1.33769 2.99497,-1.33769 2.03107,0 2.97777,1.28624 0.96389,1.28624 0.9811,3.97877 z m -1.58355,-2.16088 q 0,-2.02368 -0.568,-2.93263 -0.56802,-0.92609 -1.80732,-0.92609 -1.22208,0 -1.79009,0.92609 -0.5508,0.90895 -0.56801,2.81257 v 2.53818 q 0,2.02368 0.58522,2.98407 0.60243,0.96039 1.7901,0.96039 1.18766,0 1.75567,-0.90893 0.56801,-0.90895 0.60243,-2.86403 z"
         fill-rule="nonzero"
         id="path121"
         style="stroke-width:1.09959" />
      <path
         fill="#000000"
         d="m 956.04805,-171.18531 q 0,2.79542 -0.9639,4.15026 -0.94668,1.35483 -2.97775,1.35483 -1.99665,0 -2.96054,-1.32053 -0.9639,-1.33769 -0.99833,-3.96162 v -2.12658 q 0,-2.74397 0.94668,-4.08166 0.9639,-1.33769 2.99497,-1.33769 2.03107,0 2.97777,1.28624 0.96389,1.28624 0.9811,3.97877 z m -1.58355,-2.16088 q 0,-2.02368 -0.568,-2.93263 -0.56802,-0.92609 -1.80732,-0.92609 -1.22208,0 -1.79009,0.92609 -0.5508,0.90895 -0.56801,2.81257 v 2.53818 q 0,2.02368 0.58522,2.98407 0.60243,0.96039 1.7901,0.96039 1.18766,0 1.75567,-0.90893 0.56801,-0.90895 0.60243,-2.86403 z"
         fill-rule="nonzero"
         id="path123"
         style="stroke-width:1.09959" />
      <path
         fill="#000000"
         d="m 956.04805,-129.70158 q 0,2.79542 -0.9639,4.15026 -0.94668,1.35484 -2.97775,1.35484 -1.99665,0 -2.96054,-1.32054 -0.9639,-1.33769 -0.99833,-3.96162 v -2.12658 q 0,-2.74397 0.94668,-4.08166 0.9639,-1.33769 2.99497,-1.33769 2.03107,0 2.97777,1.28625 0.96389,1.28623 0.9811,3.97876 z m -1.58355,-2.16088 q 0,-2.02368 -0.568,-2.93263 -0.56802,-0.92609 -1.80732,-0.92609 -1.22208,0 -1.79009,0.92609 -0.5508,0.90895 -0.56801,2.81258 v 2.53817 q 0,2.02368 0.58522,2.98408 0.60243,0.96039 1.7901,0.96039 1.18766,0 1.75567,-0.90894 0.56801,-0.90895 0.60243,-2.86403 z"
         fill-rule="nonzero"
         id="path125"
         style="stroke-width:1.09959" />
      <path
         fill="#000000"
         d="m 1039.5841,-295.63645 q 0,2.79542 -0.9639,4.15026 -0.9467,1.35484 -2.9778,1.35484 -1.9966,0 -2.9605,-1.32054 -0.9639,-1.33769 -0.9983,-3.96162 v -2.12658 q 0,-2.74397 0.9467,-4.08166 0.9639,-1.33769 2.9949,-1.33769 2.0311,0 2.9778,1.28624 0.9639,1.28624 0.9811,3.97876 z m -1.5835,-2.16088 q 0,-2.02369 -0.5681,-2.93263 -0.568,-0.92609 -1.8073,-0.92609 -1.2221,0 -1.7901,0.92609 -0.5508,0.90894 -0.568,2.81258 v 2.53817 q 0,2.02369 0.5852,2.98408 0.6025,0.96039 1.7901,0.96039 1.1877,0 1.7557,-0.90894 0.568,-0.90895 0.6025,-2.86403 z"
         fill-rule="nonzero"
         id="path127"
         style="stroke-width:1.09959" />
      <path
         fill="#000000"
         d="m 1039.5841,-254.15273 q 0,2.79542 -0.9639,4.15026 -0.9467,1.35483 -2.9778,1.35483 -1.9966,0 -2.9605,-1.32053 -0.9639,-1.33769 -0.9983,-3.96162 v -2.12658 q 0,-2.74398 0.9467,-4.08166 0.9639,-1.33769 2.9949,-1.33769 2.0311,0 2.9778,1.28624 0.9639,1.28624 0.9811,3.97877 z m -1.5835,-2.16088 q 0,-2.02368 -0.5681,-2.93263 -0.568,-0.92609 -1.8073,-0.92609 -1.2221,0 -1.7901,0.92609 -0.5508,0.90895 -0.568,2.81257 v 2.53818 q 0,2.02368 0.5852,2.98407 0.6025,0.96039 1.7901,0.96039 1.1877,0 1.7557,-0.90893 0.568,-0.90895 0.6025,-2.86403 z"
         fill-rule="nonzero"
         id="path129"
         style="stroke-width:1.09959" />
      <path
         fill="#000000"
         d="m 1039.509,-212.66902 q 0,2.79542 -0.9639,4.15026 -0.9467,1.35483 -2.9778,1.35483 -1.9966,0 -2.9605,-1.32053 -0.9639,-1.33769 -0.9984,-3.96162 v -2.12658 q 0,-2.74398 0.9467,-4.08166 0.9639,-1.33769 2.995,-1.33769 2.0311,0 2.9778,1.28624 0.9639,1.28624 0.9811,3.97877 z m -1.5836,-2.16088 q 0,-2.02368 -0.568,-2.93263 -0.568,-0.92609 -1.8073,-0.92609 -1.2221,0 -1.7901,0.92609 -0.5508,0.90895 -0.568,2.81257 v 2.53818 q 0,2.02368 0.5852,2.98407 0.6025,0.96039 1.7901,0.96039 1.1877,0 1.7557,-0.90893 0.568,-0.90895 0.6024,-2.86403 z"
         fill-rule="nonzero"
         id="path131"
         style="stroke-width:1.09959" />
      <path
         fill="#000000"
         d="m 1039.509,-171.18531 q 0,2.79542 -0.9639,4.15026 -0.9467,1.35483 -2.9778,1.35483 -1.9966,0 -2.9605,-1.32053 -0.9639,-1.33769 -0.9984,-3.96162 v -2.12658 q 0,-2.74397 0.9467,-4.08166 0.9639,-1.33769 2.995,-1.33769 2.0311,0 2.9778,1.28624 0.9639,1.28624 0.9811,3.97877 z m -1.5836,-2.16088 q 0,-2.02368 -0.568,-2.93263 -0.568,-0.92609 -1.8073,-0.92609 -1.2221,0 -1.7901,0.92609 -0.5508,0.90895 -0.568,2.81257 v 2.53818 q 0,2.02368 0.5852,2.98407 0.6025,0.96039 1.7901,0.96039 1.1877,0 1.7557,-0.90893 0.568,-0.90895 0.6024,-2.86403 z"
         fill-rule="nonzero"
         id="path133"
         style="stroke-width:1.09959" />
      <path
         fill="#000000"
         d="m 1039.509,-129.70158 q 0,2.79542 -0.9639,4.15026 -0.9467,1.35484 -2.9778,1.35484 -1.9966,0 -2.9605,-1.32054 -0.9639,-1.33769 -0.9984,-3.96162 v -2.12658 q 0,-2.74397 0.9467,-4.08166 0.9639,-1.33769 2.995,-1.33769 2.0311,0 2.9778,1.28625 0.9639,1.28623 0.9811,3.97876 z m -1.5836,-2.16088 q 0,-2.02368 -0.568,-2.93263 -0.568,-0.92609 -1.8073,-0.92609 -1.2221,0 -1.7901,0.92609 -0.5508,0.90895 -0.568,2.81258 v 2.53817 q 0,2.02368 0.5852,2.98408 0.6025,0.96039 1.7901,0.96039 1.1877,0 1.7557,-0.90894 0.568,-0.90895 0.6024,-2.86403 z"
         fill-rule="nonzero"
         id="path135"
         style="stroke-width:1.09959" />
      <path
         fill="#000000"
         d="m 1122.9699,-295.63645 q 0,2.79542 -0.9639,4.15026 -0.9467,1.35484 -2.9778,1.35484 -1.9966,0 -2.9605,-1.32054 -0.9639,-1.33769 -0.9983,-3.96162 v -2.12658 q 0,-2.74397 0.9467,-4.08166 0.9639,-1.33769 2.9949,-1.33769 2.0311,0 2.9778,1.28624 0.9639,1.28624 0.9811,3.97876 z m -1.5835,-2.16088 q 0,-2.02369 -0.5681,-2.93263 -0.568,-0.92609 -1.8073,-0.92609 -1.2221,0 -1.7901,0.92609 -0.5508,0.90894 -0.568,2.81258 v 2.53817 q 0,2.02369 0.5852,2.98408 0.6025,0.96039 1.7901,0.96039 1.1877,0 1.7557,-0.90894 0.568,-0.90895 0.6025,-2.86403 z"
         fill-rule="nonzero"
         id="path137"
         style="stroke-width:1.09959" />
      <path
         fill="#000000"
         d="m 1122.9699,-254.15273 q 0,2.79542 -0.9639,4.15026 -0.9467,1.35483 -2.9778,1.35483 -1.9966,0 -2.9605,-1.32053 -0.9639,-1.33769 -0.9983,-3.96162 v -2.12658 q 0,-2.74398 0.9467,-4.08166 0.9639,-1.33769 2.9949,-1.33769 2.0311,0 2.9778,1.28624 0.9639,1.28624 0.9811,3.97877 z m -1.5835,-2.16088 q 0,-2.02368 -0.5681,-2.93263 -0.568,-0.92609 -1.8073,-0.92609 -1.2221,0 -1.7901,0.92609 -0.5508,0.90895 -0.568,2.81257 v 2.53818 q 0,2.02368 0.5852,2.98407 0.6025,0.96039 1.7901,0.96039 1.1877,0 1.7557,-0.90893 0.568,-0.90895 0.6025,-2.86403 z"
         fill-rule="nonzero"
         id="path139"
         style="stroke-width:1.09959" />
      <path
         fill="#000000"
         d="m 1122.8947,-212.66902 q 0,2.79542 -0.9639,4.15026 -0.9467,1.35483 -2.9777,1.35483 -1.9967,0 -2.9606,-1.32053 -0.9639,-1.33769 -0.9983,-3.96162 v -2.12658 q 0,-2.74398 0.9467,-4.08166 0.9639,-1.33769 2.995,-1.33769 2.031,0 2.9777,1.28624 0.9639,1.28624 0.9811,3.97877 z m -1.5835,-2.16088 q 0,-2.02368 -0.568,-2.93263 -0.568,-0.92609 -1.8073,-0.92609 -1.2221,0 -1.7901,0.92609 -0.5508,0.90895 -0.5681,2.81257 v 2.53818 q 0,2.02368 0.5853,2.98407 0.6024,0.96039 1.7901,0.96039 1.1876,0 1.7556,-0.90893 0.568,-0.90895 0.6025,-2.86403 z"
         fill-rule="nonzero"
         id="path141"
         style="stroke-width:1.09959" />
      <path
         fill="#000000"
         d="m 1122.8947,-171.18531 q 0,2.79542 -0.9639,4.15026 -0.9467,1.35483 -2.9777,1.35483 -1.9967,0 -2.9606,-1.32053 -0.9639,-1.33769 -0.9983,-3.96162 v -2.12658 q 0,-2.74397 0.9467,-4.08166 0.9639,-1.33769 2.995,-1.33769 2.031,0 2.9777,1.28624 0.9639,1.28624 0.9811,3.97877 z m -1.5835,-2.16088 q 0,-2.02368 -0.568,-2.93263 -0.568,-0.92609 -1.8073,-0.92609 -1.2221,0 -1.7901,0.92609 -0.5508,0.90895 -0.5681,2.81257 v 2.53818 q 0,2.02368 0.5853,2.98407 0.6024,0.96039 1.7901,0.96039 1.1876,0 1.7556,-0.90893 0.568,-0.90895 0.6025,-2.86403 z"
         fill-rule="nonzero"
         id="path143"
         style="stroke-width:1.09959" />
      <path
         fill="#000000"
         d="m 1122.8947,-129.70158 q 0,2.79542 -0.9639,4.15026 -0.9467,1.35484 -2.9777,1.35484 -1.9967,0 -2.9606,-1.32054 -0.9639,-1.33769 -0.9983,-3.96162 v -2.12658 q 0,-2.74397 0.9467,-4.08166 0.9639,-1.33769 2.995,-1.33769 2.031,0 2.9777,1.28625 0.9639,1.28623 0.9811,3.97876 z m -1.5835,-2.16088 q 0,-2.02368 -0.568,-2.93263 -0.568,-0.92609 -1.8073,-0.92609 -1.2221,0 -1.7901,0.92609 -0.5508,0.90895 -0.5681,2.81258 v 2.53817 q 0,2.02368 0.5853,2.98408 0.6024,0.96039 1.7901,0.96039 1.1876,0 1.7556,-0.90894 0.568,-0.90895 0.6025,-2.86403 z"
         fill-rule="nonzero"
         id="path145"
         style="stroke-width:1.09959" />
    </g>
  </g>
</svg>
