<?xml version="1.0" encoding="UTF-8" standalone="no"?>
<svg
   version="1.1"
   viewBox="0 0 795.7236 873.24939"
   fill="none"
   stroke="none"
   stroke-linecap="square"
   stroke-miterlimit="10"
   id="svg54"
   sodipodi:docname="esquema_hirst.svg"
   inkscape:version="1.3.2 (091e20e, 2023-11-25)"
   width="795.72357"
   height="873.24939"
   xmlns:inkscape="http://www.inkscape.org/namespaces/inkscape"
   xmlns:sodipodi="http://sodipodi.sourceforge.net/DTD/sodipodi-0.dtd"
   xmlns="http://www.w3.org/2000/svg"
   xmlns:svg="http://www.w3.org/2000/svg">
  <defs
     id="defs54" />
  <sodipodi:namedview
     id="namedview54"
     pagecolor="#505050"
     bordercolor="#ffffff"
     borderopacity="1"
     inkscape:showpageshadow="0"
     inkscape:pageopacity="0"
     inkscape:pagecheckerboard="1"
     inkscape:deskcolor="#505050"
     inkscape:zoom="1.0543986"
     inkscape:cx="294.00647"
     inkscape:cy="395.01192"
     inkscape:window-width="1920"
     inkscape:window-height="1054"
     inkscape:window-x="1440"
     inkscape:window-y="26"
     inkscape:window-maximized="0"
     inkscape:current-layer="svg54" />
  <clipPath
     id="p.0">
    <path
       d="M 0,0 H 831.49603 V 907.0866 H 0 Z"
       clip-rule="nonzero"
       id="path1" />
  </clipPath>
  <path
     stroke="#08ff40"
     stroke-width="4"
     stroke-linejoin="round"
     stroke-linecap="butt"
     d="m 640.43793,285.46119 v 0 c 0,-126.28622 -105.13202,-228.661423 -234.8189,-228.661423 v 0 c -62.27783,0 -122.00495,24.091042 -166.04202,66.973373 -44.0371,42.88234 -68.77688,101.04326 -68.77688,161.68805 v 0 c 0,126.28619 105.13201,228.6614 234.81891,228.6614 v 0 c 129.68688,0 234.81891,-102.37521 234.81891,-228.6614 z"
     fill-rule="evenodd"
     id="path4"
     inkscape:label="cinta_melinex"
     style="stroke:#009e73;stroke-opacity:1" />
  <path
     stroke="#000000"
     stroke-width="1"
     stroke-linejoin="round"
     stroke-linecap="butt"
     d="m 638.49733,285.49608 v 0 c 0,-125.24254 -104.25769,-226.771673 -232.86614,-226.771673 v 0 c -61.75993,0 -120.99037,23.891945 -164.66122,66.419883 -43.67087,42.52794 -68.20491,100.20819 -68.20491,160.35178 v 0 c 0,125.24252 104.25774,226.77167 232.86613,226.77167 v 0 c 128.60845,0 232.86615,-101.52914 232.86615,-226.77167 z"
     fill-rule="evenodd"
     id="path6"
     inkscape:label="tambor" />
  <path
     stroke="#000000"
     stroke-width="1"
     stroke-linejoin="round"
     stroke-linecap="butt"
     d="m 522.06139,287.03544 v 0 c 0,-62.62126 -52.13238,-113.38583 -116.44094,-113.38583 v 0 c -30.88205,0 -60.49928,11.94598 -82.33619,33.20995 -21.8369,21.26396 -34.10474,50.10408 -34.10474,80.17589 v 0 c 0,62.62124 52.13239,113.38583 116.44093,113.38583 v 0 c 64.30856,0 116.44094,-50.76459 116.44094,-113.38583 z"
     fill-rule="evenodd"
     id="path8"
     inkscape:label="reloj" />
  <path
     stroke="#000000"
     stroke-width="1"
     stroke-linejoin="round"
     stroke-linecap="butt"
     d="m 463.84343,285.48033 v 0 c 0,-31.31064 -26.06619,-56.69292 -58.22046,-56.69292 v 0 c -15.44104,0 -30.24963,5.97298 -41.16809,16.60497 -10.91846,10.63199 -17.05237,25.05206 -17.05237,40.08795 v 0 c 0,31.31064 26.06619,56.6929 58.22046,56.6929 v 0 c 32.15427,0 58.22046,-25.38227 58.22046,-56.6929 z"
     fill-rule="evenodd"
     id="path10"
     inkscape:label="centro_reloj" />
  <path
     stroke="#000000"
     stroke-width="1"
     stroke-linejoin="round"
     stroke-linecap="butt"
     d="m 433.07549,258.76988 -13.73627,-0.004 3.43309,3.34647 -41.15738,40.07116 -3.43309,-3.34643 -0.004,13.38171 13.73626,0.004 -3.43304,-3.34643 41.15738,-40.0712 3.43304,3.34646 z"
     fill-rule="evenodd"
     id="path12"
     inkscape:label="flechas_reloj" />
  <g
     id="g102"
     inkscape:label="flecha"
     transform="translate(-18.885565,-16.919393)">
    <path
       stroke="#000000"
       stroke-width="3"
       stroke-linejoin="round"
       stroke-linecap="butt"
       d="m 357.35233,162.84079 v 0 c 17.81754,-17.34975 41.98331,-27.09674 67.18109,-27.09674 12.59888,0 24.93979,2.43675 36.35815,7.04222 5.7092,2.30272 11.18775,5.14765 16.35257,8.50122 2.58243,1.67681 5.08646,3.48076 7.50165,5.40772 0.30188,0.24086 0.60239,0.48365 0.90149,0.72834 l 0.55072,0.45624"
       fill-rule="evenodd"
       id="path15" />
    <path
       fill="#000000"
       stroke="#000000"
       stroke-width="3"
       stroke-linecap="butt"
       d="m 486.198,157.8798 -2.45148,0.12997 4.707,1.8984 -2.38549,-4.47985 z"
       fill-rule="evenodd"
       id="path16" />
  </g>
  <g
     id="g103"
     inkscape:label="flechas"
     transform="translate(-18.885565,-16.919393)">
    <path
       stroke="#000000"
       stroke-width="2"
       stroke-linejoin="round"
       stroke-linecap="butt"
       d="m 18.885565,307.13724 h 62.97502"
       fill-rule="evenodd"
       id="path18" />
    <path
       fill="#000000"
       stroke="#000000"
       stroke-width="2"
       stroke-linecap="butt"
       d="m 81.86059,307.13724 -2.249168,2.24918 6.179535,-2.24918 -6.179535,-2.24918 z"
       fill-rule="evenodd"
       id="path19" />
    <path
       stroke="#000000"
       stroke-width="2"
       stroke-linejoin="round"
       stroke-linecap="butt"
       d="m 18.885565,297.68842 h 62.97502"
       fill-rule="evenodd"
       id="path21" />
    <path
       fill="#000000"
       stroke="#000000"
       stroke-width="2"
       stroke-linecap="butt"
       d="m 81.86059,297.68842 -2.249168,2.24918 6.179535,-2.24918 -6.179535,-2.24915 z"
       fill-rule="evenodd"
       id="path22" />
  </g>
  <g
     id="g104"
     inkscape:label="flechas"
     transform="translate(-18.885565,-16.919393)">
    <path
       stroke="#000000"
       stroke-width="2"
       stroke-linejoin="round"
       stroke-linecap="butt"
       d="m 419.5194,612.02966 v 61.14581"
       fill-rule="evenodd"
       id="path24" />
    <path
       fill="#000000"
       stroke="#000000"
       stroke-width="2"
       stroke-linecap="butt"
       d="m 419.5194,673.1755 -2.24918,-2.24915 2.24918,6.17951 2.24915,-6.17951 z"
       fill-rule="evenodd"
       id="path25" />
    <path
       stroke="#000000"
       stroke-width="2"
       stroke-linejoin="round"
       stroke-linecap="butt"
       d="m 429.2224,612.02966 v 61.14581"
       fill-rule="evenodd"
       id="path27" />
    <path
       fill="#000000"
       stroke="#000000"
       stroke-width="2"
       stroke-linecap="butt"
       d="m 429.2224,673.1755 -2.24918,-2.24915 2.24918,6.17951 2.24915,-6.17951 z"
       fill-rule="evenodd"
       id="path28" />
  </g>
  <path
     fill="#000000"
     d="m 377.32812,362.76976 h -6.23438 v 10.73437 h -3.51562 v -26.53125 h 8.78125 q 4.48437,0 6.89062,2.04688 2.42188,2.03125 2.42188,5.92187 0,2.48438 -1.34375,4.32813 -1.32813,1.84375 -3.71875,2.75 l 6.23437,11.26562 v 0.21875 h -3.75 z m -6.23438,-2.85938 h 5.375 q 2.60938,0 4.14063,-1.34375 1.54687,-1.35937 1.54687,-3.625 0,-2.45312 -1.46875,-3.76562 -1.46875,-1.3125 -4.23437,-1.32813 h -5.35938 z m 27.14002,13.95313 q -4.01562,0 -6.53125,-2.625 -2.51562,-2.64063 -2.51562,-7.04688 v -0.625 q 0,-2.9375 1.125,-5.23437 1.125,-2.3125 3.14062,-3.60938 2.01563,-1.29687 4.35938,-1.29687 3.84375,0 5.96875,2.53125 2.14062,2.53125 2.14062,7.25 v 1.40625 h -13.35937 q 0.0781,2.90625 1.70312,4.70312 1.64063,1.79688 4.15625,1.79688 1.78125,0 3.01563,-0.71875 1.25,-0.73438 2.17187,-1.9375 l 2.0625,1.60937 q -2.48437,3.79688 -7.4375,3.79688 z m -0.42187,-17.67188 q -2.03125,0 -3.42188,1.48438 -1.39062,1.48437 -1.71875,4.15625 h 9.89063 v -0.25 q -0.15625,-2.5625 -1.39063,-3.96875 -1.23437,-1.42188 -3.35937,-1.42188 z m 15.68214,17.3125 h -3.375 v -28 h 3.375 z m 4.49613,-10.04687 q 0,-2.89063 1.14062,-5.20313 1.14063,-2.32812 3.17188,-3.57812 2.03125,-1.25 4.64062,-1.25 4.03125,0 6.51563,2.78125 2.48437,2.78125 2.48437,7.42187 v 0.23438 q 0,2.875 -1.10937,5.17187 -1.09375,2.28125 -3.14063,3.5625 -2.04687,1.26563 -4.71875,1.26563 -4,0 -6.5,-2.78125 -2.48437,-2.79688 -2.48437,-7.39063 z m 3.39062,0.40625 q 0,3.28125 1.51563,5.26562 1.53125,1.98438 4.07812,1.98438 2.57813,0 4.07813,-2.01563 1.51562,-2.01562 1.51562,-5.64062 0,-3.23438 -1.54687,-5.25 -1.53125,-2.01563 -4.07813,-2.01563 -2.5,0 -4.03125,1.98438 -1.53125,1.98437 -1.53125,5.6875 z m 22.27311,-10.07813 v 22 q 0,5.6875 -5.15625,5.6875 -1.10938,0 -2.0625,-0.32812 v -2.70313 q 0.59375,0.14063 1.53125,0.14063 1.125,0 1.71875,-0.60938 0.59375,-0.60937 0.59375,-2.125 v -22.0625 z m -3.71875,-5.23437 q 0,-0.79688 0.5,-1.375 0.5,-0.57813 1.46875,-0.57813 0.98437,0 1.48437,0.57813 0.51563,0.5625 0.51563,1.39062 0,0.8125 -0.51563,1.35938 -0.5,0.54687 -1.48437,0.54687 -0.98438,0 -1.48438,-0.54687 -0.48437,-0.54688 -0.48437,-1.375 z"
     fill-rule="nonzero"
     id="path30"
     inkscape:label="texto_reloj" />
  <path
     fill="#000000"
     d="m 368.97867,429.06171 h -7.3125 v 20.28125 h -2.98437 v -20.28125 h -7.29688 v -2.46875 h 17.59375 z m 11.59375,20.28125 q -0.25,-0.5 -0.40625,-1.78125 -2.01562,2.09375 -4.8125,2.09375 -2.5,0 -4.10937,-1.40625 -1.59375,-1.42187 -1.59375,-3.59375 0,-2.64062 2,-4.09375 2.01562,-1.46875 5.65625,-1.46875 h 2.8125 v -1.32812 q 0,-1.51563 -0.90625,-2.40625 -0.90625,-0.90625 -2.67188,-0.90625 -1.54687,0 -2.59375,0.78125 -1.04687,0.78125 -1.04687,1.89062 h -2.90625 q 0,-1.26562 0.89062,-2.4375 0.90625,-1.1875 2.4375,-1.875 1.54688,-0.6875 3.39063,-0.6875 2.92187,0 4.57812,1.46875 1.65625,1.45313 1.71875,4.01563 v 7.78125 q 0,2.32812 0.59375,3.70312 v 0.25 z m -4.79687,-2.20312 q 1.35937,0 2.57812,-0.70313 1.21875,-0.70312 1.76563,-1.82812 v -3.46875 h -2.26563 q -5.3125,0 -5.3125,3.10937 0,1.35938 0.90625,2.125 0.90625,0.76563 2.32813,0.76563 z m 14.48437,-14.70313 0.0781,1.875 q 1.85937,-2.1875 5.01562,-2.1875 3.54688,0 4.82813,2.71875 0.84375,-1.21875 2.1875,-1.96875 1.35937,-0.75 3.20312,-0.75 5.5625,0 5.65625,5.89063 v 11.32812 h -2.89062 v -11.15625 q 0,-1.8125 -0.82813,-2.70312 -0.82812,-0.90625 -2.78125,-0.90625 -1.60937,0 -2.67187,0.96875 -1.0625,0.95312 -1.23438,2.57812 v 11.21875 h -2.90625 v -11.07812 q 0,-3.6875 -3.60937,-3.6875 -2.84375,0 -3.89063,2.42187 v 12.34375 h -2.89062 v -16.90625 z m 39.64063,8.64063 q 0,3.875 -1.78125,6.23437 -1.78125,2.34375 -4.78125,2.34375 -3.20313,0 -4.95313,-2.26562 l -0.14062,1.95312 h -2.65625 v -24 h 2.89062 v 8.95313 q 1.75,-2.17188 4.82813,-2.17188 3.07812,0 4.82812,2.32813 1.76563,2.32812 1.76563,6.375 z m -2.89063,-0.32813 q 0,-2.95312 -1.14062,-4.5625 -1.14063,-1.60937 -3.28125,-1.60937 -2.85938,0 -4.10938,2.65625 v 7.3125 q 1.32813,2.65625 4.14063,2.65625 2.07812,0 3.23437,-1.60938 1.15625,-1.60937 1.15625,-4.84375 z m 5.76563,-0.0156 q 0,-2.48438 0.96875,-4.46875 0.98437,-1.98438 2.71875,-3.0625 1.75,-1.07813 3.98437,-1.07813 3.45313,0 5.57813,2.39063 2.14062,2.39062 2.14062,6.35937 v 0.20313 q 0,2.46875 -0.95312,4.4375 -0.9375,1.95312 -2.70313,3.04687 -1.75,1.09375 -4.03125,1.09375 -3.4375,0 -5.57812,-2.39062 -2.125,-2.39063 -2.125,-6.32813 z m 2.90625,0.34375 q 0,2.8125 1.29687,4.51562 1.3125,1.70313 3.5,1.70313 2.20313,0 3.5,-1.71875 1.29688,-1.73438 1.29688,-4.84375 0,-2.78125 -1.32813,-4.5 -1.3125,-1.73438 -3.5,-1.73438 -2.14062,0 -3.45312,1.70313 -1.3125,1.70312 -1.3125,4.875 z m 24.28125,-6.04688 q -0.65625,-0.10937 -1.42188,-0.10937 -2.84375,0 -3.85937,2.42187 v 12 h -2.89063 v -16.90627 h 2.8125 l 0.0469,1.95313 q 1.42187,-2.26563 4.03125,-2.26563 0.84375,0 1.28125,0.21875 z"
     fill-rule="nonzero"
     id="path32"
     inkscape:label="texto_tambor" />
  <path
     fill="#000000"
     d="m 275.51303,782.55894 v -26.53125 h 8.67188 q 4.32812,0 6.5,1.78125 2.1875,1.78125 2.1875,5.28125 0,1.85938 -1.0625,3.29688 -1.0625,1.42187 -2.875,2.20312 2.14062,0.60938 3.39062,2.29688 1.25,1.6875 1.25,4.01562 0,3.57813 -2.3125,5.625 -2.3125,2.03125 -6.54687,2.03125 z m 3.5,-12.40625 v 9.54688 h 5.78125 q 2.4375,0 3.84375,-1.26563 1.42188,-1.26562 1.42188,-3.5 0,-4.78125 -5.21875,-4.78125 z m 0,-2.8125 h 5.28125 q 2.29688,0 3.67188,-1.14062 1.39062,-1.15625 1.39062,-3.125 0,-2.1875 -1.28125,-3.17188 -1.28125,-1 -3.89062,-1 h -5.17188 z m 18.31708,5.17188 q 0,-2.89063 1.14062,-5.20313 1.14063,-2.32812 3.17188,-3.57812 2.03125,-1.25 4.64062,-1.25 4.03125,0 6.51563,2.78125 2.48437,2.78125 2.48437,7.42187 v 0.23438 q 0,2.875 -1.10937,5.17187 -1.09375,2.28125 -3.14063,3.5625 -2.04687,1.26563 -4.71875,1.26563 -4,0 -6.5,-2.78125 -2.48437,-2.79688 -2.48437,-7.39063 z m 3.39062,0.40625 q 0,3.28125 1.51563,5.26562 1.53125,1.98438 4.07812,1.98438 2.57813,0 4.07813,-2.01563 1.51562,-2.01562 1.51562,-5.64062 0,-3.23438 -1.54687,-5.25 -1.53125,-2.01563 -4.07813,-2.01563 -2.5,0 -4.03125,1.98438 -1.53125,1.98437 -1.53125,5.6875 z m 21.96057,-10.07813 0.0937,2.1875 q 2.17187,-2.54687 5.85937,-2.54687 4.125,0 5.625,3.15625 0.98438,-1.42188 2.5625,-2.28125 1.57813,-0.875 3.71875,-0.875 6.5,0 6.60938,6.85937 v 13.21875 h -3.375 v -13.01562 q 0,-2.10938 -0.96875,-3.15625 -0.96875,-1.04688 -3.25,-1.04688 -1.875,0 -3.10938,1.125 -1.23437,1.10938 -1.4375,3 v 13.09375 h -3.39062 v -12.92187 q 0,-4.29688 -4.21875,-4.29688 -3.3125,0 -4.53125,2.8125 v 14.40625 h -3.375 v -19.71875 z m 46.24805,10.07813 q 0,4.51562 -2.07812,7.26562 -2.07813,2.73438 -5.57813,2.73438 -3.73437,0 -5.78125,-2.64063 l -0.15625,2.28125 h -3.10937 v -28 h 3.375 v 10.45313 q 2.04687,-2.53125 5.625,-2.53125 3.59375,0 5.64062,2.71875 2.0625,2.70312 2.0625,7.42187 z m -3.375,-0.39063 q 0,-3.4375 -1.32812,-5.3125 -1.32813,-1.875 -3.82813,-1.875 -3.34375,0 -4.79687,3.09375 v 8.53125 q 1.54687,3.09375 4.82812,3.09375 2.42188,0 3.76563,-1.875 1.35937,-1.875 1.35937,-5.65625 z m 19.80176,10.03125 q -0.29688,-0.57812 -0.48438,-2.07812 -2.34375,2.4375 -5.60937,2.4375 -2.92188,0 -4.79688,-1.64063 -1.85937,-1.65625 -1.85937,-4.1875 0,-3.07812 2.34375,-4.78125 2.34375,-1.70312 6.59375,-1.70312 h 3.28125 v -1.54688 q 0,-1.78125 -1.0625,-2.82812 -1.0625,-1.04688 -3.10938,-1.04688 -1.8125,0 -3.03125,0.92188 -1.21875,0.90625 -1.21875,2.20312 h -3.39062 q 0,-1.48437 1.04687,-2.85937 1.04688,-1.375 2.84375,-2.17188 1.79688,-0.79687 3.9375,-0.79687 3.42188,0 5.34375,1.70312 1.9375,1.70313 2.01563,4.6875 v 9.07813 q 0,2.71875 0.6875,4.3125 v 0.29687 z m -5.60938,-2.5625 q 1.59375,0 3.01563,-0.8125 1.42187,-0.82812 2.0625,-2.14062 v -4.04688 h -2.64063 q -6.20312,0 -6.20312,3.625 0,1.57813 1.04687,2.48438 1.0625,0.89062 2.71875,0.89062 z m 22.15476,-7.46875 q 0,-4.53125 2.14063,-7.28125 2.15625,-2.76562 5.64062,-2.76562 3.46875,0 5.48438,2.35937 v -10.28125 h 3.375 v 28 h -3.09375 l -0.17188,-2.10937 q -2.01562,2.46875 -5.625,2.46875 -3.4375,0 -5.59375,-2.79688 -2.15625,-2.8125 -2.15625,-7.32812 z m 3.375,0.39063 q 0,3.35937 1.375,5.25 1.39063,1.89062 3.82813,1.89062 3.21875,0 4.6875,-2.875 v -9.0625 q -1.51563,-2.78125 -4.64063,-2.78125 -2.48437,0 -3.875,1.92188 -1.375,1.90625 -1.375,5.65625 z m 26.67677,10 q -4.01563,0 -6.53125,-2.625 -2.51563,-2.64063 -2.51563,-7.04688 v -0.625 q 0,-2.9375 1.125,-5.23437 1.125,-2.3125 3.14063,-3.60938 2.01562,-1.29687 4.35937,-1.29687 3.84375,0 5.96875,2.53125 2.14063,2.53125 2.14063,7.25 v 1.40625 h -13.35938 q 0.0781,2.90625 1.70313,4.70312 1.64062,1.79688 4.15625,1.79688 1.78125,0 3.01562,-0.71875 1.25,-0.73438 2.17188,-1.9375 l 2.0625,1.60937 q -2.48438,3.79688 -7.4375,3.79688 z m -0.42188,-17.67188 q -2.03125,0 -3.42187,1.48438 -1.39063,1.48437 -1.71875,4.15625 h 9.89062 v -0.25 q -0.15625,-2.5625 -1.39062,-3.96875 -1.23438,-1.42188 -3.35938,-1.42188 z m 27.76679,12.73438 4.875,-15.14063 h 3.45315 l -7.07815,19.71875 h -2.5625 l -7.15625,-19.71875 h 3.45312 z m 23.47928,4.57812 q -0.29688,-0.57812 -0.48438,-2.07812 -2.34375,2.4375 -5.60937,2.4375 -2.92188,0 -4.79688,-1.64063 -1.85937,-1.65625 -1.85937,-4.1875 0,-3.07812 2.34375,-4.78125 2.34375,-1.70312 6.59375,-1.70312 h 3.28125 v -1.54688 q 0,-1.78125 -1.0625,-2.82812 -1.0625,-1.04688 -3.10938,-1.04688 -1.8125,0 -3.03125,0.92188 -1.21875,0.90625 -1.21875,2.20312 h -3.39062 q 0,-1.48437 1.04687,-2.85937 1.04688,-1.375 2.84375,-2.17188 1.79688,-0.79687 3.9375,-0.79687 3.42188,0 5.34375,1.70312 1.9375,1.70313 2.01563,4.6875 v 9.07813 q 0,2.71875 0.6875,4.3125 v 0.29687 z m -5.60938,-2.5625 q 1.59375,0 3.01563,-0.8125 1.42187,-0.82812 2.0625,-2.14062 v -4.04688 h -2.64063 q -6.20312,0 -6.20312,3.625 0,1.57813 1.04687,2.48438 1.0625,0.89062 2.71875,0.89062 z m 21.64816,0.17188 q 1.79688,0 3.14063,-1.09375 1.35937,-1.09375 1.5,-2.73438 h 3.1875 q -0.0937,1.70313 -1.17188,3.23438 -1.0625,1.53125 -2.85937,2.4375 -1.79688,0.90625 -3.79688,0.90625 -4.03125,0 -6.42184,-2.6875 -2.375,-2.6875 -2.375,-7.34375 v -0.57813 q 0,-2.875 1.0625,-5.10937 1.0625,-2.25 3.03122,-3.48438 1.98437,-1.23437 4.67187,-1.23437 3.32813,0 5.51563,1.98437 2.20312,1.98438 2.34375,5.15625 h -3.1875 q -0.14063,-1.92187 -1.45313,-3.14062 -1.29687,-1.23438 -3.21875,-1.23438 -2.5625,0 -3.98437,1.85938 -1.40625,1.84375 -1.40625,5.34375 v 0.625 q 0,3.42187 1.40625,5.26562 1.40625,1.82813 4.01562,1.82813 z m 15.28894,2.39062 h -3.39062 v -19.71875 h 3.39062 z m 0.0312,-27.98437 h 4.07813 l -4.89063,5.35937 h -2.71875 z m 4.62891,17.9375 q 0,-2.89063 1.14063,-5.20313 1.14062,-2.32812 3.17187,-3.57812 2.03125,-1.25 4.64063,-1.25 4.03125,0 6.51562,2.78125 2.48438,2.78125 2.48438,7.42187 v 0.23438 q 0,2.875 -1.10938,5.17187 -1.09375,2.28125 -3.14062,3.5625 -2.04688,1.26563 -4.71875,1.26563 -4,0 -6.5,-2.78125 -2.48438,-2.79688 -2.48438,-7.39063 z m 3.39063,0.40625 q 0,3.28125 1.51562,5.26562 1.53125,1.98438 4.07813,1.98438 2.57812,0 4.07812,-2.01563 1.51563,-2.01562 1.51563,-5.64062 0,-3.23438 -1.54688,-5.25 -1.53125,-2.01563 -4.07812,-2.01563 -2.5,0 -4.03125,1.98438 -1.53125,1.98437 -1.53125,5.6875 z"
     fill-rule="nonzero"
     id="path34"
     inkscape:label="texto_bomba_vacio" />
  <g
     id="g105"
     inkscape:label="muestreador"
     transform="translate(-18.885565,-16.919393)">
    <path
       stroke="#000000"
       stroke-width="4"
       stroke-linejoin="round"
       stroke-linecap="butt"
       d="M 559.4069,586.67004 H 442.97266 v 113.3844 l 88.61368,-0.99457"
       fill-rule="evenodd"
       id="path36" />
    <path
       stroke="#000000"
       stroke-width="4"
       stroke-linejoin="round"
       stroke-linecap="butt"
       d="m 288.67084,586.67004 h 116.43423 v 113.3844 l -88.61365,-0.99457"
       fill-rule="evenodd"
       id="path38" />
    <path
       stroke="#000000"
       stroke-width="4"
       stroke-linejoin="round"
       stroke-linecap="butt"
       d="m 133.3162,298.67004 -38.76616,0.12338 39.14888,-38 -0.25604,-241.750667 581.9962,-0.12336 0.2561,567.123397 H 560.12114 L 531.23857,699.4181 764.08885,699.29475 812.60918,887.91938 36.272778,888.16877 84.793126,699.29475 317.6434,699.16877 288.63412,585.91938 H 133.18681 l 0.25606,-242.3753 -38.636783,-37.12598 h 38.380723"
       fill-rule="evenodd"
       id="path40" />
    <path
       stroke="#000000"
       stroke-width="4"
       stroke-linejoin="round"
       stroke-linecap="butt"
       d="M 133.69891,298.16873 V 261.16086"
       fill-rule="evenodd"
       id="path42" />
    <path
       stroke="#000000"
       stroke-width="4"
       stroke-linejoin="round"
       stroke-linecap="butt"
       d="m 133.18681,307.16873 0.51749,37.51181"
       fill-rule="evenodd"
       id="path44" />
  </g>
  <g
     id="g106"
     inkscape:label="flecha"
     transform="translate(-18.885565,-16.919393)">
    <path
       stroke="#000000"
       stroke-width="2"
       stroke-linejoin="round"
       stroke-linecap="butt"
       d="m 588.46875,469.5846 -0.0206,0.10251 c -0.16089,0.76773 -0.34796,1.53494 -0.56073,2.30136 -0.85126,3.06576 -2.11438,6.11945 -3.7619,9.14914 -3.29511,6.05932 -8.12793,12.02246 -14.27875,17.79324 -12.3017,11.5416 -29.87549,22.31372 -50.96405,31.547 -42.17718,18.46655 -98.41342,30.77759 -154.64963,30.77759"
       fill-rule="evenodd"
       id="path46" />
    <path
       fill="#000000"
       stroke="#000000"
       stroke-width="2"
       stroke-linecap="butt"
       d="m 588.46875,469.5846 2.00433,2.46982 -1.59765,-6.37909 -2.87653,5.91366 z"
       fill-rule="evenodd"
       id="path47" />
  </g>
  <path
     fill="#000000"
     d="m 142.0457,549.34941 q -0.48438,4.21875 -3.10938,6.5 -2.60937,2.28125 -6.9375,2.28125 -4.70312,0 -7.54687,-3.35937 -2.82813,-3.375 -2.82813,-9.03125 v -2.54688 q 0,-3.70312 1.3125,-6.5 1.32813,-2.8125 3.75,-4.3125 2.42188,-1.51562 5.60938,-1.51562 4.23437,0 6.78125,2.35937 2.5625,2.35938 2.96875,6.53125 h -3.51563 q -0.45312,-3.15625 -1.98437,-4.57812 -1.51563,-1.42188 -4.25,-1.42188 -3.34375,0 -5.25,2.48438 -1.90625,2.46875 -1.90625,7.04687 v 2.5625 q 0,4.32813 1.79687,6.875 1.8125,2.54688 5.0625,2.54688 2.90625,0 4.46875,-1.3125 1.5625,-1.32813 2.0625,-4.60938 z m 7.92109,8.42188 h -3.375 v -19.71875 h 3.375 z m -3.65625,-24.95313 q 0,-0.8125 0.5,-1.375 0.51562,-0.57812 1.5,-0.57812 0.98437,0 1.48437,0.57812 0.51563,0.5625 0.51563,1.39063 0,0.8125 -0.51563,1.35937 -0.5,0.54688 -1.48437,0.54688 -0.98438,0 -1.5,-0.54688 -0.5,-0.54687 -0.5,-1.375 z m 12.23052,5.23438 0.10938,2.46875 q 2.26562,-2.82813 5.90625,-2.82813 6.26562,0 6.3125,7.04688 v 13.03125 h -3.375 v -13.04688 q -0.0156,-2.14062 -0.96875,-3.15625 -0.95313,-1.01562 -2.98438,-1.01562 -1.64062,0 -2.89062,0.875 -1.23438,0.875 -1.92188,2.29687 v 14.04688 h -3.375 v -19.71875 z m 21.9867,-4.78125 v 4.78125 h 3.6875 v 2.60937 h -3.6875 v 12.21875 q 0,1.1875 0.48438,1.78125 0.5,0.59375 1.6875,0.59375 0.57812,0 1.60937,-0.21875 v 2.73438 q -1.34375,0.35937 -2.59375,0.35937 -2.26562,0 -3.42187,-1.35937 -1.14063,-1.375 -1.14063,-3.89063 v -12.21875 h -3.59375 v -2.60937 h 3.59375 v -4.78125 z m 19.803,24.5 q -0.29688,-0.57813 -0.48438,-2.07813 -2.34375,2.4375 -5.60937,2.4375 -2.92188,0 -4.79688,-1.64062 -1.85937,-1.65625 -1.85937,-4.1875 0,-3.07813 2.34375,-4.78125 2.34375,-1.70313 6.59375,-1.70313 h 3.28125 v -1.54687 q 0,-1.78125 -1.0625,-2.82813 -1.0625,-1.04687 -3.10938,-1.04687 -1.8125,0 -3.03125,0.92187 -1.21875,0.90625 -1.21875,2.20313 h -3.39062 q 0,-1.48438 1.04687,-2.85938 1.04688,-1.375 2.84375,-2.17187 1.79688,-0.79688 3.9375,-0.79688 3.42188,0 5.34375,1.70313 1.9375,1.70312 2.01563,4.6875 v 9.07812 q 0,2.71875 0.6875,4.3125 v 0.29688 z m -5.60938,-2.5625 q 1.59375,0 3.01563,-0.8125 1.42187,-0.82813 2.0625,-2.14063 v -4.04687 h -2.64063 q -6.20312,0 -6.20312,3.625 0,1.57812 1.04687,2.48437 1.0625,0.89063 2.71875,0.89063 z m 28.01412,-23.96875 8.6875,21.64062 8.67187,-21.64062 h 4.53125 v 26.53125 h -3.5 v -10.32813 l 0.32813,-11.15625 -8.70313,21.48438 h -2.6875 l -8.6875,-21.4375 0.34375,11.10937 v 10.32813 h -3.5 v -26.53125 z m 35.72982,26.89062 q -4.01562,0 -6.53125,-2.625 -2.51562,-2.64062 -2.51562,-7.04687 v -0.625 q 0,-2.9375 1.125,-5.23438 1.125,-2.3125 3.14062,-3.60937 2.01563,-1.29688 4.35938,-1.29688 3.84375,0 5.96875,2.53125 2.14062,2.53125 2.14062,7.25 v 1.40625 h -13.35937 q 0.0781,2.90625 1.70312,4.70313 1.64063,1.79687 4.15625,1.79687 1.78125,0 3.01563,-0.71875 1.25,-0.73437 2.17187,-1.9375 l 2.0625,1.60938 q -2.48437,3.79687 -7.4375,3.79687 z m -0.42187,-17.67187 q -2.03125,0 -3.42188,1.48437 -1.39062,1.48438 -1.71875,4.15625 h 9.89063 v -0.25 q -0.15625,-2.5625 -1.39063,-3.96875 -1.23437,-1.42187 -3.35937,-1.42187 z m 15.68216,17.3125 h -3.375 v -28 h 3.375 z m 9.05863,0 h -3.375 v -19.71875 h 3.375 z m -3.65625,-24.95313 q 0,-0.8125 0.5,-1.375 0.51562,-0.57812 1.5,-0.57812 0.98437,0 1.48437,0.57812 0.51563,0.5625 0.51563,1.39063 0,0.8125 -0.51563,1.35937 -0.5,0.54688 -1.48437,0.54688 -0.98438,0 -1.5,-0.54688 -0.5,-0.54687 -0.5,-1.375 z m 12.23052,5.23438 0.10938,2.46875 q 2.26562,-2.82813 5.90625,-2.82813 6.26562,0 6.3125,7.04688 v 13.03125 h -3.375 v -13.04688 q -0.0156,-2.14062 -0.96875,-3.15625 -0.95313,-1.01562 -2.98438,-1.01562 -1.64062,0 -2.89062,0.875 -1.23438,0.875 -1.92188,2.29687 v 14.04688 h -3.375 v -19.71875 z m 25.59607,20.07812 q -4.01562,0 -6.53125,-2.625 -2.51562,-2.64062 -2.51562,-7.04687 v -0.625 q 0,-2.9375 1.125,-5.23438 1.125,-2.3125 3.14062,-3.60937 2.01563,-1.29688 4.35938,-1.29688 3.84375,0 5.96875,2.53125 2.14062,2.53125 2.14062,7.25 v 1.40625 h -13.35937 q 0.0781,2.90625 1.70312,4.70313 1.64063,1.79687 4.15625,1.79687 1.78125,0 3.01563,-0.71875 1.25,-0.73437 2.17187,-1.9375 l 2.0625,1.60938 q -2.48437,3.79687 -7.4375,3.79687 z m -0.42187,-17.67187 q -2.03125,0 -3.42188,1.48437 -1.39062,1.48438 -1.71875,4.15625 h 9.89063 v -0.25 q -0.15625,-2.5625 -1.39063,-3.96875 -1.23437,-1.42187 -3.35937,-1.42187 z m 18.63529,4.79687 4.375,-7.20312 h 3.9375 l -6.45313,9.75 6.65625,9.96875 h -3.90625 l -4.5625,-7.375 -4.54687,7.375 h -3.92188 l 6.65625,-9.96875 -6.45312,-9.75 h 3.89062 z"
     fill-rule="nonzero"
     id="path49"
     inkscape:label="texto_cinta_melinex" />
  <g
     id="g107"
     inkscape:label="flecha"
     transform="translate(-18.885565,-16.919393)">
    <path
       stroke="#000000"
       stroke-width="2"
       stroke-linejoin="round"
       stroke-linecap="butt"
       d="m 498.56763,162.7201 0.37198,-0.0124 c 0.47763,-0.0176 0.9545,-0.037 1.43054,-0.058 0.95212,-0.0421 1.90085,-0.0911 2.84619,-0.14683 3.7814,-0.22287 7.50824,-0.55361 11.17441,-0.98499 7.33234,-0.86275 14.42206,-2.12813 21.22058,-3.73862 13.59686,-3.22096 26.02875,-7.82234 36.90625,-13.34399 21.75513,-11.0433 37.29297,-25.76772 43.49964,-40.49213 12.41339,-29.448803 -12.49781,-58.897626 -24.99561,-58.897626"
       fill-rule="evenodd"
       id="path51" />
    <path
       fill="#000000"
       stroke="#000000"
       stroke-width="2"
       stroke-linecap="butt"
       d="m 498.56763,162.7201 2.20923,-2.28842 -6.13898,2.35763 6.21817,2.14 z"
       fill-rule="evenodd"
       id="path52" />
  </g>
  <path
     fill="#000000"
     d="m 137.55572,29.723975 q -4.51563,-1.296875 -6.5625,-3.171875 -2.04688,-1.890625 -2.04688,-4.671875 0,-3.125 2.5,-5.171875 2.51563,-2.062498 6.51563,-2.062498 2.73437,0 4.875,1.062498 2.15625,1.0625 3.32812,2.921875 1.17188,1.859375 1.17188,4.0625 h -3.51563 q 0,-2.40625 -1.53125,-3.78125 -1.53125,-1.375 -4.32812,-1.375 -2.57813,0 -4.03125,1.140625 -1.45313,1.125 -1.45313,3.15625 0,1.625 1.375,2.75 1.375,1.109375 4.6875,2.046875 3.3125,0.921875 5.17188,2.046875 1.875,1.125 2.76562,2.625 0.90625,1.484375 0.90625,3.5 0,3.234375 -2.51562,5.171875 -2.5,1.9375 -6.71875,1.9375 -2.73438,0 -5.10938,-1.046875 -2.35937,-1.046875 -3.65625,-2.859375 -1.28125,-1.828125 -1.28125,-4.140625 h 3.51563 q 0,2.40625 1.78125,3.796875 1.78125,1.390625 4.75,1.390625 2.76562,0 4.23437,-1.125 1.48438,-1.125 1.48438,-3.078125 0,-1.953125 -1.375,-3.015625 -1.35938,-1.078125 -4.9375,-2.109375 z m 21.97348,12.1875 q -4.01563,0 -6.53125,-2.625 -2.51563,-2.640625 -2.51563,-7.046875 v -0.625 q 0,-2.9375 1.125,-5.234375 1.125,-2.3125 3.14063,-3.609375 2.01562,-1.296875 4.35937,-1.296875 3.84375,0 5.96875,2.53125 2.14063,2.53125 2.14063,7.25 v 1.40625 h -13.35938 q 0.0781,2.90625 1.70313,4.703125 1.64062,1.796875 4.15625,1.796875 1.78125,0 3.01562,-0.71875 1.25,-0.734375 2.17188,-1.9375 l 2.0625,1.609375 q -2.48438,3.796875 -7.4375,3.796875 z M 159.10732,24.2396 q -2.03125,0 -3.42187,1.484375 -1.39063,1.484375 -1.71875,4.15625 h 9.89062 v -0.25 q -0.15625,-2.5625 -1.39062,-3.96875 -1.23438,-1.421875 -3.35938,-1.421875 z m 15.19777,-2.40625 0.10937,2.46875 q 2.26563,-2.828125 5.90625,-2.828125 6.26563,0 6.3125,7.046875 V 41.5521 h -3.375 V 28.505225 q -0.0156,-2.140625 -0.96875,-3.15625 -0.95312,-1.015625 -2.98437,-1.015625 -1.64063,0 -2.89063,0.875 -1.23437,0.875 -1.92187,2.296875 V 41.5521 h -3.375 V 21.83335 Z m 21.9867,-4.78125 v 4.78125 h 3.6875 v 2.609375 h -3.6875 v 12.21875 q 0,1.1875 0.48438,1.78125 0.5,0.59375 1.6875,0.59375 0.57812,0 1.60937,-0.21875 V 41.5521 q -1.34375,0.359375 -2.59375,0.359375 -2.26562,0 -3.42187,-1.359375 -1.14063,-1.375 -1.14063,-3.890625 v -12.21875 h -3.59375 V 21.83335 h 3.59375 V 17.0521 Z m 11.28737,24.5 h -3.375 V 21.83335 h 3.375 z m -3.65625,-24.953125 q 0,-0.8125 0.5,-1.375 0.51563,-0.578123 1.5,-0.578123 0.98438,0 1.48438,0.578123 0.51562,0.5625 0.51562,1.390625 0,0.8125 -0.51562,1.359375 -0.5,0.546875 -1.48438,0.546875 -0.98437,0 -1.5,-0.546875 -0.5,-0.546875 -0.5,-1.375 z m 8.23052,14.921875 q 0,-4.53125 2.14063,-7.28125 2.15625,-2.765625 5.64062,-2.765625 3.46875,0 5.48438,2.359375 V 13.552102 h 3.375 V 41.5521 h -3.09375 l -0.17188,-2.109375 q -2.01562,2.46875 -5.625,2.46875 -3.4375,0 -5.59375,-2.796875 -2.15625,-2.8125 -2.15625,-7.328125 z m 3.375,0.390625 q 0,3.359375 1.375,5.25 1.39063,1.890625 3.82813,1.890625 3.21875,0 4.6875,-2.875 v -9.0625 q -1.51563,-2.78125 -4.64063,-2.78125 -2.48437,0 -3.875,1.921875 -1.375,1.90625 -1.375,5.65625 z m 17.59864,-0.40625 q 0,-2.890625 1.14062,-5.203125 1.14063,-2.328125 3.17188,-3.578125 2.03125,-1.25 4.64062,-1.25 4.03125,0 6.51563,2.78125 2.48437,2.78125 2.48437,7.421875 v 0.234375 q 0,2.875 -1.10937,5.171875 -1.09375,2.28125 -3.14063,3.5625 -2.04687,1.265625 -4.71875,1.265625 -4,0 -6.5,-2.78125 -2.48437,-2.796875 -2.48437,-7.390625 z m 3.39062,0.40625 q 0,3.28125 1.51563,5.265625 1.53125,1.984375 4.07812,1.984375 2.57813,0 4.07813,-2.015625 1.51562,-2.015625 1.51562,-5.640625 0,-3.234375 -1.54687,-5.25 -1.53125,-2.015625 -4.07813,-2.015625 -2.5,0 -4.03125,1.984375 -1.53125,1.984375 -1.53125,5.6875 z M 263.7348,31.52085 q 0,-4.53125 2.14062,-7.28125 2.15625,-2.765625 5.64063,-2.765625 3.46875,0 5.48437,2.359375 V 13.552102 h 3.375 V 41.5521 h -3.09375 l -0.17187,-2.109375 q -2.01563,2.46875 -5.625,2.46875 -3.4375,0 -5.59375,-2.796875 -2.15625,-2.8125 -2.15625,-7.328125 z m 3.375,0.390625 q 0,3.359375 1.375,5.25 1.39062,1.890625 3.82812,1.890625 3.21875,0 4.6875,-2.875 v -9.0625 q -1.51562,-2.78125 -4.64062,-2.78125 -2.48438,0 -3.875,1.921875 -1.375,1.90625 -1.375,5.65625 z m 26.67676,10 q -4.01563,0 -6.53125,-2.625 -2.51563,-2.640625 -2.51563,-7.046875 v -0.625 q 0,-2.9375 1.125,-5.234375 1.125,-2.3125 3.14063,-3.609375 2.01562,-1.296875 4.35937,-1.296875 3.84375,0 5.96875,2.53125 2.14063,2.53125 2.14063,7.25 v 1.40625 h -13.35938 q 0.0781,2.90625 1.70313,4.703125 1.64062,1.796875 4.15625,1.796875 1.78125,0 3.01562,-0.71875 1.25,-0.734375 2.17188,-1.9375 l 2.0625,1.609375 q -2.48438,3.796875 -7.4375,3.796875 z M 293.36468,24.2396 q -2.03125,0 -3.42187,1.484375 -1.39063,1.484375 -1.71875,4.15625 h 9.89062 v -0.25 q -0.15625,-2.5625 -1.39062,-3.96875 -1.23438,-1.421875 -3.35938,-1.421875 z m 20.45432,7.28125 q 0,-4.609375 2.125,-7.328125 2.14062,-2.71875 5.65625,-2.71875 3.60937,0 5.64062,2.546875 l 0.15625,-2.1875 h 3.07813 v 19.25 q 0,3.828125 -2.26563,6.031254 -2.26562,2.203125 -6.09375,2.203125 -2.14062,0 -4.1875,-0.921875 -2.03125,-0.90625 -3.10937,-2.484379 l 1.75,-2.03125 q 2.17187,2.6875 5.3125,2.6875 2.45312,0 3.82812,-1.390625 1.375,-1.390625 1.375,-3.890625 V 39.58335 q -2.01562,2.328125 -5.51562,2.328125 -3.46875,0 -5.60938,-2.78125 Q 313.819,36.33335 313.819,31.52085 Z m 3.39062,0.390625 q 0,3.328125 1.35938,5.234375 1.375,1.90625 3.82812,1.90625 3.20313,0 4.6875,-2.890625 V 27.14585 q -1.54687,-2.8125 -4.64062,-2.8125 -2.46875,0 -3.85938,1.921875 -1.375,1.90625 -1.375,5.65625 z m 22.02051,9.640625 h -3.375 V 21.83335 h 3.375 z m -3.65625,-24.953125 q 0,-0.8125 0.5,-1.375 0.51562,-0.578123 1.5,-0.578123 0.98437,0 1.48437,0.578123 0.51563,0.5625 0.51563,1.390625 0,0.8125 -0.51563,1.359375 -0.5,0.546875 -1.48437,0.546875 -0.98438,0 -1.5,-0.546875 -0.5,-0.546875 -0.5,-1.375 z m 18.57428,8.25 q -0.76563,-0.125 -1.65625,-0.125 -3.3125,0 -4.5,2.828125 v 14 h -3.375 V 21.83335 h 3.28125 l 0.0625,2.28125 q 1.65625,-2.640625 4.70312,-2.640625 0.98438,0 1.48438,0.25 z m 1.8446,6.65625 q 0,-2.890625 1.14063,-5.203125 1.14062,-2.328125 3.17187,-3.578125 2.03125,-1.25 4.64063,-1.25 4.03125,0 6.51562,2.78125 2.48438,2.78125 2.48438,7.421875 v 0.234375 q 0,2.875 -1.10938,5.171875 -1.09375,2.28125 -3.14062,3.5625 -2.04688,1.265625 -4.71875,1.265625 -4,0 -6.5,-2.78125 -2.48438,-2.796875 -2.48438,-7.390625 z m 3.39063,0.40625 q 0,3.28125 1.51562,5.265625 1.53125,1.984375 4.07813,1.984375 2.57812,0 4.07812,-2.015625 1.51563,-2.015625 1.51563,-5.640625 0,-3.234375 -1.54688,-5.25 -1.53125,-2.015625 -4.07812,-2.015625 -2.5,0 -4.03125,1.984375 -1.53125,1.984375 -1.53125,5.6875 z m 27.2171,-0.390625 q 0,-4.53125 2.14063,-7.28125 2.15625,-2.765625 5.64062,-2.765625 3.46875,0 5.48438,2.359375 V 13.552102 h 3.375 V 41.5521 h -3.09375 l -0.17188,-2.109375 q -2.01562,2.46875 -5.625,2.46875 -3.4375,0 -5.59375,-2.796875 -2.15625,-2.8125 -2.15625,-7.328125 z m 3.375,0.390625 q 0,3.359375 1.375,5.25 1.39063,1.890625 3.82813,1.890625 3.21875,0 4.6875,-2.875 v -9.0625 q -1.51563,-2.78125 -4.64063,-2.78125 -2.48437,0 -3.875,1.921875 -1.375,1.90625 -1.375,5.65625 z m 26.67676,10 q -4.01563,0 -6.53125,-2.625 -2.51563,-2.640625 -2.51563,-7.046875 v -0.625 q 0,-2.9375 1.125,-5.234375 1.125,-2.3125 3.14063,-3.609375 2.01562,-1.296875 4.35937,-1.296875 3.84375,0 5.96875,2.53125 2.14063,2.53125 2.14063,7.25 v 1.40625 h -13.35938 q 0.0781,2.90625 1.70313,4.703125 1.64062,1.796875 4.15625,1.796875 1.78125,0 3.01562,-0.71875 1.25,-0.734375 2.17188,-1.9375 l 2.0625,1.609375 q -2.48438,3.796875 -7.4375,3.796875 z M 416.23037,24.2396 q -2.03125,0 -3.42187,1.484375 -1.39063,1.484375 -1.71875,4.15625 h 9.89062 v -0.25 q -0.15625,-2.5625 -1.39062,-3.96875 -1.23438,-1.421875 -3.35938,-1.421875 z m 15.68213,17.3125 h -3.375 V 13.552102 h 3.375 z m 19.20581,-24.5 v 4.78125 h 3.6875 v 2.609375 h -3.6875 v 12.21875 q 0,1.1875 0.48438,1.78125 0.5,0.59375 1.6875,0.59375 0.57812,0 1.60937,-0.21875 V 41.5521 q -1.34375,0.359375 -2.59375,0.359375 -2.26562,0 -3.42187,-1.359375 -1.14063,-1.375 -1.14063,-3.890625 v -12.21875 h -3.59375 V 21.83335 h 3.59375 V 17.0521 Z m 19.80298,24.5 q -0.29687,-0.578125 -0.48437,-2.078125 -2.34375,2.4375 -5.60938,2.4375 -2.92187,0 -4.79687,-1.640625 -1.85938,-1.65625 -1.85938,-4.1875 0,-3.078125 2.34375,-4.78125 2.34375,-1.703125 6.59375,-1.703125 h 3.28125 V 28.0521 q 0,-1.78125 -1.0625,-2.828125 -1.0625,-1.046875 -3.10937,-1.046875 -1.8125,0 -3.03125,0.921875 -1.21875,0.90625 -1.21875,2.203125 h -3.39063 q 0,-1.484375 1.04688,-2.859375 1.04687,-1.375 2.84375,-2.171875 1.79687,-0.796875 3.9375,-0.796875 3.42187,0 5.34375,1.703125 1.9375,1.703125 2.01562,4.6875 v 9.078125 q 0,2.71875 0.6875,4.3125 V 41.5521 Z m -5.60937,-2.5625 q 1.59375,0 3.01562,-0.8125 1.42188,-0.828125 2.0625,-2.140625 V 31.9896 h -2.64062 q -6.20313,0 -6.20313,3.625 0,1.578125 1.04688,2.484375 1.0625,0.890625 2.71875,0.890625 z m 16.89819,-17.15625 0.0937,2.1875 q 2.17187,-2.546875 5.85937,-2.546875 4.125,0 5.62497,3.15625 0.98438,-1.421875 2.5625,-2.28125 1.57813,-0.875 3.71875,-0.875 6.5,0 6.60938,6.859375 V 41.5521 h -3.375 V 28.536475 q 0,-2.109375 -0.96875,-3.15625 -0.96875,-1.046875 -3.25,-1.046875 -1.875,0 -3.10938,1.125 -1.23437,1.109375 -1.4375,3 V 41.5521 h -3.39059 V 28.630225 q 0,-4.296875 -4.21875,-4.296875 -3.3125,0 -4.53125,2.8125 V 41.5521 h -3.375 V 21.83335 Z m 46.24801,10.078125 q 0,4.515625 -2.07813,7.265625 -2.07812,2.734375 -5.57812,2.734375 -3.73438,0 -5.78125,-2.640625 l -0.15625,2.28125 H 511.755 V 13.552102 h 3.37499 v 10.453123 q 2.04688,-2.53125 5.625,-2.53125 3.59375,0 5.64063,2.71875 2.0625,2.703125 2.0625,7.421875 z m -3.375,-0.390625 q 0,-3.4375 -1.32813,-5.3125 -1.32812,-1.875 -3.82812,-1.875 -3.34375,0 -4.79688,3.09375 v 8.53125 q 1.54688,3.09375 4.82813,3.09375 2.42187,0 3.76562,-1.875 1.35938,-1.875 1.35938,-5.65625 z m 6.72363,-0.01563 q 0,-2.890625 1.14062,-5.203125 1.14063,-2.328125 3.17188,-3.578125 2.03125,-1.25 4.64062,-1.25 4.03125,0 6.51563,2.78125 2.48437,2.78125 2.48437,7.421875 v 0.234375 q 0,2.875 -1.10937,5.171875 -1.09375,2.28125 -3.14063,3.5625 -2.04687,1.265625 -4.71875,1.265625 -4,0 -6.5,-2.78125 -2.48437,-2.796875 -2.48437,-7.390625 z m 3.39062,0.40625 q 0,3.28125 1.51563,5.265625 1.53125,1.984375 4.07812,1.984375 2.57813,0 4.07813,-2.015625 1.51562,-2.015625 1.51562,-5.640625 0,-3.234375 -1.54687,-5.25 -1.53125,-2.015625 -4.07813,-2.015625 -2.5,0 -4.03125,1.984375 -1.53125,1.984375 -1.53125,5.6875 z m 28.31995,-7.0625 q -0.76563,-0.125 -1.65625,-0.125 -3.3125,0 -4.5,2.828125 v 14 h -3.375 v -19.71875 h 3.28125 l 0.0625,2.28125 q 1.65625,-2.640625 4.70312,-2.640625 0.98438,0 1.48438,0.25 z"
     fill-rule="nonzero"
     id="path54"
     inkscape:label="texto_sentido_giro" />
</svg>
